<svg id="Layer_1" data-name="Layer 1" xmlns="http://www.w3.org/2000/svg" viewBox="0 0 45 39"><defs><style>.cls-1{fill:#d61f5f;}</style></defs><title>profile Icons</title><path class="cls-1" d="M36.52,13H34.4a1.13,1.13,0,0,1-.43.87,1.32,1.32,0,0,1-.87.23H11.76A1.12,1.12,0,0,1,10.61,13H8.48V11.89c.74-.33,1.47-.65,2.2-1l5.08-2.35C17.39,7.8,19,7.06,20.63,6.3c.57-.26,1.14-.54,1.71-.82h.32l1.49.72,3.53,1.63,4.31,2c1.09.51,2.18,1,3.28,1.53l1.25.55Z"/><path class="cls-1" d="M8.48,32.09a1.29,1.29,0,0,1,1.28-.77H35.24a1.29,1.29,0,0,1,1.28.77v1.43h-28Z"/><path class="cls-1" d="M16,28.08h2.14V15.19h3.29V28.08h2.07V15.19h3.29V28.08H29V15.19h3.27V28.1c.35,0,.66,0,1,0a1.12,1.12,0,0,1,1.18,1.18c0,.32,0,.65,0,1H10.6a9.24,9.24,0,0,1,.08-1.4,1,1,0,0,1,1-.77c.34,0,.68,0,1,0V15.19H16Z"/></svg>