<svg id="Layer_1" data-name="Layer 1" xmlns="http://www.w3.org/2000/svg" viewBox="0 0 45 39"><defs><style>.cls-1{fill:#d61f5f;}</style></defs><title>profile Icons</title><path class="cls-1" d="M8.86,16.27l0,.12a2.74,2.74,0,0,1-.39.09,1.31,1.31,0,0,0-1.18,1,50.42,50.42,0,0,0-2,5.47,10.5,10.5,0,0,0-.49,3.56.48.48,0,0,0,.2.34,3.77,3.77,0,0,0,3,.21c.64-.22.64-.22.67-.9,0-.09,0-.17,0-.26q.23-4,.44-8.08c0-.2.08-.27.27-.31l1.3-.29,1.23-.27c-.07.32-.17.51-.48.59-.58.15-1.13.36-1.78.57.4.14.73.27,1.05.37L22.29,22a.75.75,0,0,0,.42,0q2.85-.86,5.67-1.74c2.17-.67,4.34-1.31,6.48-2s4.27-1.51,6.4-2.28l1.21-.44a2.39,2.39,0,0,0-.31-.14C35.9,13,29.64,10.6,23.39,8.17a2.23,2.23,0,0,0-1.79,0C15.35,10.6,9.09,13,2.83,15.4l-.3.14.37.14L6.31,16.9c.5.18.43.22.63-.27a.54.54,0,0,1,.57-.39c.31,0,.63-.07.94-.07A1.17,1.17,0,0,1,8.86,16.27Zm1.69,3.49v.4c0,1.81,0,3.62,0,5.42A3.11,3.11,0,0,0,11.62,28a9.31,9.31,0,0,0,3.44,1.9A20.77,20.77,0,0,0,20.53,31a24.44,24.44,0,0,0,9.23-1,9.43,9.43,0,0,0,3.65-2,3.09,3.09,0,0,0,1-2.36c0-1.83,0-3.66,0-5.49v-.36l-.35.1L22.71,23.36a.74.74,0,0,1-.39,0L12.16,20.25Z"/></svg>