<svg id="Layer_1" data-name="Layer 1" xmlns="http://www.w3.org/2000/svg" viewBox="0 0 45 39"><defs><style>.cls-1{fill:#d61f5f;}</style></defs><title>profile Icons</title><path class="cls-1" d="M37,13.53a2.33,2.33,0,0,0-2.35-1.63H27.89v-.18c0-.51,0-1,0-1.53A2.8,2.8,0,0,0,26.7,7.78a4.58,4.58,0,0,0-2.43-.93l-.16,0H20.77c-.24,0-.49.07-.73.12a4,4,0,0,0-2.33,1.38,2.66,2.66,0,0,0-.6,1.71V11.9H10.58a2.69,2.69,0,0,0-2,.8,2.12,2.12,0,0,0-.63,1.24s0,.06,0,.08v3.9a34,34,0,0,0,3.18,1.63,34.17,34.17,0,0,0,6.46,2.2c.58.13,1.17.23,1.78.34a1.21,1.21,0,0,1,0-.2,7.27,7.27,0,0,1,0-1,1.18,1.18,0,0,1,1.17-1c1.3,0,2.6,0,3.9,0a1.23,1.23,0,0,1,1.2,1.22c0,.33,0,.67,0,1l.92-.15a30.64,30.64,0,0,0,8.31-3c.7-.35,1.37-.73,2.06-1.1l.14-.07V14C37.05,13.84,37,13.68,37,13.53ZM26.32,11.78a.38.38,0,0,1,0,.1H18.68V10.19a1.49,1.49,0,0,1,1.24-1.64,4.56,4.56,0,0,1,1.27-.16H24a3.36,3.36,0,0,1,1.55.36,1.4,1.4,0,0,1,.78,1,1.22,1.22,0,0,1,0,.26Z"/><path class="cls-1" d="M35.81,20.17a32.27,32.27,0,0,1-10.15,3.49v.6a1.25,1.25,0,0,1-1.23,1.26c-1.28,0-2.57,0-3.85,0a1.25,1.25,0,0,1-1.23-1.26,3.84,3.84,0,0,1,0-.48c0-.1,0-.13-.13-.14a24.45,24.45,0,0,1-3.7-.83,42.13,42.13,0,0,1-4.17-1.6c-.67-.29-1.37-.53-2-.8l-.11,0v.18c0,3.37,0,6.73,0,10.1A1.5,1.5,0,0,0,9.76,32a2.12,2.12,0,0,0,.48.23H34.67a1.43,1.43,0,0,0,.78-.49,1.46,1.46,0,0,0,.37-1c0-3.47,0-6.93,0-10.4Z"/><path class="cls-1" d="M24.07,21.09H20.92v3.16h3.15Z"/></svg>