<svg id="Layer_1" data-name="Layer 1" xmlns="http://www.w3.org/2000/svg" viewBox="0 0 45 39">
    <defs>
        <style>.cls-1{fill:#fff;}</style>
    </defs>
    <title>profile Icons</title>
    <path class="cls-1" d="M22.5,7.53a8.13,8.13,0,0,0-8.12,8.13c0,1.8,1.06,4.53,3.33,8.61,1.55,2.78,3.1,5.13,3.16,5.23L22,31.19a.6.6,0,0,0,1,0l1.12-1.69c.06-.1,1.59-2.43,3.16-5.23,2.27-4.08,3.33-6.81,3.33-8.61A8.13,8.13,0,0,0,22.5,7.53Zm3.73,16.15c-1.55,2.76-3.06,5.05-3.12,5.15l-.61.92-.61-.92c-.06-.1-1.58-2.41-3.12-5.15-2.11-3.79-3.18-6.48-3.18-8a6.91,6.91,0,1,1,13.82,0C29.41,17.2,28.34,19.89,26.23,23.68Z"/>
    <path class="cls-1" d="M22.5,11.1A4.51,4.51,0,1,0,27,15.6,4.51,4.51,0,0,0,22.5,11.1Zm0,7.79a3.29,3.29,0,1,1,3.29-3.29A3.29,3.29,0,0,1,22.5,18.89Z"/>
</svg>