<?xml version="1.0" encoding="iso-8859-1"?>
<!-- Generator: Adobe Illustrator 24.0.2, SVG Export Plug-In . SVG Version: 6.00 Build 0)  -->
<svg version="1.1" id="Layer_1" xmlns="http://www.w3.org/2000/svg" xmlns:xlink="http://www.w3.org/1999/xlink" x="0px" y="0px"
	 viewBox="0 0 120 120" style="enable-background:new 0 0 120 120;" xml:space="preserve">
<g>
	<circle style="fill:#D61F5F;stroke:#FFFFFF;stroke-width:2;stroke-miterlimit:10;" cx="60" cy="60" r="58"/>
	<g>
		<path style="fill:#FFFFFF;" d="M60.079,21.73c18.367,0.011,34.359,13.24,37.596,31.232c1.703,9.466,0.107,18.406-4.832,26.697
			C92.277,80.61,92,81.49,92.167,82.651c0.496,3.45,0.834,6.923,1.213,10.389c0.226,2.061-0.059,2.372-2.09,2.068
			c-3.639-0.544-7.262-1.196-10.905-1.704c-0.75-0.104-1.66,0.039-2.33,0.387c-21.343,11.119-47.01,0.712-54.569-22.157
			c-5.075-15.354,0.748-33.048,13.938-42.527C44.206,24.235,51.71,21.676,60.079,21.73z M91.254,92.987
			c-0.316-2.766-0.62-5.211-0.868-7.662c-0.244-2.415-0.682-4.674,0.814-7.106c4.707-7.654,6.01-16.071,4.412-24.884
			C92.642,36.952,78.109,24.263,61.1,23.767c-15.666-0.457-30.817,9.808-35.448,24.808c-4.295,13.913-1.385,26.33,8.708,36.908
			c10.487,10.99,28.248,13.967,41.688,6.935c2.095-1.096,3.992-1.342,6.228-0.876C85.152,92.14,88.08,92.489,91.254,92.987z"/>
		<path style="fill:#FFFFFF;" d="M32.965,53.963c0.497-7.646,4.092-13.06,9.672-17.28c4.227-3.197,8.985-5.084,14.342-5.265
			c0.75-0.025,1.723-0.274,1.804,0.87c0.087,1.237-0.945,1.117-1.754,1.153c-9.472,0.432-18.675,7.351-21.256,16.071
			c-0.393,1.329-0.371,2.777-0.709,4.127c-0.131,0.521-0.731,0.924-1.118,1.381C33.548,54.59,33.148,54.16,32.965,53.963z"/>
		<path style="fill:#FFFFFF;" d="M32.786,60.764c0.375-0.345,0.805-0.74,1.234-1.135c0.343,0.436,0.857,0.824,0.995,1.317
			c0.325,1.159,0.565,2.361,0.644,3.559c0.032,0.48-0.451,0.993-0.699,1.492c-0.417-0.313-1.078-0.548-1.206-0.952
			C33.348,63.763,33.141,62.417,32.786,60.764z"/>
	</g>
</g>
</svg>
