<svg id="Layer_1" data-name="Layer 1" xmlns="http://www.w3.org/2000/svg" viewBox="0 0 118 118"><defs><style>.cls-1{fill:#d61f5f;stroke:#fff;stroke-miterlimit:10;stroke-width:2px;}.cls-2{fill:#fff;fill-rule:evenodd;}</style></defs><title>PP</title><circle class="cls-1" cx="59" cy="59" r="58"/><path class="cls-2" d="M415.8947,200.2926c3.8085.1065,6.8524-3.973,8.186-7.0525.62-1.4327.3058-.5491.8294-1.1817a4.2086,4.2086,0,0,0,.7088-1.3862,5.6119,5.6119,0,0,0,.0815-3.4583c-.3387-.7543-.3973.1585-.3867-1.6244.0333-5.73-3.6722-9.3853-9.219-9.3853h-.4c-5.5467,0-9.2523,3.6548-9.2186,9.3853.01,1.7829-.0482.87-.3874,1.6244a5.6214,5.6214,0,0,0,.0816,3.4583,4.2262,4.2262,0,0,0,.7091,1.3862c.5239.6326.209-.251.83,1.1817,1.3335,3.0795,4.3768,7.159,8.1852,7.0525Zm7.0381-.6162c4.602,1.4712,11.6516,2.9976,11.6516,8.7377v5.315a23.7637,23.7637,0,0,1-37.3578.0007v-5.3157c0-5.75,7.0433-7.2559,11.6518-8.7161a9.2288,9.2288,0,0,0,14.0544-.0216Z" transform="translate(-356.9787 -133.4894)"/><path class="cls-2" d="M415.9053,172.5461a26.4949,26.4949,0,1,1-26.4947,26.4951,26.4947,26.4947,0,0,1,26.4947-26.4951Zm-20.066-1.0584v-3.7949c0-18.22,22.4084-27.7749,35.1607-14.6928,3.6521,3.7468,5.1607,9.0014,5.1607,14.6928v9.1737A30.0371,30.0371,0,0,1,445,198.2494C445,214.68,432.0159,228,416,228s-29-13.32-29-29.7506a30.16,30.16,0,0,1,4.6685-16.1915C396.8339,173.9062,406.5051,169,416,169c4.9,0,12.9532,2.7984,17,5,.0815-5.2908,1.0249-12.6334-3-18-3-4-10.6566-6-14-6-6,0-16.2373,7.6242-17,15Z" transform="translate(-356.9787 -133.4894)"/></svg>