<svg id="Layer_1" data-name="Layer 1" xmlns="http://www.w3.org/2000/svg" viewBox="0 0 118 118"><defs><style>.cls-1,.cls-4{fill:#d61f5f;}.cls-1{stroke:#fff;stroke-width:2px;}.cls-1,.cls-3{stroke-miterlimit:10;}.cls-2,.cls-3,.cls-5{fill:#fff;}.cls-2{fill-rule:evenodd;}.cls-3{stroke:#d61f5f;}</style></defs><title>PP2</title><circle class="cls-1" cx="59" cy="59" r="58"/><path class="cls-2" d="M415.9053,172.5461a26.4949,26.4949,0,1,1-26.4947,26.4951,26.4947,26.4947,0,0,1,26.4947-26.4951Zm-20.066-1.0584v-3.7949c0-18.22,22.4084-27.7749,35.1607-14.6928,3.6521,3.7468,5.1607,9.0014,5.1607,14.6928v9.1737A30.0371,30.0371,0,0,1,445,198.2494C445,214.68,432.0159,228,416,228s-29-13.32-29-29.7506a30.16,30.16,0,0,1,4.6685-16.1915C396.8339,173.9062,406.5051,169,416,169c4.9,0,12.9532,2.7984,17,5,.0815-5.2908,1.0249-12.6334-3-18-3-4-10.6566-6-14-6-6,0-16.2373,7.6242-17,15Z" transform="translate(-356.9787 -133.4894)"/><rect class="cls-3" x="46.0534" y="53.7033" width="26.0591" height="16.2713" rx="5.3768"/><circle class="cls-4" cx="59.0985" cy="63.8545" r="4.6133"/><circle class="cls-5" cx="59.0985" cy="63.8545" r="4.0834"/><rect class="cls-4" x="48.3133" y="54.5605" width="4.0523" height="0.9663"/><rect class="cls-5" x="64.39" y="53.472" width="3.5223" height="0.9975" rx="0.3296"/><path class="cls-4" d="M414.55,194.79a3.8426,3.8426,0,0,0-2.2443,3.7717A5.8468,5.8468,0,0,1,414.55,194.79Z" transform="translate(-356.9787 -133.4894)"/><path class="cls-5" d="M403.3906,187.8628a13.187,13.187,0,0,0-7.2668,3.4679,9.3346,9.3346,0,0,0-2.1884,3.5323,10.3691,10.3691,0,0,0-.5,2.1306,22.4383,22.4383,0,0,0-.084,3.1743,9.6231,9.6231,0,0,0,.979,4.1945,5.3648,5.3648,0,0,0,1.3083,1.7457,5.6309,5.6309,0,0,0,1.929.9577c.7.2219,1.4171.39,2.1.6627a9.1871,9.1871,0,0,1,1.93,1.1087,15.9018,15.9018,0,0,0,3.7941,2.3681c3.0825,1.1014,6.4189.3142,9.4332-.6139,1.6238-.5,3.235-1.05,4.8968-1.4145a25.0281,25.0281,0,0,1,5.09-.5769,33.1177,33.1177,0,0,1,5.17.4545,10.5449,10.5449,0,0,0,4.7606-.1035,4.8484,4.8484,0,0,0,1.8552-1.0653,5.7843,5.7843,0,0,0,1.241-1.7773,13.4678,13.4678,0,0,0,1.0847-4.67c.08-1.0466.0789-2.0974.0764-3.1463-.0022-.9583-.0234-1.9154-.0724-2.8724a10.875,10.875,0,0,0-.785-4.3079,5.8173,5.8173,0,0,0-3.3256-2.6581,17.047,17.047,0,0,0-4.2608-.96,20.1772,20.1772,0,0,0-2.0409-.13c-.0072,0-.0208,1.87,0,1.87a21.0246,21.0246,0,0,1,4.1679.4729,11.0121,11.0121,0,0,1,3.8557,1.4835,4.6684,4.6684,0,0,1,1.4539,1.5129,6.122,6.122,0,0,1,.6851,1.9668,16.7918,16.7918,0,0,1,.2222,2.1359c.0228.4038.043.8078.0583,1.212.0078.2059.0146.4119.0193.6179.0019.0838.0026.1676.0047.2514.0041.1669.0068-.882-.0008-.5679a17.1365,17.1365,0,0,1-.7125,4.8072,6.0745,6.0745,0,0,1-2.3222,3.3957,6.93,6.93,0,0,1-4.1755.8632c-1.6662-.1019-3.3014-.4817-4.9676-.5974a25.0536,25.0536,0,0,0-4.9519.1478,29.4948,29.4948,0,0,0-4.8559,1.1062c-2.9977.9191-6.0415,2.0464-9.2314,1.7874a8.7684,8.7684,0,0,1-4.14-1.3875,31.5634,31.5634,0,0,0-3.5582-2.41c-1.2649-.6021-2.7218-.7217-3.9331-1.4465a5.9368,5.9368,0,0,1-2.3407-3.4175,9.4285,9.4285,0,0,1-.4031-2.0638q-.0117-.1437-.0191-.2879c-.0019-.0358-.0034-.0715-.0049-.1073-.01-.2377-.0036-.57-.0041.5077l0,.6151.0022-.0717c.0019-.0478.0036-.0956.0059-.1434q.0079-.1624.0211-.3246a10.3245,10.3245,0,0,1,.1389-1.032,9.96,9.96,0,0,1,1.5611-3.8249,11.69,11.69,0,0,1,6.4439-4.29,15.124,15.124,0,0,1,1.8567-.4119,8.9279,8.9279,0,0,0,.0093-.9352c0-.07-.025-.9326-.0093-.9351Z" transform="translate(-356.9787 -133.4894)"/><rect class="cls-4" x="47.0213" y="56.5106" width="25" height="0.7385"/></svg>