<svg id="Layer_1" data-name="Layer 1" xmlns="http://www.w3.org/2000/svg" viewBox="0 0 118 118"><defs><style>.cls-1{fill:#d61f5f;stroke:#fff;stroke-miterlimit:10;stroke-width:2px;}.cls-2{fill:#fff;fill-rule:evenodd;}</style></defs><title>PP3</title><circle class="cls-1" cx="59" cy="59" r="58"/><path class="cls-2" d="M415.9053,172.5461a26.4949,26.4949,0,1,1-26.4947,26.4951,26.4947,26.4947,0,0,1,26.4947-26.4951Zm-20.066-1.0584v-3.7949c0-18.22,22.4084-27.7749,35.1607-14.6928,3.6521,3.7468,5.1607,9.0014,5.1607,14.6928v9.1737A30.0371,30.0371,0,0,1,445,198.2494C445,214.68,432.0159,228,416,228s-29-13.32-29-29.7506a30.16,30.16,0,0,1,4.6685-16.1915C396.8339,173.9062,406.5051,169,416,169c4.9,0,12.9532,2.7984,17,5,.0815-5.2908,1.0249-12.6334-3-18-3-4-10.6566-6-14-6-6,0-16.2373,7.6242-17,15Z" transform="translate(-356.9787 -133.4894)"/><path class="cls-2" d="M415.7977,198.64c3.8085.1065,6.8524-3.9731,8.186-7.0525.62-1.4328.3058-.5491.8294-1.1818a4.2066,4.2066,0,0,0,.7088-1.3862,5.6118,5.6118,0,0,0,.0815-3.4583c-.3387-.7543-.3973.1585-.3867-1.6244.0333-5.73-3.6722-9.3853-9.219-9.3853h-.4c-5.5467,0-9.2523,3.6549-9.2186,9.3853.01,1.7829-.0482.87-.3874,1.6244a5.6214,5.6214,0,0,0,.0816,3.4583,4.2242,4.2242,0,0,0,.7091,1.3862c.5239.6327.2089-.251.83,1.1818,1.3334,3.0794,4.3768,7.159,8.1852,7.0525Zm7.0381-.6162c4.602,1.4711,11.6516,2.9975,11.6516,8.7376v5.315a23.7635,23.7635,0,0,1-37.3578.0007v-5.3157c0-5.75,7.0433-7.2558,11.6517-8.716a9.2289,9.2289,0,0,0,14.0545-.0216Zm-1.5045,2.9447c3.8189,1.1287,9.6687,2.3,9.6687,6.7033V211.75a20.7379,20.7379,0,0,1-31,.0005v-4.0781c0-4.4115,5.8446-5.5665,9.6688-6.6867a8.0717,8.0717,0,0,0,11.6625-.0166Zm-5.8016-4.1969c3.2109.0919,5.7772-3.426,6.9015-6.0815.523-1.2355.2578-.4735.6992-1.019a3.6574,3.6574,0,0,0,.5976-1.1954,4.9445,4.9445,0,0,0,.0688-2.9821c-.2856-.65-.335.1366-.326-1.4008.028-4.9415-3.096-8.0931-7.7725-8.0931h-.337c-4.6763,0-7.8005,3.1516-7.7721,8.0931.0088,1.5374-.0406.75-.3266,1.4008a4.9522,4.9522,0,0,0,.0688,2.9821,3.6754,3.6754,0,0,0,.5978,1.1954c.4417.5455.1762-.2165.7,1.019,1.1242,2.6555,3.69,6.1734,6.9009,6.0815Z" transform="translate(-356.9787 -133.4894)"/></svg>