<svg id="Layer_1" data-name="Layer 1" xmlns="http://www.w3.org/2000/svg" viewBox="0 0 118 118"><defs><style>.cls-1{fill:#d61f5f;stroke:#fff;stroke-miterlimit:10;stroke-width:2px;}.cls-2,.cls-3{fill:#fff;}.cls-2{fill-rule:evenodd;}</style></defs><title>PP4</title><circle class="cls-1" cx="59" cy="59" r="58"/><path class="cls-2" d="M412.7977,191.64c3.8085.1065,6.8524-3.9731,8.186-7.0525.62-1.4328.3058-.5491.8294-1.1818a4.2066,4.2066,0,0,0,.7088-1.3862,5.6118,5.6118,0,0,0,.0815-3.4583c-.3387-.7543-.3973.1585-.3867-1.6244.0333-5.73-3.6722-9.3853-9.219-9.3853h-.4c-5.5467,0-9.2523,3.6549-9.2186,9.3853.01,1.7829-.0482.87-.3874,1.6244a5.6214,5.6214,0,0,0,.0816,3.4583,4.2242,4.2242,0,0,0,.7091,1.3862c.5239.6327.2089-.251.83,1.1818,1.3334,3.0794,4.3768,7.159,8.1852,7.0525Zm7.0381-.6162c4.602,1.4711,11.6516,2.9975,11.6516,8.7376v5.315a23.7635,23.7635,0,0,1-37.3578.0007v-5.3157c0-5.75,7.0433-7.2558,11.6517-8.716a9.2289,9.2289,0,0,0,14.0545-.0216Zm-1.5045,2.9447c3.8189,1.1287,9.6687,2.3,9.6687,6.7033V204.75a20.7379,20.7379,0,0,1-31,.0005v-4.0781c0-4.4115,5.8446-5.5665,9.6688-6.6867a8.0717,8.0717,0,0,0,11.6625-.0166Zm-5.8016-4.1969c3.2109.0919,5.7772-3.426,6.9015-6.0815.523-1.2355.2578-.4735.6992-1.019a3.6574,3.6574,0,0,0,.5976-1.1954,4.9445,4.9445,0,0,0,.0688-2.9821c-.2856-.65-.335.1366-.326-1.4008.028-4.9415-3.096-8.0931-7.7725-8.0931h-.337c-4.6763,0-7.8005,3.1516-7.7721,8.0931.0088,1.5374-.0406.75-.3266,1.4008a4.9522,4.9522,0,0,0,.0688,2.9821,3.6754,3.6754,0,0,0,.5978,1.1954c.4417.5455.1762-.2165.7,1.019,1.1242,2.6555,3.69,6.1734,6.9009,6.0815Z" transform="translate(-356.9787 -133.4894)"/><path class="cls-3" d="M447.8435,170.526a5.04,5.04,0,0,0-4.9781-5.0965H383.8713a5.04,5.04,0,0,0-4.9781,5.0965v39.3206a5.04,5.04,0,0,0,4.9781,5.0965h53.1172V209.298a1.6833,1.6833,0,0,1,1.6766-1.6988h1.3137v-4.3178a9.7039,9.7039,0,0,1,7.8647-9.5913Zm-4.9781-8.4941a8.3993,8.3993,0,0,1,8.2968,8.4941V193.69a9.7039,9.7039,0,0,1,7.8648,9.5913v4.3178h1.3136A1.68,1.68,0,0,1,462,209.298v15.1655a1.68,1.68,0,0,1-1.6594,1.6988H438.6651a1.6833,1.6833,0,0,1-1.6766-1.6988v-6.1228H383.8713a8.3994,8.3994,0,0,1-8.2968-8.4941V170.526a8.3993,8.3993,0,0,1,8.2968-8.4941ZM457.35,210.9968H440.3245v11.7679h18.3568V210.9968Zm-14.0528-3.3976h12.3934v-4.3178a6.1982,6.1982,0,1,0-12.3934,0Z" transform="translate(-356.9787 -133.4894)"/></svg>