<svg id="Layer_1" data-name="Layer 1" xmlns="http://www.w3.org/2000/svg" viewBox="0 0 120 120"><defs><style>.cls-1{fill:#d61f5f;stroke:#fff;stroke-miterlimit:10;stroke-width:2px;}.cls-2{fill:#fff;}</style></defs><title>Profile_view</title><circle class="cls-1" cx="60" cy="60" r="59"/><path class="cls-2" d="M60.94,25.603A33.3952,33.3952,0,1,1,27.52,58.9662,33.4471,33.4471,0,0,1,60.94,25.603ZM82.6245,80.3217a30.4484,30.4484,0,1,0-44.9212-41.055C26.57,52.241,29.07,70.5586,39.1419,80.2178c1.2374-.6279,2.4108-1.3412,3.67-1.8381,2.2838-.901,4.6323-1.6351,6.9241-2.517a16.458,16.458,0,0,0,2.7567-1.44,6.2051,6.2051,0,0,0,1.09-1.2246c-.7485-.099-1.259-.1294-1.7518-.238-1.8733-.413-3.7632-.7725-5.6021-1.3077a3.6742,3.6742,0,0,1-2.5378-2.28,2.05,2.05,0,0,1,.1374-1.9115,5.1409,5.1409,0,0,0,.8531-1.9427c.246-2.0937.4058-4.2026.4889-6.31.1821-4.6243.2388-9.2582,1.6072-13.74,1.2006-3.931,3.3039-7.1957,7.04-9.15,3.0035-1.5721,6.2387-2.5243,9.5842-1.65,2.1639.5656,4.3463,1.1487,6.4775,1.8373,3.3,1.0672,4.9822,3.7009,5.9216,6.8762a37.3687,37.3687,0,0,1,1.1687,10.5691c.01,2.9436-.0487,5.888.0176,8.83.0375,1.6687.0295,3.3814,1.1375,4.8312a1.5822,1.5822,0,0,1,.1454.9994,2.8345,2.8345,0,0,1-1.3924,2.0561,11.8145,11.8145,0,0,1-4.5859,1.8181c-1.3149.2684-2.6417.4777-3.9638.7133-.0407.0783-.0814.1574-.1222.2357a11.7825,11.7825,0,0,0,1.82,1.4674A25.3136,25.3136,0,0,0,73.4094,76.34C76.5775,77.4619,79.847,78.3358,82.6245,80.3217ZM41.2971,82.2c10.8822,9.7087,28.5767,9.5745,39.0667.1326a7.3618,7.3618,0,0,0-.9082-.5224c-2.0306-.814-4.0564-1.6432-6.1085-2.4013-2.1041-.7772-4.2745-1.4035-6.0654-2.8382a4.72,4.72,0,0,1-2.04-4.3623A1.6121,1.6121,0,0,1,66.7992,70.53c2.1256-.3866,4.2481-.7988,6.353-1.2829a10.8717,10.8717,0,0,0,1.9339-.8331,13.0231,13.0231,0,0,1-.69-2.446c-.1781-2.3964-.26-4.8017-.34-7.2045-.1182-3.5811-.1206-7.1677-.3323-10.7432a14.1158,14.1158,0,0,0-1.8413-6.4193,5.3874,5.3874,0,0,0-4.7976-2.8462,4.268,4.268,0,0,1-2.6385-.7261,3.9619,3.9619,0,0,0-1.4938-.5432,11.3924,11.3924,0,0,0-12.4247,6.4488,22.7029,22.7029,0,0,0-1.763,6.2084c-.4425,3.6833-.4785,7.4138-.7349,11.1211-.17,2.4571.0511,5.0109-1.6967,7.2932a15.5112,15.5112,0,0,0,2.31.8611c2.1472.4281,4.312.7628,6.472,1.1247.8962.15,1.4.6127,1.433,1.4467a4.5363,4.5363,0,0,1-1.3076,3.8183,14.9617,14.9617,0,0,1-3.27,2.2518c-1.5576.7461-3.2519,1.2014-4.8711,1.8245C45.1913,80.6188,43.2989,81.3985,41.2971,82.2Z" transform="translate(0)"/><path class="cls-2" d="M109.7658,105.5026c-.1071,4.0364-1.4387,6.3841-4.2489,7.72-2.851,1.3555-5.7707,1.2277-8.1-.9115-4.1434-3.8063-8.1119-7.81-12.0349-11.8464a6.3563,6.3563,0,0,1-1.4746-6.32c.4593-1.6056-.119-2.4044-1.0664-3.46a4.1076,4.1076,0,0,1-1.0984-2.7264,2.301,2.301,0,0,1,4.0172-1.235c1.4738,1.5753,2.8734,1.7031,4.9327,1.52a7.9085,7.9085,0,0,1,5.412,1.65c4.1546,3.68,8.0456,7.6766,11.8192,11.7546C109.0308,102.8426,109.4063,104.7142,109.7658,105.5026ZM102.205,109.23c.8212-.7429,1.96-1.2869,2.0761-1.9986a3.9461,3.9461,0,0,0-.8491-2.9676c-3.2193-3.4277-6.5958-6.7093-9.94-10.0187-1.4338-1.4195-2.9588-1.5425-4.0164-.3116-1.2062,1.4043-.774,2.71.4178,3.8958,3.3358,3.3183,6.6557,6.6526,10.0267,9.9349A14.5122,14.5122,0,0,0,102.205,109.23Z" transform="translate(0)"/></svg>