<?xml version="1.0" encoding="iso-8859-1"?>
<!-- Generator: Adobe Illustrator 24.0.2, SVG Export Plug-In . SVG Version: 6.00 Build 0)  -->
<svg version="1.1" id="Layer_1" xmlns="http://www.w3.org/2000/svg" xmlns:xlink="http://www.w3.org/1999/xlink" x="0px" y="0px"
	 viewBox="0 0 120 120" style="enable-background:new 0 0 120 120;" xml:space="preserve">
<g>
	<circle style="fill:#D61F5F;" cx="60" cy="60" r="58"/>
	<g>
		<path style="fill:#FFFFFF;" d="M59.981,36.391c3.29-3.207,6.938-5.733,11.132-7.353c5.773-2.23,11.519-1.952,17.011,0.892
			c7.769,4.024,11.516,10.638,11.855,19.264c0.189,4.814-1.293,9.247-3.36,13.516c-3.105,6.41-7.576,11.813-12.517,16.853
			c-6.791,6.925-14.298,12.985-22.392,18.325c-1.183,0.781-2.281,0.762-3.453-0.018C48.174,91.161,38.934,83.485,31.05,74.252
			c-2.699-3.161-5.11-6.538-7.031-10.235c-2.204-4.241-3.909-8.66-4.008-13.514c-0.163-8,2.727-14.642,9.45-19.155
			c7.019-4.712,14.47-5.015,22.015-1.128C54.601,31.83,57.469,33.827,59.981,36.391z M60.005,40.366
			c-0.305-0.368-0.538-0.653-0.777-0.934c-2.601-3.063-5.838-5.302-9.375-7.124c-4.671-2.407-9.57-2.819-14.509-1.092
			c-7.776,2.718-12.422,9.49-12.757,17.636c-0.189,4.602,1.145,8.878,3.201,12.947c2.611,5.167,6.103,9.702,10.045,13.909
			c7.103,7.58,15.079,14.118,23.703,19.885c0.338,0.226,0.564,0.242,0.914,0.007c9.327-6.253,17.931-13.357,25.405-21.763
			c3.745-4.212,7.019-8.77,9.252-13.988c1.981-4.632,2.974-9.419,1.865-14.454c-1.517-6.89-5.561-11.706-12.18-14.108
			c-5.154-1.87-10.26-1.377-15.116,1.256C65.998,34.536,62.645,36.936,60.005,40.366z"/>
		<path style="fill:#FFFFFF;" d="M29.254,47.159c-0.59,3.157,0.034,6.167,1.143,9.113c0.166,0.441,0.372,0.869,0.516,1.317
			c0.219,0.682-0.086,1.331-0.713,1.6c-0.629,0.269-1.362,0.062-1.647-0.592c-1.931-4.427-2.981-8.97-1.357-13.729
			c0.508-1.487,1.263-2.898,1.998-4.295c0.199-0.378,0.737-0.578,1.215-0.93c0.421,0.329,0.932,0.531,1.043,0.865
			c0.142,0.428,0.127,1.068-0.106,1.434"/>
	</g>
	<polygon style="fill:#D61F5F;stroke:#FFFFFF;stroke-width:2;stroke-miterlimit:10;" points="93.022,67.022 74.637,66.99 
		81.343,73.719 67.531,87.484 72.472,92.442 86.285,78.678 92.99,85.407 	"/>
</g>
</svg>
