<svg id="Layer_1" data-name="Layer 1" xmlns="http://www.w3.org/2000/svg" viewBox="0 0 42 30"><defs><style>.cls-1{fill:#1976d2;}.cls-2{fill:#fff;}</style></defs><title>American_Express</title><g id="surface1"><path class="cls-1" d="M45,35a3.9977,3.9977,0,0,1-4,4H7a3.9977,3.9977,0,0,1-4-4V13A3.9977,3.9977,0,0,1,7,9H41a3.9977,3.9977,0,0,1,4,4Z" transform="translate(-3 -9)"/><path class="cls-2" d="M22.2539,20l-2.1133,4.6836L18.0391,20H15.3438v6.7266L12.34,20H10.0664L7,26.9805H8.8164l.668-1.5586H12.918l.6836,1.5586h3.4648V21.7969l2.2969,5.1836h1.5625l2.3515-5.0938v5.0938H25V20ZM10.1367,23.9141,11.16,21.4766l1.0664,2.4375Z" transform="translate(-3 -9)"/><path class="cls-2" d="M37.8828,23.4141,41,20.02H38.7813l-1.9922,2.1641L34.8594,20H28v6.98h6.6367l2.09-2.3086L38.7656,27h2.211Zm-4.1562,2.1015H29.7188V24.1367h3.8359V22.8125H29.7188V21.5039l4.23.0117,1.6953,1.8985Z" transform="translate(-3 -9)"/></g></svg>