<svg id="Layer_1" data-name="Layer 1" xmlns="http://www.w3.org/2000/svg" viewBox="0 0 42 30"><defs><style>.cls-1{fill:#cfd8dc;}.cls-2{fill:#1565c0;}.cls-3{fill:#fff;}</style></defs><title>Diners_Club</title><g id="surface1"><path class="cls-1" d="M45,35a4.0128,4.0128,0,0,1-4,4H7a4.0128,4.0128,0,0,1-4-4V13A4.0128,4.0128,0,0,1,7,9H41a4.0128,4.0128,0,0,1,4,4Z" transform="translate(-3 -9)"/><path class="cls-2" d="M29,16H19a8,8,0,0,0,0,16H29a8,8,0,0,0,0-16Z" transform="translate(-3 -9)"/><path class="cls-3" d="M19,18a6,6,0,1,0,6,6A6.0166,6.0166,0,0,0,19,18Zm-4,6a4.0792,4.0792,0,0,1,3-3.8984v7.6992A3.88,3.88,0,0,1,15,24Zm5,3.8984V20.1992a3.9939,3.9939,0,0,1,3,3.9024A4.0527,4.0527,0,0,1,20,27.8984Z" transform="translate(-3 -9)"/></g></svg>