<svg id="Layer_1" data-name="Layer 1" xmlns="http://www.w3.org/2000/svg" viewBox="0 0 42 30"><defs><style>.cls-1{fill:#e1e7ea;}.cls-2{fill:#ff6d00;}</style></defs><title>Discover</title><g id="surface1"><path class="cls-1" d="M45,35a4.0128,4.0128,0,0,1-4,4H7a4.0128,4.0128,0,0,1-4-4V13A4.0128,4.0128,0,0,1,7,9H41a4.0128,4.0128,0,0,1,4,4Z" transform="translate(-3 -9)"/><path class="cls-2" d="M45,35a4.0128,4.0128,0,0,1-4,4H16s23.6016-3.8008,29-15ZM22,24a3,3,0,1,0,3-3A2.9474,2.9474,0,0,0,22,24Z" transform="translate(-3 -9)"/><path d="M11.1992,21h1.1016v6H11.1992Zm6,3a2.9474,2.9474,0,0,0,3,3,3.5556,3.5556,0,0,0,1.4024-.3008V25.3984A1.8151,1.8151,0,0,1,20.1992,26a1.866,1.866,0,0,1-1.8984-2,1.9219,1.9219,0,0,1,1.8984-2,2.1564,2.1564,0,0,1,1.4024.6016V21.3008a3.7387,3.7387,0,0,0-1.4024-.4024A3.1651,3.1651,0,0,0,17.1992,24Zm13.4024.8984L29,21H27.8008l2.5,6h.5976l2.5-6H32.1992ZM33.8984,27h3.2032V26H35V24.3984h2v-1H35V22h2.1016V21H33.8984ZM41.5,22.8008c0-1.1016-.6992-1.8008-2-1.8008H37.8008v6h1.0976V24.6016H39L40.6016,27H42l-1.8008-2.5A1.6371,1.6371,0,0,0,41.5,22.8008Zm-2.3008,1h-.3008V22h.3008c.6992,0,1.1016.3008,1.1016.8984C40.3008,23.3984,40,23.8008,39.1992,23.8008ZM7.6992,21H6v6H7.6016a2.9713,2.9713,0,0,0,3.0976-3A2.7821,2.7821,0,0,0,7.6992,21Zm-.3008,5H7.1016V22H7.5a2.006,2.006,0,1,1-.1016,4Zm7.9024-2.6992c-.6992-.3008-.9024-.4024-.9024-.6992,0-.4024.4024-.6016.8008-.6016a1.0658,1.0658,0,0,1,.9024.5l.5976-.8008A2.192,2.192,0,0,0,15,21a1.71,1.71,0,0,0-1.8008,1.6992c0,.8008.4024,1.1992,1.4024,1.6016.5976.1992,1.0976.3984,1.0976.8984A.816.816,0,0,1,14.8008,26a1.2983,1.2983,0,0,1-1.1992-.8008l-.7032.6992a2.112,2.112,0,0,0,2,1.1016,1.8639,1.8639,0,0,0,2-1.8984C16.8984,24.1992,16.5,23.8008,15.3008,23.3008Z" transform="translate(-3 -9)"/></g></svg>