<svg id="Layer_1" data-name="Layer 1" xmlns="http://www.w3.org/2000/svg" xmlns:xlink="http://www.w3.org/1999/xlink" viewBox="0 0 636.904 636.904"><defs><style>.cls-1{fill:url(#linear-gradient);}.cls-2{fill:#fff;}.cls-3{fill:#282929;}</style><linearGradient id="linear-gradient" x1="318.452" x2="318.452" y2="636.904" gradientUnits="userSpaceOnUse"><stop offset="0" stop-color="#b72051"/><stop offset="0.6704" stop-color="#e61f5f"/></linearGradient></defs><title>Gila_Final_Logo_form</title><circle class="cls-1" cx="318.452" cy="318.452" r="318.452"/><path class="cls-2" d="M7143.867,7033.6712c.9961-3.2073,2.0259-6.5237,2.9658-9.7633,1.4379-4.9565-.4216-9.4483-4.6272-11.1774a8.4284,8.4284,0,0,0-3.2136-.6576c-3.1787,0-6.0918,1.9664-7.7925,5.26-.379.7341-.756,1.4693-1.1743,2.2847l-.6633,1.2928-2.7212,5.2984-5.7134-1.6839c-19.2993-5.6881-33.9234-16.11-44.7078-31.8627l-3.3285-4.8618,4.11-4.2219c10.49-10.7761,15.4981-23.8406,15.3092-39.94a8.1739,8.1739,0,0,0-7.9529-8.1042c-.13-.0058-.2611-.0088-.3909-.0088h0a8.3255,8.3255,0,0,0-8.2324,7.2262c-.137.93-.2265,1.9425-.3213,3.0148-.1351,1.5272-.2748,3.1064-.572,4.7907-.3582,2.0287-.847,3.9363-1.4129,6.145-.2589,1.0106-.5408,2.11-.8411,3.3447l-5.2659,21.6518-8.391-20.6427c-.8583-2.1114-1.65-4.0723-2.4-5.9306-1.5436-3.8235-2.8767-7.1256-4.2621-10.4341-1.9351-4.6211-5.04-7.2715-8.5175-7.2716a8.8472,8.8472,0,0,0-3.4214.7463c-5.6577,2.38-5.6927,8.1972-3.8389,12.8472,1.4477,3.6316,2.9574,7.3258,4.4175,10.8985q1.0128,2.4783,2.0227,4.958l1.6232,3.9918-2.753,3.3151-.9254,1.1143-3.9647,4.7733-5.3041-3.22q-1.7882-1.0857-3.5876-2.1537c-2.69-1.6061-5.4724-3.2669-8.2008-5.0327a11.4658,11.4658,0,0,0-6.1475-2.0019,7.5913,7.5913,0,0,0-6.2968,3.25c-2.9829,4.0425-2.0128,8.9265,2.4713,12.4427,10.9645,8.5974,21.9913,12.7767,33.7106,12.7767,1.6667,0,3.3735-.0867,5.0731-.2576.63-.0634,1.25-.0955,1.8415-.0955,4.9145,0,8.7875,2.1267,11.84,6.5019,9.3982,13.4691,21.0367,23.7849,34.5924,30.6608,4.1927,2.1267,8.6266,3.9693,13.3209,5.92,2.2264.9252,4.5286,1.8819,6.872,2.8976l5.3516,2.32-1.1621,5.7158a268.7409,268.7409,0,0,0-.7389,101.769L7121.53,7157l-5.0076,2.35c-.32.15-.5852.2834-.8163.3991a15.4791,15.4791,0,0,1-2.2467.9652c-21.53,6.974-38.5641,19.6834-52.0749,38.8544-2.4832,3.5237-7.3248,5.1011-11.0214,5.1011q-.4223,0-.8217-.0261c-1.3268-.0854-2.6579-.1287-3.9576-.1287-13.7236,0-25.9114,4.6508-37.26,14.2182a8.2142,8.2142,0,0,0-1.9287,9.4923c1.3126,2.95,4.06,5.0105,6.68,5.0105a5.2971,5.2971,0,0,0,.8843-.075,23.8489,23.8489,0,0,0,6.2624-2.7191c.94-.506,1.9125-1.0291,2.924-1.5307,1.9746-.9791,3.926-2.0914,5.992-3.2691.9523-.5428,1.9047-1.0854,2.8624-1.6172l14.2951-7.9358-3.8052,15.9011a119.9094,119.9094,0,0,1-4.9887,15.2154c-.5427,1.4259-1.0819,2.8422-1.5993,4.2663a9.2844,9.2844,0,0,0,.11,7.1823,8.1232,8.1232,0,0,0,4.8373,4.171,8.506,8.506,0,0,0,2.7946.491c3.3372,0,6.2417-2.1349,7.9684-5.8573,1.6831-3.6284,3.186-7.3039,4.7771-11.1952.7154-1.7495,1.4309-3.4989,2.1621-5.2409l2.0391-4.8581,5.2471.4771,1.3073.1189,5.6931.5178.7826,5.6627q.333,2.4082.6528,4.8184c.465,3.4684.9459,7.0548,1.4843,10.5355a8.0119,8.0119,0,0,0,8.2579,6.8557c.1936,0,.388-.0055.5844-.0166,4.297-.2423,7.559-3.4035,7.587-7.3534a79.836,79.836,0,0,0-1.4388-15.2208c-1.7242-9.1852-6.2725-17.6955-13.5185-25.2945l-4.13-4.3307,3.5055-4.85c12.0771-16.7082,29.442-28.9771,44.2391-31.2567l5.5115-.8491,2.1971,5.1255.6789,1.5885c.4942,1.1584.9967,2.3365,1.5089,3.51,1.7457,4.0011,4.82,6.39,8.2233,6.39a8.5332,8.5332,0,0,0,3.1414-.63c4.5408-1.7967,6.2667-6.2626,4.5041-11.6549-.65-1.99-1.3523-3.9527-2.0955-6.0311-1.33-3.7184-2.7044-7.5633-3.7652-11.5818a234.7422,234.7422,0,0,1-3.7868-103.1705C7138.5977,7050.6387,7141.2765,7042.0129,7143.867,7033.6712Z" transform="translate(-6881.048 -6771.7222)"/><path class="cls-2" d="M7208.1087,7023.5753c.0284-8.1314.0576-16.54-.06-24.7755a8.5391,8.5391,0,0,0-8.3211-8.7564,8.7493,8.7493,0,0,0-3.1873.6192c-1.9195.7488-5.4923,2.1425-5.4938,11.1534q-.005,28.144.0161,56.2882c.0206,39.9033.0419,81.1651-.0681,121.753-.11,40.66-7.6686,71.8724-23.7861,98.2274-2.1209,3.4679-.4009,8.2542,2.5539,10.2168a9.5194,9.5194,0,0,0,5.2419,1.68,8.0462,8.0462,0,0,0,6.4515-3.3068,58.536,58.536,0,0,0,5.364-8.6688c13.75-26.4213,20.6572-56.2963,21.1159-91.3324.2716-20.7512.2048-41.8839.14-62.3209-.0285-9.0285-.058-18.3645-.058-27.5521v-7.1952h.0647v-11.739l0-43.2783Q7208.083,7029.082,7208.1087,7023.5753Z" transform="translate(-6881.048 -6771.7222)"/><path class="cls-2" d="M7230.1728,6914.5917c5.5386,5.9078,9.85,12.6811,14.0192,19.2315,1.3,2.0416,2.6433,4.1528,3.9786,6.16,2.0242,3.0435,4.8514,4.789,7.7567,4.789a8.0517,8.0517,0,0,0,3.921-1.0675c4.1534-2.2986,5.5137-7.0872,3.3079-11.645-6.5437-13.5217-14.4649-24.2953-24.2163-32.9364-12.0046-10.6378-24.7634-16.078-38.9865-16.6189-1.2783.1769-2.54.3225-3.7655.4639a57.1071,57.1071,0,0,0-7.9591,1.2826c-23.4158,6.2355-40.2452,22.2463-52.9629,50.387a5.8418,5.8418,0,0,0,.1982,5.0014,9.2209,9.2209,0,0,0,5.8825,4.7918,8.8942,8.8942,0,0,0,2.2159.3007c3.0006,0,5.7671-1.9745,8.2226-5.8686q.9759-1.5475,1.9476-3.1087c4.5457-7.279,9.2461-14.8058,15.3873-21.2736,9.0927-9.5762,19.6488-14.6381,30.5273-14.6384C7210.5712,6899.8426,7221.1267,6904.9427,7230.1728,6914.5917Z" transform="translate(-6881.048 -6771.7222)"/><path class="cls-2" d="M7347.6379,7002.005l.0351.0006-.0266-.0009Z" transform="translate(-6881.048 -6771.7222)"/><path class="cls-2" d="M7349.5987,7002.111l.0139.0008-.0139-.0009-.0129-.001Z" transform="translate(-6881.048 -6771.7222)"/><path class="cls-3" d="M7354.795,7269.4113c.0313,0,.061.0056.0924.0056.0145,0,.03-.0016.0441-.0016C7354.8855,7269.4154,7354.8408,7269.4115,7354.795,7269.4113Z" transform="translate(-6881.048 -6771.7222)"/><path class="cls-2" d="M7412.7613,6876.9126A299.6207,299.6207,0,0,0,7199.5,6788.5768a295.2956,295.2956,0,0,0-116.0645,23.7121,305,305,0,0,0-95.9679,64.5947c-57.7563,57.3211-89.5642,133.0691-89.5642,213.29a300.68,300.68,0,0,0,95.8367,220.481l2.2857,2.1334v.084c21.6376,20.5974,45.31,33.2847,74.1,40.4638,19.0239,4.7439,48.1,3.52,48.3379,3.5149a140.1555,140.1555,0,0,0,59.0309-18.81c16.9517-10.0772,32.3771-24.3343,45.8479-42.3758,19.3334-25.893,32.9107-57.4848,41.5077-96.5806.902-4.1016,1.8279-8.1147,2.8081-12.3636.4508-1.9539.9073-3.9327,1.368-5.9492l1.7074-7.4739,7.3507,2.1775c18.7285,5.5481,33.0979,15.9863,43.9294,31.9112l3.302,4.8548-4.0938,4.2086c-9.6615,9.9326-14.644,22.17-15.232,37.4122-.1832,4.7528,1.8011,9.95,7.92,10.281.2149.0116.4279.0175.6374.0175,6.7837,0,8.2877-6.0916,8.58-9.7227.247-3.0641.7257-6.013,1.1885-8.8648.1975-1.2168.3953-2.4336.5723-3.652l1.7048-11.7357,9.6217,6.9323a15.6986,15.6986,0,0,1,5.46,7.032c.7025,1.6156,1.37,3.24,2.0155,4.8117,1.3305,3.2391,2.5871,6.2984,4.08,9.157a7.5776,7.5776,0,0,0,7.1171,4.1026,11.9108,11.9108,0,0,0,1.6268-.1152c2.7329-.3784,5.8148-2.5664,6.2415-5.5732.2946-2.076-.1059-4.911-1.19-8.4263a111.802,111.802,0,0,0-4.131-10.6487c-.7527-1.7692-1.531-3.5986-2.3184-5.543l-6.1278-15.1325,15.3035,5.6873c.75.2786,1.3953.4942,2.02.7027a20.4307,20.4307,0,0,1,4.26,1.8025c1.8836,1.1233,3.6831,2.3048,5.4235,3.4474,1.2261.8049,2.3843,1.5653,3.559,2.3a9.687,9.687,0,0,0,5.1,1.5583,7.9009,7.9009,0,0,0,6.36-3.2309,8.1148,8.1148,0,0,0-1.244-11.5809c-11.1288-9.3122-22.8292-13.839-35.77-13.8391-1.4735,0-2.9828.0615-4.486.1827-.5742.0463-1.1345.07-1.6647.07a13.6,13.6,0,0,1-11.8242-6.3914c-9.2738-13.2314-20.5038-23.3616-33.3779-30.1091-4.4447-2.3295-9.1264-4.3126-14.0832-6.4122-2.2918-.9707-4.6615-1.9744-7.0376-3.0277l-5.1883-2.3,1.0277-5.5813a269.0045,269.0045,0,0,0-.2275-101.2864l-.8735-4.4183,3.5926-2.7165c.188-.1422.3277-.2561.44-.3469a9.3036,9.3036,0,0,1,2.2841-1.4359c.8128-.35,1.5792-.6016,2.1952-.8041l.1893-.0623c21.7889-7.1956,39.1763-20.1242,51.6789-38.4267a12.63,12.63,0,0,1,11.0017-5.7541c.9027,0,1.7549.0649,2.5505.1312,1.48.1234,2.9682.186,4.4216.186,12.392,0,23.8532-4.4349,35.0387-13.5584,2.7007-2.2028,3.6618-4.7327,3.0247-7.9618a8.1119,8.1119,0,0,0-8.0695-6.949,10.35,10.35,0,0,0-5.5516,1.7328c-2.8655,1.837-5.7885,3.5791-8.6153,5.2637q-1.9077,1.137-3.81,2.2825l-14.836,8.9783,4.1218-16.8442a132.3533,132.3533,0,0,1,4.5812-14.2764c.85-2.33,1.6535-4.5308,2.3719-6.7458a7.5784,7.5784,0,0,0-.4412-5.9639,8.5731,8.5731,0,0,0-5.1806-4.1817,9.0963,9.0963,0,0,0-2.6788-.4227c-3.2062,0-5.9579,1.987-7.55,5.452-1.7074,3.7166-3.322,7.6305-4.8836,11.4156-.7278,1.7643-1.4557,3.5286-2.1972,5.2866l-2.07,4.9077-5.2983-.5465-1.3736-.1417-5.6557-.5834-.74-5.6375-.564-4.2877q-.6373-4.8386-1.2671-9.6778c-.63-4.8666-4.0216-8.1368-8.4407-8.1372q-.3138,0-.6336.0218a8.4194,8.4194,0,0,0-7.8681,8.7961,70,70,0,0,0,1.2306,12.0469,50.1091,50.1091,0,0,0,14.1332,27.1866l4.2532,4.2613-3.4445,4.938c-11.1131,15.9322-25.7583,26.302-44.7724,31.702l-5.6736,1.6114-2.6933-5.2473c-.2723-.5306-.53-1.0433-.78-1.5422-.4855-.9674-.9046-1.8027-1.3412-2.5831a8.3465,8.3465,0,0,0-7.3028-4.6049,8.48,8.48,0,0,0-2.5578.4057,7.9258,7.9258,0,0,0-5.8582,9.1331,32.0727,32.0727,0,0,0,1.7238,5.9191l.317.8918c13.0975,37.0846,15.311,76.7377,6.7669,121.2253-1.3418,6.9861-3.3056,13.8026-5.2049,20.3946-1.7424,6.048-3.3883,11.7608-4.5967,17.5989-8.3842,40.507-20.0551,69.7593-37.8421,94.8482-27.7527,39.1459-64.241,58.3537-108.4376,58.9944a171.7419,171.7419,0,0,1-43.5818-4.8229s-53.9275-12.6918-92.1-65.4059c0,0,45.4432,54.2288,110.9628,51.4306,27.3358-3.7153,43.9356-14.2284,57.1768-31.7479,13.2351-17.5113,18.1868-42.2391,17.1354-64.88-.2382-5.1288-3.6994-8.7478-8.4169-8.8005l-.0974-.0005c-4.5525,0-8.2041,3.68-8.494,8.5593-.0738,1.24-.0615,2.57-.0484,3.9787.01,1.1058-.0186,2.249-.0092,3.4349.6122,77.41-71.8037,76.9016-80.8822,74.9346-48.7-10.5517-72.1306-38.9541-72.1306-38.9541a281.0527,281.0527,0,0,1-63.9779-178.08c0-151.7821,128.2294-280.0118,280.0111-280.0118,154.399,0,280.0117,125.6128,280.0117,280.0118S7353.8987,7370.1862,7199.5,7370.1862c-11.7925,0-28.0987-2.79-39.7777-8.8217-12.1786,6.7131-35.4683,9.061-74.2085,8.6066,24.7665,9.0885,41.5047,14.2388,67.3857,18.22a307.4664,307.4664,0,0,0,46.6005,3.58,301.5977,301.5977,0,0,0,213.2616-514.8591Z" transform="translate(-6881.048 -6771.7222)"/><path class="cls-2" d="M7282.7768,6972.3494a18.7633,18.7633,0,0,1-4.7579,9.3267,46.0611,46.0611,0,0,1-11.4189,9.3122,1.1121,1.1121,0,0,1-.9547.0234,43.9044,43.9044,0,0,1-12.6013-10.74,16.1225,16.1225,0,0,1-3.7337-9.258,8.3026,8.3026,0,0,1,11.777-8.01,15.0351,15.0351,0,0,1,4.9711,3.8381c.7656-.7128,1.4462-1.4193,2.2006-2.0355,2.3089-1.8859,4.8681-3.0378,7.938-2.4189C7280.7656,6963.3081,7283.5392,6967.5481,7282.7768,6972.3494Z" transform="translate(-6881.048 -6771.7222)"/><path class="cls-2" d="M7149.895,6972.3494a18.7625,18.7625,0,0,1-4.7579,9.3267,46.0624,46.0624,0,0,1-11.4188,9.3122,1.1123,1.1123,0,0,1-.9548.0234,43.9044,43.9044,0,0,1-12.6013-10.74,16.1225,16.1225,0,0,1-3.7337-9.258,8.3026,8.3026,0,0,1,11.777-8.01,15.0351,15.0351,0,0,1,4.9711,3.8381c.7656-.7128,1.4462-1.4193,2.2006-2.0355,2.309-1.8859,4.8682-3.0378,7.9381-2.4189C7147.8838,6963.3081,7150.6574,6967.5481,7149.895,6972.3494Z" transform="translate(-6881.048 -6771.7222)"/></svg>