<?xml version="1.0" encoding="utf-8"?>
<!-- Generator: Adobe Illustrator 24.0.1, SVG Export Plug-In . SVG Version: 6.00 Build 0)  -->
<svg version="1.1" id="Layer_1" xmlns="http://www.w3.org/2000/svg" xmlns:xlink="http://www.w3.org/1999/xlink" x="0px" y="0px"
	 viewBox="0 0 636.9 636.9" style="enable-background:new 0 0 636.9 636.9;" xml:space="preserve">
<style type="text/css">
	.st0{fill:url(#SVGID_1_);}
	.st1{display:none;fill:#FFFFFF;}
	.st2{display:none;fill:url(#SVGID_2_);}
	.st3{fill:#FFFFFF;}
	.st4{fill:#282929;}
</style>
<title>Gila_Final_Logo_form</title>
<linearGradient id="SVGID_1_" gradientUnits="userSpaceOnUse" x1="320.207" y1="637.976" x2="320.207" y2="1.072" gradientTransform="matrix(1 0 0 -1 0 638)">
	<stop  offset="0" style="stop-color:#B72051"/>
	<stop  offset="0.6704" style="stop-color:#E61F5F"/>
</linearGradient>
<circle class="st0" cx="320.2" cy="318.5" r="318.5"/>
<circle class="st1" cx="320.2" cy="316.5" r="289.5"/>
<linearGradient id="SVGID_2_" gradientUnits="userSpaceOnUse" x1="320.207" y1="589.976" x2="320.207" y2="53.41" gradientTransform="matrix(1 0 0 -1 0 638)">
	<stop  offset="0" style="stop-color:#B72051"/>
	<stop  offset="0.6704" style="stop-color:#E61F5F"/>
</linearGradient>
<circle class="st2" cx="320.2" cy="316.3" r="268.3"/>
<path class="st3" d="M262.8,261.9c1-3.2,2-6.5,3-9.8c1.4-5-0.4-9.4-4.6-11.2c-1-0.4-2.1-0.7-3.2-0.7c-3.2,0-6.1,2-7.8,5.3
	c-0.4,0.7-0.8,1.5-1.2,2.3l-0.7,1.3l-2.7,5.3l-5.7-1.7c-19.3-5.7-33.9-16.1-44.7-31.9l-3.3-4.9l4.1-4.2
	c10.5-10.8,15.5-23.8,15.3-39.9c0-4.4-3.6-8-8-8.1c-0.1,0-0.3,0-0.4,0l0,0c-4.2,0-7.7,3.1-8.2,7.2c-0.1,0.9-0.2,1.9-0.3,3
	c-0.1,1.5-0.3,3.1-0.6,4.8c-0.4,2-0.8,3.9-1.4,6.1c-0.3,1-0.5,2.1-0.8,3.3l-5.3,21.7l-8.4-20.6c-0.9-2.1-1.6-4.1-2.4-5.9
	c-1.5-3.8-2.9-7.1-4.3-10.4c-1.9-4.6-5-7.3-8.5-7.3c-1.2,0-2.3,0.3-3.4,0.7c-5.7,2.4-5.7,8.2-3.8,12.8c1.4,3.6,3,7.3,4.4,10.9
	c0.7,1.7,1.3,3.3,2,5l1.6,4l-2.8,3.3l-0.9,1.1l-4,4.8l-5.3-3.2c-1.2-0.7-2.4-1.4-3.6-2.2c-2.7-1.6-5.5-3.3-8.2-5
	c-1.8-1.2-3.9-1.9-6.1-2c-2.5,0-4.9,1.2-6.3,3.3c-3,4-2,8.9,2.5,12.4c11,8.6,22,12.8,33.7,12.8c1.7,0,3.4-0.1,5.1-0.3
	c0.6-0.1,1.3-0.1,1.8-0.1c4.9,0,8.8,2.1,11.8,6.5c9.4,13.5,21,23.8,34.6,30.7c4.2,2.1,8.6,4,13.3,5.9c2.2,0.9,4.5,1.9,6.9,2.9
	l5.4,2.3l-1.2,5.7c-6.7,33.6-7,68.1-0.7,101.8l1,5.4l-5,2.4c-0.3,0.1-0.6,0.3-0.8,0.4c-0.7,0.4-1.5,0.7-2.2,1
	c-21.5,7-38.6,19.7-52.1,38.9c-2.5,3.5-7.3,5.1-11,5.1c-0.3,0-0.6,0-0.8,0c-1.3-0.1-2.7-0.1-4-0.1c-13.7,0-25.9,4.7-37.3,14.2
	c-2.6,2.4-3.4,6.2-1.9,9.5c1.3,3,4.1,5,6.7,5c0.3,0,0.6,0,0.9-0.1c2.2-0.6,4.3-1.5,6.3-2.7c0.9-0.5,1.9-1,2.9-1.5c2-1,3.9-2.1,6-3.3
	c1-0.5,1.9-1.1,2.9-1.6l14.3-7.9l-3.8,15.9c-1.3,5.2-3,10.3-5,15.2c-0.5,1.4-1.1,2.8-1.6,4.3c-0.9,2.3-0.9,4.9,0.1,7.2
	c1,2,2.7,3.5,4.8,4.2c0.9,0.3,1.8,0.5,2.8,0.5c3.3,0,6.2-2.1,8-5.9c1.7-3.6,3.2-7.3,4.8-11.2c0.7-1.7,1.4-3.5,2.2-5.2l2-4.9l5.2,0.5
	l1.3,0.1l5.7,0.5l0.8,5.7c0.2,1.6,0.4,3.2,0.7,4.8c0.5,3.5,0.9,7.1,1.5,10.5c0.6,4.1,4.2,7,8.3,6.9c0.2,0,0.4,0,0.6,0
	c4.3-0.2,7.6-3.4,7.6-7.4c0-5.1-0.5-10.2-1.4-15.2c-1.7-9.2-6.3-17.7-13.5-25.3l-4.1-4.3l3.5-4.9c12.1-16.7,29.4-29,44.2-31.3
	l5.5-0.8l2.2,5.1l0.7,1.6c0.5,1.2,1,2.3,1.5,3.5c1.7,4,4.8,6.4,8.2,6.4c1.1,0,2.1-0.2,3.1-0.6c4.5-1.8,6.3-6.3,4.5-11.7
	c-0.6-2-1.4-4-2.1-6c-1.3-3.7-2.7-7.6-3.8-11.6c-8.9-33.7-10.2-68.9-3.8-103.2C257.5,278.9,260.2,270.3,262.8,261.9z"/>
<path class="st3" d="M327.1,251.9c0-8.1,0.1-16.5-0.1-24.8c0.1-4.7-3.6-8.6-8.3-8.8c0,0,0,0,0,0c-1.1,0-2.2,0.2-3.2,0.6
	c-1.9,0.7-5.5,2.1-5.5,11.2c0,18.8,0,37.5,0,56.3c0,39.9,0,81.2-0.1,121.8c-0.1,40.7-7.7,71.9-23.8,98.2c-2.1,3.5-0.4,8.3,2.6,10.2
	c1.5,1.1,3.4,1.6,5.2,1.7c2.6,0,4.9-1.2,6.5-3.3c2-2.7,3.8-5.6,5.4-8.7c13.8-26.4,20.7-56.3,21.1-91.3c0.3-20.8,0.2-41.9,0.1-62.3
	c0-9-0.1-18.4-0.1-27.6v-7.2h0.1v-11.7v-43.3C327,259.2,327,255.5,327.1,251.9z"/>
<path class="st3" d="M349.1,142.9c5.5,5.9,9.9,12.7,14,19.2c1.3,2,2.6,4.2,4,6.2c2,3,4.9,4.8,7.8,4.8c1.4,0,2.7-0.4,3.9-1.1
	c4.2-2.3,5.5-7.1,3.3-11.6c-6.5-13.5-14.5-24.3-24.2-32.9c-12-10.6-24.8-16.1-39-16.6c-1.3,0.2-2.5,0.3-3.8,0.5
	c-2.7,0.2-5.3,0.7-8,1.3c-23.4,6.2-40.2,22.2-53,50.4c-0.7,1.6-0.6,3.4,0.2,5c1.2,2.4,3.3,4.1,5.9,4.8c0.7,0.2,1.5,0.3,2.2,0.3
	c3,0,5.8-2,8.2-5.9c0.7-1,1.3-2.1,1.9-3.1c4.5-7.3,9.2-14.8,15.4-21.3c9.1-9.6,19.6-14.6,30.5-14.6
	C329.5,128.1,340.1,133.2,349.1,142.9z"/>
<path class="st3" d="M466.6,230.3L466.6,230.3L466.6,230.3L466.6,230.3z"/>
<path class="st3" d="M468.6,230.4L468.6,230.4L468.6,230.4L468.6,230.4L468.6,230.4z"/>
<path class="st4" d="M473.7,497.7C473.8,497.7,473.8,497.7,473.7,497.7c0.1,0,0.1,0,0.1,0C473.8,497.7,473.8,497.7,473.7,497.7z"/>
<path class="st3" d="M531.7,105.2c-56.4-56.7-133.2-88.6-213.3-88.3c-39.9,0-79.4,8-116.1,23.7c-35.8,15.2-68.4,37.1-96,64.6
	c-57.8,57.3-89.6,133.1-89.6,213.3c-0.1,83.6,34.6,163.5,95.8,220.5l2.3,2.1v0.1c21.6,20.6,45.3,33.3,74.1,40.5
	c19,4.7,48.1,3.5,48.3,3.5c20.8-1.8,41-8.2,59-18.8c17-10.1,32.4-24.3,45.8-42.4c19.3-25.9,32.9-57.5,41.5-96.6
	c0.9-4.1,1.8-8.1,2.8-12.4c0.5-2,0.9-3.9,1.4-5.9l1.7-7.5l7.4,2.2c18.7,5.5,33.1,16,43.9,31.9l3.3,4.9l-4.1,4.2
	c-9.7,9.9-14.6,22.2-15.2,37.4c-0.2,4.8,1.8,10,7.9,10.3c0.2,0,0.4,0,0.6,0c6.8,0,8.3-6.1,8.6-9.7c0.2-3.1,0.7-6,1.2-8.9
	c0.2-1.2,0.4-2.4,0.6-3.7l1.7-11.7l9.6,6.9c2.5,1.8,4.4,4.2,5.5,7c0.7,1.6,1.4,3.2,2,4.8c1.3,3.2,2.6,6.3,4.1,9.2
	c1.4,2.6,4.1,4.3,7.1,4.1c0.5,0,1.1,0,1.6-0.1c2.7-0.4,5.8-2.6,6.2-5.6c0.3-2.1-0.1-4.9-1.2-8.4c-1.2-3.6-2.6-7.2-4.1-10.6
	c-0.8-1.8-1.5-3.6-2.3-5.5l-6.1-15.1l15.3,5.7c0.8,0.3,1.4,0.5,2,0.7c1.5,0.4,2.9,1,4.3,1.8c1.9,1.1,3.7,2.3,5.4,3.4
	c1.2,0.8,2.4,1.6,3.6,2.3c1.5,1,3.3,1.5,5.1,1.6c2.5,0,4.9-1.2,6.4-3.2c2.9-3.4,2.4-8.6-1.1-11.4c-0.1-0.1-0.1-0.1-0.2-0.2
	c-11.1-9.3-22.8-13.8-35.8-13.8c-1.5,0-3,0.1-4.5,0.2c-0.6,0-1.1,0.1-1.7,0.1c-4.8,0.1-9.3-2.3-11.8-6.4
	c-9.3-13.2-20.5-23.4-33.4-30.1c-4.4-2.3-9.1-4.3-14.1-6.4c-2.3-1-4.7-2-7-3l-5.2-2.3l1-5.6c6.3-33.5,6.3-67.8-0.2-101.3l-0.9-4.4
	l3.6-2.7c0.2-0.1,0.3-0.3,0.4-0.3c0.7-0.6,1.5-1.1,2.3-1.4c0.8-0.4,1.6-0.6,2.2-0.8l0.2-0.1c21.8-7.2,39.2-20.1,51.7-38.4
	c2.4-3.7,6.6-5.9,11-5.8c0.9,0,1.8,0.1,2.6,0.1c1.5,0.1,3,0.2,4.4,0.2c12.4,0,23.9-4.4,35-13.6c2.7-2.2,3.7-4.7,3-8
	c-0.6-4-4-7-8.1-6.9c-2,0-3.9,0.6-5.6,1.7c-2.9,1.8-5.8,3.6-8.6,5.3c-1.3,0.8-2.5,1.5-3.8,2.3l-14.8,9l4.1-16.8
	c1.3-4.8,2.8-9.6,4.6-14.3c0.9-2.3,1.7-4.5,2.4-6.7c0.7-2,0.5-4.1-0.4-6c-1.1-2-3-3.5-5.2-4.2c-0.9-0.3-1.8-0.4-2.7-0.4
	c-3.2,0-6,2-7.5,5.5c-1.7,3.7-3.3,7.6-4.9,11.4c-0.7,1.8-1.5,3.5-2.2,5.3l-2.1,4.9l-5.3-0.5l-1.4-0.1l-5.7-0.6l-0.7-5.6l-0.6-4.3
	c-0.4-3.2-0.8-6.5-1.3-9.7c-0.6-4.9-4-8.1-8.4-8.1c-0.2,0-0.4,0-0.6,0c-4.6,0.3-8.1,4.2-7.9,8.8c0.1,4,0.5,8.1,1.2,12
	c1.8,10.3,6.7,19.8,14.1,27.2l4.3,4.3l-3.4,4.9c-11.1,15.9-25.8,26.3-44.8,31.7l-5.7,1.6l-2.7-5.2c-0.3-0.5-0.5-1-0.8-1.5
	c-0.5-1-0.9-1.8-1.3-2.6c-1.4-2.8-4.2-4.5-7.3-4.6c-0.9,0-1.7,0.1-2.6,0.4c-4.1,1-6.6,5-5.9,9.1c0.4,2,1,4,1.7,5.9l0.3,0.9
	c13.1,37.1,15.3,76.7,6.8,121.2c-1.3,7-3.3,13.8-5.2,20.4c-1.7,6-3.4,11.8-4.6,17.6c-8.4,40.5-20.1,69.8-37.8,94.8
	c-27.8,39.1-64.2,58.4-108.4,59c-14.7,0.3-29.3-1.4-43.6-4.8c0,0-53.9-12.7-92.1-65.4c0,0,45.4,54.2,111,51.4
	c27.3-3.7,43.9-14.2,57.2-31.7c13.2-17.5,18.2-42.2,17.1-64.9c-0.2-5.1-3.7-8.7-8.4-8.8l-0.1,0c-4.6,0-8.2,3.7-8.5,8.6
	c-0.1,1.2-0.1,2.6,0,4c0,1.1,0,2.2,0,3.4c0.6,77.4-71.8,76.9-80.9,74.9c-48.7-10.6-72.1-39-72.1-39c-41.3-50.2-63.9-113.1-64-178.1
	c0-151.8,128.2-280,280-280c154.4,0,280,125.6,280,280s-125.6,280-280,280c-11.8,0-28.1-2.8-39.8-8.8c-12.2,6.7-35.5,9.1-74.2,8.6
	c24.8,9.1,41.5,14.2,67.4,18.2c15.4,2.4,31,3.6,46.6,3.6C485,620,620,485,620,318.5C620,238.5,588.3,161.8,531.7,105.2L531.7,105.2z
	"/>
<path class="st3" d="M401.7,200.6c-0.7,3.5-2.3,6.7-4.8,9.3c-3.3,3.7-7.1,6.8-11.4,9.3c-0.3,0.2-0.6,0.2-1,0
	c-4.8-2.7-9.1-6.4-12.6-10.7c-2.2-2.6-3.5-5.9-3.7-9.3c-0.3-4.6,3.2-8.5,7.8-8.8c1.4-0.1,2.7,0.2,4,0.8c1.9,0.9,3.6,2.2,5,3.8
	c0.8-0.7,1.4-1.4,2.2-2c2.3-1.9,4.9-3,7.9-2.4C399.7,191.6,402.5,195.8,401.7,200.6z"/>
<path class="st3" d="M268.8,200.6c-0.7,3.5-2.3,6.7-4.8,9.3c-3.3,3.7-7.1,6.8-11.4,9.3c-0.3,0.2-0.6,0.2-1,0
	c-4.8-2.7-9.1-6.4-12.6-10.7c-2.2-2.6-3.5-5.9-3.7-9.3c-0.3-4.6,3.2-8.5,7.8-8.8c1.4-0.1,2.7,0.2,4,0.8c1.9,0.9,3.6,2.2,5,3.8
	c0.8-0.7,1.4-1.4,2.2-2c2.3-1.9,4.9-3,7.9-2.4C266.8,191.6,269.6,195.8,268.8,200.6z"/>
<path class="st1" d="M270.3,274.9l-16.6,1.7c0.5,0.7,1.9,3.1,4.4,7.1c2.5,4.3,4.5,8.8,5.8,13.6c1.5,4.5,2.4,10.6,2.4,18.4
	c0.2,9.9-2.4,19.5-7.3,28c-4.8,8.3-12.1,14.9-21.5,19.8c11.1,7.2,19.2,15,24.2,23.1c5.1,8.1,7.6,18.5,7.6,31.2
	c0.2,10.8-2.4,20.4-7.8,28.7c-5.5,8.3-12.8,15.4-21.4,20.5c-9.2,5.6-19.1,9.7-29.6,12.2c-10.4,2.7-21.2,4-31.9,3.8
	c-31.5,0-52.6-5.9-73.2-27.1l20.5-42c14.3,13,34.5,24.6,51,24.6c9.6,0.2,19-2.4,27.1-7.4c8.1-4.7,12.3-11.8,12.3-21.1
	c0-9.5-3.7-16.7-11-21.5c-7.3-4.8-16.4-7.2-27.3-7.3c-7.1-0.1-14,0.6-20.9,2c-6.2,1.4-13.2,3.3-20.9,5.8l4.1-16.3
	c-10.8-5.7-20.2-13.9-27-24.1c-7-10-10.7-21.8-10.7-33.9c-0.6-31.7,18.7-60.3,48.4-71.4c9.8-3.9,20.3-5.8,30.9-5.7
	c2.3,0.1,4.6,0.2,7,0.5c3.1,0.4,6.9,0.8,11.4,1.2c4.5,0.5,8.5,0.9,12.1,1.2c3.5,0.4,6.4,0.6,8.7,0.9c9.6-0.1,19.2-1.4,28.5-3.6
	c10.4-2.4,20.7-4.8,30.9-7.3L270.3,274.9z M155.1,327c1.7,3.9,4.2,7.3,7.1,10.3c2.9,2.9,6.4,5.3,10.1,7c7.5,3.4,16.2,3.4,23.8,0
	c3.8-1.6,7.2-4,10.1-6.8c3-2.9,5.4-6.4,7.1-10.1c1.8-4.2,2.8-8.6,2.7-13c0.1-4.4-0.9-8.9-2.7-12.8c-1.7-3.8-4.2-7.2-7.1-10.1
	c-12.2-12.2-32-12.2-44.1,0c-3,3-5.4,6.4-7.1,10.1C151.6,309.5,151.6,318.7,155.1,327z"/>
<path class="st1" d="M405.5,165v242.7l-48.2,0.4V164.7L405.5,165z"/>
<path class="st1" d="M448.5,246.9c7.1-2.4,14.5-4.2,21.9-5.2c7.2-1.2,14.6-1.8,21.9-1.8c21,0,37.3,4.5,49,13.6
	c11.6,9.1,17.5,23.2,17.5,42.3v112.7l-41.7-0.3v-15.7h-1c-7.8,12.2-21.1,18.3-39.5,18.3c-17.7,0-31.3-5.3-40.8-16
	c-9.5-10.7-14.2-24.7-14.2-42c-0.1-7.4,1.4-14.8,4.4-21.6c2.9-6.3,7.1-11.9,12.2-16.5c5.3-4.7,11.4-8.3,18.1-10.6
	c7.1-2.5,14.6-3.8,22.1-3.7c12.8,0.4,25.2,4.5,35.6,12.1c0.3-1.6,0.4-3.3,0.3-4.9c0-10.9-2.4-18.1-7.1-21.6
	c-4.7-3.5-12.7-5.2-23.8-5.2c-13.6,0-25.1,1.7-34.6,5.2L448.5,246.9z M473.2,367.4c4.5,3.8,10.2,5.7,17,5.7c6.8,0,12.5-1.9,17-5.7
	c4.5-3.8,6.8-9,6.8-15.6c0-6.4-2.2-11.4-6.8-15.2c-4.5-3.7-10.2-5.6-17-5.6c-6.8,0-12.5,1.8-17,5.6c-4.5,3.7-6.8,8.8-6.8,15.2
	C466.4,358.5,468.6,363.6,473.2,367.4z"/>
<path class="st1" d="M317.4,229.3c-0.5,0.3-1.2,0.3-1.6,0c-8.3-5-15.9-10.8-21.8-18.6c-0.5-0.7-1-1.4-1.4-2v199.5l48.2-0.3V208.6
	c-1.1,1.5-2.2,3.1-3.5,4.5C331.5,219.5,324.8,224.9,317.4,229.3z"/>
<path class="st1" d="M340.5,168.1c-1.9-1.6-4.2-2.7-6.6-3.2c-0.1,0-0.1,0-0.2,0h-5c-3.2,0.7-6.1,2.1-8.5,4.3
	c-1.4,1.1-2.5,2.3-3.8,3.6c-2.4-2.8-5.3-5-8.6-6.7c-1.7-0.8-3.6-1.3-5.5-1.3h-0.6c-3.4,0-6.8,1.2-9.4,3.5c-3.4,2.9-5.2,7.2-5,11.8
	c0.3,5,2,10,5,14c0.5,0.7,1,1.4,1.4,2c6,7.7,13.5,13.6,21.8,18.6c0.5,0.2,1.2,0.2,1.6,0c7.4-4.3,14.1-9.8,19.8-16.1
	c1.3-1.4,2.4-2.9,3.5-4.5c2.4-3.5,4.1-7.4,4.8-11.7C346.3,176.9,344.5,171.6,340.5,168.1z"/>
<path class="st1" d="M233.6,189.7c-0.3-4.5-6.1-6.4-7.9-7.1l-2.8-0.9l-0.1,2.9c-0.1,4.3-1.4,9.8-4,16c-2,5-4.5,9.9-7.3,14.5
	c-1.6-7.9-4.2-15.7-7.5-23.1c-4.1-8.7-7.8-12.6-11.9-12.4c-2.5,0.3-5,1.2-7.1,2.5l-2.5,1.4l2.1,2c2.4,2.4,4.5,5.2,6.3,8.2
	c-1.2,0.4-2.2,0.7-3.5,0.8c-4.4,0.2-8.9-0.9-12.8-3.2c-5.1-6.2-11.4-9.4-18.5-9.6H155l-0.7,1c-1.1,1.5-1.5,3.3-1.4,5.1
	c0,0.2,0,0.4,0.1,0.6c-6.5,0.5-12.4,3.7-16.4,8.7c-3.4,4-5.4,8.8-6,13.9c-1.8,3.2-3.9,6.3-6,9.2c-2.6,3.4-5.2,5.1-7.8,5.3
	c-0.8,0.2-1.5-0.1-2-0.7c-0.4-0.5-1-1.5-1.1-3.8c0-2.9,0.2-5.8,0.7-8.7l6.7-54.4l-4.2,3.2c-2.7,2-5.9,3.2-9.3,3.3
	c-3.5,0.3-7-0.4-10-1.8l-3.4-1.6l0.3,4.6c0.3,3.7,2.1,9.9,12.2,9.2c0,0,0,0,0.1,0l-5,38.3c-0.5,3.3-0.7,6.6-0.6,9.9
	c0.1,4,1.5,7.7,4.2,10.7c2.2,2.5,5.4,4,8.7,3.9c0.3,0,0.6,0,1,0c5-0.3,10.2-3.9,15.9-10.8c0.7-0.8,1.3-1.6,1.9-2.5
	c1.1,2.3,2.6,4.3,4.5,6c4.1,3.7,9.2,5.2,15.2,4.8c7.7-0.5,14.3-4.2,19.5-10.7c4.9-6,7.4-13.5,7.1-21.3c2.6,0.5,5.3,0.8,8,0.6
	c2.7-0.2,5.3-0.9,7.8-1.9c0.1,0.3,0.2,0.5,0.3,0.8c3,6.7,4.9,13.8,5.5,21.1c0.1,1.9-0.1,3.8-0.5,5.7l-0.6,3l3-0.4
	c3.9-0.6,6.6-1.4,8.2-2.4c1.7-1.1,3.7-3.2,5.9-6.4c4.3-6.2,8.1-12.8,11.5-19.4C233.1,194.3,233.7,191.2,233.6,189.7z M157.9,196.7
	c0.7,0,1.4,0.1,2,0.2c1.7,1.2,3.6,2,5.5,2.5c0.5,1.5,0.9,3.1,1,4.7c0.5,5.4-0.8,10.8-3.6,15.5c-2.6,4.3-5.8,6.4-9.6,6.7
	c-2.5,0.3-5-0.7-6.9-2.5c-2-2.1-3.2-4.9-3.2-7.8c-0.4-4.6,1.1-9.3,4-13c2.9-3.9,6.3-5.9,10.1-6.1
	C157.6,196.7,157.7,196.7,157.9,196.7L157.9,196.7z"/>
<path class="st1" d="M290.5,184.8l-1,1.8c-4.3,8.4-10,16-17,22.4c-6.2,5.6-12.1,8.6-17.3,9c-3.3,0.2-7.1-0.5-8.2-7.1
	c6.7-0.7,13.1-3.2,18.5-7.1c6.2-4.5,9.1-9.7,8.8-15.3c-0.1-3.4-1.7-6.5-4.4-8.4c-2.9-2-6.5-2.9-10-2.5c-7.7,0.5-14.8,4.3-19.5,10.3
	c-5,6.2-7.5,14.1-6.9,22.1c0.4,6,2.3,10.6,5.7,14c3.2,3.1,7.5,4.7,12,4.6c0.5,0,1.1,0,1.5-0.1c8-0.5,16.3-4.5,24.7-11.8
	c8.3-7.3,15-16.4,19.5-26.6l0.9-1.9L290.5,184.8z M257.4,197.6c-3,2.4-6.6,4.2-10.3,4.8c0.6-3.9,1.9-7.5,4.2-10.8l0,0
	c2.5-3.6,5.1-5.4,8.1-5.6c0.2,0,0.3,0,0.5,0c1.2,0,2,0.4,2.1,2.8C262.2,192,260.6,194.9,257.4,197.6L257.4,197.6z"/>
</svg>
