<svg id="Layer_1" data-name="Layer 1" xmlns="http://www.w3.org/2000/svg" viewBox="0 0 603.19 603.19"><defs><style>.cls-1{fill:#fff;}.cls-2{fill:#282929;}</style></defs><title>Gila_Final_Logo_White</title><path class="cls-1" d="M7143.87,7033.67c1-3.21,2-6.52,3-9.76,1.44-5-.42-9.45-4.62-11.18a8.43,8.43,0,0,0-3.22-.66c-3.18,0-6.09,2-7.79,5.26-.38.74-.76,1.47-1.17,2.29l-.67,1.29-2.72,5.3-5.71-1.69c-19.3-5.68-33.93-16.11-44.71-31.86l-3.33-4.86,4.11-4.22c10.49-10.78,15.5-23.84,15.31-39.94a8.18,8.18,0,0,0-8-8.11H7084a8.32,8.32,0,0,0-8.24,7.22c-.13.93-.22,1.94-.32,3-.13,1.52-.27,3.1-.57,4.79-.36,2-.85,3.93-1.41,6.14-.26,1-.54,2.11-.84,3.35l-5.27,21.65-8.39-20.64-2.4-5.93c-1.54-3.83-2.88-7.13-4.26-10.44-1.94-4.62-5-7.27-8.52-7.27a8.78,8.78,0,0,0-3.42.75c-5.66,2.38-5.69,8.19-3.84,12.84,1.45,3.63,3,7.33,4.42,10.9l2,5,1.62,4-2.75,3.32-.93,1.11-4,4.77-5.3-3.22-3.59-2.15c-2.69-1.61-5.47-3.27-8.2-5a11.48,11.48,0,0,0-6.15-2,7.59,7.59,0,0,0-6.3,3.25c-3,4-2,8.92,2.47,12.44,11,8.6,22,12.78,33.71,12.78,1.67,0,3.38-.09,5.08-.26a16.72,16.72,0,0,1,1.84-.1c4.91,0,8.79,2.13,11.84,6.5,9.4,13.47,21,23.79,34.59,30.66,4.19,2.13,8.63,4,13.32,5.92,2.23.93,4.53,1.89,6.88,2.9l5.35,2.32-1.17,5.72a268.61,268.61,0,0,0-.73,101.77l1,5.44-5,2.35-.81.4a14.88,14.88,0,0,1-2.25,1c-21.53,7-38.56,19.69-52.08,38.86-2.48,3.52-7.32,5.1-11,5.1-.28,0-.55,0-.82,0-1.33-.08-2.66-.12-4-.12-13.72,0-25.91,4.65-37.26,14.21a8.22,8.22,0,0,0-1.92,9.5c1.31,3,4.05,5,6.68,5a5.24,5.24,0,0,0,.88-.08,23.57,23.57,0,0,0,6.26-2.72c.94-.5,1.91-1,2.93-1.53,2-1,3.92-2.09,6-3.27.95-.54,1.9-1.08,2.86-1.61l14.3-7.94-3.81,15.9a119.23,119.23,0,0,1-5,15.22c-.54,1.42-1.08,2.84-1.6,4.26a9.31,9.31,0,0,0,.11,7.18,8.12,8.12,0,0,0,4.84,4.18,8.68,8.68,0,0,0,2.79.49c3.34,0,6.25-2.14,8-5.86s3.19-7.3,4.78-11.2c.71-1.75,1.43-3.49,2.16-5.24l2-4.85,5.25.47,1.3.12,5.7.52.78,5.66c.22,1.61.44,3.21.65,4.82.47,3.47.95,7.05,1.49,10.54a8,8,0,0,0,8.26,6.85,5.72,5.72,0,0,0,.58,0c4.3-.24,7.56-3.4,7.59-7.35a80.11,80.11,0,0,0-1.44-15.22c-1.73-9.18-6.27-17.7-13.52-25.29l-4.13-4.33,3.51-4.85c12.07-16.71,29.44-29,44.23-31.26l5.52-.85,2.19,5.13.68,1.58c.5,1.16,1,2.34,1.51,3.51,1.75,4,4.82,6.39,8.22,6.39a8.54,8.54,0,0,0,3.15-.63c4.54-1.79,6.26-6.26,4.5-11.65-.65-2-1.35-4-2.1-6-1.33-3.72-2.7-7.57-3.76-11.58a234.69,234.69,0,0,1-3.79-103.17C7138.6,7050.64,7141.28,7042,7143.87,7033.67Z" transform="translate(-6897.9 -6788.58)"/><path class="cls-1" d="M7208.11,7023.58c0-8.14.06-16.54-.06-24.78a8.54,8.54,0,0,0-8.32-8.76,8.78,8.78,0,0,0-3.19.62c-1.92.75-5.49,2.15-5.49,11.16q0,28.14,0,56.28c0,39.91,0,81.17-.07,121.76s-7.66,71.87-23.78,98.22c-2.12,3.47-.4,8.26,2.55,10.22A9.53,9.53,0,0,0,7175,7290a8,8,0,0,0,6.46-3.31,58.77,58.77,0,0,0,5.36-8.66c13.75-26.43,20.66-56.3,21.12-91.34.27-20.75.2-41.88.14-62.32,0-9-.06-18.36-.06-27.55v-7.19h.06v-55C7208.08,7030.92,7208.1,7027.25,7208.11,7023.58Z" transform="translate(-6897.9 -6788.58)"/><path class="cls-1" d="M7230.17,6914.59c5.54,5.91,9.85,12.68,14,19.23,1.3,2,2.65,4.16,4,6.16,2,3.05,4.85,4.79,7.76,4.79a8.13,8.13,0,0,0,3.92-1.06c4.15-2.3,5.51-7.09,3.31-11.65-6.55-13.52-14.47-24.3-24.22-32.94-12-10.63-24.76-16.07-39-16.62-1.27.18-2.54.33-3.76.47a57.63,57.63,0,0,0-8,1.28c-23.42,6.24-40.25,22.25-53,50.39a5.84,5.84,0,0,0,.19,5,9.24,9.24,0,0,0,5.89,4.79,8.81,8.81,0,0,0,2.21.3c3,0,5.77-2,8.23-5.87l1.94-3.1c4.55-7.28,9.25-14.81,15.39-21.28,9.09-9.57,19.65-14.64,30.53-14.64S7221.13,6904.94,7230.17,6914.59Z" transform="translate(-6897.9 -6788.58)"/><path class="cls-1" d="M7347.64,7002h0Z" transform="translate(-6897.9 -6788.58)"/><path class="cls-1" d="M7349.6,7002.11h0Z" transform="translate(-6897.9 -6788.58)"/><path class="cls-2" d="M7354.79,7269.41h0Z" transform="translate(-6897.9 -6788.58)"/><path class="cls-1" d="M7412.76,6876.91a299.62,299.62,0,0,0-213.26-88.33,295.12,295.12,0,0,0-116.06,23.71,305,305,0,0,0-96,64.59c-57.76,57.32-89.57,133.07-89.57,213.29a300.68,300.68,0,0,0,95.84,220.49l2.29,2.13v.08c21.63,20.6,45.31,33.29,74.1,40.47,19,4.74,48.09,3.52,48.33,3.51a140.17,140.17,0,0,0,59-18.81c17-10.08,32.38-24.33,45.85-42.37,19.34-25.9,32.91-57.49,41.51-96.58.9-4.11,1.83-8.12,2.81-12.37.45-1.95.9-3.93,1.37-5.95l1.7-7.47,7.35,2.18c18.73,5.54,33.1,16,43.93,31.91l3.31,4.85-4.1,4.21c-9.66,9.93-14.64,22.17-15.23,37.41-.18,4.76,1.8,10,7.92,10.28.21,0,.43,0,.64,0,6.78,0,8.28-6.09,8.58-9.72.24-3.07.72-6,1.19-8.87.19-1.21.39-2.43.57-3.65l1.7-11.73,9.62,6.93a15.58,15.58,0,0,1,5.46,7c.71,1.62,1.37,3.24,2,4.81,1.33,3.24,2.59,6.3,4.08,9.16a7.58,7.58,0,0,0,7.12,4.1,13,13,0,0,0,1.62-.11c2.74-.38,5.82-2.57,6.25-5.58.29-2.07-.11-4.91-1.19-8.42a110.74,110.74,0,0,0-4.14-10.65c-.75-1.77-1.53-3.6-2.31-5.54l-6.13-15.14,15.3,5.69c.75.28,1.4.49,2,.7a20.47,20.47,0,0,1,4.26,1.81c1.89,1.12,3.68,2.3,5.43,3.44,1.22.81,2.38,1.57,3.55,2.3a9.72,9.72,0,0,0,5.1,1.56,7.89,7.89,0,0,0,6.36-3.23,8.11,8.11,0,0,0-1.24-11.58c-11.13-9.31-22.83-13.84-35.77-13.84-1.47,0-3,.06-4.49.18-.57,0-1.13.07-1.66.07a13.6,13.6,0,0,1-11.82-6.39c-9.28-13.23-20.51-23.36-33.38-30.11-4.45-2.33-9.13-4.31-14.09-6.41-2.29-1-4.66-2-7-3l-5.19-2.3,1-5.58a269.26,269.26,0,0,0-.23-101.29l-.88-4.41,3.6-2.72c.19-.14.33-.26.44-.35a9.34,9.34,0,0,1,2.28-1.43c.81-.35,1.58-.6,2.2-.81l.19-.06c21.78-7.2,39.17-20.12,51.67-38.43a12.65,12.65,0,0,1,11-5.75c.9,0,1.75.06,2.55.13,1.48.12,3,.19,4.42.19,12.39,0,23.85-4.44,35-13.56,2.7-2.2,3.66-4.73,3-8a8.11,8.11,0,0,0-8.07-6.95,10.39,10.39,0,0,0-5.55,1.73c-2.86,1.84-5.79,3.58-8.61,5.26q-1.92,1.14-3.81,2.29l-14.84,9,4.12-16.84a133.37,133.37,0,0,1,4.58-14.28c.85-2.33,1.66-4.53,2.37-6.74a7.56,7.56,0,0,0-.44-6,8.61,8.61,0,0,0-5.18-4.18,9.12,9.12,0,0,0-2.68-.42c-3.2,0-5.95,2-7.55,5.45-1.7,3.72-3.32,7.63-4.88,11.42-.73,1.76-1.46,3.53-2.2,5.28l-2.07,4.91-5.29-.54-1.38-.15-5.65-.58-.74-5.64-.57-4.28c-.42-3.23-.85-6.46-1.27-9.68-.62-4.87-4-8.14-8.44-8.14l-.63,0a8.42,8.42,0,0,0-7.87,8.8,70.67,70.67,0,0,0,1.23,12,50.12,50.12,0,0,0,14.14,27.18l4.25,4.26-3.45,4.94c-11.11,15.93-25.75,26.3-44.77,31.7l-5.67,1.61-2.69-5.24c-.28-.53-.53-1.05-.78-1.55-.49-1-.91-1.8-1.35-2.58a8.33,8.33,0,0,0-7.3-4.6,8.53,8.53,0,0,0-2.56.4,7.93,7.93,0,0,0-5.85,9.14,31.86,31.86,0,0,0,1.72,5.91l.32.9c13.09,37.08,15.31,76.73,6.76,121.22-1.34,7-3.3,13.8-5.2,20.4-1.74,6-3.39,11.76-4.6,17.6-8.38,40.5-20,69.75-37.84,94.84-27.75,39.15-64.24,58.36-108.44,59a171.49,171.49,0,0,1-43.58-4.83s-53.93-12.69-92.1-65.4c0,0,45.44,54.23,111,51.43,27.34-3.72,43.94-14.23,57.18-31.75s18.19-42.24,17.14-64.88c-.24-5.13-3.7-8.75-8.42-8.8h-.1c-4.55,0-8.2,3.68-8.49,8.56-.08,1.24-.06,2.57-.05,4,0,1.1,0,2.25,0,3.43.61,77.41-71.8,76.9-80.88,74.94-48.7-10.55-72.13-39-72.13-39a281,281,0,0,1-64-178.08c0-151.78,128.23-280,280-280,154.4,0,280,125.61,280,280s-125.61,280-280,280c-11.79,0-28.1-2.79-39.78-8.83-12.18,6.72-35.47,9.07-74.21,8.61,24.77,9.09,41.51,14.24,67.39,18.22a306.89,306.89,0,0,0,46.6,3.58,301.6,301.6,0,0,0,213.26-514.86Z" transform="translate(-6897.9 -6788.58)"/><path class="cls-1" d="M7282.78,6972.35a18.83,18.83,0,0,1-4.76,9.33,46.17,46.17,0,0,1-11.42,9.31,1.13,1.13,0,0,1-1,0,43.81,43.81,0,0,1-12.61-10.74,16.13,16.13,0,0,1-3.73-9.26,8.31,8.31,0,0,1,11.78-8,15.15,15.15,0,0,1,5,3.84c.76-.71,1.44-1.42,2.2-2,2.31-1.89,4.87-3,7.94-2.42C7280.77,6963.31,7283.54,6967.55,7282.78,6972.35Z" transform="translate(-6897.9 -6788.58)"/><path class="cls-1" d="M7149.9,6972.35a18.83,18.83,0,0,1-4.76,9.33,46.35,46.35,0,0,1-11.42,9.31,1.15,1.15,0,0,1-1,0,43.9,43.9,0,0,1-12.6-10.74,16.13,16.13,0,0,1-3.73-9.26,8.31,8.31,0,0,1,11.78-8,15.15,15.15,0,0,1,5,3.84c.76-.71,1.44-1.42,2.2-2,2.31-1.89,4.87-3,7.94-2.42A8.45,8.45,0,0,1,7149.9,6972.35Z" transform="translate(-6897.9 -6788.58)"/></svg>