<svg id="Layer_2" data-name="Layer 2" xmlns="http://www.w3.org/2000/svg" viewBox="0 0 836.9795 336.0829"><defs><style>.cls-1{fill:#fff;}.cls-2{fill:#282929;}</style></defs><title>Gila_logo_front_page</title><path class="cls-1" d="M2301.22,2032.4915c.5405-1.74,1.0993-3.54,1.6093-5.298.78-2.69-.2287-5.127-2.5109-6.0653a4.5734,4.5734,0,0,0-1.7438-.3569,4.8476,4.8476,0,0,0-4.2285,2.8544c-.2057.3984-.41.7973-.6372,1.24l-.36.7015-1.4766,2.8752-3.1-.9138c-10.4727-3.0866-18.4083-8.7423-24.26-17.29l-1.8062-2.6382,2.23-2.2909c5.6926-5.8476,8.41-12.9369,8.3074-21.6731a4.4355,4.4355,0,0,0-4.3155-4.3977c-.0707-.0032-.1417-.0048-.2121-.0048h0a4.5178,4.5178,0,0,0-4.4673,3.9213c-.0743.5045-.1229,1.054-.1743,1.6359-.0733.8287-.1491,1.6857-.31,2.6-.1944,1.1009-.46,2.136-.7667,3.3346-.14.5484-.2935,1.145-.4564,1.815l-2.8575,11.7491-4.5533-11.2016c-.4658-1.1457-.8953-2.21-1.3024-3.2182-.8376-2.0748-1.561-3.8666-2.3128-5.662-1.05-2.5075-2.7347-3.9457-4.6219-3.9458a4.7985,4.7985,0,0,0-1.8566.405c-3.07,1.2916-3.0891,4.4481-2.0831,6.9714.7855,1.9707,1.6048,3.9753,2.3971,5.9139q.55,1.3449,1.0976,2.69l.8808,2.1661-1.4939,1.7989-.5022.6047-2.1513,2.59-2.8783-1.7472q-.97-.5891-1.9467-1.1687c-1.46-.8715-2.97-1.7727-4.45-2.7309a6.221,6.221,0,0,0-3.3359-1.0863,4.119,4.119,0,0,0-3.4168,1.7635c-1.6187,2.1936-1.0923,4.8438,1.341,6.7519,5.95,4.6653,11.9334,6.9331,18.2927,6.9331.9044,0,1.8307-.047,2.7529-.14.342-.0344.6783-.0518.9993-.0518a7.4533,7.4533,0,0,1,6.425,3.5282,51.0108,51.0108,0,0,0,18.7713,16.6379c2.2751,1.154,4.6812,2.1538,7.2285,3.2124,1.2081.5021,2.4574,1.0212,3.729,1.5724l2.904,1.2587-.6306,3.1016a145.83,145.83,0,0,0-.401,55.2241l.534,2.9538-2.7173,1.2753c-.1738.0816-.3175.1538-.4429.2165a8.396,8.396,0,0,1-1.2192.5238,53.88,53.88,0,0,0-28.258,21.084,7.57,7.57,0,0,1-5.9807,2.7681q-.229,0-.4458-.0142c-.72-.0463-1.4424-.07-2.1476-.07-7.447,0-14.0606,2.5237-20.2188,7.7154a4.4572,4.4572,0,0,0-1.0465,5.1509,4.316,4.316,0,0,0,3.6247,2.7189,2.8709,2.8709,0,0,0,.48-.0407,12.9417,12.9417,0,0,0,3.3982-1.4755c.51-.2746,1.0378-.5585,1.5867-.8306,1.0715-.5313,2.13-1.1349,3.2515-1.7739.5168-.2946,1.0336-.5891,1.5533-.8776l7.7571-4.3063-2.0649,8.6286a65.0872,65.0872,0,0,1-2.707,8.2565c-.2945.7738-.5871,1.5422-.8679,2.315a5.0381,5.0381,0,0,0,.06,3.8974,4.4079,4.4079,0,0,0,2.6249,2.2634,4.6156,4.6156,0,0,0,1.5165.2664,4.86,4.86,0,0,0,4.324-3.1784c.9133-1.9689,1.7288-3.9634,2.5922-6.0749.3882-.9494.7765-1.8987,1.1733-2.844l1.1065-2.6362,2.8472.2589.7094.0646,3.0893.2809.4247,3.0729q.1807,1.3068.3542,2.6146c.2524,1.8821.5134,3.8283.8055,5.717a4.3476,4.3476,0,0,0,4.4811,3.72c.1051,0,.2105-.003.3171-.009a4.1545,4.1545,0,0,0,4.117-3.99,43.32,43.32,0,0,0-.7807-8.2594,27.0336,27.0336,0,0,0-7.3357-13.7259l-2.2409-2.35,1.9022-2.6317c6.5536-9.0665,15.9765-15.7241,24.006-16.9611l2.9908-.4608,1.1923,2.7813.3683.862c.2682.6286.5409,1.2679.8189,1.9049.9472,2.1711,2.6154,3.4673,4.4622,3.4673a4.6315,4.6315,0,0,0,1.7047-.3421c2.464-.9749,3.4006-3.3983,2.4441-6.3244-.3529-1.08-.7338-2.1449-1.1371-3.2728-.7215-2.0177-1.4675-4.1041-2.0432-6.2847a127.3816,127.3816,0,0,1-2.0548-55.9846A121.9114,121.9114,0,0,1,2301.22,2032.4915Z" transform="translate(-2167.7493 -1890.7288)"/><path class="cls-1" d="M2336.08,2027.013c.0154-4.4124.0313-8.9751-.0324-13.4442a4.6337,4.6337,0,0,0-4.5154-4.7516,4.7491,4.7491,0,0,0-1.73.336c-1.0416.4064-2.98,1.1627-2.9812,6.0523q-.0026,15.2722.0088,30.5444c.0112,21.6531.0227,44.0435-.037,66.0681-.06,22.0639-4.1613,39.001-12.9073,53.3023a4.33,4.33,0,0,0,1.3859,5.5441,5.1657,5.1657,0,0,0,2.8444.9118,4.3661,4.3661,0,0,0,3.5009-1.7944,31.7657,31.7657,0,0,0,2.9107-4.704c7.4614-14.3373,11.2095-30.5487,11.4584-49.5608.1474-11.26.1111-22.7279.0761-33.8178-.0154-4.8993-.0314-9.9654-.0314-14.951v-3.9044h.0351v-29.8547Q2336.0659,2030.0011,2336.08,2027.013Z" transform="translate(-2167.7493 -1890.7288)"/><path class="cls-1" d="M2348.0526,1967.874a69.1282,69.1282,0,0,1,7.6074,10.4358c.7052,1.1079,1.4344,2.2535,2.159,3.3429a5.2133,5.2133,0,0,0,4.2091,2.5988,4.369,4.369,0,0,0,2.1277-.5793,4.6194,4.6194,0,0,0,1.795-6.3191,55.6914,55.6914,0,0,0-13.1408-17.8726c-6.5142-5.7725-13.4377-8.7246-21.1557-9.0181-.6937.096-1.3782.175-2.0433.2517a30.9927,30.9927,0,0,0-4.319.696c-12.7064,3.3837-21.8386,12.0718-28.74,27.3421a3.17,3.17,0,0,0,.1075,2.714,5.0042,5.0042,0,0,0,3.1921,2.6,4.8293,4.8293,0,0,0,1.2025.1631c1.6282,0,3.1294-1.0714,4.4619-3.1845q.53-.84,1.0568-1.6869a70.6924,70.6924,0,0,1,8.35-11.5439c4.9341-5.1965,10.6623-7.9433,16.5654-7.9435C2337.4159,1959.8705,2343.1438,1962.6381,2348.0526,1967.874Z" transform="translate(-2167.7493 -1890.7288)"/><path class="cls-1" d="M2411.794,2015.3081l.0191,0-.0144,0Z" transform="translate(-2167.7493 -1890.7288)"/><polygon class="cls-1" points="245.109 124.637 245.116 124.637 245.109 124.637 245.102 124.636 245.109 124.637"/><path class="cls-2" d="M2415.6778,2160.4138c.017,0,.0331.0031.05.0031l.0239-.0009C2415.7269,2160.4161,2415.7026,2160.414,2415.6778,2160.4138Z" transform="translate(-2167.7493 -1890.7288)"/><path class="cls-1" d="M2447.1327,1947.4277a162.5869,162.5869,0,0,0-115.7246-47.9346,160.2384,160.2384,0,0,0-62.9814,12.8672,165.5047,165.5047,0,0,0-52.0762,35.0518c-31.3409,31.1047-48.6012,72.2087-48.6012,115.74a163.1626,163.1626,0,0,0,52.0049,119.6422l1.24,1.1576v.0456a86.3459,86.3459,0,0,0,40.2095,21.9574c10.3231,2.5742,26.1009,1.91,26.23,1.9073a76.0548,76.0548,0,0,0,32.0327-10.2068,86.5966,86.5966,0,0,0,24.8789-22.9949c10.4911-14.0506,17.8587-31.1936,22.5238-52.4086.49-2.2257.9919-4.4034,1.5238-6.709.2446-1.06.4923-2.1341.7423-3.2283l.9265-4.0556,3.9888,1.1816a42.23,42.23,0,0,1,23.838,17.3163l1.7917,2.6344-2.2214,2.2838c-5.2428,5.39-7.9465,12.03-8.2655,20.3014-.0995,2.5791.9773,5.3991,4.2979,5.5789.1166.0063.2322.01.3459.01,3.6811,0,4.4972-3.3056,4.6561-5.276.134-1.6627.3937-3.2629.6449-4.81.1072-.66.2145-1.3206.3106-1.9817l.9251-6.3683,5.2211,3.7617a8.52,8.52,0,0,1,2.9629,3.8159c.3812.8767.7434,1.7584,1.0936,2.6111.722,1.7576,1.4039,3.4178,2.214,4.9689a4.1117,4.1117,0,0,0,3.862,2.2263,6.4652,6.4652,0,0,0,.8828-.0625,3.978,3.978,0,0,0,3.3869-3.0243,11.1453,11.1453,0,0,0-.646-4.5724,60.6386,60.6386,0,0,0-2.2417-5.7785c-.4084-.96-.8307-1.9527-1.258-3.0079l-3.3252-8.2115,8.3043,3.0862c.4068.1512.7572.2682,1.096.3813a11.0891,11.0891,0,0,1,2.3119.9781c1.0221.61,1.9986,1.2507,2.943,1.8707.6654.4368,1.2938.8494,1.9313,1.2479a5.2565,5.2565,0,0,0,2.7673.8455,4.2873,4.2873,0,0,0,3.4511-1.7532,4.4035,4.4035,0,0,0-.6751-6.2843c-6.0389-5.0532-12.388-7.51-19.41-7.51-.8,0-1.6186.0334-2.4343.0992-.3116.0251-.6156.0379-.9034.0379a7.38,7.38,0,0,1-6.4163-3.4683,51.2764,51.2764,0,0,0-18.1122-16.3384c-2.4118-1.2641-4.9524-2.34-7.6421-3.4795-1.2436-.5268-2.53-1.0714-3.8189-1.643l-2.8154-1.2479.5577-3.0286a145.9727,145.9727,0,0,0-.1235-54.9622l-.474-2.3976,1.95-1.4741c.102-.0771.1779-.1389.2387-.1882a5.0458,5.0458,0,0,1,1.2394-.7792c.4411-.19.857-.3264,1.1912-.4363l.1028-.0339a53.3668,53.3668,0,0,0,28.0431-20.8519,6.8537,6.8537,0,0,1,5.97-3.1224c.49,0,.9522.0352,1.3839.0712.8034.067,1.6107.101,2.3994.101,6.7244,0,12.9438-2.4066,19.0135-7.3574a4.1186,4.1186,0,0,0,1.6413-4.32,4.4018,4.4018,0,0,0-4.3789-3.7708,5.6158,5.6158,0,0,0-3.0125.94c-1.5549.9968-3.1411,1.9421-4.675,2.8563q-1.0351.6169-2.0676,1.2385l-8.0506,4.872,2.2366-9.14a71.8278,71.8278,0,0,1,2.486-7.747c.4614-1.2643.8972-2.4586,1.2871-3.66a4.1123,4.1123,0,0,0-.24-3.2363,4.6515,4.6515,0,0,0-2.8112-2.2692,4.9354,4.9354,0,0,0-1.4535-.2294,4.5486,4.5486,0,0,0-4.0969,2.9585c-.9265,2.0168-1.8026,4.1407-2.65,6.1946-.395.9574-.79,1.9148-1.1923,2.8688l-1.1231,2.6631-2.875-.2966-.7454-.0769-3.0691-.3165-.4015-3.0592-.3061-2.3267q-.3459-2.6256-.6875-5.2516a4.6727,4.6727,0,0,0-4.58-4.4155q-.17,0-.3438.0118a4.5687,4.5687,0,0,0-4.27,4.7731,37.9836,37.9836,0,0,0,.6678,6.5372,27.1917,27.1917,0,0,0,7.6692,14.7526l2.308,2.3123-1.8691,2.68a42.7,42.7,0,0,1-24.2954,17.2028l-3.0787.8744-1.4615-2.8474c-.1477-.2879-.2874-.5661-.4233-.8369-.2635-.5249-.4909-.9782-.7278-1.4017a4.5292,4.5292,0,0,0-3.9628-2.4988,4.6013,4.6013,0,0,0-1.388.22,4.3008,4.3008,0,0,0-3.1789,4.956,17.4007,17.4007,0,0,0,.9354,3.2119l.1721.4839c7.1072,20.1237,8.3083,41.6411,3.6719,65.7819-.7281,3.791-1.7937,7.49-2.8244,11.067-.9455,3.2819-1.8386,6.3819-2.4943,9.55-4.55,21.9808-10.8827,37.8543-20.5347,51.4686-15.06,21.2421-34.86,31.6651-58.8427,32.0128a93.1932,93.1932,0,0,1-23.6493-2.6172s-29.2634-6.8871-49.9772-35.4919c0,0,24.6593,29.4268,60.213,27.9084,14.8336-2.0161,23.8413-7.7209,31.0265-17.2278,7.1819-9.5023,9.8689-22.9207,9.2984-35.2068a4.6593,4.6593,0,0,0-4.5674-4.7755l-.0528,0a4.7248,4.7248,0,0,0-4.6092,4.6446c-.04.6731-.0334,1.3949-.0263,2.159.0056.6-.01,1.22-.005,1.864.3322,42.0058-38.9636,41.73-43.89,40.6626-26.4268-5.7258-39.1411-21.1381-39.1411-21.1381a152.5112,152.5112,0,0,1-34.717-96.6335c0-82.3632,69.5825-151.9459,151.9456-151.9459,83.7833,0,151.946,68.1626,151.946,151.9459s-68.1627,151.9463-151.946,151.9463c-6.3991,0-15.2475-1.5141-21.585-4.787-6.6087,3.6428-19.2466,4.9168-40.2686,4.67,13.4393,4.9319,22.5222,7.7266,36.5662,9.8871a166.8447,166.8447,0,0,0,25.2874,1.9429,163.66,163.66,0,0,0,115.7246-279.384Z" transform="translate(-2167.7493 -1890.7288)"/><path class="cls-1" d="M2376.5977,1999.2158a10.1817,10.1817,0,0,1-2.5818,5.061,24.9955,24.9955,0,0,1-6.1964,5.0532.6039.6039,0,0,1-.5181.0127,23.8261,23.8261,0,0,1-6.838-5.828,8.7488,8.7488,0,0,1-2.026-5.0238,4.5054,4.5054,0,0,1,6.3907-4.3467,8.1606,8.1606,0,0,1,2.6975,2.0827c.4154-.3868.7848-.77,1.1941-1.1045a5.0244,5.0244,0,0,1,4.3076-1.3126A4.5836,4.5836,0,0,1,2376.5977,1999.2158Z" transform="translate(-2167.7493 -1890.7288)"/><path class="cls-1" d="M2304.4905,1999.2158a10.1809,10.1809,0,0,1-2.5818,5.061,24.9968,24.9968,0,0,1-6.1963,5.0532.604.604,0,0,1-.5181.0127,23.8248,23.8248,0,0,1-6.838-5.828,8.749,8.749,0,0,1-2.0261-5.0238,4.5054,4.5054,0,0,1,6.3907-4.3467,8.1609,8.1609,0,0,1,2.6976,2.0827c.4154-.3868.7847-.77,1.1941-1.1045a5.0241,5.0241,0,0,1,4.3075-1.3126A4.5834,4.5834,0,0,1,2304.4905,1999.2158Z" transform="translate(-2167.7493 -1890.7288)"/><path class="cls-1" d="M2706.1119,2011.479l-17.2231,1.7562q.7,1.0537,4.5694,7.3762a54.1365,54.1365,0,0,1,5.9753,14.05q2.4554,7.03,2.46,18.9672a55.9916,55.9916,0,0,1-7.5571,28.9766q-7.5622,12.8256-22.3187,20.5467,17.2164,11.245,25.1306,23.8846,7.9086,12.6417,7.9086,32.3124.3464,16.86-8.0843,29.6791a69.9392,69.9392,0,0,1-22.1429,21.2492,107.8637,107.8637,0,0,1-30.5788,12.6448,124.9081,124.9081,0,0,1-33.0392,3.8636c-32.5722,0-54.3961-6.123-75.7625-28.0712l21.1709-43.47c14.8035,13.5164,35.7275,25.53,52.8342,25.53a51.782,51.782,0,0,0,28.1183-7.7274q12.6537-7.3761,12.6537-21.7771,0-14.7523-11.4235-22.303-11.4261-7.5475-28.2941-7.5507a101.719,101.719,0,0,0-21.6157,2.1075q-9.6711,2.1074-21.6167,5.9711l4.2179-16.86a76.0122,76.0122,0,0,1-27.9426-24.9383,60.87,60.87,0,0,1-11.0709-35.1223,77.4859,77.4859,0,0,1,50.0855-73.9359,88.1682,88.1682,0,0,1,32.16-5.7944,71.0215,71.0215,0,0,1,7.2056.5279q4.7453.5268,11.774,1.2283,7.0272.7077,12.4779,1.23,5.4456.5268,8.9631.877a133.73,133.73,0,0,0,29.5242-3.687q16.1619-3.688,31.9847-7.5528ZM2586.96,2065.3939a36.2132,36.2132,0,0,0,7.3814,10.7119,34.2852,34.2852,0,0,0,10.5437,7.2016,30.0509,30.0509,0,0,0,24.6034,0,36.0728,36.0728,0,0,0,10.5447-7.0249,34.19,34.19,0,0,0,7.3813-10.5373,32.1307,32.1307,0,0,0,2.812-13.5219,30.9809,30.9809,0,0,0-2.812-13.3473,37.3523,37.3523,0,0,0-7.3813-10.5373,32.3224,32.3224,0,0,0-45.6918,0,37.1453,37.1453,0,0,0-7.3814,10.5373,32.6646,32.6646,0,0,0,0,26.5179Z" transform="translate(-2167.7493 -1890.7288)"/><path class="cls-1" d="M2846.0941,1897.808v251.1644l-49.8956.3593v-251.883Z" transform="translate(-2167.7493 -1890.7288)"/><path class="cls-1" d="M2890.5485,1982.4968a131.6535,131.6535,0,0,1,22.7089-5.4335,150.5243,150.5243,0,0,1,22.7089-1.9177q32.6211,0,50.6923,14.0632,18.0664,14.0679,18.07,43.7858v116.6567l-43.1769-.32v-16.3005h-.96q-12.1587,18.8622-40.938,18.8574-27.5114,0-42.2175-16.62-14.7165-16.6125-14.7128-43.4661a52.1593,52.1593,0,0,1,4.6368-22.3733,52.88,52.88,0,0,1,12.6348-17.0986,55.6487,55.6487,0,0,1,18.71-11.0259,67.3217,67.3217,0,0,1,22.8678-3.8354,65.7569,65.7569,0,0,1,36.78,12.4651,23.1645,23.1645,0,0,0,.32-5.1139q0-16.9359-7.3564-22.3732-7.3611-5.43-24.6261-5.4335-21.11,0-35.8224,5.4335Zm25.5875,124.8061q7.0318,5.9176,17.5914,5.9139,10.5519,0,17.5895-5.9139,7.0319-5.9093,7.0365-16.14,0-9.9035-7.0365-15.6613-7.0376-5.7531-17.5895-5.7531-10.5549,0-17.5914,5.7531-7.04,5.7533-7.0366,15.6613Q2909.0994,2101.3957,2916.136,2107.3029Z" transform="translate(-2167.7493 -1890.7288)"/><path class="cls-1" d="M2754.8242,1964.2851a1.9982,1.9982,0,0,1-1.7135.0421c-8.6031-5.1659-16.462-11.2334-22.6155-19.2617-.5283-.6889-1.0289-1.39-1.5112-2.099v206.525l49.8955-.32V1942.9332a49.2433,49.2433,0,0,1-3.5618,4.651A82.6589,82.6589,0,0,1,2754.8242,1964.2851Z" transform="translate(-2167.7493 -1890.7288)"/><path class="cls-1" d="M2738.6523,1925.3491l.6172.0038C2739.0622,1925.3439,2738.8583,1925.35,2738.6523,1925.3491Z" transform="translate(-2167.7493 -1890.7288)"/><path class="cls-1" d="M2778.88,1900.999a14.9024,14.9024,0,0,0-6.8315-3.3106c-.0692-.0139-.1344-.0141-.2032-.0271l-5.2447-.0336a19.4551,19.4551,0,0,0-8.7985,4.399c-1.3539,1.1052-2.5754,2.3721-3.9495,3.6505a26.98,26.98,0,0,0-8.9216-6.8833,15.5915,15.5915,0,0,0-5.661-1.3414l-.6172-.0038a14.77,14.77,0,0,0-9.6683,3.5577,15.02,15.02,0,0,0-5.19,12.1532,27.37,27.37,0,0,0,5.19,14.5046c.4823.709.9829,1.41,1.5112,2.099,6.1535,8.0283,14.0124,14.0958,22.6155,19.2617a1.9985,1.9985,0,0,0,1.7135-.042,82.6593,82.6593,0,0,0,20.4935-16.701,49.2433,49.2433,0,0,0,3.5618-4.651,29.802,29.802,0,0,0,4.9771-12.0755A15.666,15.666,0,0,0,2778.88,1900.999Z" transform="translate(-2167.7493 -1890.7288)"/><path class="cls-1" d="M2668.1084,1923.36c-.3126-4.7066-6.2585-6.6394-8.2123-7.2756l-2.8849-.9378-.066,3.0335c-.0969,4.5019-1.4816,10.089-4.1155,16.6029a99.686,99.686,0,0,1-7.6355,14.987,115.438,115.438,0,0,0-7.7588-23.885c-4.2025-8.9795-8.0967-12.9926-12.3058-12.7614a17.0514,17.0514,0,0,0-7.4087,2.5844l-2.5768,1.5233,2.175,2.0539a39.1263,39.1263,0,0,1,6.504,8.4578,13.881,13.881,0,0,1-3.5662.7594,23.1669,23.1669,0,0,1-13.1665-3.2712c-5.3131-6.4259-11.7521-9.7412-19.1455-9.8578l-1.2427-.02-.68,1.0412a8.5746,8.5746,0,0,0-1.4892,5.3252c.0121.1827.0341.3654.0649.5525a23.9561,23.9561,0,0,0-17.0013,9.01,26.068,26.068,0,0,0-6.1595,14.3949,97.5047,97.5047,0,0,1-6.2332,9.5452c-2.7154,3.4628-5.4462,5.31-8.1154,5.4836a2.2062,2.2062,0,0,1-2.1354-.7132c-.4292-.5107-.9719-1.6048-1.1249-3.9251a55.3285,55.3285,0,0,1,.67-8.9927l7.0632-56.3466-4.2718,3.2558a17.23,17.23,0,0,1-9.6289,3.4122,20.5568,20.5568,0,0,1-10.4092-1.8822l-3.4859-1.6841.3192,4.8276c.2554,3.8415,2.22,10.155,12.5611,9.5056.0187-.0022.0374-.0022.0561-.0044l-5.1765,39.5325a55.1431,55.1431,0,0,0-.6318,10.2409,17.7183,17.7183,0,0,0,4.25,11.0752,11.7637,11.7637,0,0,0,9.0289,4.0329c.3126,0,.6307-.011.9521-.0308,5.1953-.3434,10.5843-4.0087,16.4752-11.2007.6637-.8123,1.3385-1.68,2.02-2.5932a19.9492,19.9492,0,0,0,4.6944,6.1881c4.219,3.7534,9.5045,5.444,15.7157,5.0412,7.9658-.5262,14.7769-4.2641,20.244-11.1126a32.6612,32.6612,0,0,0,7.3658-21.9721,33.1481,33.1481,0,0,0,8.2728.6054,23.6984,23.6984,0,0,0,8.08-2.0319q.1751.4.3479.8057a67.8938,67.8938,0,0,1,5.7291,21.8422,24.9329,24.9329,0,0,1-.4711,5.8755l-.5559,3.0753,3.0941-.4424c3.9548-.568,6.7516-1.3891,8.5469-2.5074,1.7919-1.1117,3.7808-3.2823,6.0824-6.635a185.1863,185.1863,0,0,0,11.9392-20.1185C2667.6934,1928.0819,2668.213,1924.9779,2668.1084,1923.36Zm-78.3385,7.2734a17.3347,17.3347,0,0,1,2.1276.1541,21.6164,21.6164,0,0,0,5.7489,2.6483,18.9457,18.9457,0,0,1,.9752,4.8518,26.4959,26.4959,0,0,1-3.6565,16.02c-2.7088,4.3676-5.9624,6.62-9.9458,6.8837a8.5348,8.5348,0,0,1-7.0654-2.6064,12.1438,12.1438,0,0,1-3.3274-8.1187,19.4823,19.4823,0,0,1,4.1012-13.47c3.0005-3.9977,6.4512-6.0736,10.5325-6.3488C2589.42,1930.6377,2589.5893,1930.6333,2589.77,1930.6333Z" transform="translate(-2167.7493 -1890.7288)"/><path class="cls-1" d="M2727.0153,1918.2153l-1.0082,1.8866a85.0067,85.0067,0,0,1-17.5935,23.2444c-6.4369,5.81-12.4676,8.94-17.9248,9.2987-3.4441.2135-7.4231-.4557-8.5491-7.2734a39.4836,39.4836,0,0,0,19.2126-7.3659c6.3972-4.7131,9.4462-10.0383,9.0642-15.8257a11.2449,11.2449,0,0,0-4.6438-8.7417,15.3258,15.3258,0,0,0-10.3069-2.58,27.3961,27.3961,0,0,0-20.1581,10.723,31.9847,31.9847,0,0,0-7.0609,22.8526c.4061,6.1639,2.4017,11.0267,5.9294,14.4565a17.0562,17.0562,0,0,0,12.3608,4.7616q.7826,0,1.5938-.0528c8.3146-.5482,16.9187-4.667,25.5735-12.2376a80.3758,80.3758,0,0,0,20.2329-27.5349l.92-2.0275Zm-34.258,13.3448a24.35,24.35,0,0,1-10.6778,5.03,26.71,26.71,0,0,1,4.3081-11.2006h.0011c2.5514-3.7094,5.2988-5.6136,8.3983-5.8183.1695-.011.3357-.02.4953-.02,1.1855,0,2.0682.4227,2.2344,2.95C2697.7314,1925.7528,2696.1739,1928.7159,2692.7573,1931.56Z" transform="translate(-2167.7493 -1890.7288)"/></svg>