<svg id="Layer_1" data-name="Layer 1" xmlns="http://www.w3.org/2000/svg" viewBox="0 0 38 26"><defs><style>.cls-1{fill:#e1ebf2;}.cls-2{fill:#788b9c;}.cls-3{fill:#5e9c76;}.cls-4{fill:#c74343;}.cls-5{fill:#4e7ab5;}.cls-6{fill:#fff;}</style></defs><title>JCB</title><g id="surface1"><path class="cls-1" d="M4,32.5A2.5023,2.5023,0,0,1,1.5,30V10A2.5023,2.5023,0,0,1,4,7.5H36A2.5023,2.5023,0,0,1,38.5,10V30A2.5023,2.5023,0,0,1,36,32.5Z" transform="translate(-1 -7)"/><path class="cls-2" d="M36,8a2.0038,2.0038,0,0,1,2,2V30a2.0038,2.0038,0,0,1-2,2H4a2.0038,2.0038,0,0,1-2-2V10A2.0038,2.0038,0,0,1,4,8H36m0-1H4a3.0008,3.0008,0,0,0-3,3V30a3.0008,3.0008,0,0,0,3,3H36a3.0007,3.0007,0,0,0,3-3V10A3.0008,3.0008,0,0,0,36,7Z" transform="translate(-1 -7)"/><path class="cls-3" d="M33,30H27V14a3.9977,3.9977,0,0,1,4-4h6V26A3.9977,3.9977,0,0,1,33,30Z" transform="translate(-1 -7)"/><path class="cls-4" d="M21,30H15V14a3.9977,3.9977,0,0,1,4-4h6V26A3.9977,3.9977,0,0,1,21,30Z" transform="translate(-1 -7)"/><path class="cls-5" d="M9,30H3V14a3.9977,3.9977,0,0,1,4-4h6V26A3.9977,3.9977,0,0,1,9,30Z" transform="translate(-1 -7)"/><path class="cls-6" d="M12,20.332C12,22.7344,9.3438,24,7.4023,24A4.4993,4.4993,0,0,1,3,20.668H4.43a2.2618,2.2618,0,0,0,2.2266,1.93A2.1183,2.1183,0,0,0,8.7109,20.332V16h3.2852v4.332Z" transform="translate(-1 -7)"/><path class="cls-6" d="M34.27,20.02c.8633,0,1.4727-1.0351,1.4727-2.0742A1.8462,1.8462,0,0,0,34.1211,16H27v8h7.27A1.9792,1.9792,0,0,0,36,21.9219,1.816,1.816,0,0,0,34.27,20.02Zm-4.5-3.1836h2.25a1.2584,1.2584,0,0,1,1.0938,1.3086A1.272,1.272,0,0,1,32.02,19.4688H29.77Zm2.3086,6.336H29.7734V20.5352h2.3047a1.3405,1.3405,0,0,1,0,2.6367Z" transform="translate(-1 -7)"/><path class="cls-6" d="M24,17.4531a15.8039,15.8039,0,0,0-3.34-.5781,2.862,2.862,0,0,0-2.5625,3.1211c0,1.7539,1.1328,3.1367,2.5625,3.1367A14.4,14.4,0,0,0,24,22.6172V24H18.2773C16.4883,24,15,22.18,15,19.9961,15,17.8164,16.4883,16,18.2773,16H24Z" transform="translate(-1 -7)"/></g></svg>