<svg id="Layer_1" data-name="Layer 1" xmlns="http://www.w3.org/2000/svg" viewBox="0 0 42 30"><defs><style>.cls-1{fill:#3f51b5;}.cls-2{fill:#ffc107;}.cls-3{fill:#ff3d00;}</style></defs><title>MasterCard</title><g id="surface1"><path class="cls-1" d="M45,35a3.9977,3.9977,0,0,1-4,4H7a3.9977,3.9977,0,0,1-4-4V13A3.9977,3.9977,0,0,1,7,9H41a3.9977,3.9977,0,0,1,4,4Z" transform="translate(-3 -9)"/><path class="cls-2" d="M40,24A10,10,0,1,1,30,14,9.9993,9.9993,0,0,1,40,24Z" transform="translate(-3 -9)"/><path class="cls-3" d="M22.0156,30A9.96,9.96,0,0,1,20.84,28h5.3243a9.9472,9.9472,0,0,0,.6367-2H20.2031A9.8957,9.8957,0,0,1,20,24h7a10.1842,10.1842,0,0,0-.1992-2H20.1992a9.9631,9.9631,0,0,1,.6406-2h5.3243a9.96,9.96,0,0,0-1.1758-2H22.0156a10.033,10.033,0,0,1,1.48-1.5937A10.0023,10.0023,0,1,0,24.9844,30Z" transform="translate(-3 -9)"/></g></svg>