<svg id="Layer_1" data-name="Layer 1" xmlns="http://www.w3.org/2000/svg" viewBox="0 0 44.1338 19.2979"><defs><style>.cls-1{fill:#ffca28;}.cls-2{fill:#f9a825;}.cls-3,.cls-4{fill:#fff;}.cls-4{font-size:6.9957px;font-family:BerlinSansFBDemi-Bold, Berlin Sans FB Demi;font-weight:700;}</style></defs><title>sub_mark</title><g id="surface1"><path class="cls-1" d="M11.1314,12.239l3.3771,6.2718,6.7543.9649L16.4383,24.3l.9649,7.2367L11.1314,28.16,4.86,31.5369,5.8245,24.3,1,19.4757l6.7543-.9649Z" transform="translate(-1 -12.239)"/><path class="cls-2" d="M11.1314,22.37l3.3771-3.86L11.1314,12.239Z" transform="translate(-1 -12.239)"/><path class="cls-2" d="M21.2628,19.4757,11.1314,22.37l5.3069,1.93Z" transform="translate(-1 -12.239)"/><path class="cls-2" d="M17.4032,31.5369,11.1314,22.37V28.16Z" transform="translate(-1 -12.239)"/><path class="cls-2" d="M5.8245,24.3,4.86,31.5369,11.1314,22.37Z" transform="translate(-1 -12.239)"/><path class="cls-2" d="M1,19.4757,11.1314,22.37l-3.3771-3.86Z" transform="translate(-1 -12.239)"/></g><g id="surface1-2" data-name="surface1"><path class="cls-3" d="M9.8436,19.0587a.9614.9614,0,0,0-.5839.2845L7.8222,20.7806a.96.96,0,0,0-.2845.6739v.4791a.96.96,0,0,0,.2845.6738L9.26,24.0449a.96.96,0,0,0,.6738.2845H11.94l.7187.7188-.7187.7187H9.8436L8.93,24.8535,7.5826,26.2012l1.1979,1.1979a.96.96,0,0,0,.6738.2845h2.875a.96.96,0,0,0,.6738-.2845l1.4375-1.4375a.9606.9606,0,0,0,.2845-.6738v-.4792a.96.96,0,0,0-.2845-.6738l-1.4375-1.4375a.96.96,0,0,0-.6738-.2845H10.3228l-.7187-.7188.7187-.7187H11.94l.9134.9134,1.3476-1.3476-1.1979-1.1979a.96.96,0,0,0-.6738-.2845H9.9335A.71.71,0,0,0,9.8436,19.0587Z" transform="translate(-1 -12.239)"/></g><text class="cls-4" transform="translate(14.1973 14.239)">ubscribed</text></svg>