<svg id="Layer_1" data-name="Layer 1" xmlns="http://www.w3.org/2000/svg" viewBox="0 0 42 30"><defs><style>.cls-1{fill:#1565c0;}.cls-2{fill:#fff;}.cls-3{fill:#ffc107;}</style></defs><title>Visa</title><g id="surface1"><path class="cls-1" d="M45,35a3.9977,3.9977,0,0,1-4,4H7a3.9977,3.9977,0,0,1-4-4V13A3.9977,3.9977,0,0,1,7,9H41a3.9977,3.9977,0,0,1,4,4Z" transform="translate(-3 -9)"/><path class="cls-2" d="M15.1875,19l-2.6289,7.832s-.6641-3.3125-.7305-3.73c-1.4961-3.41-3.7031-3.2188-3.7031-3.2188L10.7266,30v-.0039h3.16L18.2578,19Z" transform="translate(-3 -9)"/><path class="cls-2" d="M17.6875,30h2.8711l1.7383-11H19.3906Z" transform="translate(-3 -9)"/><path class="cls-2" d="M38.0078,19h-3.02l-4.711,11h2.8516l.59-1.57h3.5937L37.6172,30h2.6133Zm-3.4961,7.3281,1.5625-4.1562.82,4.1562Z" transform="translate(-3 -9)"/><path class="cls-2" d="M26.3672,22.207c0-.6054.5-1.0586,1.93-1.0586a4.5184,4.5184,0,0,1,1.9883.6758l.4687-2.3086A8.7683,8.7683,0,0,0,28.0625,19c-3.02,0-4.5781,1.4414-4.5781,3.27,0,3.3086,3.98,2.8555,3.98,4.5508,0,.293-.23.9649-1.8906.9649a6.145,6.145,0,0,1-2.7578-.6094L22.32,29.3945A6.7676,6.7676,0,0,0,25.4375,30c2.0586,0,4.918-1.5391,4.918-3.7539C30.3555,23.5859,26.3672,23.3945,26.3672,22.207Z" transform="translate(-3 -9)"/><path class="cls-3" d="M12.2109,24.9453l-.9648-4.75A1.7752,1.7752,0,0,0,9.6719,19.168H5.2344S10.8945,20.84,12.2109,24.9453Z" transform="translate(-3 -9)"/></g></svg>