<?xml version="1.0" encoding="iso-8859-1"?>
<!-- Generator: Adobe Illustrator 24.0.2, SVG Export Plug-In . SVG Version: 6.00 Build 0)  -->
<svg version="1.1" id="Layer_1" xmlns="http://www.w3.org/2000/svg" xmlns:xlink="http://www.w3.org/1999/xlink" x="0px" y="0px"
	 viewBox="0 0 205 305" style="enable-background:new 0 0 205 305;" xml:space="preserve">
<g>
	<g>
		<g>
			<path style="fill:#FFFFFF;" d="M182.841,86.507v-12.08h7.434v12.08h11.895v7.31h-11.895v12.08h-7.434v-12.08h-11.894v-7.31
				H182.841z"/>
		</g>
		<g>
			<g>
				<path style="fill:#FFFFFF;" d="M57.035,139.313c-0.398,0-0.432-0.215-0.448-0.318c-0.156-1.009-0.296-2.048-0.43-3.053
					l-0.641-4.661l-6.637-0.604l-1.166,2.777c-0.216,0.516-0.428,1.034-0.64,1.552c-0.459,1.124-0.892,2.182-1.368,3.207
					c-0.12,0.259-0.33,0.561-0.525,0.561c-0.031,0-0.085-0.006-0.164-0.033c-0.214-0.074-0.257-0.165-0.271-0.195
					c-0.045-0.094-0.058-0.293,0.042-0.566c0.146-0.399,0.297-0.799,0.45-1.201c0.556-1.46,1.121-2.945,1.549-4.736l1.582-6.61
					c1.292-0.254,2.74-0.924,3.655-2.223c3.709-5.262,8.377-8.748,14.271-10.657c0.411-0.134,0.729-0.293,0.939-0.398l0.189-0.093
					l2.867-1.345l-0.563-3.111c-1.784-9.869-1.714-19.669,0.209-29.126l0.664-3.267l-3.059-1.326
					c-0.698-0.302-1.383-0.587-2.046-0.863c-1.341-0.557-2.608-1.084-3.773-1.675c-3.438-1.743-6.428-4.311-8.899-7.638l0.299-1.232
					c3.435,4.998,8.075,8.302,14.184,10.103l3.265,0.963l2.093-4.074c0.146-0.282,0.346-0.463,0.512-0.463
					c0.052,0,0.114,0.015,0.184,0.043c0.364,0.149,0.259,0.661,0.197,0.874c-0.272,0.939-0.571,1.901-0.86,2.831
					c-0.778,2.505-1.583,5.096-2.084,7.822c-1.93,10.489-1.545,20.975,1.145,31.165c0.335,1.269,0.771,2.488,1.156,3.564
					c0.212,0.592,0.412,1.151,0.598,1.718c0.254,0.778-0.014,0.884-0.158,0.941c-0.098,0.039-0.158,0.044-0.186,0.044
					c-0.116,0-0.38-0.215-0.581-0.675l-1.894-4.415l-3.15,0.485c-4.847,0.747-10.462,4.665-14.306,9.983l-2.004,2.772l2.361,2.475
					c1.856,1.946,3.017,4.104,3.45,6.415c0.267,1.421,0.397,2.796,0.388,4.086c0,0.065-0.133,0.165-0.34,0.177L57.035,139.313z
					 M36.254,129.91c-0.057-0.05-0.13-0.135-0.183-0.252c-0.089-0.2-0.014-0.408,0.028-0.444c2.522-2.126,5.19-3.32,8.116-3.625
					l-3.424,1.901c-0.25,0.138-0.859,0.485-0.859,0.485c-0.584,0.333-1.117,0.638-1.658,0.906c-0.317,0.157-0.62,0.32-0.913,0.478
					C37.018,129.544,36.53,129.806,36.254,129.91z M51.624,62.146c-1.188-1.264-2.704-1.925-4.438-1.925
					c-0.237,0-0.487,0.013-0.74,0.038c-0.433,0.044-0.866,0.066-1.29,0.066c-2.976,0-5.81-1.088-8.663-3.325
					c-0.64-0.501-0.452-0.756-0.351-0.893c0.104-0.141,0.161-0.141,0.24-0.141c0.092,0,0.346,0.026,0.718,0.267
					c0.822,0.532,1.659,1.032,2.469,1.516l1.041,0.625l3.032,1.84l4.111-4.95l-1.524-3.741c-0.426-1.044-0.867-2.123-1.29-3.184
					c-0.149-0.374-0.342-1.025,0.045-1.188c0.142-0.06,0.216-0.063,0.229-0.063c0.058,0.013,0.366,0.216,0.656,0.907
					c0.396,0.943,0.775,1.884,1.212,2.967L51.624,62.146z M55.623,52.204c0.085-0.352,0.166-0.666,0.241-0.955
					c0.174-0.68,0.33-1.294,0.447-1.956c0.103-0.583,0.15-1.112,0.191-1.58c0.024-0.273,0.046-0.533,0.081-0.771
					c0.036-0.246,0.212-0.412,0.438-0.412c0.28,0.012,0.447,0.171,0.449,0.405c0.042,3.501-0.857,6.438-2.737,8.927L55.623,52.204z"
					/>
				<path style="fill:#FFFFFF;" d="M43.929,48.581C43.929,48.581,43.929,48.581,43.929,48.581 M47.878,58.242l0.002,0.005
					c-0.002,0-0.004,0-0.006,0L47.878,58.242 M49.895,127.652l1.041,1.091l0.119,0.125l-0.535-0.049l-0.885-0.081l0.215-0.9
					L49.895,127.652 M57.021,44.531c-1.22,0-2.236,0.892-2.417,2.122c-0.04,0.273-0.067,0.57-0.094,0.885
					c-0.04,0.448-0.081,0.912-0.168,1.407c-0.105,0.596-0.249,1.156-0.415,1.804c-0.076,0.297-0.159,0.619-0.247,0.982l-1.546,6.357
					l-2.464-6.061c-0.252-0.62-0.484-1.196-0.705-1.741c-0.453-1.123-0.845-2.092-1.251-3.064c-0.568-1.357-1.48-2.135-2.501-2.135
					c-0.321,0-0.659,0.074-1.005,0.219c-1.661,0.699-1.671,2.407-1.127,3.772c0.425,1.066,0.868,2.151,1.297,3.2
					c0.198,0.485,0.396,0.97,0.594,1.456l0.477,1.172L44.64,55.88l-0.272,0.327l-1.164,1.401l-1.558-0.945
					c-0.35-0.212-0.701-0.422-1.053-0.632c-0.79-0.472-1.607-0.959-2.408-1.478c-0.594-0.384-1.218-0.588-1.805-0.588
					c0,0-0.001,0-0.001,0c-0.748,0-1.387,0.33-1.848,0.954c-0.876,1.187-0.591,2.621,0.726,3.653
					c3.219,2.524,6.457,3.752,9.898,3.752c0.489,0,0.99-0.025,1.49-0.076c0.185-0.018,0.367-0.028,0.54-0.028
					c1.443,0,2.58,0.625,3.477,1.909c2.759,3.955,6.176,6.984,10.157,9.002c1.231,0.625,2.533,1.166,3.911,1.738
					c0.654,0.272,1.33,0.552,2.018,0.851l1.571,0.681l-0.341,1.678c-1.974,9.707-2.047,19.76-0.217,29.881l0.289,1.598l-1.47,0.69
					c-0.094,0.044-0.172,0.083-0.24,0.117c-0.185,0.093-0.395,0.198-0.66,0.284c-6.322,2.048-11.323,5.779-15.29,11.408
					c-0.729,1.035-2.151,1.498-3.236,1.498c-0.083,0-0.163-0.003-0.241-0.008c-0.389-0.025-0.78-0.038-1.162-0.038
					c-4.029,0-7.608,1.366-10.94,4.174c-0.761,0.642-0.999,1.814-0.566,2.787c0.385,0.866,1.192,1.471,1.961,1.471
					c0.086,0,0.174-0.007,0.26-0.022c0.519-0.088,1.16-0.433,1.839-0.799c0.276-0.148,0.562-0.302,0.859-0.449
					c0.58-0.287,1.153-0.614,1.759-0.96c0.28-0.159,0.559-0.319,0.841-0.475l4.197-2.33l-1.117,4.669
					c-0.399,1.666-0.941,3.09-1.465,4.467c-0.159,0.419-0.318,0.835-0.47,1.253c-0.271,0.746-0.26,1.495,0.032,2.109
					c0.272,0.573,0.763,0.996,1.42,1.225c0.275,0.096,0.551,0.144,0.821,0.144c0.98,0,1.833-0.627,2.34-1.72
					c0.494-1.065,0.935-2.145,1.403-3.287c0.21-0.514,0.42-1.027,0.635-1.539l0.599-1.426l1.541,0.14l0.384,0.035l1.671,0.152
					l0.23,1.663c0.065,0.471,0.128,0.943,0.191,1.415c0.137,1.018,0.278,2.071,0.436,3.093c0.186,1.204,1.161,2.013,2.425,2.013
					c0.057,0,0.114-0.002,0.171-0.005c1.262-0.071,2.219-0.999,2.228-2.159c0.01-1.418-0.132-2.922-0.422-4.469
					c-0.506-2.697-1.842-5.196-3.969-7.427l-1.213-1.271l1.029-1.424c3.546-4.906,8.645-8.508,12.989-9.178l1.618-0.249l0.645,1.505
					l0.199,0.466c0.145,0.34,0.293,0.686,0.443,1.031c0.512,1.175,1.415,1.876,2.414,1.876c0.302,0,0.612-0.062,0.922-0.185
					c1.333-0.527,1.84-1.839,1.323-3.422c-0.191-0.584-0.397-1.161-0.615-1.771c-0.39-1.092-0.794-2.221-1.105-3.4
					c-2.614-9.903-2.988-20.095-1.112-30.292c0.48-2.609,1.267-5.142,2.028-7.591c0.292-0.942,0.595-1.915,0.871-2.867
					c0.422-1.455-0.124-2.774-1.359-3.282c-0.312-0.128-0.629-0.193-0.943-0.193c-0.933,0-1.789,0.577-2.288,1.545
					c-0.111,0.215-0.222,0.431-0.345,0.671l-0.195,0.38l-0.799,1.556l-1.677-0.494c-5.667-1.67-9.96-4.73-13.127-9.355l-0.977-1.427
					l1.207-1.24c3.08-3.164,4.551-7,4.495-11.727c-0.015-1.297-1.019-2.32-2.335-2.379C57.097,44.532,57.059,44.531,57.021,44.531
					L57.021,44.531z"/>
			</g>
			<g>
				<path style="fill:#FFFFFF;" d="M83.75,146.604c-0.123,0-0.28-0.058-0.432-0.159c-0.067-0.056-0.147-0.248-0.133-0.332
					c4.914-8.022,7.227-17.517,7.26-29.837c0.032-11.827,0.026-23.848,0.02-35.481c0,0-0.006-11.29-0.005-16.798
					c0-1.066,0.215-1.374,0.217-1.377c0.021-0.002,0.078-0.018,0.123-0.035c0.076-0.03,0.146-0.045,0.209-0.045
					c0.004,0,0.435,0.016,0.443,0.599c0.034,2.407,0.026,4.863,0.018,7.239c-0.004,1.081-0.008,2.161-0.008,3.241v14.153l-0.019,2
					v2.113c0,2.7,0.008,5.443,0.017,8.097c0.019,5.987,0.039,12.179-0.042,18.265c-0.13,9.967-2.084,18.446-5.974,25.919
					c-0.483,0.929-0.937,1.664-1.386,2.249C83.913,146.604,83.799,146.604,83.75,146.604z"/>
				<path style="fill:#FFFFFF;" d="M92.506,63.401C92.506,63.401,92.506,63.401,92.506,63.401
					C92.506,63.401,92.506,63.401,92.506,63.401 M91.01,60.538c-0.312,0-0.627,0.061-0.936,0.182
					c-0.564,0.22-1.613,0.629-1.613,3.275c-0.001,5.509,0.002,11.018,0.005,16.527c0.006,11.716,0.012,23.831-0.02,35.748
					c-0.033,11.938-2.252,21.103-6.984,28.841c-0.623,1.018-0.118,2.423,0.75,3c0.486,0.323,1.018,0.493,1.539,0.493
					c0.74,0,1.413-0.345,1.894-0.971c0.521-0.678,1.037-1.511,1.575-2.545c4.037-7.758,6.065-16.529,6.2-26.816
					c0.08-6.093,0.06-12.298,0.041-18.298c-0.009-2.651-0.017-5.392-0.017-8.09v-2.113h0.019v-3.447V73.618
					c0-1.078,0.004-2.156,0.008-3.234c0.008-2.388,0.017-4.856-0.018-7.274C93.43,61.5,92.193,60.538,91.01,60.538L91.01,60.538z"/>
			</g>
			<g>
				<path style="fill:#FFFFFF;" d="M107.511,45.247c-0.108,0-0.361-0.137-0.611-0.513c-0.386-0.579-0.772-1.187-1.146-1.774
					c-1.28-2.01-2.595-4.074-4.346-5.942c-3.043-3.246-6.647-4.962-10.42-4.962c-3.757,0-7.359,1.702-10.415,4.921
					c-1.943,2.047-3.377,4.343-4.764,6.564l-0.567,0.905c-0.441,0.7-0.724,0.791-0.727,0.791c-0.004,0-0.053-0.001-0.146-0.026
					c-0.147-0.038-0.306-0.153-0.391-0.276c3.458-7.572,7.964-11.871,14.169-13.524c0.568-0.151,1.289-0.234,2.052-0.322
					c0.315-0.037,0.639-0.074,0.967-0.117c3.629,0.177,6.912,1.607,10.029,4.371c2.662,2.359,4.833,5.317,6.636,9.044
					c0.184,0.378,0.137,0.646-0.139,0.799C107.62,45.224,107.555,45.247,107.511,45.247z"/>
				<path style="fill:#FFFFFF;" d="M91.076,28.964c-0.375,0.052-0.746,0.095-1.106,0.136c-0.837,0.097-1.628,0.188-2.337,0.377
					c-6.875,1.831-11.816,6.532-15.55,14.794c-0.259,0.573-0.111,1.115,0.058,1.469c0.324,0.676,0.986,1.215,1.727,1.407
					c0.226,0.059,0.445,0.088,0.651,0.088c0.881,0,1.693-0.58,2.414-1.723c0.191-0.303,0.381-0.608,0.572-0.913
					c1.335-2.137,2.715-4.347,4.518-6.246c2.67-2.812,5.769-4.298,8.963-4.298c0,0,0.001,0,0.001,0c3.207,0,6.306,1.498,8.962,4.331
					c1.626,1.734,2.892,3.723,4.116,5.646c0.382,0.6,0.776,1.219,1.168,1.809c0.594,0.894,1.424,1.406,2.277,1.406
					c0.388,0,0.775-0.105,1.151-0.313c1.219-0.675,1.619-2.081,0.971-3.419c-1.921-3.97-4.247-7.133-7.11-9.671
					C98.998,30.72,95.252,29.123,91.076,28.964L91.076,28.964z"/>
			</g>
			<g>
				<polygon style="fill:#FFFFFF;" points="134.438,64.051 134.448,64.051 134.441,64.05 				"/>
				<polygon style="fill:#FFFFFF;" points="134.441,64.05 134.438,64.051 134.448,64.051 134.441,64.05 				"/>
			</g>
			<path style="fill:#282929;stroke:#FFFFFF;stroke-width:4;stroke-miterlimit:10;" d="M136.539,142.564
				c0.009,0,0.018,0.002,0.027,0.002c0.004,0,0.009,0,0.013,0C136.566,142.566,136.553,142.564,136.539,142.564z"/>
			<g>
				<path style="fill:#FFFFFF;" d="M90.943,176.491c-4.439,0-8.94-0.346-13.378-1.028c-3.096-0.477-5.724-1.007-8.253-1.652
					c4.473-0.345,7.66-1.001,9.963-2.024c3.875,1.737,8.618,2.367,11.668,2.367c43.122,0,79.567-33.19,83.781-75.902h2.354
					c-1.897,19.949-10.701,38.658-24.933,52.889C135.797,167.488,114.062,176.491,90.943,176.491z"/>
				<path style="fill:#FFFFFF;" d="M179.249,96.252h-6.358c-3.238,42.392-38.741,75.902-81.948,75.902
					c-3.463,0-8.25-0.819-11.679-2.59c-3.292,1.815-9.35,2.543-19.166,2.543c-0.846,0-1.72-0.005-2.622-0.016
					c7.272,2.669,12.187,4.181,19.785,5.35c4.496,0.692,9.099,1.051,13.683,1.051c23.653,0,45.891-9.211,62.616-25.937
					C168.786,137.327,177.759,117.526,179.249,96.252L179.249,96.252z"/>
			</g>
			<g>
				<path style="fill:#FFFFFF;" d="M64.569,166.28c-2.636,0-7.586-0.132-11.128-1.015c-2.477-0.618-4.81-1.378-7.024-2.295
					c1.86,0.676,3.044,0.965,3.218,1.006c0.147,0.042,5.419,1.475,12.528,1.474c0.249,0,0.501-0.001,0.754-0.005
					c13.787-0.2,25.038-6.312,33.441-18.165c5.391-7.604,8.918-16.424,11.438-28.6c0.342-1.651,0.813-3.287,1.313-5.019
					c0.573-1.989,1.161-4.03,1.57-6.165c2.577-13.418,1.902-25.402-2.064-36.636l-0.097-0.27c-0.179-0.501-0.364-1.022-0.407-1.337
					c-0.038-0.279-0.02-0.388,0.342-0.502c0.067-0.021,0.117-0.026,0.147-0.026c0.178,0,0.315,0.179,0.399,0.329
					c0.115,0.206,0.224,0.423,0.349,0.674l1.78,3.472l3.242-0.92c6.044-1.716,10.701-5.016,14.24-10.087l1.967-2.823l-2.429-2.435
					c-1.915-1.918-3.093-4.186-3.6-6.933c-0.21-1.139-0.32-2.212-0.328-3.19c-0.001-0.162,0.04-0.543,0.446-0.571
					c0.001,0,0.002,0,0.003,0c0.405,0,0.511,0.403,0.542,0.644l0.961,7.326l6.665,0.688l1.183-2.806
					c0.22-0.521,0.437-1.045,0.651-1.569c0.452-1.094,0.919-2.224,1.402-3.277c0.034-0.074,0.21-0.436,0.399-0.436
					c0.03,0,0.097,0.004,0.194,0.035c0.166,0.051,0.285,0.135,0.339,0.239c0.021,0.042,0.039,0.093,0.001,0.211
					c-0.204,0.628-0.432,1.252-0.673,1.912c-0.497,1.363-1.008,2.764-1.409,4.403l-1.568,6.413c-1.563,0.261-2.863,1.104-3.8,2.475
					c-3.418,5.003-8.178,8.54-14.148,10.511c-0.281,0.092-0.563,0.187-0.863,0.316c-0.578,0.249-0.958,0.558-1.141,0.706
					l-2.13,1.612l0.5,2.526c1.854,9.383,1.876,19.136,0.063,28.988l-0.588,3.19l2.965,1.314c0.696,0.309,1.391,0.603,2.063,0.888
					c1.446,0.612,2.779,1.176,4.022,1.827c3.494,1.832,6.553,4.597,9.09,8.217c0.649,0.927,1.418,1.62,2.297,2.076l3.093,7.635
					c0.214,0.529,0.427,1.032,0.634,1.519l0.06,0.14c0.469,1.103,0.865,2.036,1.143,2.934c0.251,0.813,0.289,1.27,0.288,1.478
					c-0.044,0.029-0.1,0.055-0.135,0.062c-0.069,0.009-0.138,0.015-0.203,0.015c-0.249,0-0.273-0.046-0.317-0.131
					c-0.394-0.753-0.742-1.604-1.112-2.505l-0.069-0.167c-0.176-0.426-0.356-0.863-0.545-1.299c-0.372-0.854-0.966-1.951-2.27-2.891
					l-4.178-3.01c0.014-0.014,2.38-2.446,2.38-2.446l-1.888-2.776c-3.449-5.072-8.023-8.396-13.983-10.162l-4.202-1.245
					l-1.376,6.016c-0.289,1.252-0.562,2.437-0.829,3.647c-2.461,11.196-6.333,20.221-11.836,27.591
					c-3.797,5.085-8.131,9.095-12.881,11.92c-4.89,2.907-10.421,4.672-16.442,5.245C66.728,166.251,65.832,166.28,64.569,166.28z
					 M54.191,155.956c-1.016,0-2.015-0.049-2.995-0.142c2.904-0.047,11.154-0.738,17.036-6.667
					c4.177-4.21,6.265-10.099,6.207-17.502l0.003-1.011c-0.003-0.366-0.008-0.711,0.011-1.033c0.019-0.313,0.195-0.631,0.497-0.631
					c0.391,0.004,0.488,0.371,0.502,0.677c0.323,6.96-1.364,13.431-4.629,17.75c-3.788,5.013-8.388,7.568-15.37,8.534
					C55.029,155.948,54.609,155.956,54.191,155.956z M22.611,143.078c-4.265-5.469-7.848-11.427-10.708-17.817
					C6.918,114.124,4.39,102.239,4.39,89.938c0-23.017,9.129-44.753,25.706-61.205c7.997-7.937,17.267-14.176,27.55-18.544
					c10.627-4.514,21.83-6.803,33.296-6.803c23.12,0,44.854,9.003,61.202,25.351c14.349,14.348,23.168,33.216,24.976,53.336h-2.353
					c-4.003-42.963-40.467-76.349-83.825-76.349c-45.649,0-84.215,38.566-84.215,84.215c0,18.66,6.286,36.919,17.747,51.688
					L22.611,143.078z M124.722,139.022c-0.22-0.01-0.55-0.027-0.515-0.946c0.109-2.825,0.792-5.245,2.073-7.324l-0.501,3.454
					c-0.05,0.339-0.105,0.681-0.16,1.024c-0.138,0.845-0.292,1.788-0.371,2.778C125.166,139.022,124.888,139.022,124.722,139.022z
					 M145.307,129.662c-0.122,0-0.282-0.056-0.439-0.154c-0.331-0.207-0.658-0.422-1.005-0.65c-0.535-0.351-1.088-0.713-1.666-1.058
					c-0.613-0.366-1.16-0.548-1.643-0.709c-0.181-0.061-0.342-0.114-0.526-0.183l-4.416-1.641c0.233-0.011,0.466-0.017,0.694-0.017
					c3.312,0,6.327,1.177,9.22,3.597c0.241,0.203,0.26,0.391,0.061,0.649C145.46,129.662,145.36,129.662,145.307,129.662z
					 M141.051,58.107l1.107-0.663c0.857-0.511,1.729-1.032,2.585-1.581c0.194-0.124,0.39-0.192,0.551-0.192
					c0.104,0,0.322,0,0.407,0.427c0.026,0.135,0.016,0.187,0.016,0.187l0,0c0,0-0.035,0.075-0.206,0.214
					c-2.435,1.985-4.896,3.119-7.483,3.437L141.051,58.107z"/>
				<path style="fill:#FFFFFF;" d="M130.732,56.692l0.428,0.044l0.921,0.095l-0.238,0.973l-1.029-1.031L130.732,56.692
					 M90.943,1.385c-11.737,0-23.203,2.342-34.078,6.962c-10.519,4.468-19.999,10.849-28.177,18.966
					C11.729,44.144,2.39,66.384,2.39,89.938c0,12.585,2.586,24.744,7.687,36.14c4.85,10.835,11.731,20.456,20.452,28.596L31.2,155.3
					v0.024c6.353,6.048,13.304,9.773,21.757,11.881c3.679,0.918,8.639,1.075,11.616,1.075c1.543,0,2.553-0.042,2.577-0.043
					c6.339-0.596,12.17-2.454,17.332-5.523c4.977-2.959,9.506-7.145,13.462-12.442c5.677-7.602,9.663-16.878,12.187-28.357
					c0.265-1.204,0.537-2.383,0.825-3.63c0.132-0.574,0.266-1.155,0.402-1.747l0.502-2.194l2.158,0.639
					c5.499,1.629,9.718,4.694,12.898,9.369l0.97,1.426l-1.202,1.236c-2.837,2.916-4.3,6.509-4.472,10.985
					c-0.054,1.395,0.529,2.921,2.326,3.019c0.063,0.003,0.126,0.005,0.187,0.005c1.992,0,2.433-1.789,2.519-2.854
					c0.073-0.9,0.213-1.766,0.349-2.603c0.058-0.357,0.116-0.714,0.168-1.072l0.5-3.446l2.825,2.035
					c0.903,0.65,1.304,1.377,1.603,2.065c0.206,0.474,0.402,0.951,0.592,1.413c0.391,0.951,0.759,1.849,1.198,2.688
					c0.52,0.996,1.423,1.205,2.089,1.205c0.155,0,0.316-0.011,0.478-0.034c0.802-0.111,1.707-0.754,1.832-1.636
					c0.087-0.61-0.031-1.442-0.349-2.474c-0.31-1.003-0.728-1.987-1.213-3.126c-0.221-0.519-0.449-1.057-0.681-1.627l-1.799-4.443
					l4.493,1.67c0.22,0.082,0.41,0.145,0.593,0.206c0.425,0.142,0.826,0.276,1.251,0.529c0.553,0.33,1.081,0.677,1.592,1.012
					c0.36,0.236,0.7,0.46,1.045,0.675c0.479,0.299,0.996,0.458,1.497,0.458c0.735,0,1.399-0.337,1.867-0.949
					c0.851-1.11,0.701-2.508-0.365-3.4c-3.267-2.734-6.703-4.063-10.502-4.063c-0.433,0-0.876,0.018-1.317,0.054
					c-0.169,0.014-0.333,0.02-0.489,0.02c-1.933,0-2.907-1.071-3.472-1.876c-2.723-3.885-6.02-6.859-9.8-8.84
					c-1.305-0.684-2.68-1.266-4.135-1.883c-0.673-0.285-1.368-0.58-2.066-0.889l-1.523-0.675l0.302-1.639
					c1.86-10.101,1.838-20.106-0.067-29.739l-0.256-1.297l1.055-0.797c0.055-0.042,0.096-0.075,0.129-0.102
					c0.14-0.113,0.351-0.284,0.671-0.422c0.239-0.102,0.464-0.176,0.645-0.236l0.056-0.018c6.397-2.113,11.503-5.909,15.174-11.282
					c0.766-1.121,1.852-1.69,3.23-1.69c0.265,0,0.515,0.019,0.749,0.039c0.435,0.036,0.872,0.055,1.298,0.055
					c3.638,0,7.004-1.302,10.288-3.981c0.793-0.647,1.075-1.39,0.888-2.338c-0.244-1.239-1.174-2.04-2.369-2.04
					c-0.547,0-1.111,0.176-1.63,0.509c-0.841,0.539-1.7,1.051-2.529,1.546c-0.373,0.223-0.747,0.445-1.119,0.67l-4.356,2.636
					l1.21-4.946c0.376-1.535,0.868-2.886,1.345-4.192c0.249-0.684,0.485-1.33,0.696-1.981c0.248-0.764,0.066-1.374-0.13-1.751
					c-0.303-0.582-0.842-1.018-1.521-1.228c-0.267-0.082-0.531-0.124-0.787-0.124c-0.941,0-1.749,0.583-2.217,1.601
					c-0.501,1.091-0.975,2.24-1.434,3.352c-0.214,0.518-0.427,1.036-0.645,1.552l-0.608,1.441l-1.556-0.161l-0.403-0.042
					l-1.66-0.171l-0.217-1.655l-0.166-1.259c-0.125-0.947-0.249-1.894-0.372-2.841c-0.185-1.429-1.181-2.389-2.478-2.389
					c-0.061,0-0.123,0.002-0.186,0.007c-1.35,0.092-2.322,1.178-2.31,2.583c0.009,1.097,0.13,2.287,0.361,3.537
					c0.583,3.157,1.94,5.769,4.15,7.982l1.249,1.251l-1.011,1.45c-3.263,4.678-7.563,7.723-13.146,9.308l-1.666,0.473l-0.791-1.541
					c-0.08-0.156-0.156-0.306-0.229-0.453c-0.143-0.284-0.266-0.529-0.394-0.758c-0.481-0.859-1.262-1.352-2.144-1.352
					c-0.248,0-0.501,0.04-0.751,0.119c-1.253,0.396-1.896,1.399-1.72,2.682c0.071,0.517,0.282,1.11,0.506,1.738l0.093,0.262
					c3.845,10.889,4.495,22.531,1.987,35.593c-0.394,2.051-0.97,4.053-1.528,5.988c-0.512,1.776-0.995,3.453-1.35,5.167
					c-2.462,11.894-5.888,20.482-11.111,27.849c-8.149,11.494-18.862,17.133-31.839,17.322c-0.244,0.004-0.487,0.005-0.727,0.005
					c-6.919,0-12.07-1.421-12.07-1.421s-15.834-3.726-27.042-19.204c0,0,12.682,15.131,31.14,15.131c0.477,0,0.955-0.01,1.44-0.031
					c8.026-1.091,12.9-4.177,16.788-9.321c3.886-5.142,5.34-12.402,5.031-19.05c-0.07-1.506-1.086-2.569-2.472-2.584l-0.029,0
					c-1.336,0-2.409,1.081-2.494,2.513c-0.022,0.364-0.018,0.755-0.014,1.168c0.003,0.325-0.005,0.66-0.003,1.008
					c0.154,19.491-15.46,22.157-21.593,22.157c-1.019,0-1.775-0.074-2.155-0.156c-14.299-3.098-21.178-11.437-21.178-11.437
					C15.399,127.5,8.728,108.931,8.728,89.938c0-44.565,37.65-82.215,82.215-82.215c43.359,0,78.961,33.746,81.982,76.349h6.356
					c-1.394-21.444-10.388-41.416-25.723-56.75C136.834,10.597,114.596,1.385,90.943,1.385L90.943,1.385z"/>
			</g>
			<path style="fill:#FFFFFF;stroke:#FFFFFF;stroke-width:4;stroke-miterlimit:10;" d="M110.364,60.823
				c0.069,0.042,0.209,0.036,0.28-0.007c1.249-0.749,2.397-1.625,3.353-2.734c0.687-0.798,1.228-1.672,1.397-2.739
				c0.224-1.41-0.59-2.655-1.932-2.925c-0.901-0.182-1.653,0.156-2.331,0.71c-0.222,0.181-0.421,0.388-0.646,0.598
				c-0.427-0.47-0.887-0.873-1.46-1.127c-1.7-0.755-3.531,0.492-3.458,2.352c0.041,1.038,0.482,1.916,1.096,2.718
				C107.671,58.984,108.956,59.977,110.364,60.823z"/>
			<path style="fill:#FFFFFF;stroke:#FFFFFF;stroke-width:4;stroke-miterlimit:10;" d="M74.446,52.418
				c-0.902-0.182-1.653,0.156-2.331,0.71c-0.221,0.181-0.421,0.388-0.646,0.598c-0.427-0.47-0.887-0.873-1.459-1.127
				c-1.7-0.755-3.531,0.492-3.458,2.352c0.041,1.038,0.482,1.916,1.096,2.718c1.007,1.314,2.293,2.308,3.7,3.154
				c0.069,0.042,0.209,0.036,0.28-0.007c1.249-0.749,2.398-1.625,3.353-2.734c0.687-0.798,1.228-1.672,1.397-2.739
				C76.602,53.934,75.788,52.689,74.446,52.418z"/>
		</g>
	</g>
	<g>
		<g>
			<path style="fill:#FFFFFF;" d="M23.221,193.631l-2.12,10.013c-0.089,0.382-0.118,0.678-0.118,0.943
				c0,0.824,0.382,1.267,1.208,1.267c1.149,0,1.944-1.297,2.385-2.77h1.238c-1.679,4.803-4.33,5.449-5.92,5.449
				c-1.65,0-2.711-0.943-2.887-2.709c-0.914,1.355-2.297,2.709-4.388,2.709c-2.003,0-3.918-1.237-3.918-4.74
				c0-3.976,2.445-10.31,7.57-10.31c1.679,0,2.385,0.648,2.385,1.503v0.206l0.324-1.561H23.221z M13.059,203.38
				c0,2.267,0.943,2.297,1.473,2.297c0.854,0,2.091-0.885,2.444-2.593l1.414-6.655c0-0.354-0.265-1.119-1.208-1.119
				C14.679,195.31,13.059,200.61,13.059,203.38z"/>
			<path style="fill:#FFFFFF;" d="M33.141,196.134c0-0.736-0.265-1.209-0.824-1.209c-1.855,0-3.77,5.391-3.77,8.661
				c0,2.001,0.707,2.473,2.121,2.473c2.326,0,3.74-1.297,5.213-2.976h1.002c-1.679,2.709-4.182,5.449-8.099,5.449
				c-2.77,0-4.596-1.355-4.596-4.682c0-3.416,1.944-10.486,7.923-10.486c2.621,0,3.27,1.355,3.27,2.709
				c0,1.443-0.707,2.151-1.562,2.151c-0.323,0-0.677-0.118-1.031-0.354C33.024,197.222,33.141,196.634,33.141,196.134z"/>
			<path style="fill:#FFFFFF;" d="M43.123,188.976l-1.002,4.655h1.767l-0.236,1.177h-1.767L40,203.644
				c-0.088,0.382-0.118,0.678-0.118,0.943c0,0.824,0.383,1.091,1.208,1.091c1.15,0,2.209-1.121,2.651-2.593h1.237
				c-1.679,4.803-4.594,5.449-6.185,5.449c-1.767,0-3.151-1.061-3.151-3.534c0-0.56,0.088-1.207,0.235-1.915l1.767-8.276h-0.971
				l0.235-1.177h0.973l0.883-4.066L43.123,188.976z"/>
			<path style="fill:#FFFFFF;" d="M49.982,193.631l-2.121,10.013c-0.088,0.382-0.117,0.678-0.117,0.943
				c0,0.824,0.382,1.091,1.207,1.091c1.149,0,2.209-1.121,2.651-2.593h1.237c-1.679,4.803-4.594,5.449-6.185,5.449
				c-1.767,0-3.152-1.061-3.152-3.534c0-0.56,0.089-1.207,0.236-1.915l2.003-9.453H49.982z M48.657,187.357
				c1.296,0,2.356,1.058,2.356,2.355c0,1.297-1.061,2.327-2.356,2.327s-2.327-1.031-2.327-2.327
				C46.329,188.416,47.361,187.357,48.657,187.357z"/>
			<path style="fill:#FFFFFF;" d="M63.352,195.604c0,4.713-2.386,12.929-8.394,12.929c-2.238,0-3.623-1.149-3.623-3.476
				c0-0.322,0.029-0.852,0.147-1.413l2.121-10.013h4.241l-2.121,10.013c-0.088,0.412-0.147,0.794-0.147,1.061
				c0,0.588,0.294,0.973,1.002,0.973c2.887,0,5.096-6.598,5.096-9.837c-0.089,0.206-0.707,0.294-0.943,0.294
				c-0.707,0-1.061-0.854-1.061-1.503c0-0.912,0.589-1.591,1.826-1.591C62.91,193.04,63.352,194.307,63.352,195.604z"/>
			<path style="fill:#FFFFFF;" d="M69.562,205.735c2.805,0.876,8.458-7.093,9.4-7.918c-2.198,10.992-8.664,10.715-11.02,10.715
				c-2.739,0-4.565-1.355-4.565-4.682c0-3.388,1.914-10.486,7.952-10.486c2.621,0,3.24,1.355,3.24,2.827
				c0,3.418-3.24,6.009-6.775,6.215c-0.029,0.294-0.058,0.618-0.058,0.882C67.736,205.147,68.578,205.428,69.562,205.735z
				 M71.564,194.925c-1.472,0-2.945,3.27-3.563,6.067c2.297-0.118,4.299-2.385,4.299-4.859
				C72.301,195.398,72.125,194.925,71.564,194.925z"/>
		</g>
		<g>
			<path style="fill:#FFFFFF;" d="M69.571,228.923l-6.005,0.612c0.163,0.245,0.693,1.102,1.593,2.572
				c0.898,1.469,1.593,3.103,2.083,4.898c0.571,1.634,0.858,3.838,0.858,6.613c0,3.756-0.879,7.123-2.635,10.102
				c-1.758,2.981-4.35,5.369-7.781,7.163c4.002,2.614,6.923,5.388,8.762,8.327c1.838,2.938,2.757,6.695,2.757,11.265
				c0.08,3.919-0.858,7.366-2.819,10.347c-1.961,2.979-4.534,5.449-7.72,7.408s-6.74,3.429-10.661,4.408
				c-3.921,0.98-7.762,1.427-11.519,1.347c-11.356,0-18.965-2.135-26.414-9.787l7.381-15.155c5.161,4.712,12.456,8.901,18.42,8.901
				c3.676,0,6.943-0.899,9.803-2.694c2.941-1.714,4.412-4.244,4.412-7.592c0-3.429-1.329-6.019-3.983-7.776
				c-2.656-1.754-5.943-2.632-9.864-2.632c-2.778,0-5.29,0.245-7.536,0.735c-2.248,0.49-4.76,1.184-7.536,2.082l1.471-5.878
				c-3.921-2.04-7.168-4.938-9.742-8.694c-2.573-3.754-3.86-7.837-3.86-12.245c0-4.164,0.754-7.939,2.267-11.327
				c1.511-3.387,3.554-6.306,6.127-8.755s5.595-4.348,9.068-5.695c3.471-1.346,7.209-2.02,11.212-2.02
				c0.571,0,1.409,0.062,2.512,0.184c1.103,0.122,2.47,0.266,4.105,0.428c1.633,0.164,3.083,0.307,4.35,0.429
				c1.266,0.122,2.307,0.225,3.125,0.306c3.103,0,6.535-0.428,10.293-1.285c3.756-0.857,7.475-1.734,11.151-2.633L69.571,228.923z
				 M28.03,247.72c0.653,1.43,1.511,2.675,2.573,3.735c1.06,1.062,2.286,1.898,3.676,2.511c1.388,0.612,2.819,0.918,4.289,0.918
				s2.899-0.306,4.289-0.918c1.388-0.612,2.614-1.427,3.676-2.449c1.061-1.02,1.919-2.244,2.573-3.674
				c0.653-1.427,0.98-3,0.98-4.714c0-1.714-0.327-3.264-0.98-4.653c-0.655-1.387-1.513-2.611-2.573-3.674
				c-1.063-1.06-2.288-1.877-3.676-2.449c-1.39-0.57-2.818-0.857-4.289-0.857s-2.901,0.287-4.289,0.857
				c-1.39,0.572-2.615,1.389-3.676,2.449c-1.063,1.062-1.92,2.287-2.573,3.674c-0.655,1.389-0.98,2.939-0.98,4.653
				C27.05,244.762,27.375,246.293,28.03,247.72z"/>
			<path style="fill:#FFFFFF;" d="M118.374,189.293v87.566l-17.396,0.125v-87.816L118.374,189.293z"/>
			<path style="fill:#FFFFFF;" d="M133.873,218.819c2.379-0.816,5.018-1.449,7.917-1.894s5.537-0.669,7.917-0.669
				c7.582,0,13.473,1.635,17.673,4.903c4.199,3.27,6.3,8.357,6.3,15.265v40.671l-15.053-0.111v-5.683h-0.335
				c-2.826,4.384-7.582,6.574-14.273,6.574c-6.394,0-11.301-1.931-14.719-5.794c-3.421-3.861-5.129-8.914-5.129-15.154
				c0-2.897,0.538-5.496,1.617-7.8c1.077-2.301,2.546-4.29,4.405-5.961c1.857-1.671,4.032-2.953,6.523-3.844
				c2.49-0.891,5.147-1.337,7.973-1.337c2.155,0,4.422,0.409,6.801,1.226c2.379,0.818,4.386,1.857,6.022,3.12
				c0.073-0.223,0.112-0.817,0.112-1.783c0-3.936-0.855-6.536-2.565-7.8c-1.711-1.262-4.571-1.894-8.586-1.894
				c-4.906,0-9.071,0.632-12.489,1.894L133.873,218.819z M142.794,262.331c1.634,1.375,3.68,2.062,6.133,2.062
				c2.453,0,4.497-0.686,6.132-2.062c1.634-1.373,2.453-3.249,2.453-5.627c0-2.302-0.819-4.123-2.453-5.46
				c-1.636-1.337-3.68-2.006-6.132-2.006c-2.453,0-4.499,0.669-6.133,2.006c-1.636,1.337-2.453,3.158-2.453,5.46
				C140.34,259.083,141.157,260.958,142.794,262.331z"/>
			<path style="fill:#FFFFFF;" d="M86.554,212.47c-0.152,0.091-0.45,0.103-0.597,0.015c-2.999-1.801-5.739-3.916-7.885-6.715
				c-0.184-0.24-0.359-0.485-0.527-0.732v72.003l17.396-0.111v-71.903c-0.377,0.56-0.792,1.1-1.242,1.622
				C91.663,209.008,89.216,210.874,86.554,212.47z"/>
			<path style="fill:#FFFFFF;" d="M80.916,198.895l0.215,0.001C81.059,198.893,80.988,198.895,80.916,198.895z"/>
			<path style="fill:#FFFFFF;" d="M94.941,190.406c-0.653-0.562-1.457-0.968-2.382-1.154c-0.024-0.005-0.047-0.005-0.071-0.009
				l-1.828-0.012c-1.118,0.2-2.127,0.766-3.068,1.534c-0.472,0.385-0.898,0.827-1.377,1.273c-0.91-1-1.89-1.858-3.11-2.4
				c-0.657-0.292-1.324-0.439-1.974-0.468l-0.215-0.001c-1.264-0.003-2.451,0.451-3.371,1.24c-1.148,0.985-1.878,2.482-1.809,4.237
				c0.075,1.9,0.782,3.547,1.809,5.057c0.168,0.247,0.343,0.492,0.527,0.732c2.145,2.799,4.885,4.914,7.885,6.715
				c0.147,0.089,0.445,0.076,0.597-0.015c2.662-1.595,5.109-3.461,7.145-5.823c0.45-0.522,0.865-1.062,1.242-1.622
				c0.85-1.263,1.485-2.637,1.735-4.21C96.999,193.449,96.306,191.581,94.941,190.406z"/>
		</g>
	</g>
</g>
</svg>
