<?xml version="1.0" encoding="iso-8859-1"?>
<!-- Generator: Adobe Illustrator 24.0.2, SVG Export Plug-In . SVG Version: 6.00 Build 0)  -->
<svg version="1.1" id="Layer_1" xmlns="http://www.w3.org/2000/svg" xmlns:xlink="http://www.w3.org/1999/xlink" x="0px" y="0px"
	 viewBox="0 0 149 145" style="enable-background:new 0 0 149 145;" xml:space="preserve">
<g>
	<linearGradient id="SVGID_1_" gradientUnits="userSpaceOnUse" x1="0.0339" y1="72.6982" x2="144.0339" y2="72.6982">
		<stop  offset="0" style="stop-color:#A72051"/>
		<stop  offset="0.6704" style="stop-color:#D61F5F"/>
	</linearGradient>
	<circle style="fill:url(#SVGID_1_);" cx="72.034" cy="72.698" r="72"/>
	<g>
		<path style="fill:#FFFFFF;" d="M136.456,91.178l-14.46-28.805l15.474-7.768l2.563,5.106l-10.134,5.087l3.404,6.781l9.705-4.872
			l2.563,5.106l-9.705,4.872l3.366,6.705l9.441-4.739c1.165-12.893-1.122-26.257-7.357-38.676
			c-5.665-11.284-13.901-20.418-23.634-27.073l-6.8,3.414l17.707,35.272l-7.947,3.99l-17.707-35.272l-7.948,3.99l-3.816-7.6
			l17.761-8.916C89.395-1.87,65.728-2.569,44.755,7.96S10.203,37.886,6.269,59.317l3.162-1.587
			c4.911-2.465,8.557-3.739,10.938-3.821c0.581-0.001,1.152,0.029,1.713,0.085c4.026,0.401,7.107,2.486,9.242,6.256
			c0.097,0.194,0.204,0.406,0.321,0.639c1.573,3.133,1.704,5.997,0.391,8.591c-0.27,0.62-0.637,1.241-1.1,1.861
			c2.806-0.199,4.964,0.05,6.475,0.744l0.553,0.231c2.304,1.119,4.175,3.11,5.611,5.971c2.039,4.061,2.161,8.019,0.368,11.873
			c-0.212,0.446-0.454,0.882-0.723,1.307c-1.757,2.868-4.976,5.476-9.655,7.826l-11.428,5.737L5.107,71.11
			c-0.188,11.233,2.243,22.675,7.633,33.412c17.824,35.505,61.056,49.839,96.561,32.014c20.861-10.472,34.4-29.718,38.415-51.012
			L136.456,91.178z M92.472,49.09c-1.258-0.19-3.203-0.158-5.836,0.097c-0.792,0.061-1.876,0.168-3.25,0.325
			c-5.979,0.63-10.471-1.038-13.478-5c-0.485-0.676-0.921-1.402-1.309-2.176c-1.883-3.752-1.987-7.574-0.309-11.466
			c1.35-3.099,3.571-5.425,6.665-6.978c3.906-1.961,7.747-2.22,11.524-0.772c0.291,0.096,0.56,0.201,0.814,0.317
			c2.614,1.158,4.776,3.244,6.484,6.26l-8.238,4.136c-1.592-2.591-3.615-3.438-6.072-2.545c-0.251,0.078-0.494,0.174-0.726,0.291
			c-2.011,1.01-2.946,2.523-2.808,4.534c0.06,0.697,0.254,1.373,0.584,2.031c0.796,1.586,2.238,2.483,4.329,2.692
			c0.561,0.058,2.468-0.1,5.718-0.474c3.852-0.431,6.668-0.415,8.448,0.045c0.232,0.077,0.484,0.146,0.756,0.202
			c3.738,1.079,6.508,3.416,8.314,7.013c2.136,4.254,2.336,8.511,0.601,12.772c-1.446,3.485-3.91,6.103-7.391,7.85
			c-4.177,2.097-8.308,2.453-12.395,1.064c-0.522-0.172-1.035-0.374-1.539-0.606c-2.616-1.254-4.845-3.38-6.688-6.377l8.296-4.165
			c2.134,3.385,4.962,4.194,8.481,2.427c2.514-1.262,3.788-3.065,3.824-5.406c0.016-0.929-0.197-1.838-0.644-2.729
			C95.716,50.634,94.329,49.513,92.472,49.09z M34.26,45.265l23.031-11.562l3.816,7.6l-15.083,7.572l5.067,10.093l14.445-7.251
			l3.815,7.6l-14.445,7.251l5.01,9.979l15.083-7.572l3.815,7.6L55.783,88.137L34.26,45.265z M50.393,134.383l-25.686-23.169
			l5.613-2.818l18.753,18.012l-3.24-25.799l5.613-2.818l3.312,34.401L50.393,134.383z M86.019,116.498l-6.817-5.898l-10.251,5.146
			l0.541,9.049l-5.886,2.955l-2.455-34.831l4.21-2.113l26.544,22.739L86.019,116.498z M108.977,104.973l-14.149,7.103l-14.46-28.805
			l5.34-2.681l11.897,23.698l8.809-4.422L108.977,104.973z M125.658,83.373c1.566,3.119,2.162,5.829,1.788,8.131
			c-0.026,0.078-0.039,0.15-0.039,0.214c-0.477,2.68-1.917,4.899-4.319,6.659c-0.533,0.364-1.072,0.684-1.617,0.958
			c-2.754,1.383-5.53,1.622-8.328,0.715c-0.702-0.232-1.36-0.537-1.971-0.913c-1.874-1.141-3.529-3.141-4.964-6L97.05,74.896
			l5.34-2.681l9.158,18.242c0.913,1.819,1.812,3.027,2.697,3.624c1.523,0.765,3.083,0.795,4.681,0.09
			c1.533-0.769,2.421-1.948,2.666-3.535c-0.014-0.091-0.007-0.175,0.019-0.253c0.063-1.04-0.369-2.483-1.295-4.328l-9.158-18.242
			l5.34-2.681L125.658,83.373z"/>
		<polygon style="fill:#FFFFFF;" points="68.337,109.661 74.496,106.569 67.033,99.383 		"/>
		<path style="fill:#FFFFFF;" d="M26.268,93.439l3.945-1.98c4.486-2.252,6.446-4.762,5.881-7.528
			c-0.098-0.579-0.302-1.179-0.613-1.798c-2.212-3.441-5.861-3.957-10.947-1.549l-3.771,1.893L26.268,93.439z"/>
		<path style="fill:#FFFFFF;" d="M24.541,66.85c-0.097-0.387-0.262-0.812-0.495-1.276c-1.456-2.901-4.235-3.323-8.334-1.265
			l-3.249,1.631l4.398,8.76l2.553-1.281C23.396,71.419,25.106,69.231,24.541,66.85z"/>
	</g>
</g>
</svg>
