<svg id="Layer_1" data-name="Layer 1" xmlns="http://www.w3.org/2000/svg" viewBox="0 0 77.0884 77.0884"><defs><style>.cls-1,.cls-3{fill:#d61f5f;}.cls-1,.cls-4{stroke:#fff;}.cls-1,.cls-3,.cls-4{stroke-miterlimit:10;}.cls-1{stroke-width:2px;}.cls-2,.cls-4{fill:#fff;}.cls-3{stroke:#d61f5f;}.cls-3,.cls-4{stroke-width:0.5px;}</style></defs><title>Block_User</title><circle class="cls-1" cx="38.5442" cy="38.5442" r="37.5442"/><g id="surface1"><path class="cls-2" d="M60.143,35.2106c-4.2141.0947-6.8808,1.8-8.0282,4.4352-1.0913,2.5088-.8632,5.67-.0842,8.9546a2.8734,2.8734,0,0,0-.6737,2.2176v.0561a5.0277,5.0277,0,0,0,.8982,2.4141c.2.26.4843.2737.73.4211a9.8823,9.8823,0,0,0,1.2632,3.3123.89.89,0,0,0,.1684.365s.0912.1157.1123.14a3.0147,3.0147,0,0,1,.421,1.6562,19.3169,19.3169,0,0,1-.0842,2.0492,3.8345,3.8345,0,0,1-2.0211,1.7684c-1.1263.5685-2.6,1.0913-4.0983,1.74a13.0479,13.0479,0,0,0-4.2387,2.6667A7.81,7.81,0,0,0,42.29,72.6009l-.0561.9544H78.2768l-.0562-.9544a7.8326,7.8326,0,0,0-2.19-5.1931,12.916,12.916,0,0,0-4.2387-2.6667c-1.4983-.6491-2.9825-1.1684-4.1264-1.74a4.0751,4.0751,0,0,1-2.1053-1.8246c-.07-.8491-.0842-1.5193-.0842-2.2737a2.41,2.41,0,0,1,.4491-1.3474c.007-.0105.0211-.0176.0281-.0281.0035-.007.0561-.0561.0561-.0561a.88.88,0,0,0,.2246-.4211,10.3684,10.3684,0,0,0,1.207-3.3124c.2808-.1473.5966-.1649.8141-.4491a4.72,4.72,0,0,0,.786-2.47,2.8785,2.8785,0,0,0-.6176-2.1615,16.471,16.471,0,0,0,.8422-6.0913A7.1113,7.1113,0,0,0,68.059,38.916a5.2032,5.2032,0,0,0-3.2281-1.9369c-.9509-1.27-2.6773-1.7685-4.66-1.7685Zm.0281,1.7965h.0281c1.793.0071,2.94.5123,3.3123,1.1509l.2246.393.4491.0562a3.2407,3.2407,0,0,1,2.4141,1.3474,5.4573,5.4573,0,0,1,.87,2.7509,16.1068,16.1068,0,0,1-.87,5.8387l-.2807.758.7018.3649a1.5282,1.5282,0,0,1,.2526.9825v.028a3.16,3.16,0,0,1-.4491,1.5159c-.1509.1965-.2281.1684-.1965.1684h-.786l-.1123.786a8.8918,8.8918,0,0,1-1.2632,3.3685h-.028c-.0527.0772-.0913.1684-.14.2526a10.1122,10.1122,0,0,1-1.0947,1.0667,5.0141,5.0141,0,0,1-2.9475,1.3474A5.1123,5.1123,0,0,1,57.28,57.78a10.4576,10.4576,0,0,1-1.3193-1.3474c-.0035-.007.0035-.021,0-.028a8.3989,8.3989,0,0,1-1.2913-3.2562l-.0842-.786h-.73a.5226.5226,0,0,1-.1965-.1684,3.5021,3.5021,0,0,1-.5053-1.5159V50.65c-.0035-.0141.0035-.0141,0-.0281a1.6526,1.6526,0,0,1,.3369-1.0106l.5052-.3649-.14-.6175c-.8281-3.2738-.9579-6.2388-.0842-8.2529C54.6447,38.3686,56.4131,37.0984,60.1711,37.0071ZM56.7465,59.66A5.9694,5.9694,0,0,0,60.2553,60.98,5.8414,5.8414,0,0,0,63.68,59.7164c.0035.5474.021,1.1088.0842,1.7966v.1122l.0561.1123a4.06,4.06,0,0,0,.6456,1.0948,1.0529,1.0529,0,0,0-.028.1123,3.8916,3.8916,0,0,1-.8422,1.2351,4.3448,4.3448,0,0,1-3.34,1.2913,4.4516,4.4516,0,0,1-3.3965-1.3474,3.91,3.91,0,0,1-.87-1.2913,3.838,3.838,0,0,0,.6175-1.1228l.0562-.1685A16.2194,16.2194,0,0,0,56.7465,59.66Zm9.123,4.4071a10.0085,10.0085,0,0,0,.9825.5614c1.3123.6527,2.8,1.1579,4.2106,1.7685A11.4368,11.4368,0,0,1,74.74,68.671a5.8384,5.8384,0,0,1,1.46,3.0878H44.3111a5.8128,5.8128,0,0,1,1.46-3.0878,11.6147,11.6147,0,0,1,3.7053-2.2737c1.4106-.6106,2.8843-1.1123,4.1826-1.7685a10.5394,10.5394,0,0,0,.9544-.5333,6.135,6.135,0,0,0,.9544,1.2912,6.4054,6.4054,0,0,0,4.6878,1.8808,6.3047,6.3047,0,0,0,4.6317-1.8527A5.6481,5.6481,0,0,0,65.87,64.0674Z" transform="translate(-22.2856 -21.9349)"/></g><rect class="cls-3" x="46.7878" y="45.0527" width="10.592" height="7.8985"/><g id="surface1-2" data-name="surface1"><path class="cls-4" d="M73.9662,65.9877A5.7534,5.7534,0,1,0,79.72,71.7411,5.76,5.76,0,0,0,73.9662,65.9877Zm0,.9589a4.792,4.792,0,0,1,3.7158,7.821L70.94,68.0253A4.7812,4.7812,0,0,1,73.9662,66.9466ZM70.25,68.7145l6.7423,6.7423A4.792,4.792,0,0,1,70.25,68.7145Z" transform="translate(-22.2856 -21.9349)"/></g></svg>