<svg id="Layer_1" data-name="Layer 1" xmlns="http://www.w3.org/2000/svg" viewBox="0 0 37.7361 42.5339"><defs><style>.cls-1,.cls-3{fill:#d61f5f;}.cls-2{fill:#fff;stroke:#fff;}.cls-2,.cls-3{stroke-miterlimit:10;stroke-width:0.5px;}.cls-3{stroke:#d61f5f;}</style></defs><title>Block_User_2</title><g id="surface1"><path class="cls-1" d="M37.8574,13.2757c-4.2141.0947-6.8808,1.8-8.0282,4.4352-1.0913,2.5088-.8632,5.67-.0842,8.9546a2.8733,2.8733,0,0,0-.6737,2.2176v.0561a5.0282,5.0282,0,0,0,.8982,2.4141c.2.26.4843.2737.73.4211a9.8822,9.8822,0,0,0,1.2632,3.3123.8908.8908,0,0,0,.1684.365s.0912.1157.1123.14a3.0155,3.0155,0,0,1,.421,1.6562,19.3364,19.3364,0,0,1-.0842,2.0492,3.8349,3.8349,0,0,1-2.0211,1.7684c-1.1263.5685-2.6,1.0913-4.0983,1.74a13.05,13.05,0,0,0-4.2387,2.6667,7.81,7.81,0,0,0-2.2177,5.1938l-.0561.9544H55.9912l-.0562-.9544a7.8322,7.8322,0,0,0-2.19-5.1931,12.9173,12.9173,0,0,0-4.2387-2.6667c-1.4983-.6491-2.9825-1.1684-4.1264-1.74a4.0754,4.0754,0,0,1-2.1053-1.8246c-.07-.8491-.0842-1.5193-.0842-2.2737a2.41,2.41,0,0,1,.4491-1.3474c.007-.0105.0211-.0176.0281-.0281.0035-.007.0561-.0561.0561-.0561a.8806.8806,0,0,0,.2246-.4211,10.3679,10.3679,0,0,0,1.207-3.3124c.2808-.1473.5966-.1649.8141-.4491a4.72,4.72,0,0,0,.786-2.47,2.8787,2.8787,0,0,0-.6176-2.1615,16.4723,16.4723,0,0,0,.8422-6.0913,7.1115,7.1115,0,0,0-1.2066-3.65,5.2033,5.2033,0,0,0-3.2281-1.9369c-.9509-1.27-2.6773-1.7685-4.66-1.7685Zm.0281,1.7965h.0281c1.793.0071,2.94.5123,3.3123,1.1509l.2246.393.4491.0562A3.24,3.24,0,0,1,44.3137,18.02a5.4579,5.4579,0,0,1,.87,2.7509,16.1065,16.1065,0,0,1-.87,5.8387l-.2807.758.7018.3649a1.5285,1.5285,0,0,1,.2526.9825v.028a3.16,3.16,0,0,1-.4491,1.5159c-.1509.1965-.2281.1684-.1965.1684h-.786l-.1123.786A8.89,8.89,0,0,1,42.18,34.5815h-.028c-.0527.0772-.0913.1684-.14.2526a10.108,10.108,0,0,1-1.0947,1.0667A5.0144,5.0144,0,0,1,37.97,37.2482a5.112,5.112,0,0,1-2.9757-1.4031,10.4651,10.4651,0,0,1-1.3193-1.3474c-.0035-.007.0035-.021,0-.028a8.3992,8.3992,0,0,1-1.2913-3.2562l-.0842-.786h-.73a.5225.5225,0,0,1-.1965-.1684,3.5024,3.5024,0,0,1-.5053-1.5159v-.0281c-.0035-.0141.0035-.0141,0-.0281a1.6525,1.6525,0,0,1,.3369-1.0106l.5052-.3649-.14-.6175c-.8281-3.2738-.9579-6.2388-.0842-8.2529C32.3591,16.4337,34.1275,15.1635,37.8855,15.0722ZM34.4609,37.7251a5.9693,5.9693,0,0,0,3.5088,1.32,5.8416,5.8416,0,0,0,3.4247-1.2636c.0035.5474.021,1.1088.0842,1.7966V39.69l.0561.1123a4.0611,4.0611,0,0,0,.6456,1.0948,1.0588,1.0588,0,0,0-.028.1123,3.8917,3.8917,0,0,1-.8422,1.2351,4.3446,4.3446,0,0,1-3.34,1.2913,4.4518,4.4518,0,0,1-3.3965-1.3474,3.9111,3.9111,0,0,1-.87-1.2913,3.839,3.839,0,0,0,.6175-1.1228l.0562-.1685A16.2082,16.2082,0,0,0,34.4609,37.7251Zm9.123,4.4071a10.0172,10.0172,0,0,0,.9825.5614c1.3123.6527,2.8,1.1579,4.2106,1.7685a11.4381,11.4381,0,0,1,3.6774,2.274,5.8383,5.8383,0,0,1,1.46,3.0878H22.0255a5.8128,5.8128,0,0,1,1.46-3.0878,11.6149,11.6149,0,0,1,3.7053-2.2737c1.4106-.6106,2.8843-1.1123,4.1826-1.7685a10.528,10.528,0,0,0,.9544-.5333,6.1366,6.1366,0,0,0,.9544,1.2912A6.4054,6.4054,0,0,0,37.97,45.3326,6.3045,6.3045,0,0,0,42.6017,43.48a5.6483,5.6483,0,0,0,.9827-1.3474Z" transform="translate(-19.9483 -13.2757)"/></g><rect class="cls-2" x="26.8395" y="31.777" width="10.592" height="7.8985"/><g id="surface1-2"><path class="cls-3" d="M51.6806,44.0528a5.7534,5.7534,0,1,0,5.7538,5.7534A5.7534,5.7534,0,0,0,51.6806,44.0528Zm0,.9589a4.792,4.792,0,0,1,3.7158,7.821L48.6544,46.09A4.7805,4.7805,0,0,1,51.6806,45.0117ZM47.9644,46.78l6.7423,6.7423A4.792,4.792,0,0,1,47.9644,46.78Z" transform="translate(-19.9483 -13.2757)"/></g></svg>