<?xml version="1.0" encoding="iso-8859-1"?>
<!-- Generator: Adobe Illustrator 24.0.2, SVG Export Plug-In . SVG Version: 6.00 Build 0)  -->
<svg version="1.1" id="Layer_1" xmlns="http://www.w3.org/2000/svg" xmlns:xlink="http://www.w3.org/1999/xlink" x="0px" y="0px"
	 viewBox="0 0 205 142" style="enable-background:new 0 0 205 142;" xml:space="preserve">
<g>
	<path style="fill:#FFFFFF;" d="M186.772,42.135c-2.828-1.443-5.486-2.78-8.12-4.163c-0.385-0.203-0.694-0.597-0.97-0.955
		c-4.039-5.237-10.795-6.342-15.724-2.561c-4.865,3.732-5.76,10.779-1.97,15.512c4.004,5,10.752,5.56,16.005,1.33
		c0.155-0.125,0.318-0.239,0.865-0.646c1.747,1.55,3.605,3.113,5.333,4.808c0.345,0.338,0.41,1.246,0.244,1.779
		c-2.751,8.844-5.363,17.739-8.423,26.478c-2.094,5.981-6.25,10.355-12.352,12.578c-38.577,14.056-77.159,28.099-115.742,42.139
		c-6.407,2.331-11.434,0.011-13.849-6.466c-2.794-7.493-5.503-15.017-8.238-22.531C18.271,94.155,12.67,78.889,7.212,63.572
		c-0.715-2.007-1.078-4.312-0.907-6.423c0.31-3.836,2.532-6.391,6.265-7.746C51.601,35.23,90.604,20.978,129.646,6.835
		c5.921-2.145,11.859-1.336,17.145,1.905c11.432,7.008,22.716,14.262,33.996,21.515C185.036,32.987,186.821,37.1,186.772,42.135z
		 M82.787,76.758c0.769-1.224,1.485-2.196,2.028-3.258c2.201-4.301,1.523-8.427-1.049-12.296c-2.352-3.539-5.926-4.666-9.95-4.288
		C66.746,57.582,60.522,61,53.672,63.099c4.556,12.659,9.026,25.081,13.539,37.622c3.579-1.292,6.859-2.477,10.22-3.69
		c-1.67-4.679-3.247-9.1-4.786-13.412c1.539-1.218,2.661-0.989,3.982,0.191c3.283,2.933,6.703,5.715,10.116,8.499
		c0.49,0.4,1.355,0.811,1.861,0.647c3.538-1.153,7.026-2.457,10.868-3.833C93.765,84.893,88.317,80.856,82.787,76.758z
		 M144.556,46.314c-3.808,1.355-7.434,2.646-11.211,3.99c-0.714-1.955-1.368-3.747-2.089-5.721
		c4.081-1.489,7.998-2.919,12.093-4.413c-1-2.788-1.936-5.398-2.944-8.211c-7.515,2.703-14.879,5.351-22.366,8.043
		c4.546,12.63,9.006,25.023,13.527,37.584c7.563-2.722,14.924-5.372,22.373-8.053c-1.068-2.928-2.037-5.588-3.033-8.319
		c-4.168,1.472-8.093,2.858-12.121,4.281c-0.862-2.415-1.64-4.597-2.458-6.89c3.758-1.379,7.416-2.721,11.175-4.1
		C146.491,51.692,145.57,49.133,144.556,46.314z M115.724,56.694c-3.798,1.34-7.417,2.617-11.208,3.954
		c-0.719-1.989-1.362-3.769-2.061-5.704c4.1-1.5,8.01-2.93,12.076-4.418c-1.008-2.804-1.946-5.413-2.95-8.206
		c-7.517,2.704-14.879,5.351-22.362,8.042c4.545,12.629,9.004,25.015,13.528,37.584c7.553-2.718,14.91-5.366,22.368-8.051
		c-1.058-2.914-2.026-5.579-3.027-8.335c-4.138,1.468-8.062,2.861-12.107,4.296c-0.872-2.421-1.653-4.591-2.488-6.908
		c3.81-1.383,7.472-2.713,11.208-4.069C117.658,62.008,116.709,59.4,115.724,56.694z M25.381,73.319
		c4.552,12.647,9.026,25.078,13.531,37.593c3.536-1.289,6.77-2.468,10.053-3.665c-1.705-4.781-3.331-9.342-5.003-14.032
		c3.81-1.385,7.419-2.697,11.18-4.064c-1.007-2.795-1.945-5.401-2.951-8.195c-3.787,1.342-7.406,2.624-11.222,3.976
		c-0.853-2.38-1.669-4.655-2.507-6.992c4.164-1.517,8.093-2.949,12.142-4.424c-1.02-2.814-1.981-5.465-2.976-8.211
		C40.059,68.031,32.805,70.644,25.381,73.319z"/>
	<path style="fill:#FFFFFF;" d="M153.319,103.14c2.031-0.73,3.701-1.391,5.413-1.911c0.517-0.157,1.218-0.075,1.723,0.15
		c11.32,5.039,21.634-0.875,26.898-9.248c7.985-12.702,6.161-31.165-4.312-40.982c-5.496-5.151-11.948-7.128-19.347-5.155
		c-1.731,0.462-2.192-0.298-2.388-1.675c-0.432-3.025,0.17-3.674,3.523-4.151c10.127-1.442,18.171,2.349,24.557,9.965
		c4.991,5.952,7.517,12.943,8.12,20.687c0.921,11.839-2.368,22.178-10.945,30.539c-8.89,8.666-21.88,9.659-32.139,2.669
		C154.153,103.845,153.912,103.62,153.319,103.14z"/>
	<path style="fill:#FFFFFF;" d="M69.765,75.654c-1.028-2.872-1.981-5.533-2.994-8.361c2.375-0.953,4.588-2.123,6.93-0.727
		c1.621,0.966,2.117,2.785,1.816,4.551C75.002,74.128,72.37,74.734,69.765,75.654z"/>
</g>
</svg>
