<svg id="Layer_1" data-name="Layer 1" xmlns="http://www.w3.org/2000/svg" viewBox="0 0 83.0275 73.9848"><defs><style>.cls-1,.cls-2{fill:#d61f5f;}.cls-1{stroke:#d61f5f;stroke-miterlimit:10;stroke-width:3px;}</style></defs><title>Love_Icon_notification</title><path class="cls-1" d="M60,36.4A34.2782,34.2782,0,0,1,71.1,29a19.8673,19.8673,0,0,1,17,.9c7.8,4,11.5,10.6,11.9,19.3.2,4.8-1.3,9.2-3.4,13.5C93.5,69.1,89,74.5,84.1,79.6A135.6653,135.6653,0,0,1,61.7,97.9a2.8521,2.8521,0,0,1-3.5,0A133.0244,133.0244,0,0,1,31,74.3a54.3,54.3,0,0,1-7-10.2c-2.2-4.2-3.9-8.7-4-13.5-.2-8,2.7-14.6,9.4-19.2,7-4.7,14.5-5,22-1.1A28.7006,28.7006,0,0,1,60,36.4Zm0,4a3.6314,3.6314,0,0,0-.8-.9,28.5118,28.5118,0,0,0-9.4-7.1,17.9466,17.9466,0,0,0-14.5-1.1C27.5,34,22.9,40.8,22.5,48.9a25.22,25.22,0,0,0,3.2,12.9,59.9288,59.9288,0,0,0,10,13.9A136.6857,136.6857,0,0,0,59.4,95.6a.75.75,0,0,0,.9,0A135.5458,135.5458,0,0,0,85.7,73.8a55.0848,55.0848,0,0,0,9.3-14c2-4.6,3-9.4,1.9-14.5A18.3139,18.3139,0,0,0,84.7,31.2a17.4481,17.4481,0,0,0-15.1,1.3A29.0581,29.0581,0,0,0,60,40.4Z" transform="translate(-18.4903 -26.0152)"/><path class="cls-2" d="M29.3,47.2a16.57,16.57,0,0,0,1.1,9.1,6.9434,6.9434,0,0,1,.5,1.3,1.3053,1.3053,0,0,1-.7,1.6,1.1058,1.1058,0,0,1-1.6-.6c-1.9-4.4-3-9-1.4-13.7a33.5814,33.5814,0,0,1,2-4.3c.2-.4.7-.6,1.2-.9.4.3.9.5,1,.9a2.1973,2.1973,0,0,1-.1,1.4" transform="translate(-18.4903 -26.0152)"/></svg>