<svg id="Layer_1" data-name="Layer 1" xmlns="http://www.w3.org/2000/svg" viewBox="0 0 76.7577 38.5444"><defs><style>.cls-1{fill:#d61f5f;}.cls-2{fill:#fff;}.cls-3{fill:#f4f4f7;}</style></defs><title>PP_Access_Remove</title><g id="surface1-2"><path class="cls-1" d="M91.48,7.514c-4.2142.0947-6.8809,1.8-8.0283,4.4352-1.0912,2.5088-.8632,5.67-.0842,8.9546a2.8737,2.8737,0,0,0-.6737,2.2176v.0561a5.0277,5.0277,0,0,0,.8983,2.4141c.2.26.4842.2737.73.4211a9.8851,9.8851,0,0,0,1.2632,3.3123.8916.8916,0,0,0,.1684.3649s.0913.1158.1123.14a3.0143,3.0143,0,0,1,.4211,1.6562,19.3356,19.3356,0,0,1-.0842,2.0491,3.8347,3.8347,0,0,1-2.0211,1.7685c-1.1264.5683-2.6,1.0912-4.0984,1.74a13.0507,13.0507,0,0,0-4.2389,2.6672,7.81,7.81,0,0,0-2.2176,5.1931l-.0561.9544h36.0429l-.0561-.9544a7.8329,7.8329,0,0,0-2.19-5.1931,12.919,12.919,0,0,0-4.2387-2.6667c-1.4983-.6492-2.9826-1.1685-4.1264-1.74A4.0747,4.0747,0,0,1,96.8967,33.48c-.07-.8492-.0842-1.5193-.0842-2.2737a2.41,2.41,0,0,1,.4492-1.3474c.007-.0106.021-.0176.028-.0281.0035-.007.0562-.0562.0562-.0562a.8788.8788,0,0,0,.2245-.421,10.3692,10.3692,0,0,0,1.2076-3.3123c.2807-.1473.5965-.1649.814-.4491a4.72,4.72,0,0,0,.786-2.47,2.8788,2.8788,0,0,0-.6175-2.1615,16.4725,16.4725,0,0,0,.8421-6.0914A7.111,7.111,0,0,0,99.3955,11.22a5.2042,5.2042,0,0,0-3.2281-1.9369c-.9509-1.27-2.6772-1.7684-4.66-1.7684Zm.028,1.7965h.0281c1.793.007,2.94.5123,3.3124,1.1509l.2245.393.4492.0562a3.2406,3.2406,0,0,1,2.4141,1.3474,5.4579,5.4579,0,0,1,.87,2.7509,16.109,16.109,0,0,1-.87,5.8387l-.2807.7579.7017.365a1.5275,1.5275,0,0,1,.2527.9824v.028a3.16,3.16,0,0,1-.4492,1.5158c-.1508.1965-.228.1685-.1965.1685H97.178l-.1123.7859A8.8916,8.8916,0,0,1,95.8025,28.82h-.0281c-.0526.0772-.0912.1684-.14.2527A10.1192,10.1192,0,0,1,94.54,30.1391a5.0141,5.0141,0,0,1-2.9474,1.3474,5.113,5.113,0,0,1-2.9755-1.4036,10.4594,10.4594,0,0,1-1.3194-1.3474c-.0035-.007.0035-.021,0-.028a8.4018,8.4018,0,0,1-1.2915-3.2567l-.0842-.7859h-.73a.521.521,0,0,1-.1965-.1685,3.5024,3.5024,0,0,1-.5055-1.5155v-.028c-.0035-.014.0036-.014,0-.028a1.653,1.653,0,0,1,.3369-1.0106l.5053-.3649-.14-.6176c-.8281-3.2737-.9579-6.2387-.0842-8.2528.8736-2.0072,2.642-3.2773,6.4-3.3682ZM88.083,31.9637a5.9706,5.9706,0,0,0,3.5089,1.3193A5.8415,5.8415,0,0,0,95.0165,32.02c.0035.5474.0211,1.1088.0842,1.7965v.1123l.0562.1123a4.06,4.06,0,0,0,.6456,1.0948,1.0473,1.0473,0,0,0-.0281.1123,3.892,3.892,0,0,1-.8421,1.2351,4.3457,4.3457,0,0,1-3.34,1.2912,4.452,4.452,0,0,1-3.3966-1.3474,3.9117,3.9117,0,0,1-.87-1.2912,3.8365,3.8365,0,0,0,.6176-1.1229l.0561-.1684A16.204,16.204,0,0,0,88.083,31.9637Zm9.123,4.4071a10.0289,10.0289,0,0,0,.9825.5614c1.3123.6526,2.8,1.1579,4.2106,1.7685a11.4323,11.4323,0,0,1,3.6773,2.2737,5.8383,5.8383,0,0,1,1.46,3.0878H75.6476a5.8128,5.8128,0,0,1,1.46-3.0878,11.6117,11.6117,0,0,1,3.7051-2.2735c1.41-.6107,2.8842-1.1123,4.1825-1.7685a10.5406,10.5406,0,0,0,.9544-.5335A6.136,6.136,0,0,0,86.904,37.69a6.4054,6.4054,0,0,0,4.6879,1.8808,6.3043,6.3043,0,0,0,4.6316-1.8527,5.6437,5.6437,0,0,0,.9825-1.3472Z" transform="translate(-33.3062 -7.514)"/></g><path class="cls-1" d="M104.7011,31.9805a4.0334,4.0334,0,0,0-4.0223,4.0222v.67a1.34,1.34,0,0,0-1.341,1.339v6.7055a1.34,1.34,0,0,0,1.3392,1.3407h8.0461a1.34,1.34,0,0,0,1.3407-1.3391V38.014a1.34,1.34,0,0,0-1.3392-1.3408h-.0015v-.6705A4.0333,4.0333,0,0,0,104.7011,31.9805Zm0,1.3407a2.6733,2.6733,0,0,1,2.6815,2.6651v.6868h-5.3633v-.67a2.6717,2.6717,0,0,1,2.6618-2.6815Zm0,5.363a2.68,2.68,0,1,1-.0031,0Zm0,1.3408a1.3408,1.3408,0,1,0,1.3407,1.3408h0a1.4211,1.4211,0,0,0-.0628-.398.6673.6673,0,1,1-.88-.88A1.4224,1.4224,0,0,0,104.7011,40.025Z" transform="translate(-33.3062 -7.514)"/><rect class="cls-2" x="66.7525" y="29.8612" width="9.2844" height="7.8162" rx="2.2979"/><path class="cls-1" d="M104.6285,38.643a2.68,2.68,0,1,1-.003,0Z" transform="translate(-33.3062 -7.514)"/><path class="cls-3" d="M104.6286,39.9837a1.3408,1.3408,0,1,0,1.3407,1.3409h0a1.4211,1.4211,0,0,0-.0628-.398.6673.6673,0,1,1-.88-.88A1.4212,1.4212,0,0,0,104.6286,39.9837Z" transform="translate(-33.3062 -7.514)"/><path class="cls-2" d="M33.3062,32.241h.64a1.87,1.87,0,0,1,1.87,1.87h0v1.1778h-2.51V32.2412Z" transform="translate(-33.3062 -7.514)"/></svg>