<svg id="Layer_1" data-name="Layer 1" xmlns="http://www.w3.org/2000/svg" viewBox="0 0 19.738 25.9061"><defs><style>.cls-1{fill:#d61f5f;}.cls-2{fill:#f4f4f7;}</style></defs><title>PP_Access_Remove</title><path class="cls-1" d="M94.7905,64.6471a7.4223,7.4223,0,0,0-7.4018,7.4017v1.2336a2.4659,2.4659,0,0,0-2.4677,2.4641V88.0859a2.4657,2.4657,0,0,0,2.4643,2.4673h14.8064a2.4659,2.4659,0,0,0,2.4673-2.4643V75.75a2.466,2.466,0,0,0-2.4645-2.4673h-.0028V72.0488A7.4222,7.4222,0,0,0,94.7905,64.6471Zm0,2.4672a4.9194,4.9194,0,0,1,4.9345,4.9043v1.2638H89.8555V72.0488a4.9164,4.9164,0,0,1,4.8982-4.9345Zm0,9.869a4.9317,4.9317,0,1,1-.0056,0Zm0,2.4673a2.4673,2.4673,0,1,0,2.4672,2.4674v0a2.6176,2.6176,0,0,0-.1156-.7324,1.228,1.228,0,1,1-1.6191-1.6192A2.6188,2.6188,0,0,0,94.7905,79.4506Z" transform="translate(-84.921 -64.6471)"/><rect class="cls-2" x="1.3264" y="9.9274" width="17.0851" height="14.3834" rx="2.2979"/><path class="cls-1" d="M94.6569,76.9075a4.9317,4.9317,0,1,1-.0056,0Z" transform="translate(-84.921 -64.6471)"/><path class="cls-2" d="M94.657,79.3747a2.4673,2.4673,0,1,0,2.4672,2.4674v0a2.6176,2.6176,0,0,0-.1156-.7324A1.228,1.228,0,1,1,95.39,79.49,2.6188,2.6188,0,0,0,94.657,79.3747Z" transform="translate(-84.921 -64.6471)"/></svg>