<svg id="Layer_1" data-name="Layer 1" xmlns="http://www.w3.org/2000/svg" viewBox="0 0 25.382 26.8085"><defs><style>.cls-1{fill:#d61f5f;}.cls-2{fill:#fff;}.cls-3{fill:#f4f4f7;}</style></defs><title>PP_Access_Remove</title><g id="surface1-2"><path class="cls-1" d="M39.721,6c-2.9311.0659-4.7859,1.252-5.5839,3.0848a10.11,10.11,0,0,0-.0586,6.2282,1.999,1.999,0,0,0-.4686,1.5424v.0391a3.4978,3.4978,0,0,0,.6248,1.679c.1391.1809.3368.19.5078.2929a6.8741,6.8741,0,0,0,.8786,2.3038.6194.6194,0,0,0,.1171.2538s.0635.0806.0781.0974a2.0972,2.0972,0,0,1,.2929,1.152,13.4289,13.4289,0,0,1-.0586,1.4252,2.6667,2.6667,0,0,1-1.4057,1.23c-.7835.3953-1.8084.759-2.8506,1.21A9.077,9.077,0,0,0,28.846,28.394a5.4324,5.4324,0,0,0-1.5424,3.6119l-.039.6639h25.069l-.039-.6639a5.4481,5.4481,0,0,0-1.5232-3.6119,8.986,8.986,0,0,0-2.9482-1.8548c-1.0421-.4515-2.0745-.8127-2.87-1.21A2.834,2.834,0,0,1,43.4885,24.06c-.0487-.5907-.0586-1.0567-.0586-1.5815a1.6769,1.6769,0,0,1,.3125-.9371c.0049-.0074.0146-.0123.0195-.02.0024-.0048.039-.039.039-.039a.6116.6116,0,0,0,.1562-.2929,7.2114,7.2114,0,0,0,.84-2.3038c.1953-.1024.4149-.1147.5662-.3123a3.2835,3.2835,0,0,0,.5467-1.718,2.0023,2.0023,0,0,0-.4295-1.5034,11.4591,11.4591,0,0,0,.5857-4.2368,4.9461,4.9461,0,0,0-.84-2.5382,3.6193,3.6193,0,0,0-2.2452-1.3471,3.89,3.89,0,0,0-3.2412-1.23Zm.02,1.25h.02c1.2471.0049,2.0449.3563,2.3039.8005l.1562.2734.3124.039A2.2541,2.2541,0,0,1,44.2116,9.3a3.7957,3.7957,0,0,1,.6051,1.9133,11.2039,11.2039,0,0,1-.6051,4.061l-.1952.5272.488.2539a1.0625,1.0625,0,0,1,.1758.6832v.02a2.1988,2.1988,0,0,1-.3125,1.0543c-.1049.1367-.1585.1172-.1366.1172h-.5469l-.0781.5466a6.1867,6.1867,0,0,1-.8786,2.3432h-.02c-.0366.0537-.0634.1171-.0974.1758a7.0426,7.0426,0,0,1-.7611.7417,3.4872,3.4872,0,0,1-2.05.9371,3.5561,3.5561,0,0,1-2.07-.9762,7.2755,7.2755,0,0,1-.9177-.9372c-.0024-.0048.0024-.0146,0-.0194a5.8449,5.8449,0,0,1-.8983-2.2652l-.0585-.5466h-.5078a.3634.3634,0,0,1-.1367-.1172,2.436,2.436,0,0,1-.3515-1.0541v-.02c-.0025-.01.0025-.01,0-.0194a1.1491,1.1491,0,0,1,.2343-.7029l.3514-.2538-.0973-.43a9.4508,9.4508,0,0,1-.0586-5.74c.6076-1.3961,1.8376-2.2794,4.4514-2.3427Zm-2.3822,15.756a4.153,4.153,0,0,0,2.4406.9177,4.0635,4.0635,0,0,0,2.3819-.8785c.0024.3807.0147.7712.0585,1.25v.0781l.0391.0781a2.8222,2.8222,0,0,0,.4491.7615.725.725,0,0,0-.02.0781,2.7074,2.7074,0,0,1-.5857.8591,3.0222,3.0222,0,0,1-2.3231.898,3.0965,3.0965,0,0,1-2.3624-.9371,2.72,2.72,0,0,1-.6051-.8981,2.67,2.67,0,0,0,.4295-.781l.0391-.1171A11.2736,11.2736,0,0,0,37.3583,23.0055Zm6.3453,3.0653a6.9805,6.9805,0,0,0,.6834.3905c.9127.4539,1.9475.8054,2.9286,1.23a7.9524,7.9524,0,0,1,2.5577,1.5815A4.061,4.061,0,0,1,50.8888,31.42h-22.18a4.0424,4.0424,0,0,1,1.0155-2.1476,8.077,8.077,0,0,1,2.577-1.5813c.9807-.4248,2.006-.7737,2.909-1.23a7.33,7.33,0,0,0,.6639-.371,4.2642,4.2642,0,0,0,.6638.898,4.4553,4.4553,0,0,0,3.2606,1.3081A4.3845,4.3845,0,0,0,43.02,27.0079a3.9261,3.9261,0,0,0,.6833-.937Z" transform="translate(-27.2646 -6)"/></g><path class="cls-1" d="M48.9167,23.0172a2.8054,2.8054,0,0,0-2.7976,2.7976v.466a.932.932,0,0,0-.9327.9313h0V31.876a.932.932,0,0,0,.9314.9325h5.5963a.932.932,0,0,0,.9325-.9314V27.2137a.9319.9319,0,0,0-.9314-.9325h-.0011v-.4664A2.8053,2.8053,0,0,0,48.9167,23.0172Zm0,.9325a1.86,1.86,0,0,1,1.8651,1.8537h0v.4777h-3.73v-.466A1.8584,1.8584,0,0,1,48.9028,23.95Zm0,3.73a1.8641,1.8641,0,1,1-.0021,0Zm0,.9325a.9326.9326,0,1,0,.9325.9327h0a.9842.9842,0,0,0-.0437-.2768.4641.4641,0,1,1-.612-.6121A.9915.9915,0,0,0,48.9167,28.6124Z" transform="translate(-27.2646 -6)"/><rect class="cls-2" x="18.4232" y="20.7694" width="6.4576" height="5.4364" rx="1.5983"/><path class="cls-1" d="M48.8662,27.6512a1.864,1.864,0,1,1-.0021,0Z" transform="translate(-27.2646 -6)"/><path class="cls-3" d="M48.8663,28.5837a.9326.9326,0,1,0,.9325.9327h0a.9891.9891,0,0,0-.0437-.2769.4641.4641,0,1,1-.6121-.612A.9872.9872,0,0,0,48.8663,28.5837Z" transform="translate(-27.2646 -6)"/></svg>