<svg id="Layer_1" data-name="Layer 1" xmlns="http://www.w3.org/2000/svg" viewBox="0 0 44.9066 43.6765"><defs><style>.cls-1{fill:#d61f5f;}.cls-2{fill:#fff;}</style></defs><title>PP_Permission_remove</title><g id="surface1-2"><path class="cls-1" d="M57.03,37.5731c-4.2142.0947-6.8809,1.8-8.0283,4.4352-1.0912,2.5088-.8632,5.67-.0842,8.9546a2.8738,2.8738,0,0,0-.6737,2.2176v.0561a5.027,5.027,0,0,0,.8983,2.4141c.2.26.4842.2737.73.4211a9.8851,9.8851,0,0,0,1.2632,3.3123.89.89,0,0,0,.1684.3649s.0913.1158.1123.14a3.0147,3.0147,0,0,1,.4211,1.6562,19.3356,19.3356,0,0,1-.0842,2.0491,3.8346,3.8346,0,0,1-2.0211,1.7685c-1.1264.5684-2.6,1.0912-4.0984,1.74A13.049,13.049,0,0,0,41.3945,69.77a7.81,7.81,0,0,0-2.2176,5.1931l-.0561.9544H75.1637l-.0561-.9544a7.8331,7.8331,0,0,0-2.19-5.1931,12.9173,12.9173,0,0,0-4.2387-2.6667c-1.4983-.6492-2.9826-1.1685-4.1264-1.74a4.0756,4.0756,0,0,1-2.1054-1.8246c-.07-.8492-.0842-1.5193-.0842-2.2737a2.41,2.41,0,0,1,.4492-1.3474c.007-.0106.021-.0176.028-.0281.0035-.007.0562-.0562.0562-.0562a.8788.8788,0,0,0,.2245-.421A10.371,10.371,0,0,0,64.3284,56.1c.2807-.1473.5965-.1649.814-.4491a4.72,4.72,0,0,0,.786-2.47,2.8786,2.8786,0,0,0-.6175-2.1615,16.4728,16.4728,0,0,0,.8421-6.0914,7.11,7.11,0,0,0-1.2071-3.6492,5.2037,5.2037,0,0,0-3.2281-1.9369c-.9509-1.27-2.6772-1.7684-4.66-1.7684Zm.028,1.7965h.0281c1.793.007,2.94.5123,3.3124,1.1509l.2245.393.4492.0562a3.2413,3.2413,0,0,1,2.4141,1.3474,5.4579,5.4579,0,0,1,.87,2.7509,16.1087,16.1087,0,0,1-.87,5.8387l-.2807.7579.7017.365a1.5275,1.5275,0,0,1,.2527.9824v.028a3.1594,3.1594,0,0,1-.4492,1.5158c-.1508.1965-.228.1685-.1965.1685h-.7859l-.1123.7859a8.89,8.89,0,0,1-1.2632,3.3685h-.0281c-.0526.0772-.0912.1685-.14.2527A10.11,10.11,0,0,1,60.09,60.1982a5.0141,5.0141,0,0,1-2.9474,1.3474,5.1118,5.1118,0,0,1-2.9755-1.4036,10.4594,10.4594,0,0,1-1.3194-1.3474c-.0035-.007.0035-.021,0-.028A8.4013,8.4013,0,0,1,51.5562,55.51l-.0842-.7859h-.73a.5219.5219,0,0,1-.1965-.1685A3.5028,3.5028,0,0,1,50.04,53.04v-.028c-.0035-.014.0036-.014,0-.028a1.6534,1.6534,0,0,1,.3369-1.0106l.5053-.3649-.14-.6176c-.8281-3.2737-.9579-6.2387-.0842-8.2528.8736-2.0071,2.642-3.2773,6.4-3.3681ZM53.6334,62.0228a5.97,5.97,0,0,0,3.5089,1.3193,5.8408,5.8408,0,0,0,3.4246-1.2632c.0035.5474.0211,1.1088.0842,1.7965v.1123l.0562.1123a4.0585,4.0585,0,0,0,.6456,1.0948,1.0593,1.0593,0,0,0-.0281.1123,3.89,3.89,0,0,1-.8421,1.2351,4.345,4.345,0,0,1-3.34,1.2912,4.4515,4.4515,0,0,1-3.3966-1.3474,3.91,3.91,0,0,1-.87-1.2912,3.8339,3.8339,0,0,0,.6176-1.1229l.0561-.1684A16.2021,16.2021,0,0,0,53.6334,62.0228Zm9.123,4.4071a10.0289,10.0289,0,0,0,.9825.5614c1.3123.6526,2.8,1.1579,4.2106,1.7685a11.434,11.434,0,0,1,3.6773,2.2737,5.8383,5.8383,0,0,1,1.46,3.0878H41.198a5.8135,5.8135,0,0,1,1.46-3.0878A11.6134,11.6134,0,0,1,46.3631,68.76c1.41-.6106,2.8842-1.1123,4.1825-1.7685A10.5163,10.5163,0,0,0,51.5,66.458a6.134,6.134,0,0,0,.9544,1.2912A6.4058,6.4058,0,0,0,57.1423,69.63a6.3043,6.3043,0,0,0,4.6316-1.8527,5.6443,5.6443,0,0,0,.9825-1.3473Z" transform="translate(-33.3062 -32.241)"/></g><rect class="cls-2" x="33.8069" y="35.5522" width="11.0997" height="6.3281"/><g id="surface1"><path class="cls-1" d="M70.2486,63.3072a1.6687,1.6687,0,0,0-1.6454,1.5057H66.12v.9934h2.4681v.0155h4.9982v-.0155H76.054v-.9934H73.57a1.6255,1.6255,0,0,0-1.5833-1.5057Zm0,1.0245h1.7385a.5608.5608,0,0,1,.5123.4657H69.6742A.5742.5742,0,0,1,70.2486,64.3317ZM67.113,66.303v8.1959a.7634.7634,0,0,0,.7451.7451h6.504a.7634.7634,0,0,0,.745-.7451V66.303Zm1.49,1.49H69.1v6.4574h-.4967Zm1.49,0H70.59v6.4574h-.4967Zm1.49,0H72.08v6.4574h-.4967Zm1.49,0H73.57v6.4574h-.4967Z" transform="translate(-33.3062 -32.241)"/></g><path class="cls-2" d="M33.3062,32.241h.64a1.87,1.87,0,0,1,1.87,1.87h0v1.1778h-2.51V32.2412Z" transform="translate(-33.3062 -32.241)"/></svg>