<svg id="Layer_1" data-name="Layer 1" xmlns="http://www.w3.org/2000/svg" viewBox="0 0 36.9332 38.3444"><defs><style>.cls-1{fill:#d61f5f;}.cls-2{fill:#fff;}</style></defs><title>PP_Permission_remove</title><g id="surface1-2"><path class="cls-1" d="M23.7238,5.3321c-4.2142.0947-6.8809,1.8-8.0283,4.4352-1.0912,2.5088-.8632,5.67-.0842,8.9546a2.8738,2.8738,0,0,0-.6737,2.2176v.0561a5.027,5.027,0,0,0,.8983,2.4141c.2.26.4842.2737.73.4211a9.8851,9.8851,0,0,0,1.2632,3.3123.89.89,0,0,0,.1684.3649s.0913.1158.1123.14a3.0147,3.0147,0,0,1,.4211,1.6562,19.3356,19.3356,0,0,1-.0842,2.0491,3.8343,3.8343,0,0,1-2.0211,1.7685c-1.1264.5684-2.6,1.0912-4.0984,1.74A13.049,13.049,0,0,0,8.0883,37.529a7.81,7.81,0,0,0-2.2176,5.1931l-.0561.9544H41.8575l-.0561-.9544a7.8333,7.8333,0,0,0-2.19-5.1931,12.9173,12.9173,0,0,0-4.2387-2.6667c-1.4983-.6492-2.9826-1.1685-4.1264-1.74a4.0756,4.0756,0,0,1-2.1054-1.8246c-.07-.8492-.0842-1.5193-.0842-2.2737a2.41,2.41,0,0,1,.4492-1.3474c.007-.0106.021-.0176.028-.0281.0035-.007.0562-.0562.0562-.0562a.88.88,0,0,0,.2245-.421,10.371,10.371,0,0,0,1.2076-3.3123c.2807-.1473.5965-.1649.814-.4491a4.72,4.72,0,0,0,.786-2.47,2.8786,2.8786,0,0,0-.6175-2.1615,16.4728,16.4728,0,0,0,.8421-6.0914A7.1094,7.1094,0,0,0,31.64,9.0378a5.2033,5.2033,0,0,0-3.2281-1.9369c-.9509-1.27-2.6772-1.7684-4.66-1.7684Zm.028,1.7965H23.78c1.793.007,2.94.5123,3.3124,1.1509l.2245.393.4492.0562A3.2413,3.2413,0,0,1,30.18,10.0761a5.4579,5.4579,0,0,1,.87,2.7509,16.1087,16.1087,0,0,1-.87,5.8387l-.2807.7579.7017.365a1.5275,1.5275,0,0,1,.2527.9824v.028a3.1594,3.1594,0,0,1-.4492,1.5158c-.1508.1965-.228.1685-.1965.1685h-.7859l-.1123.7859a8.89,8.89,0,0,1-1.2632,3.3685h-.0281c-.0526.0772-.0912.1685-.14.2527a10.1192,10.1192,0,0,1-1.0948,1.0668,5.0141,5.0141,0,0,1-2.9474,1.3474,5.1118,5.1118,0,0,1-2.9755-1.4036,10.4594,10.4594,0,0,1-1.3194-1.3474c-.0035-.007.0035-.021,0-.028A8.4013,8.4013,0,0,1,18.25,23.269l-.0842-.7859h-.73a.5219.5219,0,0,1-.1965-.1685,3.5028,3.5028,0,0,1-.5055-1.5156v-.028c-.0035-.014.0036-.014,0-.028a1.6534,1.6534,0,0,1,.3369-1.0106l.5053-.3649-.14-.6176c-.8281-3.2737-.9579-6.2387-.0842-8.2528.8736-2.0071,2.642-3.2773,6.4-3.3681ZM20.3272,29.7818a5.97,5.97,0,0,0,3.5089,1.3193,5.8408,5.8408,0,0,0,3.4246-1.2632c.0035.5474.0211,1.1088.0842,1.7965v.1123l.0562.1123a4.0585,4.0585,0,0,0,.6456,1.0948,1.0593,1.0593,0,0,0-.0281.1123,3.89,3.89,0,0,1-.8421,1.2351,4.345,4.345,0,0,1-3.34,1.2912A4.4515,4.4515,0,0,1,20.44,34.245a3.91,3.91,0,0,1-.87-1.2912,3.8339,3.8339,0,0,0,.6176-1.1229l.0561-.1684A16.2021,16.2021,0,0,0,20.3272,29.7818Zm9.123,4.4071a10.0289,10.0289,0,0,0,.9825.5614c1.3123.6526,2.8,1.1579,4.2106,1.7685a11.434,11.434,0,0,1,3.6773,2.2737,5.8383,5.8383,0,0,1,1.46,3.0878H7.8918a5.8135,5.8135,0,0,1,1.46-3.0878,11.6134,11.6134,0,0,1,3.7051-2.2735c1.41-.6106,2.8842-1.1123,4.1825-1.7685a10.5163,10.5163,0,0,0,.9544-.5335,6.134,6.134,0,0,0,.9544,1.2912,6.4058,6.4058,0,0,0,4.6879,1.8808,6.3043,6.3043,0,0,0,4.6316-1.8527A5.6443,5.6443,0,0,0,29.45,34.189Z" transform="translate(-5.8146 -5.3321)"/></g><rect class="cls-2" x="27.9923" y="30.2201" width="7.6186" height="6.3281"/><g id="surface1"><path class="cls-1" d="M36.9424,31.0662a1.6686,1.6686,0,0,0-1.6454,1.5057H32.8138v.9934h2.4681v.0155H40.28v-.0155h2.4677v-.9934h-2.484a1.6256,1.6256,0,0,0-1.5833-1.5057Zm0,1.0245h1.7385a.5608.5608,0,0,1,.5123.4657H36.368A.5742.5742,0,0,1,36.9424,32.0907ZM33.8068,34.062v8.1959a.7634.7634,0,0,0,.7451.7451h6.504a.7634.7634,0,0,0,.745-.7451V34.062Zm1.49,1.49h.497v6.4574h-.4967Zm1.49,0h.497v6.4574h-.4967Zm1.49,0h.497v6.4574h-.4967Zm1.49,0h.497v6.4574h-.4967Z" transform="translate(-5.8146 -5.3321)"/></g></svg>