<svg id="Layer_1" data-name="Layer 1" xmlns="http://www.w3.org/2000/svg" viewBox="0 0 104.9658 112.7937"><defs><style>.cls-1{fill:#d61f5f;stroke:#d61f5f;stroke-miterlimit:10;stroke-width:2px;}</style></defs><title>Profile_Notificationsvg</title><path class="cls-1" d="M50.357,4.603A41.806,41.806,0,1,1,8.52,46.369,41.8712,41.8712,0,0,1,50.357,4.603Zm27.146,68.5A38.1171,38.1171,0,1,0,21.268,21.708C7.331,37.95,10.46,60.881,23.069,72.973c1.549-.786,3.018-1.679,4.594-2.301,2.859-1.128,5.799-2.047,8.668-3.151a20.5959,20.5959,0,0,0,3.451-1.802,7.7684,7.7684,0,0,0,1.364-1.533c-.937-.124-1.576-.162-2.193-.298-2.345-.517-4.711-.967-7.013-1.637a4.6,4.6,0,0,1-3.177-2.854,2.5666,2.5666,0,0,1,.172-2.393,6.4345,6.4345,0,0,0,1.068-2.432c.308-2.621.508-5.261.612-7.899.228-5.789.299-11.59,2.012-17.201,1.503-4.921,4.136-9.008,8.813-11.455,3.76-1.968,7.81-3.16,11.998-2.066,2.709.708,5.441,1.438,8.109,2.3,4.131,1.336,6.237,4.633,7.413,8.608A46.7809,46.7809,0,0,1,70.423,40.09c.013,3.685-.061,7.371.022,11.054.047,2.089.037,4.233,1.424,6.048a1.98,1.98,0,0,1,.182,1.251,3.5487,3.5487,0,0,1-1.743,2.574,14.7915,14.7915,0,0,1-5.741,2.276c-1.646.336-3.307.598-4.962.893-.051.098-.102.197-.153.295a14.7513,14.7513,0,0,0,2.278,1.837,31.6957,31.6957,0,0,0,4.237,1.801C69.933,69.523,74.026,70.617,77.503,73.103ZM25.767,75.454C39.39,87.608,61.541,87.44,74.673,75.62a9.2305,9.2305,0,0,0-1.137-.654c-2.542-1.019-5.078-2.057-7.647-3.006-2.634-.973-5.351-1.757-7.593-3.553a5.9086,5.9086,0,0,1-2.554-5.461,2.018,2.018,0,0,1,1.95-2.101c2.661-.484,5.318-1,7.953-1.606a13.6134,13.6134,0,0,0,2.421-1.043,16.3009,16.3009,0,0,1-.864-3.062c-.223-3-.326-6.011-.425-9.019-.148-4.483-.151-8.973-.416-13.449a17.6713,17.6713,0,0,0-2.305-8.036,6.7443,6.7443,0,0,0-6.006-3.563,5.3434,5.3434,0,0,1-3.303-.909,4.9576,4.9576,0,0,0-1.87-.68,14.2615,14.2615,0,0,0-15.554,8.073,28.419,28.419,0,0,0-2.207,7.772c-.554,4.611-.599,9.281-.92,13.922-.213,3.076.064,6.273-2.124,9.13a19.41,19.41,0,0,0,2.892,1.078c2.688.536,5.398.955,8.102,1.408,1.122.188,1.753.767,1.794,1.811a5.6789,5.6789,0,0,1-1.637,4.78,18.734,18.734,0,0,1-4.094,2.819c-1.95.934-4.071,1.504-6.098,2.284C30.642,73.475,28.273,74.451,25.767,75.454Z" transform="translate(-7.52 -3.6029)"/><path class="cls-1" d="M111.48,104.626c-.134,5.053-1.801,7.992-5.319,9.664-3.569,1.697-7.224,1.537-10.14-1.141-5.187-4.765-10.155-9.777-15.066-14.83a7.9574,7.9574,0,0,1-1.846-7.912c.575-2.01-.149-3.01-1.335-4.332a5.1422,5.1422,0,0,1-1.375-3.413,2.88,2.88,0,0,1,5.029-1.546c1.845,1.972,3.597,2.132,6.175,1.903a9.9,9.9,0,0,1,6.775,2.066c5.201,4.607,10.072,9.61,14.796,14.715C110.56,101.296,111.03,103.639,111.48,104.626Zm-9.465,4.666c1.028-.93,2.453-1.611,2.599-2.502a4.94,4.94,0,0,0-1.063-3.715c-4.03-4.291-8.257-8.399-12.443-12.542-1.795-1.777-3.704-1.931-5.028-.39-1.51,1.758-.969,3.393.523,4.877,4.176,4.154,8.332,8.328,12.552,12.437A18.1741,18.1741,0,0,0,102.015,109.292Z" transform="translate(-7.52 -3.6029)"/></svg>