<svg id="Layer_1" data-name="Layer 1" xmlns="http://www.w3.org/2000/svg" viewBox="0 0 102.9592 110.7932"><defs><style>.cls-1{fill:#c1272d;}</style></defs><title>Profile_icon_2</title><path class="cls-1" d="M50.3566,4.6035A41.806,41.806,0,1,1,8.5205,46.3687,41.8706,41.8706,0,0,1,50.3566,4.6035ZM77.5031,73.1026A38.1173,38.1173,0,1,0,21.2675,21.7077C7.3305,37.95,10.46,60.8807,23.069,72.9731c1.5486-.7864,3.0178-1.6791,4.5938-2.3009,2.8587-1.1279,5.7993-2.0471,8.6682-3.1512a20.576,20.576,0,0,0,3.4507-1.8023,7.7756,7.7756,0,0,0,1.3637-1.5327c-.9368-.1239-1.5755-.1622-2.1928-.2981-2.3448-.5167-4.7109-.9675-7.0127-1.637a4.6023,4.6023,0,0,1-3.1773-2.8543,2.5657,2.5657,0,0,1,.1723-2.3929,6.4235,6.4235,0,0,0,1.0676-2.4322c.3081-2.6212.5079-5.2611.6117-7.8992.2279-5.7885.2989-11.59,2.0122-17.201C34.1289,24.55,36.7623,20.4637,41.44,18.016c3.76-1.9679,7.81-3.16,11.9977-2.0662,2.709.7077,5.4409,1.4376,8.1092,2.3,4.131,1.3357,6.2372,4.633,7.4126,8.6078a46.759,46.759,0,0,1,1.4627,13.2309c.0128,3.6847-.0607,7.3709.022,11.0538.047,2.0891.0372,4.2325,1.4244,6.0479a1.9835,1.9835,0,0,1,.1822,1.2508,3.55,3.55,0,0,1-1.7428,2.5738,14.79,14.79,0,0,1-5.7406,2.2763c-1.6461.3356-3.3072.5979-4.9616.8928l-.1534.295A14.705,14.705,0,0,0,61.73,66.3158a31.6563,31.6563,0,0,0,4.2373,1.8009C69.9327,69.5227,74.0261,70.6169,77.5031,73.1026ZM25.7667,75.4543C39.39,87.6081,61.541,87.44,74.6729,75.62a9.1336,9.1336,0,0,0-1.1373-.6536c-2.542-1.0192-5.078-2.0568-7.6465-3.0057-2.6344-.9733-5.3507-1.7574-7.5932-3.5534a5.9089,5.9089,0,0,1-2.5542-5.4615,2.0191,2.0191,0,0,1,1.95-2.1013c2.6607-.4845,5.3181-1,7.9532-1.6058a13.6252,13.6252,0,0,0,2.4212-1.0431,16.3118,16.3118,0,0,1-.8642-3.0621c-.2226-3-.3257-6.0107-.4252-9.0188-.1484-4.4829-.1511-8.9734-.4157-13.4488a17.6789,17.6789,0,0,0-2.3045-8.0356,6.7417,6.7417,0,0,0-6.0058-3.5626,5.3439,5.3439,0,0,1-3.3028-.909,4.973,4.973,0,0,0-1.87-.68,14.2617,14.2617,0,0,0-15.5542,8.0729,28.37,28.37,0,0,0-2.2065,7.772c-.5542,4.6109-.5986,9.2813-.92,13.9224-.2133,3.076.0641,6.2734-2.124,9.13a19.3566,19.3566,0,0,0,2.8922,1.0776c2.6875.5357,5.3983.9555,8.1021,1.4079,1.1219.1878,1.7533.7675,1.7945,1.8109a5.678,5.678,0,0,1-1.6374,4.78,18.6956,18.6956,0,0,1-4.0937,2.8189c-1.95.9342-4.0707,1.5044-6.0977,2.2841C30.6422,73.475,28.2733,74.4513,25.7667,75.4543Z" transform="translate(-8.5204 -4.6034)"/><path class="cls-1" d="M111.48,104.6262c-.1341,5.0527-1.8014,7.9916-5.3192,9.6638-3.569,1.6965-7.2245,1.5374-10.1395-1.1409-5.1867-4.7653-10.1547-9.7771-15.0662-14.83a7.9589,7.9589,0,0,1-1.8458-7.9122c.5748-2.01-.1491-3.01-1.3351-4.3323a5.1408,5.1408,0,0,1-1.3746-3.4132,2.8808,2.8808,0,0,1,5.0294-1.5464c1.8451,1.972,3.5971,2.1318,6.1748,1.9034a9.9006,9.9006,0,0,1,6.7751,2.0664c5.2007,4.6068,10.072,9.61,14.7962,14.7146C110.56,101.2964,111.03,103.6392,111.48,104.6262Zm-9.4641,4.6653c1.0282-.93,2.4528-1.6106,2.5994-2.5015a4.9426,4.9426,0,0,0-1.0632-3.7154c-4.03-4.2911-8.2567-8.3993-12.4434-12.5422-1.7954-1.7767-3.7038-1.931-5.028-.39-1.51,1.758-.9687,3.3931.5232,4.877,4.1761,4.1537,8.3325,8.3277,12.5515,12.4374A18.208,18.208,0,0,0,102.0155,109.2915Z" transform="translate(-8.5204 -4.6034)"/></svg>