<?xml version="1.0" encoding="iso-8859-1"?>
<!-- Generator: Adobe Illustrator 24.0.2, SVG Export Plug-In . SVG Version: 6.00 Build 0)  -->
<svg version="1.1" id="Layer_1" xmlns="http://www.w3.org/2000/svg" xmlns:xlink="http://www.w3.org/1999/xlink" x="0px" y="0px"
	 viewBox="0 0 120 120" style="enable-background:new 0 0 120 120;" xml:space="preserve">
<g>
	<g>
		<path style="fill:#FFFFFF;" d="M50.357,4.603c23.047,0.039,41.789,18.82,41.758,41.845c-0.031,23.041-18.83,41.808-41.837,41.767
			C27.235,88.174,8.49,69.389,8.52,46.369C8.551,23.327,27.345,4.565,50.357,4.603z M77.503,73.103
			c14.117-14.049,15.253-38.349-0.349-53.812C61.342,3.62,35.88,4.678,21.268,21.708C7.331,37.95,10.46,60.881,23.069,72.973
			c1.549-0.786,3.018-1.679,4.594-2.301c2.859-1.128,5.799-2.047,8.668-3.151c1.205-0.464,2.352-1.116,3.451-1.802
			c0.506-0.316,0.833-0.918,1.364-1.533c-0.937-0.124-1.576-0.162-2.193-0.298c-2.345-0.517-4.711-0.967-7.013-1.637
			c-1.435-0.417-2.626-1.347-3.177-2.854c-0.298-0.814-0.325-1.585,0.172-2.393c0.463-0.752,0.968-1.588,1.068-2.432
			c0.308-2.621,0.508-5.261,0.612-7.899c0.228-5.789,0.299-11.59,2.012-17.201c1.503-4.921,4.136-9.008,8.813-11.455
			c3.76-1.968,7.81-3.16,11.998-2.066c2.709,0.708,5.441,1.438,8.109,2.3c4.131,1.336,6.237,4.633,7.413,8.608
			c1.277,4.319,1.447,8.769,1.463,13.231c0.013,3.685-0.061,7.371,0.022,11.054c0.047,2.089,0.037,4.233,1.424,6.048
			c0.226,0.295,0.217,0.835,0.182,1.251c-0.098,1.165-0.85,1.94-1.743,2.574c-1.724,1.225-3.697,1.859-5.741,2.276
			c-1.646,0.336-3.307,0.598-4.962,0.893c-0.051,0.098-0.102,0.197-0.153,0.295c0.754,0.623,1.432,1.389,2.278,1.837
			c1.352,0.716,2.792,1.288,4.237,1.801C69.933,69.523,74.026,70.617,77.503,73.103z M25.767,75.454
			C39.39,87.608,61.541,87.44,74.673,75.62c-0.387-0.226-0.74-0.494-1.137-0.654c-2.542-1.019-5.078-2.057-7.647-3.006
			c-2.634-0.973-5.351-1.757-7.593-3.553c-1.742-1.395-2.795-3.102-2.554-5.461c0.133-1.306,0.634-1.862,1.95-2.101
			c2.661-0.484,5.318-1,7.953-1.606c0.879-0.202,1.685-0.717,2.421-1.043c-0.336-1.146-0.792-2.09-0.864-3.062
			c-0.223-3-0.326-6.011-0.425-9.019c-0.148-4.483-0.151-8.973-0.416-13.449c-0.166-2.81-0.841-5.551-2.305-8.036
			c-1.355-2.3-3.352-3.513-6.006-3.563c-1.198-0.022-2.29-0.158-3.303-0.909c-0.512-0.38-1.223-0.537-1.87-0.68
			c-6.019-1.337-12.991,2.164-15.554,8.073c-1.065,2.456-1.888,5.126-2.207,7.772c-0.554,4.611-0.599,9.281-0.92,13.922
			c-0.213,3.076,0.064,6.273-2.124,9.13c1.047,0.4,1.94,0.888,2.892,1.078c2.688,0.536,5.398,0.955,8.102,1.408
			c1.122,0.188,1.753,0.767,1.794,1.811c0.071,1.798-0.234,3.557-1.637,4.78c-1.245,1.084-2.615,2.11-4.094,2.819
			c-1.95,0.934-4.071,1.504-6.098,2.284C30.642,73.475,28.273,74.451,25.767,75.454z"/>
	</g>
	<path style="fill:#FFFFFF;" d="M111.48,104.626c-0.134,5.053-1.801,7.992-5.319,9.664c-3.569,1.697-7.224,1.537-10.14-1.141
		c-5.187-4.765-10.155-9.777-15.066-14.83c-2.099-2.159-2.649-5.105-1.846-7.912c0.575-2.01-0.149-3.01-1.335-4.332
		c-0.786-0.876-1.474-2.306-1.375-3.413c0.217-2.412,3.275-3.421,5.029-1.546c1.845,1.972,3.597,2.132,6.175,1.903
		c2.217-0.197,5.133,0.612,6.775,2.066c5.201,4.607,10.072,9.61,14.796,14.715C110.56,101.296,111.03,103.639,111.48,104.626z
		 M102.015,109.292c1.028-0.93,2.453-1.611,2.599-2.502c0.193-1.171-0.253-2.853-1.063-3.715c-4.03-4.291-8.257-8.399-12.443-12.542
		c-1.795-1.777-3.704-1.931-5.028-0.39c-1.51,1.758-0.969,3.393,0.523,4.877c4.176,4.154,8.332,8.328,12.552,12.437
		C99.863,108.147,100.844,108.555,102.015,109.292z"/>
</g>
</svg>
