<?xml version="1.0" encoding="iso-8859-1"?>
<!-- Generator: Adobe Illustrator 24.0.2, SVG Export Plug-In . SVG Version: 6.00 Build 0)  -->
<svg version="1.1" id="Layer_1" xmlns="http://www.w3.org/2000/svg" xmlns:xlink="http://www.w3.org/1999/xlink" x="0px" y="0px"
	 viewBox="0 0 120 120" style="enable-background:new 0 0 120 120;" xml:space="preserve">
<g>
	<path style="fill:#FFFFFF;" d="M29.232,52.691c0.008-13.049,10.483-23.5,23.529-23.473c13.038,0.027,23.519,10.519,23.512,23.538
		C76.266,65.771,65.72,76.29,52.713,76.257C39.681,76.224,29.224,65.73,29.232,52.691z M72.525,52.687
		C72.461,41.587,63.55,32.8,52.438,32.879c-10.814,0.078-19.544,8.962-19.524,19.87c0.02,11.009,8.964,19.919,19.91,19.834
		C63.778,72.498,72.589,63.6,72.525,52.687z"/>
	<path style="fill:#FFFFFF;" d="M90.768,84.482c-0.078,2.956-1.054,4.675-3.111,5.653c-2.088,0.992-4.226,0.899-5.931-0.667
		c-3.034-2.787-5.94-5.719-8.813-8.674c-1.228-1.263-1.549-2.986-1.08-4.628c0.336-1.176-0.087-1.761-0.781-2.534
		c-0.46-0.512-0.862-1.349-0.804-1.997c0.127-1.411,1.916-2.001,2.942-0.905c1.079,1.154,2.104,1.247,3.612,1.113
		c1.297-0.115,3.003,0.358,3.963,1.209c3.042,2.695,5.892,5.622,8.655,8.607C90.23,82.534,90.506,83.905,90.768,84.482z
		 M85.232,87.211c0.601-0.544,1.435-0.942,1.52-1.463c0.113-0.685-0.148-1.669-0.622-2.173c-2.358-2.51-4.83-4.913-7.279-7.336
		c-1.05-1.039-2.167-1.13-2.941-0.228c-0.883,1.028-0.567,1.985,0.306,2.853c2.443,2.43,4.874,4.871,7.342,7.275
		C83.973,86.541,84.547,86.78,85.232,87.211z"/>
	<path style="fill:#FFFFFF;" d="M51.936,36.632c1.713-0.057,2.537,0.482,2.599,1.702c0.061,1.199-0.744,1.871-2.406,2.008
		c-6.535,0.54-11.052,4.952-11.719,11.446c-0.152,1.478-0.909,2.317-2.028,2.245c-1.159-0.074-1.745-0.933-1.684-2.467
		C37.012,43.735,43.988,36.898,51.936,36.632z"/>
</g>
</svg>
