<?xml version="1.0" encoding="iso-8859-1"?>
<!-- Generator: Adobe Illustrator 24.0.2, SVG Export Plug-In . SVG Version: 6.00 Build 0)  -->
<svg version="1.1" id="Layer_1" xmlns="http://www.w3.org/2000/svg" xmlns:xlink="http://www.w3.org/1999/xlink" x="0px" y="0px"
	 viewBox="0 0 62 62" style="enable-background:new 0 0 62 62;" xml:space="preserve">
<path style="fill:#D61F5F;" d="M46.608,60.012H14.914c-7.25,0-13.128-5.877-13.128-13.128V15.19c0-7.25,5.877-13.128,13.128-13.128
	h31.695c7.25,0,13.128,5.877,13.128,13.128v31.695C59.736,54.135,53.859,60.012,46.608,60.012z"/>
<g>
	<g>
		<path style="fill:#FFFFFF;" d="M30.761,38.015c-1.824,0-3.649-0.694-5.038-2.083L15.554,25.762c-0.391-0.391-0.391-1.023,0-1.414
			s1.023-0.391,1.414,0l10.169,10.169c1.998,1.998,5.249,1.998,7.247,0l10.169-10.169c0.391-0.391,1.023-0.391,1.414,0
			s0.391,1.023,0,1.414L35.799,35.932C34.41,37.32,32.586,38.015,30.761,38.015z"/>
	</g>
</g>
</svg>
