<svg id="Layer_1" data-name="Layer 1" xmlns="http://www.w3.org/2000/svg" viewBox="0 0 549.99 220.84"><defs><style>.cls-1{fill:#fff;}.cls-2{fill:#282929;}</style></defs><title>Sign up Page Main Gila Logo </title><path class="cls-1" d="M90.08,97.7c.36-1.14.72-2.32,1.06-3.48A3,3,0,0,0,88.34,90a3.19,3.19,0,0,0-2.78,1.88l-.42.81-.23.46-1,1.89-2-.6A28.12,28.12,0,0,1,66,83.08l-1.19-1.73,1.47-1.51A19.12,19.12,0,0,0,71.7,65.6a2.91,2.91,0,0,0-2.84-2.89h-.14a3,3,0,0,0-2.93,2.57c-.05.33-.08.69-.12,1.08,0,.54-.1,1.1-.2,1.71s-.3,1.4-.51,2.19l-.3,1.19-1.87,7.72-3-7.36-.85-2.12c-.55-1.36-1-2.54-1.52-3.72-.69-1.64-1.8-2.59-3-2.59a3.1,3.1,0,0,0-1.22.27c-2,.85-2,2.92-1.37,4.58.52,1.29,1.06,2.61,1.58,3.88l.72,1.77.58,1.43-1,1.18-.33.39-1.42,1.71-1.89-1.15-1.28-.77c-1-.57-2-1.16-2.92-1.79a4.07,4.07,0,0,0-2.19-.72,2.71,2.71,0,0,0-2.25,1.16c-1.06,1.44-.72,3.18.88,4.44,3.91,3.06,7.84,4.55,12,4.55.6,0,1.2,0,1.81-.09l.66,0A4.9,4.9,0,0,1,61,86.51,33.53,33.53,0,0,0,73.33,97.44c1.5.76,3.08,1.41,4.75,2.11.8.33,1.62.67,2.45,1l1.91.83-.41,2a95.81,95.81,0,0,0-.27,36.29l.36,1.94-1.79.84-.29.14a5.65,5.65,0,0,1-.8.34,35.41,35.41,0,0,0-18.57,13.86,5,5,0,0,1-3.93,1.82h-.29c-.48,0-1,0-1.41,0a20,20,0,0,0-13.29,5.07,2.94,2.94,0,0,0-.69,3.39,2.84,2.84,0,0,0,2.38,1.78l.32,0a8.66,8.66,0,0,0,2.23-1c.34-.18.68-.37,1-.55.71-.35,1.4-.75,2.14-1.17l1-.57,5.1-2.83-1.36,5.67a41.52,41.52,0,0,1-1.78,5.42l-.57,1.52a3.35,3.35,0,0,0,0,2.57,2.88,2.88,0,0,0,1.73,1.48,2.92,2.92,0,0,0,1,.18,3.18,3.18,0,0,0,2.84-2.09c.6-1.29,1.14-2.61,1.71-4,.25-.63.51-1.25.77-1.87l.73-1.73,1.87.17.46,0,2,.18.28,2,.24,1.72c.16,1.24.33,2.52.52,3.76a2.86,2.86,0,0,0,2.95,2.44H69a2.73,2.73,0,0,0,2.7-2.63,28.81,28.81,0,0,0-.51-5.42,17.81,17.81,0,0,0-4.82-9l-1.47-1.55,1.25-1.73c4.3-5.95,10.5-10.33,15.77-11.14l2-.3.78,1.82.24.57.54,1.25a3.34,3.34,0,0,0,2.93,2.28,3.19,3.19,0,0,0,1.12-.22c1.62-.65,2.24-2.24,1.61-4.16-.23-.71-.48-1.41-.75-2.15-.47-1.33-1-2.7-1.34-4.13a83.63,83.63,0,0,1-1.35-36.79A80.47,80.47,0,0,1,90.08,97.7Z" transform="translate(-2.38 -4.55)"/><path class="cls-1" d="M113,94.1c0-2.9,0-5.9,0-8.83a3,3,0,0,0-3-3.12,3.08,3.08,0,0,0-1.14.22c-.68.26-2,.76-2,4q0,10,0,20.07c0,14.23,0,29,0,43.42s-2.74,25.63-8.49,35a2.86,2.86,0,0,0,.91,3.65,3.42,3.42,0,0,0,1.87.6,2.86,2.86,0,0,0,2.3-1.18,21.47,21.47,0,0,0,1.92-3.09c4.9-9.43,7.36-20.08,7.53-32.57.09-7.4.07-14.94,0-22.22,0-3.22,0-6.55,0-9.83v-2.56h0V98C113,96.72,113,95.41,113,94.1Z" transform="translate(-2.38 -4.55)"/><path class="cls-1" d="M120.86,55.24a45.22,45.22,0,0,1,5,6.86l1.42,2.2A3.43,3.43,0,0,0,130,66a2.92,2.92,0,0,0,1.4-.38,3,3,0,0,0,1.18-4.15A36.65,36.65,0,0,0,124,49.73a21.63,21.63,0,0,0-13.9-5.93l-1.34.16a20.56,20.56,0,0,0-2.84.46c-8.35,2.23-14.35,7.93-18.89,18a2.11,2.11,0,0,0,.07,1.78,3.31,3.31,0,0,0,2.1,1.71A3.26,3.26,0,0,0,90,66C91,66,92,65.28,92.9,63.9c.24-.37.47-.74.7-1.11a46.41,46.41,0,0,1,5.49-7.59c3.24-3.41,7-5.22,10.88-5.22S117.63,51.8,120.86,55.24Z" transform="translate(-2.38 -4.55)"/><path class="cls-1" d="M162.74,86.41h0Z" transform="translate(-2.38 -4.55)"/><polygon class="cls-1" points="161.06 81.9 161.07 81.9 161.06 81.9 161.06 81.9 161.06 81.9"/><path class="cls-2" d="M165.29,181.76h0Z" transform="translate(-2.38 -4.55)"/><path class="cls-1" d="M186,41.81a106.8,106.8,0,0,0-76-31.5,105.31,105.31,0,0,0-41.39,8.45,108.82,108.82,0,0,0-34.22,23,107.08,107.08,0,0,0,2.24,154.67l.81.76v0a56.81,56.81,0,0,0,26.43,14.43c6.78,1.69,17.15,1.25,17.23,1.25a49.88,49.88,0,0,0,21-6.71,56.65,56.65,0,0,0,16.35-15.11c6.89-9.23,11.73-20.49,14.8-34.44.32-1.46.65-2.89,1-4.4.16-.7.32-1.41.49-2.13l.61-2.66,2.62.78a27.71,27.71,0,0,1,15.66,11.37l1.18,1.74-1.46,1.5a19.33,19.33,0,0,0-5.43,13.34c-.07,1.69.64,3.54,2.82,3.66h.23c2.42,0,3-2.17,3.06-3.47.09-1.09.26-2.14.42-3.16.07-.43.15-.87.21-1.3l.61-4.19,3.43,2.48a5.61,5.61,0,0,1,1.94,2.5c.25.58.49,1.16.72,1.72.48,1.15.93,2.25,1.46,3.26a2.71,2.71,0,0,0,2.54,1.47c.18,0,.38,0,.58,0a2.62,2.62,0,0,0,2.22-2,7.37,7.37,0,0,0-.42-3c-.38-1.21-.89-2.41-1.48-3.79-.26-.63-.54-1.29-.82-2L163.22,163l5.46,2,.72.25a7.9,7.9,0,0,1,1.52.65c.67.4,1.31.82,1.93,1.23l1.27.82a3.47,3.47,0,0,0,1.82.55,2.83,2.83,0,0,0,2.27-1.15,2.89,2.89,0,0,0-.45-4.13A19.37,19.37,0,0,0,165,158.3c-.53,0-1.06,0-1.6.07-.21,0-.41,0-.59,0a4.87,4.87,0,0,1-4.22-2.27,33.75,33.75,0,0,0-11.9-10.74c-1.59-.83-3.26-1.54-5-2.29-.82-.34-1.67-.7-2.51-1.08l-1.85-.82.36-2a95.93,95.93,0,0,0-.08-36.11l-.31-1.58,1.28-1,.16-.12a3,3,0,0,1,.81-.51,7.29,7.29,0,0,1,.79-.29l.06,0a35.13,35.13,0,0,0,18.43-13.7,4.49,4.49,0,0,1,3.92-2.06c.33,0,.63,0,.91,0,.53,0,1.06.07,1.58.07a19.26,19.26,0,0,0,12.49-4.84,2.68,2.68,0,0,0,1.08-2.84,2.88,2.88,0,0,0-2.88-2.47,3.7,3.7,0,0,0-2,.61c-1,.66-2.07,1.28-3.08,1.88l-1.36.81-5.29,3.21,1.47-6a48.37,48.37,0,0,1,1.64-5.09c.3-.83.59-1.62.84-2.41a2.73,2.73,0,0,0-.15-2.12,3.06,3.06,0,0,0-1.85-1.49,3.3,3.3,0,0,0-1-.15A3,3,0,0,0,162.52,65c-.61,1.33-1.18,2.72-1.74,4.07L160,71l-.74,1.75-1.89-.2-.49,0-2-.21-.26-2-.2-1.53c-.15-1.15-.31-2.3-.45-3.45a3.08,3.08,0,0,0-3-2.9h-.23a3,3,0,0,0-2.81,3.13,25.93,25.93,0,0,0,.44,4.3,17.85,17.85,0,0,0,5,9.69L154.9,81l-1.23,1.76a28,28,0,0,1-16,11.31l-2,.57-1-1.87c-.09-.19-.19-.37-.27-.55L134,91.3a3,3,0,0,0-2.61-1.64,3.19,3.19,0,0,0-.91.14,2.84,2.84,0,0,0-2.09,3.26,11.06,11.06,0,0,0,.62,2.11l.11.32c4.67,13.22,5.46,27.36,2.41,43.23-.48,2.49-1.18,4.92-1.85,7.27-.62,2.15-1.21,4.19-1.64,6.27-3,14.45-7.15,24.88-13.5,33.82-9.89,14-22.9,20.81-38.66,21a61.07,61.07,0,0,1-15.54-1.72,62.45,62.45,0,0,1-32.84-23.32S43.67,201.41,67,200.42c9.75-1.33,15.67-5.08,20.39-11.32S93.91,174,93.53,166a3.06,3.06,0,0,0-3-3.14h0a3.11,3.11,0,0,0-3,3.06c0,.44,0,.91,0,1.41s0,.81,0,1.23c.21,27.6-25.61,27.42-28.84,26.72-17.37-3.76-25.72-13.89-25.72-13.89a100.16,100.16,0,0,1-22.82-63.5C10.07,63.73,55.8,18,109.92,18a99.85,99.85,0,0,1,0,199.7,33.8,33.8,0,0,1-14.19-3.15c-4.34,2.39-12.64,3.23-26.46,3.07,8.83,3.24,14.8,5.08,24,6.5a109.64,109.64,0,0,0,16.62,1.27A107.54,107.54,0,0,0,186,41.81Z" transform="translate(-2.38 -4.55)"/><path class="cls-1" d="M139.61,75.84a6.68,6.68,0,0,1-1.69,3.32,16.33,16.33,0,0,1-4.08,3.32.4.4,0,0,1-.34,0A15.59,15.59,0,0,1,129,78.66a5.71,5.71,0,0,1-1.33-3.3,3,3,0,0,1,4.2-2.86,5.45,5.45,0,0,1,1.77,1.37c.27-.25.52-.5.79-.72a3.28,3.28,0,0,1,2.83-.87A3,3,0,0,1,139.61,75.84Z" transform="translate(-2.38 -4.55)"/><path class="cls-1" d="M92.23,75.84a6.7,6.7,0,0,1-1.7,3.32,16.28,16.28,0,0,1-4.07,3.32.4.4,0,0,1-.34,0,15.59,15.59,0,0,1-4.49-3.83,5.71,5.71,0,0,1-1.33-3.3,3,3,0,0,1,4.2-2.86,5.45,5.45,0,0,1,1.77,1.37c.27-.25.51-.5.78-.72a3.3,3.3,0,0,1,2.83-.87A3,3,0,0,1,92.23,75.84Z" transform="translate(-2.38 -4.55)"/><path class="cls-1" d="M356.14,83.89l-11.32,1.16q.46.69,3,4.85a35.26,35.26,0,0,1,3.92,9.23,38.74,38.74,0,0,1,1.62,12.46,36.77,36.77,0,0,1-5,19,35.69,35.69,0,0,1-14.66,13.5q11.31,7.4,16.51,15.7t5.2,21.23a33.39,33.39,0,0,1-5.31,19.5,46,46,0,0,1-14.56,14,71,71,0,0,1-20.09,8.31,82,82,0,0,1-21.71,2.53c-21.4,0-35.74-4-49.78-18.44l13.91-28.57c9.73,8.89,23.47,16.78,34.72,16.78a34,34,0,0,0,18.47-5.08q8.32-4.84,8.32-14.31,0-9.69-7.51-14.65t-18.59-5a67.15,67.15,0,0,0-14.21,1.38q-6.35,1.38-14.2,3.92l2.77-11.07A50,50,0,0,1,249.32,134a40,40,0,0,1-7.27-23.08A50.94,50.94,0,0,1,275,62.31a58,58,0,0,1,21.13-3.8,46.49,46.49,0,0,1,4.74.34c2.07.23,4.65.51,7.73.81l8.2.81,5.89.58a87.61,87.61,0,0,0,19.4-2.43q10.62-2.41,21-5Zm-78.3,35.43a24,24,0,0,0,4.85,7,22.51,22.51,0,0,0,6.93,4.73,19.76,19.76,0,0,0,16.17,0,23.64,23.64,0,0,0,6.93-4.61,22.43,22.43,0,0,0,4.85-6.93,21.1,21.1,0,0,0,1.85-8.88,20.38,20.38,0,0,0-1.85-8.77A24.5,24.5,0,0,0,312.72,95a21.26,21.26,0,0,0-30,0,24.71,24.71,0,0,0-4.85,6.93,21.53,21.53,0,0,0,0,17.42Z" transform="translate(-2.38 -4.55)"/><path class="cls-1" d="M448.12,9.2v165l-32.78.24V9Z" transform="translate(-2.38 -4.55)"/><path class="cls-1" d="M477.34,64.85a86.14,86.14,0,0,1,14.92-3.57A98.81,98.81,0,0,1,507.18,60q21.44,0,33.31,9.24T552.37,98v76.66L524,174.48V163.77h-.63q-8,12.39-26.9,12.39-18.07,0-27.74-10.92t-9.67-28.56A34.37,34.37,0,0,1,462.1,122a34.86,34.86,0,0,1,8.3-11.23,36.57,36.57,0,0,1,12.3-7.25,44.22,44.22,0,0,1,15-2.52,43.22,43.22,0,0,1,24.17,8.19,15.1,15.1,0,0,0,.21-3.36q0-11.13-4.83-14.7t-16.18-3.57q-13.87,0-23.54,3.57Zm16.81,82a19.12,19.12,0,0,0,23.12,0,13.11,13.11,0,0,0,4.62-10.6,12.61,12.61,0,0,0-4.62-10.3,19.57,19.57,0,0,0-23.12,0,12.61,12.61,0,0,0-4.62,10.3A13.11,13.11,0,0,0,494.15,146.86Z" transform="translate(-2.38 -4.55)"/><path class="cls-1" d="M388.15,52.88a1.32,1.32,0,0,1-1.13,0,51.76,51.76,0,0,1-14.86-12.66q-.51-.68-1-1.38V174.58l32.79-.21V38.85a34,34,0,0,1-2.34,3.06A54.16,54.16,0,0,1,388.15,52.88Z" transform="translate(-2.38 -4.55)"/><path class="cls-1" d="M377.52,27.3h.41C377.79,27.29,377.66,27.3,377.52,27.3Z" transform="translate(-2.38 -4.55)"/><path class="cls-1" d="M404,11.3a9.8,9.8,0,0,0-4.49-2.18l-.14,0-3.44,0A12.75,12.75,0,0,0,390.11,12c-.89.73-1.7,1.56-2.6,2.4a17.73,17.73,0,0,0-5.86-4.52A10.19,10.19,0,0,0,377.93,9h-.41a9.71,9.71,0,0,0-6.35,2.34,9.89,9.89,0,0,0-3.41,8,18,18,0,0,0,3.41,9.53c.32.46.65.93,1,1.38A51.89,51.89,0,0,0,387,42.85a1.32,1.32,0,0,0,1.13,0,54.42,54.42,0,0,0,13.47-11A33.82,33.82,0,0,0,404,28.8a19.6,19.6,0,0,0,3.27-7.94A10.28,10.28,0,0,0,404,11.3Z" transform="translate(-2.38 -4.55)"/><path class="cls-1" d="M331.17,26c-.21-3.09-4.11-4.36-5.4-4.78l-1.89-.62-.05,2a32.19,32.19,0,0,1-2.7,10.91,65.26,65.26,0,0,1-5,9.84A75.88,75.88,0,0,0,311,27.65c-2.76-5.9-5.32-8.54-8.08-8.39a11.14,11.14,0,0,0-4.87,1.7l-1.7,1,1.43,1.35a25.79,25.79,0,0,1,4.28,5.56,9.44,9.44,0,0,1-2.35.5,15.27,15.27,0,0,1-8.65-2.15c-3.49-4.22-7.72-6.4-12.58-6.48h-.82l-.44.68a5.64,5.64,0,0,0-1,3.5c0,.12,0,.24,0,.37a15.73,15.73,0,0,0-11.17,5.92,17.08,17.08,0,0,0-4.05,9.46A65.54,65.54,0,0,1,257,46.93c-1.79,2.27-3.58,3.49-5.34,3.6a1.45,1.45,0,0,1-1.4-.47,4.43,4.43,0,0,1-.74-2.58,35.88,35.88,0,0,1,.44-5.91l4.64-37-2.8,2.14a11.43,11.43,0,0,1-6.33,2.24,13.47,13.47,0,0,1-6.84-1.24l-2.29-1.1.21,3.17c.17,2.52,1.46,6.67,8.25,6.24h0l-3.4,26a36.37,36.37,0,0,0-.42,6.73A11.68,11.68,0,0,0,243.79,56a7.75,7.75,0,0,0,5.94,2.65l.62,0c3.42-.23,7-2.64,10.83-7.36.44-.54.88-1.11,1.33-1.71a13,13,0,0,0,3.08,4.07,13.63,13.63,0,0,0,10.33,3.31,18.15,18.15,0,0,0,13.3-7.3,21.47,21.47,0,0,0,4.84-14.44,21.88,21.88,0,0,0,5.44.4,15.56,15.56,0,0,0,5.31-1.34c.07.18.15.35.23.53a44.84,44.84,0,0,1,3.76,14.36,16.53,16.53,0,0,1-.31,3.86l-.36,2,2-.29a15.15,15.15,0,0,0,5.61-1.65,15.27,15.27,0,0,0,4-4.36,123.43,123.43,0,0,0,7.85-13.22C330.9,29.09,331.24,27.05,331.17,26Zm-51.48,4.78a11,11,0,0,1,1.4.1,14.23,14.23,0,0,0,3.78,1.74,12.81,12.81,0,0,1,.64,3.19,17.4,17.4,0,0,1-2.41,10.53c-1.78,2.87-3.91,4.35-6.53,4.52a5.6,5.6,0,0,1-4.64-1.71,8,8,0,0,1-2.19-5.34A12.85,12.85,0,0,1,272.43,35c2-2.63,4.24-4,6.93-4.17Z" transform="translate(-2.38 -4.55)"/><path class="cls-1" d="M369.88,22.61l-.67,1.24a55.69,55.69,0,0,1-11.56,15.27c-4.23,3.82-8.19,5.88-11.78,6.11-2.26.14-4.87-.3-5.61-4.78a25.87,25.87,0,0,0,12.62-4.84c4.2-3.09,6.21-6.59,6-10.4a7.4,7.4,0,0,0-3-5.74A10.08,10.08,0,0,0,349,17.78a18,18,0,0,0-13.24,7,21,21,0,0,0-4.64,15c.26,4,1.58,7.24,3.89,9.5a11.23,11.23,0,0,0,8.13,3.13c.34,0,.69,0,1,0,5.47-.36,11.12-3.06,16.81-8A52.88,52.88,0,0,0,374.29,26.3L374.9,25Zm-22.52,8.77a15.84,15.84,0,0,1-7,3.3,17.7,17.7,0,0,1,2.83-7.36h0c1.68-2.43,3.48-3.68,5.52-3.82H349c.78,0,1.36.28,1.47,1.94C350.63,27.56,349.61,29.51,347.36,31.38Z" transform="translate(-2.38 -4.55)"/></svg>