<svg id="Layer_1" data-name="Layer 1" xmlns="http://www.w3.org/2000/svg" viewBox="0 0 120 120"><defs><style>.cls-1{fill:#fff;stroke-width:4px;}.cls-1,.cls-2{stroke:#d61f5f;stroke-miterlimit:10;}.cls-2{fill:#d61f5f;stroke-width:2.25px;}</style></defs><title>Match_Icon_Highlighted</title><circle class="cls-1" cx="60" cy="60" r="58"/><path class="cls-2" d="M98.086,35.381a16.6891,16.6891,0,0,0-14.208-.745,27.4689,27.4689,0,0,0-9.297,6.141,27.3043,27.3043,0,0,0-7.103-5.154c-6.301-3.246-12.524-2.993-18.387.942a18.04,18.04,0,0,0-4.2,3.909,27.3868,27.3868,0,0,0-6.744-4.851c-6.269-3.246-12.459-2.993-18.291.942-5.585,3.769-7.987,9.317-7.851,15.998a25.6547,25.6547,0,0,0,3.33,11.286,45.6339,45.6339,0,0,0,5.842,8.548A108.0614,108.0614,0,0,0,43.781,92.121a2.35,2.35,0,0,0,2.869.015A116.6886,116.6886,0,0,0,59.862,81.955,121.3873,121.3873,0,0,0,73.141,92.121a2.3736,2.3736,0,0,0,2.885.015A113.8633,113.8633,0,0,0,94.727,76.832a53.93,53.93,0,0,0,10.455-14.075,23.6292,23.6292,0,0,0,2.806-11.288C107.703,44.265,104.574,38.741,98.086,35.381ZM45.605,90.226a.5709.5709,0,0,1-.759-.006A112.4957,112.4957,0,0,1,25.152,73.612a50.15,50.15,0,0,1-8.346-11.617,21.9169,21.9169,0,0,1-2.66-10.813,15.7555,15.7555,0,0,1,10.6-14.729,14.7333,14.7333,0,0,1,12.055.912,26.1162,26.1162,0,0,1,6.839,4.956A19.2553,19.2553,0,0,0,41.2,52.562a25.5708,25.5708,0,0,0,3.347,11.286,45.64,45.64,0,0,0,5.872,8.548,95.1141,95.1141,0,0,0,7.803,8.095A120.6658,120.6658,0,0,1,45.605,90.226Zm58.313-29.859A43.4006,43.4006,0,0,1,96.191,72.05,110.076,110.076,0,0,1,74.973,90.226a.5762.5762,0,0,1-.763-.006A112.9192,112.9192,0,0,1,54.414,73.612a50.1779,50.1779,0,0,1-8.389-11.617,21.8223,21.8223,0,0,1-2.673-10.813A15.763,15.763,0,0,1,54.006,36.453a14.88,14.88,0,0,1,12.118.912,25.0909,25.0909,0,0,1,7.83,5.95c.199.235.394.473.649.78A24.63,24.63,0,0,1,82.68,37.56a14.9018,14.9018,0,0,1,12.625-1.049,15.2972,15.2972,0,0,1,10.173,11.783A19.4779,19.4779,0,0,1,103.918,60.367Z"/><path class="cls-2" d="M49.883,43.492c-.4.294-.849.461-1.015.777A25.7337,25.7337,0,0,0,47.2,47.856c-1.356,3.975-.48,7.769,1.133,11.466a1.02,1.02,0,0,0,1.376.494,1.0537,1.0537,0,0,0,.595-1.336c-.12-.374-.292-.731-.431-1.1a13.9836,13.9836,0,0,1-.955-7.611l1.747-4.357a1.5765,1.5765,0,0,0,.089-1.198C50.662,43.936,50.235,43.767,49.883,43.492Z"/><path class="cls-2" d="M20.345,43.492c-.4.294-.849.461-1.015.777a25.7337,25.7337,0,0,0-1.668,3.587c-1.356,3.975-.48,7.769,1.133,11.466a1.02,1.02,0,0,0,1.376.494,1.0537,1.0537,0,0,0,.595-1.336c-.12-.374-.292-.731-.431-1.1a13.9836,13.9836,0,0,1-.955-7.611l1.747-4.357a1.5765,1.5765,0,0,0,.089-1.198C21.123,43.936,20.696,43.767,20.345,43.492Z"/></svg>