<?xml version="1.0" encoding="iso-8859-1"?>
<!-- Generator: Adobe Illustrator 24.0.2, SVG Export Plug-In . SVG Version: 6.00 Build 0)  -->
<svg version="1.1" id="Layer_1" xmlns="http://www.w3.org/2000/svg" xmlns:xlink="http://www.w3.org/1999/xlink" x="0px" y="0px"
	 viewBox="0 0 120 120" style="enable-background:new 0 0 120 120;" xml:space="preserve">
<circle style="fill:#FFFFFF;stroke:#D61F5F;stroke-width:2;stroke-miterlimit:10;" cx="60" cy="60" r="58"/>
<g>
	<path style="fill:#D61F5F;" d="M98.086,35.381c-4.587-2.376-9.386-2.608-14.208-0.745c-3.503,1.353-6.55,3.463-9.297,6.141
		c-2.098-2.142-4.492-3.809-7.103-5.154c-6.301-3.246-12.524-2.993-18.387,0.942c-1.698,1.14-3.069,2.461-4.2,3.909
		c-2.011-1.99-4.276-3.573-6.744-4.851c-6.269-3.246-12.459-2.993-18.291,0.942c-5.585,3.769-7.987,9.317-7.851,15.998
		c0.081,4.054,1.499,7.744,3.33,11.286c1.597,3.087,3.599,5.908,5.842,8.548c6.55,7.711,14.228,14.122,22.604,19.724
		c0.974,0.651,1.887,0.667,2.869,0.015c4.654-3.086,9.061-6.478,13.212-10.181c4.165,3.689,8.608,7.058,13.279,10.166
		c0.979,0.651,1.896,0.667,2.885,0.015c6.76-4.46,13.03-9.52,18.701-15.304c4.127-4.209,7.861-8.722,10.455-14.075
		c1.726-3.565,2.964-7.267,2.806-11.288C107.703,44.265,104.574,38.741,98.086,35.381z M45.605,90.226
		c-0.291,0.196-0.479,0.183-0.759-0.006c-7.165-4.816-13.793-10.277-19.694-16.608c-3.276-3.514-6.177-7.301-8.346-11.617
		c-1.708-3.398-2.817-6.97-2.66-10.813c0.278-6.803,4.139-12.459,10.6-14.729c4.103-1.442,8.174-1.098,12.055,0.912
		c2.532,1.311,4.856,2.911,6.839,4.956c-1.724,2.965-2.518,6.408-2.44,10.241c0.083,4.054,1.506,7.744,3.347,11.286
		c1.605,3.087,3.618,5.908,5.872,8.548c2.451,2.871,5.06,5.56,7.803,8.095C54.25,84.011,50.032,87.242,45.605,90.226z
		 M103.918,60.367c-1.865,4.358-4.599,8.165-7.727,11.683c-6.242,7.021-13.428,12.954-21.218,18.176
		c-0.292,0.196-0.481,0.183-0.763-0.006c-7.203-4.816-13.864-10.277-19.796-16.608c-3.292-3.514-6.209-7.301-8.389-11.617
		c-1.717-3.398-2.831-6.97-2.673-10.813c0.28-6.803,4.16-12.459,10.654-14.729c4.125-1.442,8.216-1.098,12.118,0.912
		c2.954,1.522,5.657,3.392,7.83,5.95c0.199,0.235,0.394,0.473,0.649,0.78c2.205-2.865,5.005-4.869,8.077-6.535
		c4.056-2.199,8.321-2.611,12.625-1.049c5.528,2.006,8.906,6.028,10.173,11.783C106.402,52.501,105.573,56.499,103.918,60.367z"/>
	<path style="fill:#D61F5F;" d="M49.883,43.492c-0.4,0.294-0.849,0.461-1.015,0.777c-0.613,1.167-1.244,2.345-1.668,3.587
		c-1.356,3.975-0.48,7.769,1.133,11.466c0.238,0.546,0.851,0.719,1.376,0.494c0.524-0.224,0.778-0.766,0.595-1.336
		c-0.12-0.374-0.292-0.731-0.431-1.1c-0.927-2.46-1.447-4.974-0.955-7.611l1.747-4.357c0.195-0.306,0.208-0.84,0.089-1.198
		C50.662,43.936,50.235,43.767,49.883,43.492z"/>
	<path style="fill:#D61F5F;" d="M20.345,43.492c-0.4,0.294-0.849,0.461-1.015,0.777c-0.613,1.167-1.244,2.345-1.668,3.587
		c-1.356,3.975-0.48,7.769,1.133,11.466c0.238,0.546,0.851,0.719,1.376,0.494c0.524-0.224,0.778-0.766,0.595-1.336
		c-0.12-0.374-0.292-0.731-0.431-1.1c-0.927-2.46-1.447-4.974-0.955-7.611l1.747-4.357c0.195-0.306,0.208-0.84,0.089-1.198
		C21.123,43.936,20.696,43.767,20.345,43.492z"/>
</g>
</svg>
