<svg id="Layer_1" data-name="Layer 1" xmlns="http://www.w3.org/2000/svg" viewBox="0 0 120 120"><defs><style>.cls-1{fill:#fff;stroke-width:4px;}.cls-1,.cls-2,.cls-3{stroke:#d61f5f;stroke-miterlimit:10;}.cls-2,.cls-3{fill:#d61f5f;}.cls-2{stroke-width:3px;}.cls-3{stroke-width:2px;}</style></defs><title>Messages_Icon_Highlighted</title><circle class="cls-1" cx="60" cy="60" r="58"/><path class="cls-2" d="M60.079,21.73A38.2922,38.2922,0,0,1,97.675,52.962a37.6407,37.6407,0,0,1-4.832,26.697,4.2623,4.2623,0,0,0-.676,2.992c.496,3.45.834,6.923,1.213,10.389.226,2.061-.059,2.372-2.09,2.068-3.639-.544-7.262-1.196-10.905-1.704a4.1374,4.1374,0,0,0-2.33.387A38.2843,38.2843,0,0,1,37.424,29.107,37.533,37.533,0,0,1,60.079,21.73ZM91.254,92.987c-.316-2.766-.62-5.211-.868-7.662-.244-2.415-.682-4.674.814-7.106a34.4119,34.4119,0,0,0,4.412-24.884A36.45,36.45,0,0,0,61.1,23.767c-15.666-.457-30.817,9.808-35.448,24.808-4.295,13.913-1.385,26.33,8.708,36.908,10.487,10.99,28.248,13.967,41.688,6.935a8.71,8.71,0,0,1,6.228-.876C85.152,92.14,88.08,92.489,91.254,92.987Z"/><path class="cls-2" d="M32.965,53.963c.497-7.646,4.092-13.06,9.672-17.28a24.7617,24.7617,0,0,1,14.342-5.265c.75-.025,1.723-.274,1.804.87.087,1.237-.945,1.117-1.754,1.153-9.472.432-18.675,7.351-21.256,16.071-.393,1.329-.371,2.777-.709,4.127-.131.521-.731.924-1.118,1.381C33.548,54.59,33.148,54.16,32.965,53.963Z"/><path class="cls-3" d="M32.786,60.764c.375-.345.805-.74,1.234-1.135.343.436.857.824.995,1.317a17.5574,17.5574,0,0,1,.644,3.559c.032.48-.451.993-.699,1.492-.417-.313-1.078-.548-1.206-.952C33.348,63.763,33.141,62.417,32.786,60.764Z"/></svg>