<?xml version="1.0" encoding="iso-8859-1"?>
<!-- Generator: Adobe Illustrator 24.0.2, SVG Export Plug-In . SVG Version: 6.00 Build 0)  -->
<svg version="1.1" id="Layer_1" xmlns="http://www.w3.org/2000/svg" xmlns:xlink="http://www.w3.org/1999/xlink" x="0px" y="0px"
	 viewBox="0 0 120 120" style="enable-background:new 0 0 120 120;" xml:space="preserve">
<circle style="fill:#FFFFFF;stroke:#D61F5F;stroke-width:2;stroke-miterlimit:10;" cx="60" cy="60" r="58"/>
<g>
	<path style="fill:#D61F5F;" d="M92.698,71.439c-0.882-0.8-1.672-1.654-2.349-2.537c-1.523-1.989-2.409-4.246-3.01-5.991
		c-1.542-4.476-2.422-9.467-2.771-15.707c-0.038-0.685-0.061-1.371-0.083-2.057c-0.039-1.167-0.078-2.373-0.199-3.542
		c-0.451-4.343-2.156-8.234-5.068-11.566c-2.577-2.95-5.749-5.192-9.696-6.855c-0.152-0.064-0.66-0.309-0.834-0.761
		c-1.311-3.445-3.753-5.358-7.469-5.85c-0.379-0.05-0.757-0.074-1.132-0.074c-3.636,0-6.995,2.298-8.249,5.781
		c-0.155,0.429-0.417,0.693-0.851,0.856c-2.5,0.947-4.581,2.127-6.361,3.606c-5.399,4.489-8.328,10.56-8.705,18.043
		c-0.032,0.645-0.06,1.29-0.088,1.935c-0.103,2.357-0.208,4.795-0.538,7.189c-0.669,4.857-1.777,8.731-3.488,12.19
		c-0.838,1.693-1.933,3.632-3.696,5.168c-2.02,1.759-3.437,3.874-4.213,6.285c-0.516,1.608-0.917,3.066-0.603,4.618
		c0.984,4.85,4.265,7.619,9.011,7.619c0.052,0,0.103,0,0.155-0.001c6.472-0.081,13.052-0.063,19.415-0.046
		c2.552,0.007,5.104,0.014,7.654,0.015v-0.021l28.204-0.001c0.458,0,0.918-0.002,1.375-0.032c5.895-0.376,8.044-4.772,8.095-8.422
		C97.257,77.516,95.741,74.204,92.698,71.439z M93.182,85.356c-1.08,1.19-2.67,1.882-4.479,1.95c-0.272,0.01-0.546,0.01-0.818,0.01
		l-49.477,0.007l-0.005,0.084c-0.079-0.003-0.812-0.014-1.728-0.027c-1.073,0.004-2.673-0.011-5.028-0.036
		c-1.1-0.043-2.028-0.303-2.854-0.795c-1.839-1.095-2.516-2.921-2.899-4.389c-0.291-1.106-0.056-2.128,0.234-3.165
		c0.673-2.403,1.961-4.426,3.83-6.013c2.11-1.791,3.428-4.199,4.341-6.096c1.978-4.118,3.199-8.744,3.731-14.142
		c0.169-1.7,0.243-3.445,0.315-5.132c0.042-0.969,0.083-1.938,0.142-2.906c0.423-6.995,3.205-12.542,8.268-16.487
		c1.771-1.379,3.806-2.425,6.222-3.197c0.644-0.206,0.966-0.563,1.111-1.234c0.617-2.846,3.143-4.83,6.143-4.83
		c0.005,0,0.01,0,0.015,0c2.989,0.006,5.509,1.982,6.126,4.805c0.154,0.705,0.494,1.082,1.213,1.347
		c5.546,2.044,9.485,5.304,12.045,9.965c1.471,2.679,2.232,5.699,2.265,8.977c0.062,6.226,0.767,11.727,2.156,16.817
		c1.085,3.98,2.343,6.827,4.077,9.231c0.788,1.092,1.721,2.132,2.772,3.091c2.344,2.138,3.571,4.65,3.753,7.682
		C94.758,82.603,94.234,84.195,93.182,85.356z"/>
	<path style="fill:#D61F5F;" d="M73.1,92.71c-0.6-0.206-1.155,0.148-1.42,0.903c-0.653,1.857-1.792,3.367-3.385,4.486
		c-4.044,2.843-8.537,3.378-13.355,1.591c-2.692-0.998-4.665-2.723-5.865-5.128c-0.116-0.232-0.21-0.475-0.304-0.718
		c-0.065-0.171-0.132-0.343-0.207-0.51c-0.19-0.418-0.561-0.661-1-0.661c-0.03,0-0.061,0.001-0.092,0.003
		c-0.376,0.028-0.806,0.306-0.897,0.781c-0.063,0.328-0.046,0.698,0.046,0.989c0.487,1.528,1.345,2.932,2.548,4.171
		c2.795,2.876,6.41,4.398,10.747,4.523c3.547-0.053,6.389-0.87,8.942-2.571c2.445-1.629,4.056-3.66,4.922-6.211
		C74.024,93.637,73.732,92.928,73.1,92.71z"/>
</g>
<path style="fill:#D61F5F;" d="M50.522,35.734c-2.285,2.258-3.488,5.086-4.256,8.139c-0.115,0.457-0.19,0.926-0.327,1.376
	c-0.209,0.686-0.829,1.045-1.498,0.908c-0.67-0.137-1.154-0.725-1.016-1.425c0.937-4.738,2.664-9.069,6.711-12.054
	c1.265-0.933,2.69-1.661,4.09-2.39c0.379-0.197,0.935-0.055,1.529-0.072c0.158,0.511,0.463,0.967,0.364,1.305
	c-0.127,0.433-0.504,0.95-0.905,1.118"/>
</svg>
