<svg id="Layer_1" data-name="Layer 1" xmlns="http://www.w3.org/2000/svg" viewBox="0 0 120 120"><defs><style>.cls-1{fill:#fff;stroke-width:4px;}.cls-1,.cls-2{stroke:#d61f5f;stroke-miterlimit:10;}.cls-2,.cls-3{fill:#d61f5f;}.cls-2{stroke-width:3px;}</style></defs><title>Notifications_Icon_Highlighted</title><circle class="cls-1" cx="60" cy="60" r="58"/><path class="cls-2" d="M92.698,71.439a19.3005,19.3005,0,0,1-2.349-2.537,21.0071,21.0071,0,0,1-3.01-5.991,57.2277,57.2277,0,0,1-2.771-15.707c-.038-.685-.061-1.371-.083-2.057-.039-1.167-.078-2.373-.199-3.542a20.4816,20.4816,0,0,0-5.068-11.566,25.8509,25.8509,0,0,0-9.696-6.855,1.5645,1.5645,0,0,1-.834-.761,9.2595,9.2595,0,0,0-8.601-5.924,8.807,8.807,0,0,0-8.249,5.781,1.3323,1.3323,0,0,1-.851.856,21.9136,21.9136,0,0,0-6.361,3.606c-5.399,4.489-8.328,10.56-8.705,18.043-.032.645-.06,1.29-.088,1.935-.103,2.357-.208,4.795-.538,7.189a38.7635,38.7635,0,0,1-3.488,12.19,16.07,16.07,0,0,1-3.696,5.168,13.9255,13.9255,0,0,0-4.213,6.285,9.01,9.01,0,0,0-.603,4.618c.984,4.85,4.265,7.619,9.011,7.619.052,0,.103,0,.155-.001,6.472-.081,13.052-.063,19.415-.046q3.828.01,7.654.015v-.021l28.204-.001c.458,0,.918-.002,1.375-.032,5.895-.376,8.044-4.772,8.095-8.422A12.6853,12.6853,0,0,0,92.698,71.439Zm.484,13.917a6.2686,6.2686,0,0,1-4.479,1.95c-.272.01-.546.01-.818.01l-49.477.007-.005.084c-.079-.003-.812-.014-1.728-.027-1.073.004-2.673-.011-5.028-.036a5.869,5.869,0,0,1-2.854-.795,6.73,6.73,0,0,1-2.899-4.389,5.8533,5.8533,0,0,1,.234-3.165,11.9782,11.9782,0,0,1,3.83-6.013,18.14,18.14,0,0,0,4.341-6.096A41.5867,41.5867,0,0,0,38.03,52.744c.169-1.7.243-3.445.315-5.132.042-.969.083-1.938.142-2.906.423-6.995,3.205-12.542,8.268-16.487a19.6792,19.6792,0,0,1,6.222-3.197,1.4754,1.4754,0,0,0,1.111-1.234,6.1814,6.1814,0,0,1,6.143-4.83h.015a6.1794,6.1794,0,0,1,6.126,4.805,1.6667,1.6667,0,0,0,1.213,1.347A21.4991,21.4991,0,0,1,79.63,35.075a18.826,18.826,0,0,1,2.265,8.977,65.7564,65.7564,0,0,0,2.156,16.817A27.61,27.61,0,0,0,88.128,70.1,20.24,20.24,0,0,0,90.9,73.191a10.8714,10.8714,0,0,1,3.753,7.682A6.047,6.047,0,0,1,93.182,85.356Z"/><path class="cls-2" d="M73.1,92.71c-.6-.206-1.155.148-1.42.903a9.0345,9.0345,0,0,1-3.385,4.486A13.7363,13.7363,0,0,1,54.94,99.69a10.2906,10.2906,0,0,1-5.865-5.128c-.116-.232-.21-.475-.304-.718-.065-.171-.132-.343-.207-.51a1.0765,1.0765,0,0,0-1-.661c-.03,0-.061.001-.092.003a.9959.9959,0,0,0-.897.781,2.1155,2.1155,0,0,0,.046.989,10.5939,10.5939,0,0,0,2.548,4.171,15.0421,15.0421,0,0,0,10.747,4.523,15.8511,15.8511,0,0,0,8.942-2.571,11.8977,11.8977,0,0,0,4.922-6.211A1.2433,1.2433,0,0,0,73.1,92.71Z"/><path class="cls-3" d="M50.522,35.734a16.7391,16.7391,0,0,0-4.256,8.139c-.115.457-.19.926-.327,1.376a1.262,1.262,0,0,1-1.498.908,1.2214,1.2214,0,0,1-1.016-1.425c.937-4.738,2.664-9.069,6.711-12.054a30.671,30.671,0,0,1,4.09-2.39,4.1068,4.1068,0,0,1,1.529-.072c.158.511.463.967.364,1.305a1.887,1.887,0,0,1-.905,1.118"/></svg>