<?xml version="1.0" encoding="utf-8"?>
<!-- Generator: Adobe Illustrator 24.0.1, SVG Export Plug-In . SVG Version: 6.00 Build 0)  -->
<svg version="1.1" id="Layer_1" xmlns="http://www.w3.org/2000/svg" xmlns:xlink="http://www.w3.org/1999/xlink" x="0px" y="0px"
	 viewBox="0 0 118 118" style="enable-background:new 0 0 118 118;" xml:space="preserve">
<style type="text/css">
	.st0{fill:#FFFFFF;stroke:#D61F5F;stroke-width:3;stroke-miterlimit:10;}
	.st1{fill:#FFFFFF;stroke:#D61F5F;stroke-width:4;stroke-miterlimit:10;}
	.st2{fill:#FFFFFF;}
	.st3{fill:#FFFFFF;stroke:#D61F5F;stroke-width:2;stroke-miterlimit:10;}
	.st4{fill:#D61F5F;}
	.st5{fill:#D61F5F;stroke:#D61F5F;stroke-miterlimit:10;}
</style>
<title>PP_Highlighted_outgoing</title>
<circle class="st0" cx="59" cy="59" r="58"/>
<path class="st1" d="M24.2,30.7h65.5c2.7,0,4.9,2.2,4.9,4.9V79c0,2.7-2.2,4.9-4.9,4.9H24.2c-2.7,0-4.9-2.2-4.9-4.9V35.5
	C19.4,32.8,21.5,30.7,24.2,30.7z"/>
<rect x="85.1" y="66.3" class="st2" width="17.3" height="22.3"/>
<polygon class="st3" points="86,39.6 76,39.8 79.7,43.4 72.3,51 75.1,53.6 82.4,46 86.1,49.6 "/>
<g id="surface1">
	<path class="st4" d="M94.7,64.6c-4.1,0-7.4,3.3-7.4,7.4v1.2c-1.4,0-2.5,1.1-2.5,2.5c0,0,0,0,0,0v12.3c0,1.4,1.1,2.5,2.5,2.5
		c0,0,0,0,0,0h14.8c1.4,0,2.5-1.1,2.5-2.5c0,0,0,0,0,0V75.8c0-1.4-1.1-2.5-2.5-2.5c0,0,0,0,0,0V72C102.1,68,98.8,64.7,94.7,64.6z
		 M94.7,67.1c2.7,0,4.9,2.2,4.9,4.9c0,0,0,0,0,0v1.2h-9.9V72C89.8,69.3,92,67.1,94.7,67.1C94.7,67.1,94.7,67.1,94.7,67.1z M94.7,77
		c2.7,0,4.9,2.2,4.9,4.9s-2.2,4.9-4.9,4.9s-4.9-2.2-4.9-4.9C89.8,79.2,92,77,94.7,77C94.7,77,94.7,77,94.7,77z M94.7,79.5
		c-1.4,0-2.5,1.1-2.5,2.5s1.1,2.5,2.5,2.5c1.4,0,2.5-1.1,2.5-2.5c0,0,0,0,0,0c0-0.2,0-0.5-0.1-0.7c-0.3,0.6-1,0.9-1.6,0.6
		c-0.6-0.3-0.9-1-0.6-1.6c0.1-0.3,0.3-0.5,0.6-0.6C95.2,79.5,95,79.5,94.7,79.5z"/>
</g>
<g id="surface1-2">
	<path class="st5" d="M57,37.6c-4.2,0.1-6.9,1.8-8,4.4c-1.1,2.5-0.9,5.7-0.1,9c-0.5,0.6-0.8,1.4-0.7,2.2v0.1
		c0.1,0.9,0.4,1.7,0.9,2.4c0.2,0.3,0.5,0.3,0.7,0.4c0.2,1.2,0.6,2.3,1.3,3.3c0,0.1,0.1,0.3,0.2,0.4c0,0,0.1,0.1,0.1,0.1
		c0.3,0.5,0.4,1.1,0.4,1.7c0,0.7,0,1.4-0.1,2c-0.4,0.8-1.2,1.4-2,1.8c-1.1,0.6-2.6,1.1-4.1,1.7c-1.6,0.6-3,1.5-4.2,2.7
		C40,71.2,39.2,73,39.2,75l-0.1,1h36l-0.1-1c-0.1-1.9-0.8-3.8-2.2-5.2c-1.2-1.2-2.7-2.1-4.2-2.7c-1.5-0.6-3-1.2-4.1-1.7
		c-0.9-0.3-1.6-1-2.1-1.8c-0.1-0.8-0.1-1.5-0.1-2.3c0-0.5,0.2-1,0.4-1.3c0,0,0,0,0,0c0,0,0.1-0.1,0.1-0.1c0.1-0.1,0.2-0.3,0.2-0.4
		c0.6-1,1-2.1,1.2-3.3c0.3-0.1,0.6-0.2,0.8-0.4c0.5-0.7,0.8-1.6,0.8-2.5c0.1-0.8-0.1-1.6-0.6-2.2c0.7-2,0.9-4,0.8-6.1
		c-0.1-1.3-0.5-2.6-1.2-3.6c-0.8-1-1.9-1.7-3.2-1.9C60.8,38.1,59,37.6,57,37.6L57,37.6z M57.1,39.4L57.1,39.4c1.8,0,3,0.5,3.3,1.2
		l0.2,0.4l0.4,0.1c1,0.1,1.9,0.6,2.4,1.3c0.5,0.8,0.8,1.8,0.9,2.8c0.1,2-0.2,4-0.9,5.8l-0.3,0.8l0.7,0.4c0.2,0.3,0.3,0.6,0.3,1v0
		c0,0.5-0.2,1.1-0.4,1.5c-0.2,0.2-0.2,0.2-0.2,0.2h-0.8l-0.1,0.8c-0.2,1.2-0.6,2.3-1.3,3.4h0c-0.1,0.1-0.1,0.2-0.1,0.3
		c-0.3,0.4-0.7,0.7-1.1,1.1c-0.8,0.8-1.8,1.2-2.9,1.3c-1.1-0.1-2.2-0.6-3-1.4c-0.5-0.4-0.9-0.9-1.3-1.3c0,0,0,0,0,0
		c-0.7-1-1.1-2.1-1.3-3.3l-0.1-0.8h-0.7c-0.1,0-0.1-0.1-0.2-0.2c-0.3-0.5-0.5-1-0.5-1.5v0c0,0,0,0,0,0c0-0.4,0.1-0.7,0.3-1l0.5-0.4
		L50.7,51c-0.8-3.3-1-6.2-0.1-8.3C51.5,40.7,53.3,39.5,57.1,39.4L57.1,39.4z M53.6,62c1,0.8,2.2,1.3,3.5,1.3c1.2,0,2.4-0.5,3.4-1.3
		c0,0.5,0,1.1,0.1,1.8V64l0.1,0.1c0.2,0.4,0.4,0.8,0.6,1.1c0,0,0,0.1,0,0.1c-0.2,0.5-0.5,0.9-0.8,1.2c-0.9,0.9-2.1,1.4-3.3,1.3
		c-1.3,0.1-2.5-0.4-3.4-1.3c-0.4-0.4-0.7-0.8-0.9-1.3c0.3-0.3,0.5-0.7,0.6-1.1l0.1-0.2C53.6,63.3,53.6,62.7,53.6,62z M62.8,66.4
		c0.3,0.2,0.6,0.4,1,0.6c1.3,0.7,2.8,1.2,4.2,1.8c1.4,0.5,2.6,1.3,3.7,2.3c0.8,0.9,1.3,1.9,1.5,3.1H41.2c0.2-1.2,0.7-2.2,1.5-3.1
		c1.1-1,2.3-1.8,3.7-2.3c1.4-0.6,2.9-1.1,4.2-1.8c0.3-0.2,0.6-0.3,1-0.5c0.3,0.5,0.6,0.9,1,1.3c1.2,1.2,2.9,1.9,4.7,1.9
		c1.7,0,3.4-0.6,4.6-1.9C62.2,67.4,62.5,66.9,62.8,66.4L62.8,66.4z"/>
</g>
<path class="st2" d="M87,65.9h1.1c1.8,0,3.2,1.4,3.2,3.2l0,0v2l0,0H87l0,0L87,65.9L87,65.9z"/>
</svg>
