<svg id="Layer_1" data-name="Layer 1" xmlns="http://www.w3.org/2000/svg" viewBox="0 0 120 120"><defs><style>.cls-1,.cls-4{fill:#fff;}.cls-1,.cls-2,.cls-4{stroke:#d61f5f;stroke-miterlimit:10;}.cls-1{stroke-width:4px;}.cls-2,.cls-3{fill:#d61f5f;}.cls-2{stroke-width:2px;}.cls-4{stroke-width:3px;}</style></defs><title>sent Love Icon Highlighted</title><circle class="cls-1" cx="60" cy="60" r="58"/><path class="cls-2" d="M59.981,35.391a32.8951,32.8951,0,0,1,11.132-7.353,19.9863,19.9863,0,0,1,17.011.892c7.769,4.024,11.516,10.638,11.855,19.264.189,4.814-1.293,9.247-3.36,13.516-3.105,6.41-7.576,11.813-12.517,16.853A136.3945,136.3945,0,0,1,61.71,96.888a2.8388,2.8388,0,0,1-3.453-.018A129.8792,129.8792,0,0,1,31.05,73.252a54.5788,54.5788,0,0,1-7.031-10.235c-2.204-4.241-3.909-8.66-4.008-13.514-.163-8,2.727-14.642,9.45-19.155,7.019-4.712,14.47-5.015,22.015-1.128A32.7208,32.7208,0,0,1,59.981,35.391Zm.024,3.975c-.305-.368-.538-.653-.777-.934a30.0226,30.0226,0,0,0-9.375-7.124,17.8119,17.8119,0,0,0-14.509-1.092c-7.776,2.718-12.422,9.49-12.757,17.636a26.1294,26.1294,0,0,0,3.201,12.947A60.0979,60.0979,0,0,0,35.833,74.708,135.2755,135.2755,0,0,0,59.536,94.593a.69.69,0,0,0,.914.007A131.8481,131.8481,0,0,0,85.855,72.837a51.9651,51.9651,0,0,0,9.252-13.988c1.981-4.632,2.974-9.419,1.865-14.454-1.517-6.89-5.561-11.706-12.18-14.108a17.842,17.842,0,0,0-15.116,1.256A29.4691,29.4691,0,0,0,60.005,39.366Z"/><path class="cls-3" d="M29.254,45.159a16.7444,16.7444,0,0,0,1.143,9.113c.166.441.372.869.516,1.317a1.2633,1.2633,0,0,1-.713,1.6,1.2213,1.2213,0,0,1-1.647-.592c-1.931-4.427-2.981-8.97-1.357-13.729a30.7276,30.7276,0,0,1,1.998-4.295c.199-.378.737-.578,1.215-.93.421.329.932.531,1.043.865a1.8911,1.8911,0,0,1-.106,1.434"/><polygon class="cls-4" points="93.022 67.022 74.637 66.99 81.343 73.719 67.531 87.484 72.472 92.442 86.285 78.678 92.99 85.407 93.022 67.022"/></svg>