<svg id="Layer_1" data-name="Layer 1" xmlns="http://www.w3.org/2000/svg" viewBox="0 0 124.9609 124.9609"><defs><style>.cls-1{fill:#d72b68;}.cls-2{fill:#fff;}</style></defs><title>bio</title><circle class="cls-1" cx="62.4804" cy="62.4804" r="61.3016"/><path class="cls-2" d="M105.48,150.89a62.48,62.48,0,1,1,62.4805-62.48A62.5507,62.5507,0,0,1,105.48,150.89Zm0-122.6031A60.1227,60.1227,0,1,0,165.6031,88.41,60.1913,60.1913,0,0,0,105.48,28.287Z" transform="translate(-43 -25.9292)"/><path class="cls-2" d="M140.7933,54.58a1.0607,1.0607,0,0,0-1.1559.23L128.7221,65.7249V57.68a1.06,1.06,0,0,0-1.06-1.06H84.183A6.3691,6.3691,0,0,0,77.82,62.9826v48.781a6.3692,6.3692,0,0,0,6.3628,6.3627h43.4787a1.06,1.06,0,0,0,1.06-1.06V87.8121l4.9609-4.9608a26.3372,26.3372,0,0,0,7.7646-18.7457V55.5594a1.0607,1.0607,0,0,0-.6543-.98Zm-14.1921,61.4259H84.183a4.2418,4.2418,0,1,1,0-8.4836h42.4182Zm0-10.6045H84.183a6.33,6.33,0,0,0-4.2419,1.6331V62.9826a4.2461,4.2461,0,0,1,4.2419-4.2418h42.4182v9.105L112.0655,82.3815a1.0579,1.0579,0,0,0-.3107.75v9.105l-6.052,6.0521,1.4995,1.4995,6.052-6.0521h9.1051a1.0555,1.0555,0,0,0,.75-.3107l3.4921-3.4921Zm12.7255-41.2953a24.2331,24.2331,0,0,1-7.1432,17.2462L121.92,91.6149h-6.5452l17.278-17.278-1.4994-1.4995-17.2781,17.278V83.57l25.451-25.451Z" transform="translate(-43 -25.9292)"/><path class="cls-2" d="M103.2712,83.1313A10.6046,10.6046,0,1,0,92.6666,72.5267,10.6166,10.6166,0,0,0,103.2712,83.1313Zm-5.2164-3.928a5.2643,5.2643,0,0,1,10.4328,0,8.4324,8.4324,0,0,1-10.4328,0Zm3.0955-8.7975a2.1209,2.1209,0,1,1,2.1209,2.1209A2.123,2.123,0,0,1,101.15,70.4058Zm2.1209-6.3628a8.4731,8.4731,0,0,1,6.9534,13.33,7.4122,7.4122,0,0,0-3.8124-4.1422,4.2419,4.2419,0,1,0-6.2821,0,7.4124,7.4124,0,0,0-3.8123,4.1422,8.473,8.473,0,0,1,6.9534-13.33Z" transform="translate(-43 -25.9292)"/><path class="cls-2" d="M93.7271,97.9777h10.6045v2.1209H93.7271Z" transform="translate(-43 -25.9292)"/><path class="cls-2" d="M93.7271,92.6754H107.513v2.1209H93.7271Z" transform="translate(-43 -25.9292)"/><path class="cls-2" d="M93.7271,87.3731h15.9068V89.494H93.7271Z" transform="translate(-43 -25.9292)"/></svg>