<svg id="Layer_1" data-name="Layer 1" xmlns="http://www.w3.org/2000/svg" viewBox="0 0 124.9609 124.9609"><defs><style>.cls-1{fill:#d72b68;}.cls-2{fill:#fff;}</style></defs><title>education</title><circle class="cls-1" cx="62.4804" cy="62.4804" r="61.3016"/><path class="cls-2" d="M105.48,150.89a62.48,62.48,0,1,1,62.4805-62.48A62.5507,62.5507,0,0,1,105.48,150.89Zm0-122.6031A60.1227,60.1227,0,1,0,165.6031,88.41,60.1913,60.1913,0,0,0,105.48,28.287Z" transform="translate(-43 -25.9292)"/><path class="cls-2" d="M105.7383,116.743q-2.4244,0-4.9757-.1646a50.0183,50.0183,0,0,1-13.2059-2.5293,23.3958,23.3958,0,0,1-8.5411-4.7431,8.56,8.56,0,0,1-2.8931-6.5633c.03-2.9944.023-5.99.0173-8.9866l-.0058-4.7317a1.1782,1.1782,0,0,1,1.5208-1.1282l7.6535,2.3394q10.0452,3.091,20.0915,6.1683a.7872.7872,0,0,0,.2407-.0287q9.8915-3.0255,19.7772-6.0683l7.0341-2.1609c.1762-.0541.3569-.1013.5837-.16l.3028-.0783a1.1793,1.1793,0,0,1,1.4805,1.14l-.0058,4.62c-.0069,3.0543-.0138,6.1085.0208,9.1616a8.3333,8.3333,0,0,1-2.8321,6.4286,23.3985,23.3985,0,0,1-9.0488,4.9423A55.13,55.13,0,0,1,105.7383,116.743ZM78.4929,90.6143l.0046,3.1372c.0058,3.0059.0127,6.0106-.0172,9.0154a6.1373,6.1373,0,0,0,2.1424,4.8145,21.2184,21.2184,0,0,0,7.7007,4.2389,47.7269,47.7269,0,0,0,12.5912,2.4049,56.2853,56.2853,0,0,0,21.3107-2.2679,20.6345,20.6345,0,0,0,8.1577-4.4151,6.0112,6.0112,0,0,0,2.093-4.6855c-.0345-3.0646-.0276-6.1293-.0207-9.195l.0046-3.0508-6.3491,1.95q-9.89,3.0393-19.78,6.0682a2.82,2.82,0,0,1-1.62.0288q-10.0521-3.07-20.0962-6.17ZM68.2365,107.807a10.6811,10.6811,0,0,1-4.6177-1.0948,2.2481,2.2481,0,0,1-1.1351-1.7695A25.44,25.44,0,0,1,63.68,96.138a101.5631,101.5631,0,0,1,4.2228-11.684l.2913-.7149a3.2445,3.2445,0,0,1-.9533-.2234l-.3315-.122Q63.742,82.2713,60.5807,81.13l-2.6168-.9659a1.18,1.18,0,0,1-.0691-2.1667l.2878-.1381c.1957-.0944.3466-.167.5031-.2257l10.5236-4.042q16.8663-6.4774,33.7142-12.9976a6.4984,6.4984,0,0,1,5.0931-.0023q16.79,6.5241,33.6164,12.9584l10.626,4.0812c.1566.06.3109.1324.5135.2326l.2958.1416a1.1783,1.1783,0,0,1-.0955,2.1735l-7.3783,2.68c-3.5194,1.2756-7.0388,2.5512-10.5881,3.7358-3.6932,1.2319-7.4163,2.3693-11.1406,3.5056l-4.1629,1.2755q-6.6829,2.0688-13.3786,4.1008a3.0465,3.0465,0,0,1-1.6843.0046q-13.7355-4.205-27.46-8.4444c-.533-.1635-1.0568-.3534-1.6348-.563l-.685-.2452c-.25,4.6407-.5077,9.248-.7667,13.8553l-.2279,3.9879c-.1037,2.0826-.4375,2.527-2.3843,3.1889A10.08,10.08,0,0,1,68.2365,107.807Zm-3.4089-3.1337a7.7267,7.7267,0,0,0,5.8979.3546,6.5315,6.5315,0,0,0,.8312-.3166c-.1071.0507-.0645-.3707-.0472-.7368l.23-4.0224q.44-7.8279.8611-15.6558a1.8126,1.8126,0,0,1,1.5761-1.8294c.647-.1277,1.2894-.2774,1.9306-.4271l4.0225-.8807a1.1788,1.1788,0,0,1,1.3942,1.4264,2.7175,2.7175,0,0,1-1.9963,2.2438q-.392.1036-.784.2233,13.2882,4.1,26.5846,8.1739a.6579.6579,0,0,0,.3131-.0058q6.6882-2.0256,13.3648-4.0961l4.171-1.279c3.7047-1.1306,7.4094-2.2611,11.083-3.486,3.53-1.1789,7.0295-2.4476,10.53-3.7174l4.5014-1.6244-8.5043-3.2661q-16.8215-6.4584-33.6256-12.963a4.1575,4.1575,0,0,0-3.3847.0023Q86.9339,69.3376,70.0543,75.792l-8.3891,3.2235q3.015,1.0827,6.0313,2.1563l.01.0035a2.4514,2.4514,0,0,1,2.4084-1.6337,10.5155,10.5155,0,0,0,1.0591-.0794c.3869-.04.7737-.0794,1.1617-.09a3.3089,3.3089,0,0,1,1.0649.2049,1.4214,1.4214,0,0,1,1.0741,1.4771l-.0357.1485a1.4147,1.4147,0,0,1-.8968,1.0131l-.2522.0691a5.0558,5.0558,0,0,1-.845.183c-.8427.0909-1.3285.3408-1.8063,1.5185l-.5549,1.3585a99.9044,99.9044,0,0,0-4.1295,11.4123A23.6243,23.6243,0,0,0,64.8276,104.6733Zm.0058.068.0011.0115A.0139.0139,0,0,0,64.8334,104.7413Z" transform="translate(-43 -25.9292)"/></svg>