<svg id="Layer_1" data-name="Layer 1" xmlns="http://www.w3.org/2000/svg" viewBox="0 0 122.6031 122.6031"><defs><style>.cls-1{fill:#d72b68;}.cls-2{fill:#fff;}.cls-3{fill:#da1a5d;}</style></defs><title>title</title><circle class="cls-1" cx="61.3016" cy="61.3016" r="61.3016"/><path class="cls-2" d="M192.1664,116.6715l-11.76-7.1628-3.3623,4.5642L189.681,121.77a5.1924,5.1924,0,0,1-.0312-.56A5.5069,5.5069,0,0,1,192.1664,116.6715Z" transform="translate(-138.1762 -88.9213)"/><path class="cls-2" d="M206.8906,119.1943a5.1924,5.1924,0,0,1-.0312.56l12.6247-7.6971-3.359-4.5642-11.7486,7.1629A5.508,5.508,0,0,1,206.8906,119.1943Z" transform="translate(-138.1762 -88.9213)"/><path class="cls-2" d="M221.8959,136.3561h-14.89v3.5066h2.3422a1.5669,1.5669,0,1,1,0,3.0858H189.6072a1.5669,1.5669,0,1,1,0-3.0858h2.3421v-3.5066H177.06c-2.3792,0-4.308,1.6171-4.308,3.6118v49.3728c0,1.9947,1.9288,3.6118,4.308,3.6118h44.8362c2.3792,0,4.3079-1.6171,4.3079-3.6118V139.9679C226.2038,137.9732,224.2751,136.3561,221.8959,136.3561Zm1.9772,52.2294a2.7721,2.7721,0,0,1-2.9355,2.5727H178.0181a2.7721,2.7721,0,0,1-2.9356-2.5727V144.94a2.7721,2.7721,0,0,1,2.9356-2.5726h42.92a2.7721,2.7721,0,0,1,2.9355,2.5726Z" transform="translate(-138.1762 -88.9213)"/><path class="cls-3" d="M217.0767,145.44H181.8789a2.3321,2.3321,0,0,0-2.4074,2.2486v38.1485a2.3321,2.3321,0,0,0,2.4074,2.2487h35.1978a2.3322,2.3322,0,0,0,2.4074-2.2487V147.6886A2.3322,2.3322,0,0,0,217.0767,145.44Zm-30.81,39.1593c0-11.2452,2.4036-17.1539,10.47-18.8283a8.71,8.71,0,0,1-6.4831-8.2287c0-4.7584,4.13-8.6158,9.2242-8.6158s9.2238,3.8574,9.2238,8.6158a8.709,8.709,0,0,1-6.4828,8.2287c8.0672,1.6744,10.47,7.5831,10.47,18.8283Z" transform="translate(-138.1762 -88.9213)"/><path class="cls-2" d="M204.9567,131.09a16.2814,16.2814,0,0,1-10.9578,0v4.087h10.9578Z" transform="translate(-138.1762 -88.9213)"/><ellipse class="cls-2" cx="61.3014" cy="34.2654" rx="5.7279" ry="5.3501"/><path class="cls-2" d="M202.2186,165.771a8.709,8.709,0,0,0,6.4828-8.2287c0-4.7584-4.13-8.6158-9.2238-8.6158s-9.2242,3.8574-9.2242,8.6158a8.71,8.71,0,0,0,6.4831,8.2287c-8.0664,1.6744-10.47,7.5831-10.47,18.8283h26.4226C212.6891,173.3541,210.2858,167.4454,202.2186,165.771Zm-4.4365,4.8137a.4611.4611,0,0,1,.4745-.4424H200.7a.4608.4608,0,0,1,.4737.4424v1.063a1.1188,1.1188,0,0,1-.0585.4752c-.0319.0166-.2427.133-.4672.2572l-.7623.4234a.9344.9344,0,0,1-.8162,0l-.7626-.4234c-.2253-.1242-.4341-.2406-.466-.2572a1.1359,1.1359,0,0,1-.0586-.4752Zm3.959,9.456-1.9,1.4851a.6212.6212,0,0,1-.7278,0l-1.9-1.4851a.85.85,0,0,1-.2935-.722l.9106-5.8512a.2982.2982,0,0,1,.4766-.2126l.7626.4241a.9358.9358,0,0,0,.8162,0l.7623-.4241a.2974.2974,0,0,1,.4758.2126l.9138,5.8512A.85.85,0,0,1,201.7411,180.0407Z" transform="translate(-138.1762 -88.9213)"/><path class="cls-2" d="M198.3067,172.38l.7626.4234a.9344.9344,0,0,0,.8162,0l.7623-.4234c.2245-.1242.4353-.2406.4672-.2572a1.1188,1.1188,0,0,0,.0585-.4752v-1.063a.4608.4608,0,0,0-.4737-.4424h-2.4432a.4611.4611,0,0,0-.4745.4424v1.063a1.1359,1.1359,0,0,0,.0586.4752C197.8726,172.14,198.0814,172.2559,198.3067,172.38Z" transform="translate(-138.1762 -88.9213)"/><path class="cls-3" d="M200.6472,173.2549l-.7623.4241a.9358.9358,0,0,1-.8162,0l-.7626-.4241a.2982.2982,0,0,0-.4766.2126l-.9106,5.8512a.85.85,0,0,0,.2935.722l1.9,1.4851a.6212.6212,0,0,0,.7278,0l1.9-1.4851a.85.85,0,0,0,.2957-.722l-.9138-5.8512A.2974.2974,0,0,0,200.6472,173.2549Z" transform="translate(-138.1762 -88.9213)"/></svg>