<svg id="Layer_1" data-name="Layer 1" xmlns="http://www.w3.org/2000/svg" viewBox="0 0 124.9609 124.9609"><defs><style>.cls-1{fill:#d72b68;}.cls-2,.cls-3{fill:#fff;}.cls-3{fill-rule:evenodd;}</style></defs><title>tprecent</title><circle class="cls-1" cx="62.4804" cy="62.4804" r="61.3016"/><path class="cls-2" d="M105.48,150.89a62.48,62.48,0,1,1,62.4805-62.48A62.5507,62.5507,0,0,1,105.48,150.89Zm0-122.6031A60.1227,60.1227,0,1,0,165.6031,88.41,60.1913,60.1913,0,0,0,105.48,28.287Z" transform="translate(-43 -25.9292)"/><path class="cls-3" d="M130.3567,71.5279a22.0637,22.0637,0,0,1-15.3375,40.8077,28.1968,28.1968,0,0,0,3.0478-4.3033,17.3574,17.3574,0,0,0,7.6085-33.5163,14.9621,14.9621,0,0,1,4.6812-2.9881ZM93.7,67.7042a26.3321,26.3321,0,1,0,19.5865,8.7392,15.6735,15.6735,0,0,0-4.51,2.9831,20.9221,20.9221,0,1,1-6.9135-4.7416,23.9676,23.9676,0,0,1,4.4083-3.7891A26.2,26.2,0,0,0,93.7,67.7042Zm12.6693,40.77a19.3139,19.3139,0,0,0,3.1466-3.5341,17.3587,17.3587,0,0,1,12.727-31.3442,14.9657,14.9657,0,0,0-2.56-4.9284,22.0686,22.0686,0,0,0-13.3136,39.8067Zm16.7695-55.0733a5.5661,5.5661,0,0,0-6.3052,4.7108c-.7677,5.3034,6.3732,10.073,7.2307,15.5525,3.4822-4.3168,12.0513-4.8768,14.0382-9.8536a5.5653,5.5653,0,0,0-10.2181-4.4036A5.566,5.566,0,0,0,123.1386,53.4011Z" transform="translate(-43 -25.9292)"/></svg>