<svg id="Layer_1" data-name="Layer 1" xmlns="http://www.w3.org/2000/svg" viewBox="0 0 124.9609 124.9609"><defs><style>.cls-1{fill:#d72b68;}.cls-2{fill:#fff;}</style></defs><title>workd</title><circle class="cls-1" cx="62.4802" cy="62.4804" r="61.3016"/><path class="cls-2" d="M301.52,297.0708A62.48,62.48,0,1,1,364,234.59,62.5508,62.5508,0,0,1,301.52,297.0708Zm0-122.6032A60.1227,60.1227,0,1,0,361.6422,234.59,60.1914,60.1914,0,0,0,301.52,174.4676Z" transform="translate(-239.0391 -172.1099)"/><path class="cls-2" d="M294.0019,241.8754a.7631.7631,0,0,1-.1439-.0138l-1.3584-.2533c-.9775-.18-1.9364-.3569-2.8885-.5664a79.6644,79.6644,0,0,1-15.4463-5.2635c-2.5822-1.1558-5.1461-2.4637-7.62-3.8843a1.1789,1.1789,0,0,1-.5917-1.0223v-9.1939a1.206,1.206,0,0,1,.0529-.35,6.5046,6.5046,0,0,1,1.8224-3.6011,7.5686,7.5686,0,0,1,5.587-2.2427h14.2225v-3.2281a7.4338,7.4338,0,0,1,1.6647-4.7592,10.451,10.451,0,0,1,6.165-3.6633c.419-.0944.84-.1588,1.264-.221l.5262-.0806,8.0518-.0161a2.8638,2.8638,0,0,1,.3419.0437,12.2763,12.2763,0,0,1,6.508,2.4775,7.81,7.81,0,0,1,3.2511,6.645c-.0265.8105-.02,1.6233-.0127,2.436l.0023.3661,14.7222.0023a6.6337,6.6337,0,0,1,6.6576,4.6948h0c.0829.274.1439.5549.2038.8335l.0714.3247a1.1612,1.1612,0,0,1,.0311.2671v8.9843a1.1773,1.1773,0,0,1-.6862,1.0706l-.8381-.9071.5572,1.0384-1.5968.8657c-1.0856.5918-2.1712,1.1835-3.273,1.743a73.3728,73.3728,0,0,1-19.9165,7.0664c-.4686.0875-.9383.1657-1.4172.244l-.7621.1267a1.1632,1.1632,0,0,1-.959-.2625,1.1775,1.1775,0,0,1-.4179-.9l.0034-.799c.0035-.55.007-1.08-.0069-1.6094a1.7423,1.7423,0,0,0-1.67-1.7269q-4.5831-.0414-9.1674,0a1.6465,1.6465,0,0,0-1.6129,1.4069,10.6987,10.6987,0,0,0-.06,1.5265l-.0046,1.0292a1.3508,1.3508,0,0,1-1.256,1.3723Zm-25.6912-11.69c2.2219,1.2525,4.5129,2.4084,6.8188,3.4422a77.2637,77.2637,0,0,0,14.99,5.1115c.9176.2026,1.842.373,2.7837.5457a11.9006,11.9006,0,0,1,.0841-1.6624,4.0174,4.0174,0,0,1,3.928-3.44q4.6039-.0379,9.2112,0a4.1192,4.1192,0,0,1,4.004,4.027c.008.3546.01.7115.0092,1.0753.2556-.0437.5088-.0875.761-.1335a71.2414,71.2414,0,0,0,19.2787-6.85c1.0822-.55,2.1483-1.1328,3.2143-1.713l1.3343-.723-.05-8.3557c-.0472-.2188-.0921-.4352-.1554-.647h0a4.3045,4.3045,0,0,0-4.4035-3.0186l-15.8941-.0023a1.1782,1.1782,0,0,1-1.1789-1.1789l-.0069-1.5242c-.0069-.8451-.0138-1.6924.015-2.5351a5.5,5.5,0,0,0-2.352-4.7109,9.6971,9.6971,0,0,0-5.1415-1.9594c-.1289-.0138-.2521-.0368-.3753-.0622l-8.1082.0737c-.3661.053-.7334.1082-1.0937.1888a8.1876,8.1876,0,0,0-4.8376,2.8321,5.0758,5.0758,0,0,0-1.1512,3.2856v4.4116a1.1782,1.1782,0,0,1-1.1789,1.1789h-15.4a5.2271,5.2271,0,0,0-3.9119,1.5427,3.9867,3.9867,0,0,0-1.1455,2.2725,1.8542,1.8542,0,0,1-.0484.2026ZM310.5073,217.81H292.5134a1.1782,1.1782,0,0,1-1.1789-1.1789v-4.0018a4.7116,4.7116,0,0,1,3.79-5.001,11.8966,11.8966,0,0,1,3.2684-.41h2.0423c1.5127.0023,3.0209-.0023,4.5324.0184a9.0637,9.0637,0,0,1,4.1906.9878,4.4421,4.4421,0,0,1,2.4613,3.0922,4.3489,4.3489,0,0,1,.0818.8543l.0023,4.2158h0c0,.0392-.0115.2211-.0138.2556A1.2731,1.2731,0,0,1,310.5073,217.81Zm0-1.423v.0023l.0173-.0023Zm-16.8151-.9348h15.6535l-.0023-3.2695a1.96,1.96,0,0,0-1.2871-1.872,6.7434,6.7434,0,0,0-3.121-.716c-1.4966-.0208-3.0013-.0162-4.4991-.0185h-2.01a11.2693,11.2693,0,0,0-2.6594.3224,2.3861,2.3861,0,0,0-2.0746,2.7307Z" transform="translate(-239.0391 -172.1099)"/><path class="cls-2" d="M330.2224,265.6648H272.606a1.1952,1.1952,0,0,1-.4893-.106l-.3016-.1243a4.18,4.18,0,0,1-1.0476-.5411,4.7123,4.7123,0,0,1-1.8236-3.9856l.0035-24.2314a1.18,1.18,0,0,1,1.462-1.1444,2.6633,2.6633,0,0,1,.4053.1083l1.4862.5664c1.1363.4282,2.2726.8588,3.3893,1.3354a98.2191,98.2191,0,0,0,9.7269,3.7162,53.8843,53.8843,0,0,0,8.5215,1.918,1.4394,1.4394,0,0,1,1.3285,1.5749c-.0172.3178-.01.6378-.0046.9556a1.7944,1.7944,0,0,0,1.735,1.888q4.5278.0552,9.06,0a1.7382,1.7382,0,0,0,1.7234-1.8052l.0023-.921-.0012-.4628a1.1787,1.1787,0,0,1,1.0189-1.1673c8.9682-1.2319,16.9429-4.7915,23.5614-8.1117a1.1975,1.1975,0,0,1,1.1133.03,1.1835,1.1835,0,0,1,.5917.9441l-1.1766.0805,1.1847.0231c.0023.0322.0149.26.0149.2924l.0023,24.5284a4.76,4.76,0,0,1-1.12,3.06,4.6712,4.6712,0,0,1-2.4246,1.5335A1.1982,1.1982,0,0,1,330.2224,265.6648Zm-57.3758-2.3578h57.1985a2.27,2.27,0,0,0,1.0983-.7115,2.3886,2.3886,0,0,0,.5918-1.57l-.0023-22.9558c-6.1891,3.0255-13.4546,6.0763-21.5928,7.3541l-.0012.4007a4.1223,4.1223,0,0,1-4.0546,4.1283q-4.5555.0485-9.1145,0a4.1363,4.1363,0,0,1-4.0627-4.1191c-.0023-.15-.0046-.29-.0069-.426a57.1376,57.1376,0,0,1-8.1739-1.8926,100.5314,100.5314,0,0,1-9.96-3.8037c-1.0868-.4628-2.1932-.8819-3.3-1.2986l-.1612-.0622-.0034,22.5575a2.384,2.384,0,0,0,.8887,2.1045,2.4772,2.4772,0,0,0,.487.2279C272.7338,263.261,272.79,263.284,272.8466,263.307Z" transform="translate(-239.0391 -172.1099)"/><path class="cls-2" d="M305.2185,246.9639H297.801a1.1782,1.1782,0,0,1-1.1788-1.1789V238.35a1.1782,1.1782,0,0,1,1.1788-1.1789h7.4175a1.1782,1.1782,0,0,1,1.1789,1.1789v7.4347A1.1782,1.1782,0,0,1,305.2185,246.9639Zm-6.2386-2.3577h5.06v-5.077h-5.06Z" transform="translate(-239.0391 -172.1099)"/></svg>