<?xml version="1.0" encoding="iso-8859-1"?>
<!-- Generator: Adobe Illustrator 24.0.2, SVG Export Plug-In . SVG Version: 6.00 Build 0)  -->
<svg version="1.1" id="Layer_1" xmlns="http://www.w3.org/2000/svg" xmlns:xlink="http://www.w3.org/1999/xlink" x="0px" y="0px"
	 viewBox="0 0 1125 2436" style="enable-background:new 0 0 1125 2436;" xml:space="preserve">
<g>
	<defs>
		<rect id="SVGID_1_" x="1.5" width="1122" height="2436"/>
	</defs>
	<clipPath id="SVGID_2_">
		<use xlink:href="#SVGID_1_"  style="overflow:visible;"/>
	</clipPath>
	<g style="opacity:0.2;clip-path:url(#SVGID_2_);">
		<g>
			<g>
				<path style="fill:#808080;" d="M312.862,1250.906c6.908-6.734,14.569-12.038,23.376-15.441
					c12.122-4.683,24.189-4.1,35.721,1.874c16.313,8.45,24.182,22.339,24.894,40.452c0.398,10.109-2.714,19.417-7.056,28.381
					c-6.52,13.46-15.909,24.807-26.285,35.389c-14.26,14.543-30.024,27.267-47.021,38.479c-2.485,1.639-4.79,1.599-7.252-0.038
					c-21.169-14.083-40.573-30.203-57.127-49.591c-5.668-6.638-10.73-13.73-14.764-21.492c-4.627-8.906-8.208-18.185-8.416-28.377
					c-0.343-16.798,5.726-30.746,19.843-40.224c14.739-9.895,30.384-10.53,46.228-2.369
					C301.567,1241.329,307.588,1245.521,312.862,1250.906z M312.914,1259.253c-0.641-0.772-1.13-1.372-1.631-1.962
					c-5.463-6.433-12.259-11.134-19.686-14.96c-9.81-5.055-20.096-5.919-30.467-2.294c-16.328,5.708-26.085,19.927-26.789,37.033
					c-0.397,9.663,2.404,18.644,6.721,27.188c5.482,10.85,12.815,20.373,21.093,29.207c14.915,15.917,31.663,29.647,49.774,41.757
					c0.709,0.474,1.184,0.507,1.919,0.015c19.586-13.131,37.652-28.048,53.347-45.7c7.865-8.845,14.74-18.416,19.427-29.374
					c4.161-9.726,6.245-19.778,3.917-30.351c-3.186-14.468-11.677-24.582-25.576-29.625c-10.822-3.927-21.545-2.892-31.742,2.637
					C325.498,1247.011,318.458,1252.051,312.914,1259.253z"/>
			</g>
			<path style="fill:#808080;" d="M248.34,1273.517c-1.239,6.63,0.07,12.95,2.4,19.136c0.349,0.927,0.781,1.825,1.083,2.766
				c0.46,1.433-0.18,2.796-1.497,3.359c-1.32,0.565-2.859,0.13-3.458-1.243c-4.054-9.296-6.26-18.836-2.849-28.829
				c1.066-3.123,2.652-6.085,4.195-9.018c0.418-0.794,1.547-1.213,2.552-1.953c0.884,0.691,1.957,1.114,2.19,1.816
				c0.299,0.899,0.267,2.242-0.223,3.012"/>
		</g>
		<g>
			<g>
				<g>
					<path style="fill:#808080;" d="M798.444,1309.084c-1.516-1.376-2.874-2.843-4.037-4.361c-2.619-3.419-4.141-7.299-5.174-10.299
						c-2.651-7.694-4.163-16.274-4.762-27c-0.065-1.177-0.104-2.356-0.143-3.535c-0.067-2.005-0.134-4.078-0.342-6.089
						c-0.776-7.465-3.707-14.155-8.712-19.883c-4.43-5.071-9.883-8.926-16.668-11.784c-0.262-0.111-1.135-0.53-1.434-1.308
						c-2.253-5.922-6.451-9.211-12.839-10.055c-0.651-0.086-1.301-0.128-1.946-0.128c-6.25,0-12.025,3.95-14.18,9.938
						c-0.267,0.737-0.717,1.191-1.462,1.472c-4.297,1.628-7.875,3.656-10.935,6.199c-9.282,7.716-14.316,18.152-14.964,31.017
						c-0.055,1.109-0.102,2.218-0.151,3.325c-0.176,4.052-0.358,8.243-0.925,12.359c-1.15,8.35-3.055,15.009-5.996,20.954
						c-1.44,2.911-3.322,6.243-6.354,8.884c-3.472,3.023-5.907,6.659-7.242,10.804c-0.886,2.764-1.576,5.27-1.036,7.939
						c1.692,8.336,7.331,13.097,15.489,13.097c0.089,0,0.176-0.001,0.267-0.002c11.125-0.139,22.436-0.109,33.374-0.08
						c4.386,0.012,8.773,0.023,13.158,0.025v-0.035l48.483-0.003c0.787,0,1.578-0.004,2.364-0.054
						c10.133-0.646,13.828-8.203,13.915-14.477C806.281,1319.53,803.675,1313.837,798.444,1309.084z M799.275,1333.006
						c-1.857,2.046-4.59,3.236-7.699,3.352c-0.468,0.018-0.938,0.018-1.407,0.018l-85.05,0.012l-0.008,0.144
						c-0.136-0.006-1.395-0.024-2.97-0.046c-1.845,0.007-4.595-0.018-8.644-0.061c-1.89-0.075-3.487-0.521-4.905-1.366
						c-3.161-1.883-4.324-5.021-4.984-7.544c-0.5-1.901-0.096-3.658,0.403-5.44c1.157-4.131,3.371-7.609,6.584-10.336
						c3.628-3.079,5.892-7.218,7.462-10.479c3.399-7.079,5.499-15.031,6.414-24.309c0.29-2.923,0.418-5.922,0.542-8.822
						c0.072-1.666,0.143-3.331,0.243-4.995c0.727-12.025,5.51-21.56,14.212-28.341c3.044-2.37,6.542-4.168,10.695-5.496
						c1.106-0.354,1.66-0.969,1.91-2.122c1.061-4.892,5.402-8.303,10.559-8.303c0.008,0,0.017,0,0.025,0
						c5.138,0.011,9.47,3.408,10.531,8.26c0.265,1.211,0.849,1.86,2.085,2.315c9.533,3.514,16.305,9.117,20.705,17.13
						c2.528,4.606,3.838,9.797,3.893,15.432c0.106,10.703,1.318,20.159,3.707,28.908c1.865,6.842,4.027,11.736,7.009,15.869
						c1.355,1.877,2.958,3.665,4.766,5.314c4.029,3.676,6.139,7.994,6.451,13.205
						C801.985,1328.274,801.085,1331.01,799.275,1333.006z"/>
				</g>
				<g>
					<path style="fill:#808080;" d="M764.754,1345.648c-1.031-0.353-1.986,0.255-2.441,1.552c-1.123,3.193-3.08,5.787-5.818,7.711
						c-6.952,4.887-14.675,5.807-22.958,2.735c-4.628-1.715-8.019-4.681-10.082-8.816c-0.2-0.4-0.361-0.817-0.522-1.235
						c-0.112-0.295-0.227-0.59-0.356-0.877c-0.327-0.719-0.964-1.136-1.719-1.136c-0.052,0-0.104,0.002-0.158,0.006
						c-0.646,0.049-1.385,0.526-1.543,1.343c-0.109,0.564-0.079,1.2,0.079,1.701c0.838,2.626,2.312,5.039,4.38,7.171
						c4.804,4.944,11.019,7.56,18.474,7.776c6.097-0.091,10.982-1.495,15.372-4.419c4.203-2.8,6.972-6.292,8.461-10.677
						C766.344,1347.242,765.842,1346.023,764.754,1345.648z"/>
				</g>
			</g>
			<path style="fill:#808080;" d="M725.944,1247.706c-3.927,3.881-5.996,8.743-7.315,13.991c-0.198,0.786-0.326,1.592-0.562,2.365
				c-0.359,1.178-1.426,1.796-2.574,1.561c-1.151-0.236-1.984-1.246-1.746-2.45c1.611-8.144,4.579-15.59,11.536-20.72
				c2.174-1.603,4.623-2.855,7.03-4.108c0.651-0.339,1.607-0.094,2.628-0.123c0.272,0.878,0.796,1.662,0.625,2.243
				c-0.219,0.744-0.867,1.633-1.556,1.922"/>
		</g>
		<g>
			<g>
				<g>
					<path style="fill:#808080;" d="M472.153,1028.156c-1.516-1.376-2.874-2.843-4.037-4.361c-2.619-3.419-4.141-7.299-5.174-10.299
						c-2.651-7.694-4.163-16.274-4.763-27c-0.065-1.177-0.104-2.356-0.143-3.535c-0.067-2.005-0.134-4.078-0.342-6.089
						c-0.776-7.465-3.707-14.155-8.712-19.883c-4.43-5.071-9.883-8.926-16.668-11.784c-0.262-0.111-1.135-0.53-1.434-1.308
						c-2.253-5.922-6.451-9.211-12.839-10.055c-0.651-0.086-1.301-0.128-1.946-0.128c-6.25,0-12.025,3.95-14.18,9.938
						c-0.267,0.737-0.717,1.191-1.462,1.472c-4.297,1.628-7.875,3.656-10.935,6.199c-9.282,7.716-14.316,18.152-14.964,31.017
						c-0.055,1.109-0.102,2.218-0.151,3.326c-0.176,4.052-0.358,8.243-0.925,12.359c-1.15,8.35-3.055,15.009-5.996,20.955
						c-1.44,2.911-3.322,6.243-6.354,8.884c-3.472,3.023-5.907,6.659-7.242,10.804c-0.886,2.764-1.576,5.27-1.036,7.939
						c1.692,8.336,7.331,13.097,15.489,13.097c0.089,0,0.176-0.001,0.267-0.002c11.125-0.138,22.436-0.109,33.374-0.08
						c4.386,0.012,8.773,0.024,13.158,0.025v-0.035l48.483-0.003c0.787,0,1.578-0.004,2.364-0.055
						c10.133-0.646,13.828-8.203,13.915-14.477C479.99,1038.602,477.384,1032.908,472.153,1028.156z M472.984,1052.078
						c-1.857,2.045-4.59,3.236-7.699,3.351c-0.468,0.018-0.938,0.018-1.407,0.018l-85.05,0.012l-0.008,0.144
						c-0.136-0.006-1.395-0.024-2.97-0.046c-1.845,0.007-4.595-0.019-8.644-0.061c-1.89-0.075-3.487-0.521-4.905-1.366
						c-3.161-1.883-4.324-5.021-4.984-7.544c-0.5-1.901-0.096-3.658,0.403-5.44c1.157-4.131,3.371-7.609,6.584-10.336
						c3.628-3.079,5.892-7.218,7.462-10.479c3.399-7.079,5.499-15.031,6.414-24.309c0.29-2.923,0.418-5.922,0.542-8.822
						c0.072-1.666,0.143-3.331,0.243-4.995c0.727-12.025,5.51-21.56,14.212-28.341c3.043-2.37,6.542-4.168,10.695-5.496
						c1.106-0.354,1.66-0.969,1.91-2.122c1.061-4.892,5.402-8.303,10.559-8.303c0.008,0,0.017,0,0.025,0
						c5.139,0.011,9.47,3.408,10.531,8.26c0.265,1.211,0.849,1.86,2.085,2.315c9.533,3.514,16.305,9.117,20.705,17.13
						c2.528,4.606,3.838,9.797,3.893,15.432c0.106,10.703,1.318,20.159,3.707,28.908c1.865,6.842,4.027,11.736,7.009,15.869
						c1.355,1.877,2.958,3.665,4.766,5.314c4.029,3.676,6.139,7.994,6.451,13.205
						C475.694,1047.346,474.794,1050.082,472.984,1052.078z"/>
				</g>
				<g>
					<path style="fill:#808080;" d="M438.463,1064.72c-1.031-0.353-1.986,0.255-2.441,1.552c-1.123,3.193-3.08,5.787-5.818,7.711
						c-6.952,4.887-14.675,5.807-22.958,2.735c-4.628-1.715-8.019-4.681-10.082-8.816c-0.2-0.4-0.361-0.817-0.522-1.235
						c-0.112-0.295-0.227-0.59-0.356-0.877c-0.327-0.719-0.964-1.136-1.719-1.136c-0.052,0-0.104,0.002-0.158,0.006
						c-0.646,0.049-1.385,0.525-1.543,1.343c-0.109,0.564-0.079,1.2,0.079,1.701c0.838,2.626,2.312,5.04,4.38,7.171
						c4.804,4.944,11.019,7.56,18.474,7.776c6.097-0.091,10.982-1.495,15.372-4.419c4.203-2.8,6.972-6.292,8.461-10.677
						C440.053,1066.314,439.551,1065.095,438.463,1064.72z"/>
				</g>
			</g>
			<path style="fill:#808080;" d="M399.653,966.778c-3.927,3.881-5.996,8.743-7.316,13.991c-0.198,0.786-0.326,1.592-0.562,2.365
				c-0.359,1.178-1.426,1.796-2.574,1.561c-1.151-0.236-1.984-1.247-1.746-2.45c1.611-8.144,4.579-15.59,11.536-20.72
				c2.174-1.603,4.623-2.855,7.03-4.108c0.651-0.339,1.607-0.094,2.628-0.123c0.272,0.878,0.796,1.662,0.625,2.243
				c-0.219,0.744-0.867,1.633-1.556,1.922"/>
		</g>
		<g>
			<g>
				<path style="fill:#808080;" d="M367.382,1626.682c35.738,0.022,66.855,25.761,73.153,60.771
					c3.314,18.418,0.209,35.814-9.402,51.948c-1.102,1.851-1.64,3.563-1.316,5.823c0.964,6.713,1.622,13.471,2.361,20.216
					c0.439,4.011-0.115,4.615-4.066,4.024c-7.08-1.059-14.13-2.328-21.22-3.315c-1.459-0.203-3.23,0.075-4.533,0.754
					c-41.53,21.635-91.472,1.385-106.181-43.114c-9.875-29.875,1.456-64.306,27.12-82.748
					C336.496,1631.558,351.097,1626.578,367.382,1626.682z M428.042,1765.334c-0.615-5.381-1.207-10.14-1.689-14.909
					c-0.474-4.699-1.327-9.095,1.583-13.827c9.158-14.894,11.694-31.271,8.585-48.419c-5.779-31.878-34.058-56.567-67.153-57.533
					c-30.484-0.89-59.964,19.083-68.975,48.27c-8.358,27.072-2.696,51.234,16.944,71.816c20.405,21.384,54.966,27.177,81.116,13.493
					c4.076-2.133,7.768-2.611,12.119-1.704C416.169,1763.687,421.866,1764.365,428.042,1765.334z"/>
			</g>
			<g>
				<path style="fill:#808080;" d="M314.624,1689.402c0.968-14.878,7.962-25.412,18.82-33.624
					c8.225-6.22,17.483-9.892,27.908-10.244c1.459-0.049,3.354-0.532,3.509,1.693c0.168,2.407-1.838,2.172-3.412,2.244
					c-18.431,0.84-36.338,14.304-41.359,31.272c-0.765,2.585-0.721,5.403-1.38,8.031c-0.254,1.014-1.423,1.798-2.175,2.687
					C315.757,1690.622,314.979,1689.784,314.624,1689.402z"/>
			</g>
			<g>
				<path style="fill:#808080;" d="M314.276,1702.634c0.729-0.67,1.565-1.439,2.402-2.208c0.668,0.848,1.667,1.603,1.936,2.563
					c0.633,2.255,1.099,4.595,1.252,6.926c0.061,0.934-0.877,1.933-1.361,2.903c-0.812-0.608-2.098-1.066-2.347-1.852
					C315.368,1708.469,314.966,1705.851,314.276,1702.634z"/>
			</g>
		</g>
		<g>
			<path style="fill:#808080;" d="M805.017,1675.737c3.17,0.031,6.331,1.064,9.368,1.611c2.938-0.55,5.972-1.583,9.015-1.611
				c17.267-0.159,34.536-0.09,51.804-0.071c7.906,0.009,11.209,3.294,11.217,11.158c0.019,17.268,0.017,34.537,0.001,51.805
				c-0.007,8.12-3.23,11.317-11.45,11.327c-17.268,0.021-34.537,0.084-51.804-0.069c-2.923-0.026-5.837-1.042-8.563-1.564
				c-3.365,0.539-6.782,1.529-10.207,1.562c-16.883,0.159-33.768,0.079-50.653,0.054c-8.224-0.012-11.394-3.179-11.401-11.354
				c-0.016-17.14-0.017-34.281-0.009-51.421c0.004-8.378,3.152-11.492,11.645-11.499 M816.745,1734.678
				c0,1.899-0.046,3.55,0.009,5.198c0.126,3.805,1.554,5.243,5.451,5.249c18.035,0.029,36.07-0.014,54.105,0.027
				c3.534,0.008,5.226-1.659,5.228-5.101c0.014-18.163,0.013-36.326,0.001-54.488c-0.002-3.443-1.685-5.112-5.223-5.103
				c-18.163,0.043-36.326,0.027-54.488,0.007c-3.568-0.004-5.085,1.865-5.083,5.259c0.001,2.686,0.056,5.374-0.019,8.058
				c-0.095,3.428-1.161,4.197-4.225,2.82c-2.452-1.102-4.838-1.007-6.081,1.225c-0.824,1.481-0.939,4.038-0.207,5.551
				c1.218,2.517,3.736,2.583,6.328,1.542c3.186-1.281,4.092-0.604,4.188,2.891c0.065,2.39,0.013,4.784,0.013,7.124
				c7.742,0.786,11.465,4.031,11.552,9.722C828.384,1730.57,824.723,1733.864,816.745,1734.678z M812.026,1690.908
				c0-1.511,0.006-2.778-0.001-4.045c-0.029-5.167-1.186-6.376-6.263-6.38c-17.523-0.016-35.046-0.021-52.569-0.005
				c-4.522,0.004-5.922,1.082-5.938,5.095c-0.074,18.162-0.036,36.325-0.026,54.487c0.002,3.452,1.694,5.108,5.224,5.1
				c18.034-0.042,36.069,0,54.104-0.034c4.025-0.008,5.379-1.473,5.453-5.642c0.048-2.685-0.029-5.373,0.033-8.058
				c0.062-2.65,1.218-3.987,3.892-2.589c2.512,1.313,5.022,1.311,6.411-1.088c0.84-1.451,0.921-4.043,0.18-5.548
				c-1.233-2.502-3.748-2.56-6.34-1.511c-3.161,1.28-4.057,0.587-4.146-2.938c-0.06-2.38-0.011-4.763-0.011-7.083
				c-7.758-0.771-11.493-4.045-11.565-9.752C800.388,1694.993,803.967,1691.783,812.026,1690.908z"/>
		</g>
		<g>
			<g>
				<path style="fill:#808080;" d="M41.148,1871.812c6.908-6.734,14.569-12.038,23.376-15.441c12.122-4.683,24.189-4.1,35.721,1.874
					c16.313,8.45,24.182,22.339,24.894,40.452c0.398,10.109-2.714,19.417-7.056,28.381c-6.52,13.46-15.909,24.807-26.285,35.389
					c-14.26,14.543-30.024,27.267-47.021,38.479c-2.485,1.639-4.79,1.599-7.252-0.038c-21.169-14.083-40.573-30.203-57.127-49.591
					c-5.668-6.638-10.73-13.73-14.764-21.492c-4.627-8.906-8.208-18.185-8.416-28.377c-0.343-16.798,5.726-30.746,19.843-40.224
					c14.739-9.895,30.384-10.53,46.228-2.369C29.852,1862.234,35.874,1866.427,41.148,1871.812z M41.2,1880.159
					c-0.641-0.772-1.13-1.372-1.631-1.962c-5.463-6.433-12.259-11.134-19.686-14.96c-9.81-5.055-20.096-5.919-30.467-2.294
					c-16.328,5.708-26.085,19.927-26.789,37.033c-0.397,9.663,2.404,18.644,6.721,27.188c5.482,10.85,12.815,20.373,21.093,29.207
					c14.915,15.917,31.663,29.647,49.774,41.757c0.709,0.474,1.184,0.507,1.919,0.015c19.586-13.131,37.652-28.048,53.347-45.7
					c7.865-8.845,14.74-18.416,19.427-29.374c4.161-9.726,6.245-19.778,3.917-30.351c-3.186-14.468-11.677-24.582-25.576-29.625
					c-10.822-3.927-21.545-2.892-31.742,2.637C53.783,1867.916,46.744,1872.956,41.2,1880.159z"/>
			</g>
			<path style="fill:#808080;" d="M-23.375,1894.423c-1.239,6.63,0.07,12.95,2.4,19.136c0.349,0.927,0.781,1.825,1.083,2.766
				c0.46,1.433-0.18,2.796-1.497,3.359c-1.32,0.565-2.859,0.13-3.458-1.243c-4.054-9.296-6.26-18.836-2.849-28.829
				c1.066-3.123,2.652-6.085,4.195-9.018c0.418-0.794,1.547-1.213,2.552-1.953c0.884,0.691,1.957,1.114,2.19,1.816
				c0.299,0.899,0.267,2.242-0.223,3.012"/>
		</g>
		<g>
			<g>
				<g>
					<path style="fill:#808080;" d="M375.742,2188.698c-1.516-1.376-2.874-2.843-4.037-4.361c-2.619-3.419-4.141-7.299-5.174-10.299
						c-2.651-7.695-4.163-16.274-4.763-27c-0.065-1.177-0.104-2.356-0.143-3.535c-0.067-2.005-0.134-4.078-0.342-6.089
						c-0.776-7.465-3.707-14.155-8.712-19.883c-4.43-5.071-9.883-8.926-16.668-11.784c-0.262-0.111-1.135-0.53-1.434-1.308
						c-2.253-5.923-6.451-9.211-12.839-10.055c-0.651-0.086-1.301-0.128-1.946-0.128c-6.25,0-12.025,3.95-14.18,9.938
						c-0.267,0.737-0.717,1.191-1.462,1.472c-4.297,1.628-7.875,3.656-10.935,6.199c-9.282,7.716-14.316,18.152-14.964,31.017
						c-0.055,1.109-0.102,2.218-0.151,3.325c-0.176,4.052-0.358,8.243-0.925,12.359c-1.15,8.35-3.055,15.009-5.996,20.954
						c-1.44,2.911-3.322,6.243-6.354,8.884c-3.472,3.023-5.907,6.659-7.242,10.804c-0.886,2.764-1.576,5.27-1.036,7.939
						c1.692,8.336,7.331,13.097,15.489,13.097c0.089,0,0.176-0.001,0.267-0.002c11.125-0.138,22.436-0.109,33.374-0.08
						c4.386,0.012,8.773,0.023,13.158,0.025v-0.035l48.483-0.002c0.787,0,1.578-0.004,2.364-0.055
						c10.133-0.646,13.828-8.203,13.915-14.477C383.578,2199.144,380.973,2193.45,375.742,2188.698z M376.573,2212.62
						c-1.857,2.045-4.59,3.236-7.699,3.352c-0.468,0.018-0.938,0.018-1.407,0.018l-85.05,0.012l-0.008,0.144
						c-0.136-0.006-1.395-0.024-2.97-0.046c-1.845,0.007-4.595-0.018-8.644-0.061c-1.89-0.075-3.487-0.521-4.905-1.366
						c-3.161-1.883-4.324-5.021-4.984-7.544c-0.5-1.901-0.096-3.658,0.403-5.44c1.157-4.131,3.371-7.609,6.584-10.336
						c3.628-3.079,5.892-7.218,7.462-10.479c3.399-7.079,5.499-15.031,6.414-24.309c0.29-2.923,0.418-5.922,0.542-8.823
						c0.072-1.666,0.143-3.331,0.243-4.995c0.727-12.025,5.51-21.56,14.212-28.341c3.043-2.37,6.542-4.168,10.695-5.496
						c1.106-0.354,1.66-0.969,1.91-2.122c1.061-4.892,5.402-8.303,10.559-8.303c0.008,0,0.017,0,0.025,0
						c5.139,0.011,9.47,3.408,10.531,8.26c0.265,1.211,0.849,1.86,2.085,2.315c9.533,3.514,16.305,9.117,20.705,17.13
						c2.528,4.605,3.838,9.797,3.893,15.431c0.106,10.703,1.318,20.159,3.707,28.908c1.865,6.842,4.027,11.736,7.009,15.869
						c1.355,1.877,2.958,3.665,4.766,5.314c4.029,3.676,6.139,7.994,6.451,13.205
						C379.282,2207.888,378.383,2210.624,376.573,2212.62z"/>
				</g>
				<g>
					<path style="fill:#808080;" d="M342.052,2225.262c-1.031-0.353-1.986,0.255-2.441,1.552c-1.123,3.193-3.08,5.787-5.818,7.711
						c-6.952,4.887-14.675,5.807-22.958,2.735c-4.628-1.715-8.019-4.681-10.082-8.816c-0.2-0.4-0.361-0.817-0.522-1.235
						c-0.112-0.295-0.227-0.59-0.356-0.877c-0.327-0.719-0.964-1.136-1.719-1.136c-0.052,0-0.104,0.002-0.158,0.006
						c-0.646,0.049-1.385,0.526-1.543,1.343c-0.109,0.564-0.079,1.2,0.079,1.701c0.838,2.626,2.312,5.039,4.38,7.17
						c4.804,4.944,11.019,7.56,18.474,7.776c6.097-0.091,10.982-1.495,15.372-4.419c4.203-2.8,6.972-6.292,8.461-10.677
						C343.642,2226.856,343.14,2225.637,342.052,2225.262z"/>
				</g>
			</g>
			<path style="fill:#808080;" d="M303.241,2127.32c-3.927,3.881-5.996,8.743-7.315,13.991c-0.198,0.786-0.326,1.592-0.562,2.365
				c-0.359,1.178-1.426,1.796-2.574,1.561c-1.151-0.236-1.984-1.246-1.746-2.45c1.611-8.144,4.579-15.59,11.536-20.72
				c2.174-1.603,4.623-2.855,7.03-4.108c0.651-0.339,1.607-0.094,2.628-0.123c0.272,0.878,0.796,1.662,0.625,2.243
				c-0.219,0.744-0.867,1.633-1.556,1.921"/>
		</g>
		<g>
			<g>
				<g>
					<path style="fill:#808080;" d="M1028.835,137.259c-1.516-1.376-2.874-2.843-4.037-4.361c-2.619-3.419-4.141-7.299-5.174-10.299
						c-2.651-7.694-4.163-16.274-4.763-27c-0.065-1.177-0.104-2.356-0.143-3.535c-0.067-2.005-0.134-4.078-0.342-6.089
						c-0.776-7.465-3.707-14.155-8.712-19.883c-4.43-5.071-9.883-8.926-16.668-11.784c-0.262-0.111-1.135-0.53-1.434-1.308
						c-2.253-5.922-6.451-9.211-12.839-10.055c-0.651-0.086-1.301-0.128-1.946-0.128c-6.25,0-12.025,3.95-14.18,9.938
						c-0.267,0.737-0.717,1.191-1.462,1.472c-4.297,1.628-7.875,3.656-10.935,6.199c-9.282,7.716-14.316,18.152-14.964,31.017
						c-0.055,1.109-0.102,2.218-0.151,3.326c-0.176,4.052-0.358,8.243-0.925,12.359c-1.15,8.35-3.055,15.008-5.996,20.954
						c-1.44,2.911-3.322,6.243-6.354,8.884c-3.472,3.023-5.907,6.659-7.242,10.804c-0.886,2.764-1.576,5.27-1.036,7.939
						c1.692,8.336,7.331,13.097,15.489,13.097c0.089,0,0.176-0.001,0.267-0.002c11.125-0.139,22.436-0.109,33.374-0.08
						c4.386,0.012,8.773,0.023,13.158,0.025v-0.035l48.483-0.003c0.787,0,1.578-0.004,2.364-0.055
						c10.133-0.646,13.828-8.203,13.915-14.477C1036.671,147.704,1034.066,142.011,1028.835,137.259z M1029.666,161.181
						c-1.857,2.046-4.59,3.236-7.699,3.352c-0.468,0.018-0.938,0.018-1.407,0.018l-85.05,0.012l-0.008,0.144
						c-0.136-0.006-1.395-0.024-2.97-0.046c-1.845,0.007-4.595-0.018-8.644-0.061c-1.89-0.075-3.487-0.521-4.905-1.366
						c-3.161-1.883-4.324-5.021-4.984-7.544c-0.5-1.901-0.096-3.658,0.403-5.44c1.157-4.131,3.371-7.609,6.584-10.336
						c3.628-3.079,5.892-7.218,7.462-10.479c3.399-7.079,5.499-15.031,6.414-24.309c0.29-2.923,0.418-5.922,0.542-8.822
						c0.072-1.666,0.143-3.331,0.243-4.995c0.727-12.025,5.51-21.56,14.212-28.341c3.044-2.37,6.542-4.168,10.695-5.496
						c1.106-0.354,1.66-0.969,1.91-2.122c1.061-4.892,5.402-8.303,10.559-8.303c0.008,0,0.017,0,0.025,0
						c5.139,0.011,9.47,3.408,10.531,8.26c0.265,1.211,0.849,1.86,2.085,2.315c9.533,3.514,16.305,9.117,20.705,17.13
						c2.528,4.606,3.838,9.797,3.893,15.432c0.106,10.703,1.318,20.159,3.707,28.908c1.865,6.842,4.027,11.736,7.009,15.869
						c1.355,1.877,2.958,3.665,4.766,5.314c4.029,3.676,6.139,7.994,6.451,13.205
						C1032.375,156.449,1031.475,159.185,1029.666,161.181z"/>
				</g>
				<g>
					<path style="fill:#808080;" d="M995.145,173.823c-1.031-0.353-1.986,0.255-2.441,1.552c-1.123,3.193-3.08,5.787-5.818,7.711
						c-6.952,4.887-14.675,5.807-22.958,2.735c-4.628-1.715-8.019-4.681-10.082-8.816c-0.2-0.4-0.361-0.817-0.522-1.235
						c-0.112-0.295-0.227-0.59-0.356-0.877c-0.327-0.719-0.964-1.136-1.719-1.136c-0.052,0-0.104,0.002-0.158,0.006
						c-0.646,0.049-1.385,0.525-1.543,1.343c-0.109,0.564-0.079,1.2,0.079,1.701c0.838,2.626,2.312,5.039,4.38,7.171
						c4.804,4.944,11.019,7.56,18.474,7.776c6.097-0.091,10.982-1.495,15.372-4.419c4.203-2.8,6.972-6.292,8.461-10.677
						C996.734,175.417,996.232,174.198,995.145,173.823z"/>
				</g>
			</g>
			<path style="fill:#808080;" d="M956.334,75.881c-3.927,3.881-5.996,8.743-7.316,13.991c-0.198,0.786-0.326,1.592-0.562,2.365
				c-0.359,1.178-1.426,1.796-2.574,1.561c-1.151-0.236-1.984-1.247-1.746-2.45c1.611-8.144,4.579-15.59,11.536-20.72
				c2.174-1.603,4.623-2.855,7.03-4.108c0.651-0.339,1.607-0.094,2.628-0.123c0.272,0.878,0.796,1.662,0.625,2.243
				c-0.219,0.744-0.867,1.633-1.556,1.922"/>
		</g>
		<g>
			<g>
				<g>
					<path style="fill:#808080;" d="M591.922,1939.521c-1.516-1.376-2.874-2.843-4.037-4.361c-2.619-3.419-4.141-7.299-5.174-10.299
						c-2.651-7.694-4.163-16.274-4.763-27c-0.065-1.177-0.104-2.356-0.143-3.535c-0.067-2.005-0.134-4.078-0.342-6.089
						c-0.776-7.465-3.707-14.155-8.712-19.883c-4.43-5.071-9.883-8.926-16.668-11.784c-0.262-0.111-1.135-0.531-1.434-1.308
						c-2.253-5.922-6.451-9.211-12.839-10.055c-0.651-0.086-1.301-0.128-1.946-0.128c-6.25,0-12.025,3.95-14.18,9.938
						c-0.267,0.737-0.717,1.191-1.462,1.472c-4.297,1.628-7.875,3.656-10.935,6.199c-9.282,7.716-14.316,18.152-14.964,31.017
						c-0.055,1.109-0.102,2.218-0.151,3.326c-0.176,4.052-0.358,8.243-0.925,12.359c-1.15,8.35-3.055,15.009-5.996,20.954
						c-1.44,2.911-3.322,6.243-6.354,8.884c-3.472,3.023-5.907,6.659-7.242,10.804c-0.886,2.764-1.576,5.27-1.036,7.939
						c1.692,8.337,7.331,13.097,15.489,13.097c0.089,0,0.176-0.001,0.267-0.002c11.125-0.139,22.436-0.109,33.374-0.08
						c4.386,0.012,8.773,0.024,13.158,0.025v-0.035l48.483-0.003c0.787,0,1.578-0.004,2.364-0.055
						c10.133-0.646,13.828-8.203,13.915-14.477C599.759,1949.967,597.153,1944.274,591.922,1939.521z M592.753,1963.444
						c-1.857,2.046-4.59,3.236-7.699,3.352c-0.468,0.018-0.938,0.018-1.407,0.018l-85.05,0.012l-0.008,0.144
						c-0.136-0.006-1.395-0.024-2.97-0.046c-1.845,0.007-4.595-0.018-8.644-0.061c-1.89-0.075-3.487-0.521-4.905-1.366
						c-3.161-1.883-4.324-5.021-4.984-7.544c-0.5-1.901-0.096-3.658,0.403-5.44c1.157-4.131,3.371-7.609,6.584-10.336
						c3.628-3.079,5.892-7.218,7.462-10.479c3.399-7.079,5.499-15.031,6.414-24.309c0.29-2.923,0.418-5.922,0.542-8.822
						c0.072-1.666,0.143-3.331,0.243-4.995c0.727-12.025,5.51-21.56,14.212-28.341c3.044-2.37,6.542-4.168,10.695-5.496
						c1.106-0.354,1.66-0.969,1.91-2.122c1.061-4.892,5.402-8.303,10.559-8.303c0.008,0,0.017,0,0.025,0
						c5.138,0.011,9.47,3.408,10.531,8.26c0.265,1.211,0.849,1.86,2.085,2.315c9.533,3.514,16.305,9.117,20.705,17.13
						c2.528,4.605,3.838,9.797,3.893,15.432c0.106,10.703,1.318,20.159,3.707,28.908c1.865,6.842,4.027,11.736,7.009,15.869
						c1.355,1.877,2.958,3.665,4.766,5.314c4.029,3.676,6.139,7.994,6.451,13.205
						C595.463,1958.712,594.563,1961.448,592.753,1963.444z"/>
				</g>
				<g>
					<path style="fill:#808080;" d="M558.232,1976.085c-1.031-0.353-1.986,0.255-2.441,1.552c-1.123,3.193-3.08,5.787-5.818,7.711
						c-6.951,4.887-14.675,5.807-22.958,2.735c-4.628-1.715-8.019-4.681-10.082-8.816c-0.2-0.4-0.361-0.817-0.522-1.235
						c-0.112-0.295-0.227-0.59-0.356-0.877c-0.327-0.719-0.964-1.136-1.719-1.136c-0.052,0-0.104,0.002-0.158,0.006
						c-0.646,0.049-1.385,0.525-1.543,1.343c-0.109,0.564-0.079,1.2,0.079,1.7c0.838,2.626,2.312,5.04,4.38,7.171
						c4.804,4.944,11.019,7.56,18.474,7.776c6.097-0.091,10.982-1.495,15.372-4.419c4.203-2.8,6.972-6.292,8.461-10.677
						C559.822,1977.679,559.32,1976.461,558.232,1976.085z"/>
				</g>
			</g>
			<path style="fill:#808080;" d="M519.422,1878.143c-3.927,3.881-5.996,8.743-7.316,13.991c-0.198,0.786-0.326,1.592-0.562,2.365
				c-0.359,1.178-1.426,1.796-2.574,1.561c-1.151-0.236-1.984-1.247-1.746-2.45c1.611-8.144,4.579-15.59,11.536-20.72
				c2.174-1.603,4.623-2.855,7.03-4.108c0.651-0.339,1.607-0.094,2.628-0.123c0.272,0.878,0.796,1.662,0.625,2.243
				c-0.219,0.744-0.867,1.633-1.556,1.922"/>
		</g>
		<g>
			<g>
				<path style="fill:#808080;" d="M78.014,2209.588c35.738,0.022,66.855,25.761,73.153,60.771
					c3.314,18.418,0.209,35.814-9.402,51.948c-1.102,1.851-1.64,3.563-1.316,5.823c0.964,6.713,1.622,13.471,2.361,20.216
					c0.439,4.011-0.115,4.615-4.066,4.024c-7.08-1.058-14.13-2.328-21.22-3.315c-1.459-0.203-3.23,0.075-4.533,0.754
					c-41.53,21.635-91.472,1.385-106.181-43.114c-9.875-29.875,1.456-64.305,27.12-82.748
					C47.128,2214.463,61.729,2209.484,78.014,2209.588z M138.674,2348.24c-0.614-5.382-1.207-10.14-1.689-14.909
					c-0.474-4.699-1.327-9.095,1.583-13.827c9.158-14.894,11.694-31.271,8.585-48.419c-5.779-31.878-34.058-56.567-67.153-57.533
					c-30.484-0.89-59.964,19.083-68.975,48.27c-8.358,27.072-2.696,51.234,16.944,71.816c20.405,21.384,54.966,27.177,81.116,13.493
					c4.076-2.133,7.768-2.611,12.119-1.704C126.801,2346.593,132.498,2347.27,138.674,2348.24z"/>
			</g>
			<g>
				<path style="fill:#808080;" d="M25.256,2272.307c0.968-14.878,7.962-25.412,18.82-33.624c8.225-6.22,17.483-9.892,27.907-10.244
					c1.459-0.049,3.354-0.532,3.509,1.692c0.168,2.407-1.838,2.173-3.412,2.244c-18.431,0.84-36.338,14.304-41.359,31.272
					c-0.765,2.585-0.721,5.403-1.38,8.031c-0.254,1.013-1.423,1.798-2.175,2.687C26.389,2273.527,25.611,2272.689,25.256,2272.307z"
					/>
			</g>
			<g>
				<path style="fill:#808080;" d="M24.908,2285.54c0.729-0.671,1.565-1.439,2.402-2.208c0.668,0.848,1.667,1.603,1.936,2.563
					c0.633,2.255,1.099,4.595,1.252,6.926c0.061,0.934-0.877,1.933-1.361,2.903c-0.812-0.608-2.098-1.066-2.347-1.852
					C26,2291.375,25.598,2288.757,24.908,2285.54z"/>
			</g>
		</g>
		<g>
			<g>
				<path style="fill:#808080;" d="M681.75,2143.987c6.908-6.734,14.569-12.038,23.376-15.441c12.122-4.683,24.189-4.1,35.721,1.874
					c16.313,8.45,24.182,22.339,24.894,40.452c0.398,10.109-2.714,19.417-7.056,28.381c-6.52,13.46-15.909,24.807-26.285,35.389
					c-14.26,14.542-30.024,27.267-47.021,38.479c-2.485,1.639-4.79,1.599-7.252-0.039c-21.169-14.083-40.573-30.203-57.127-49.591
					c-5.668-6.638-10.73-13.73-14.764-21.492c-4.627-8.906-8.208-18.185-8.416-28.377c-0.343-16.799,5.726-30.746,19.843-40.224
					c14.739-9.895,30.384-10.53,46.228-2.369C670.455,2134.41,676.476,2138.602,681.75,2143.987z M681.802,2152.334
					c-0.641-0.772-1.13-1.372-1.631-1.962c-5.463-6.433-12.259-11.134-19.686-14.96c-9.81-5.054-20.096-5.919-30.467-2.294
					c-16.328,5.708-26.085,19.927-26.789,37.033c-0.397,9.663,2.404,18.644,6.721,27.188c5.482,10.85,12.815,20.373,21.093,29.207
					c14.915,15.917,31.663,29.647,49.774,41.757c0.709,0.474,1.184,0.507,1.919,0.015c19.586-13.131,37.652-28.048,53.347-45.7
					c7.865-8.845,14.74-18.416,19.427-29.374c4.161-9.726,6.245-19.778,3.917-30.351c-3.186-14.468-11.677-24.582-25.576-29.625
					c-10.822-3.927-21.545-2.892-31.742,2.637C694.386,2140.092,687.346,2145.132,681.802,2152.334z"/>
			</g>
			<path style="fill:#808080;" d="M617.227,2166.598c-1.239,6.63,0.07,12.95,2.4,19.136c0.349,0.927,0.781,1.825,1.083,2.765
				c0.46,1.433-0.18,2.796-1.497,3.359c-1.32,0.565-2.859,0.131-3.458-1.243c-4.054-9.296-6.26-18.836-2.849-28.829
				c1.066-3.123,2.652-6.085,4.195-9.018c0.418-0.794,1.547-1.213,2.552-1.953c0.884,0.691,1.956,1.114,2.19,1.816
				c0.299,0.899,0.267,2.242-0.223,3.012"/>
		</g>
		<g>
			<g>
				<path style="fill:#808080;" d="M1022.75,2270.987c6.908-6.734,14.569-12.038,23.376-15.441
					c12.122-4.683,24.189-4.1,35.721,1.874c16.313,8.45,24.182,22.339,24.894,40.452c0.398,10.109-2.714,19.417-7.056,28.381
					c-6.52,13.46-15.909,24.807-26.285,35.389c-14.26,14.542-30.024,27.267-47.021,38.479c-2.485,1.639-4.789,1.599-7.252-0.039
					c-21.169-14.083-40.573-30.203-57.127-49.591c-5.668-6.638-10.73-13.73-14.764-21.492c-4.627-8.906-8.208-18.185-8.416-28.377
					c-0.343-16.799,5.726-30.746,19.843-40.224c14.739-9.895,30.384-10.53,46.228-2.369
					C1011.455,2261.41,1017.476,2265.602,1022.75,2270.987z M1022.802,2279.334c-0.641-0.772-1.13-1.372-1.631-1.962
					c-5.463-6.433-12.259-11.134-19.686-14.96c-9.81-5.054-20.096-5.919-30.467-2.294c-16.328,5.708-26.085,19.927-26.789,37.033
					c-0.397,9.663,2.404,18.644,6.721,27.188c5.482,10.85,12.815,20.373,21.093,29.207c14.915,15.917,31.663,29.647,49.774,41.757
					c0.709,0.474,1.184,0.507,1.919,0.015c19.586-13.131,37.652-28.048,53.347-45.7c7.865-8.845,14.74-18.416,19.427-29.374
					c4.161-9.726,6.245-19.778,3.917-30.351c-3.186-14.468-11.677-24.582-25.576-29.625c-10.822-3.927-21.545-2.892-31.742,2.637
					C1035.386,2267.092,1028.346,2272.132,1022.802,2279.334z"/>
			</g>
			<path style="fill:#808080;" d="M958.227,2293.598c-1.239,6.63,0.07,12.95,2.4,19.136c0.349,0.927,0.781,1.825,1.083,2.765
				c0.46,1.433-0.18,2.796-1.497,3.359c-1.32,0.565-2.859,0.131-3.458-1.243c-4.054-9.296-6.26-18.836-2.849-28.829
				c1.066-3.123,2.652-6.085,4.195-9.018c0.418-0.794,1.547-1.213,2.552-1.953c0.884,0.691,1.956,1.114,2.19,1.816
				c0.299,0.899,0.267,2.242-0.223,3.012"/>
		</g>
		<g>
			<g>
				<g>
					<path style="fill:#808080;" d="M1136.95,1993.241c-1.516-1.376-2.874-2.843-4.037-4.361c-2.619-3.419-4.141-7.299-5.174-10.299
						c-2.651-7.694-4.163-16.274-4.763-27c-0.065-1.177-0.104-2.356-0.143-3.535c-0.067-2.005-0.134-4.078-0.342-6.089
						c-0.776-7.465-3.707-14.155-8.713-19.883c-4.43-5.071-9.883-8.926-16.668-11.784c-0.262-0.111-1.135-0.53-1.434-1.308
						c-2.253-5.922-6.451-9.211-12.839-10.055c-0.651-0.086-1.301-0.128-1.946-0.128c-6.25,0-12.025,3.95-14.18,9.938
						c-0.267,0.737-0.717,1.191-1.462,1.472c-4.297,1.628-7.875,3.656-10.935,6.199c-9.282,7.716-14.316,18.152-14.964,31.017
						c-0.055,1.109-0.102,2.218-0.151,3.325c-0.176,4.052-0.358,8.243-0.925,12.359c-1.15,8.35-3.055,15.009-5.996,20.954
						c-1.44,2.911-3.322,6.243-6.354,8.884c-3.472,3.023-5.907,6.659-7.242,10.804c-0.886,2.764-1.576,5.27-1.036,7.939
						c1.692,8.336,7.331,13.097,15.49,13.097c0.089,0,0.176-0.001,0.267-0.002c11.125-0.139,22.436-0.109,33.374-0.08
						c4.386,0.012,8.773,0.023,13.158,0.025v-0.035l48.483-0.003c0.787,0,1.578-0.004,2.364-0.054
						c10.133-0.646,13.828-8.203,13.915-14.477C1144.786,2003.686,1142.181,1997.993,1136.95,1993.241z M1137.781,2017.163
						c-1.857,2.046-4.59,3.236-7.699,3.352c-0.468,0.018-0.938,0.018-1.407,0.018l-85.05,0.012l-0.008,0.144
						c-0.136-0.006-1.395-0.024-2.97-0.046c-1.845,0.007-4.595-0.018-8.644-0.061c-1.89-0.075-3.487-0.521-4.905-1.366
						c-3.161-1.883-4.324-5.021-4.984-7.544c-0.5-1.901-0.096-3.658,0.403-5.44c1.157-4.131,3.371-7.609,6.584-10.336
						c3.628-3.079,5.892-7.218,7.462-10.479c3.399-7.079,5.499-15.031,6.414-24.309c0.29-2.923,0.418-5.922,0.542-8.822
						c0.072-1.666,0.143-3.331,0.243-4.995c0.727-12.025,5.51-21.56,14.212-28.341c3.043-2.37,6.542-4.168,10.695-5.496
						c1.106-0.354,1.66-0.969,1.91-2.122c1.061-4.892,5.402-8.303,10.559-8.303c0.008,0,0.017,0,0.025,0
						c5.139,0.011,9.47,3.408,10.531,8.26c0.265,1.211,0.849,1.86,2.085,2.315c9.533,3.514,16.305,9.117,20.705,17.13
						c2.528,4.606,3.838,9.797,3.893,15.432c0.106,10.703,1.318,20.159,3.707,28.908c1.865,6.842,4.027,11.736,7.009,15.869
						c1.355,1.877,2.958,3.665,4.766,5.314c4.029,3.676,6.139,7.994,6.451,13.205
						C1140.491,2012.431,1139.591,2015.167,1137.781,2017.163z"/>
				</g>
				<g>
					<path style="fill:#808080;" d="M1103.26,2029.805c-1.031-0.353-1.986,0.255-2.441,1.552c-1.123,3.193-3.08,5.787-5.818,7.711
						c-6.952,4.887-14.675,5.807-22.958,2.735c-4.628-1.715-8.019-4.681-10.082-8.816c-0.2-0.4-0.361-0.817-0.522-1.235
						c-0.112-0.295-0.227-0.59-0.356-0.877c-0.327-0.719-0.964-1.136-1.719-1.136c-0.052,0-0.104,0.002-0.158,0.006
						c-0.646,0.049-1.385,0.526-1.543,1.343c-0.109,0.564-0.079,1.2,0.079,1.701c0.838,2.626,2.312,5.039,4.38,7.171
						c4.805,4.944,11.019,7.56,18.474,7.776c6.097-0.091,10.982-1.495,15.372-4.419c4.203-2.8,6.972-6.292,8.461-10.677
						C1104.85,2031.398,1104.348,2030.18,1103.26,2029.805z"/>
				</g>
			</g>
			<path style="fill:#808080;" d="M1064.45,1931.862c-3.927,3.881-5.996,8.743-7.316,13.991c-0.198,0.786-0.326,1.592-0.562,2.365
				c-0.359,1.178-1.426,1.796-2.574,1.561c-1.151-0.236-1.984-1.246-1.746-2.45c1.611-8.144,4.579-15.59,11.536-20.72
				c2.174-1.603,4.623-2.855,7.03-4.108c0.651-0.339,1.607-0.094,2.628-0.123c0.272,0.878,0.796,1.662,0.625,2.243
				c-0.219,0.744-0.867,1.633-1.556,1.922"/>
		</g>
		<g>
			<path style="fill:#808080;" d="M574.259,2289.756c3.17,0.031,6.331,1.064,9.368,1.611c2.938-0.55,5.972-1.583,9.015-1.611
				c17.267-0.158,34.536-0.09,51.804-0.071c7.906,0.009,11.209,3.294,11.217,11.158c0.019,17.268,0.017,34.537,0.001,51.805
				c-0.007,8.12-3.23,11.317-11.45,11.327c-17.268,0.021-34.537,0.083-51.804-0.069c-2.923-0.026-5.837-1.042-8.563-1.564
				c-3.365,0.539-6.782,1.529-10.207,1.561c-16.883,0.159-33.768,0.079-50.653,0.054c-8.223-0.012-11.394-3.179-11.401-11.353
				c-0.016-17.14-0.017-34.281-0.009-51.421c0.004-8.378,3.152-11.492,11.645-11.499 M585.987,2348.696
				c0,1.898-0.046,3.55,0.009,5.198c0.126,3.805,1.554,5.243,5.451,5.249c18.035,0.029,36.07-0.014,54.105,0.027
				c3.534,0.008,5.226-1.659,5.228-5.102c0.014-18.163,0.013-36.325,0.001-54.488c-0.002-3.443-1.685-5.112-5.223-5.103
				c-18.163,0.043-36.326,0.027-54.488,0.007c-3.568-0.004-5.085,1.865-5.083,5.259c0.002,2.686,0.056,5.374-0.019,8.058
				c-0.095,3.428-1.161,4.197-4.225,2.82c-2.452-1.103-4.838-1.007-6.081,1.225c-0.824,1.481-0.939,4.039-0.207,5.551
				c1.218,2.517,3.736,2.583,6.328,1.542c3.186-1.281,4.092-0.603,4.188,2.891c0.065,2.39,0.013,4.784,0.013,7.124
				c7.742,0.786,11.465,4.031,11.552,9.722C597.626,2344.589,593.965,2347.882,585.987,2348.696z M581.268,2304.927
				c0-1.511,0.006-2.778-0.001-4.045c-0.029-5.167-1.186-6.376-6.263-6.381c-17.523-0.016-35.046-0.021-52.569-0.005
				c-4.522,0.004-5.922,1.082-5.938,5.095c-0.074,18.162-0.037,36.325-0.026,54.487c0.002,3.452,1.694,5.108,5.224,5.1
				c18.034-0.042,36.069,0,54.104-0.034c4.025-0.008,5.379-1.473,5.453-5.642c0.048-2.685-0.029-5.373,0.033-8.058
				c0.062-2.649,1.219-3.987,3.892-2.589c2.512,1.313,5.022,1.311,6.411-1.088c0.84-1.451,0.921-4.042,0.18-5.548
				c-1.233-2.502-3.748-2.56-6.34-1.511c-3.161,1.28-4.057,0.587-4.146-2.938c-0.06-2.38-0.011-4.763-0.011-7.083
				c-7.758-0.771-11.493-4.045-11.565-9.752C569.63,2309.011,573.209,2305.802,581.268,2304.927z"/>
		</g>
		<g>
			<g>
				<path style="fill:#808080;" d="M27.494,380.055c6.908-6.733,14.569-12.038,23.376-15.441c12.122-4.683,24.189-4.1,35.721,1.874
					c16.313,8.45,24.182,22.339,24.894,40.451c0.398,10.109-2.714,19.417-7.056,28.381c-6.52,13.46-15.909,24.807-26.285,35.389
					c-14.26,14.543-30.024,27.267-47.021,38.479c-2.485,1.639-4.79,1.6-7.252-0.038c-21.169-14.084-40.573-30.204-57.127-49.591
					c-5.668-6.638-10.73-13.73-14.764-21.492c-4.627-8.906-8.208-18.185-8.416-28.378c-0.343-16.799,5.726-30.746,19.843-40.224
					c14.739-9.895,30.384-10.53,46.228-2.369C16.199,370.477,22.22,374.67,27.494,380.055z M27.546,388.402
					c-0.641-0.772-1.13-1.372-1.631-1.962c-5.463-6.433-12.259-11.134-19.686-14.96c-9.81-5.055-20.096-5.919-30.467-2.294
					c-16.328,5.708-26.085,19.927-26.789,37.033c-0.397,9.663,2.404,18.644,6.721,27.188c5.482,10.85,12.815,20.373,21.093,29.207
					c14.915,15.917,31.663,29.647,49.774,41.757c0.709,0.474,1.184,0.507,1.919,0.015c19.586-13.131,37.652-28.048,53.347-45.7
					c7.865-8.845,14.74-18.416,19.427-29.374c4.161-9.726,6.245-19.778,3.917-30.351c-3.186-14.468-11.677-24.582-25.576-29.625
					c-10.822-3.927-21.545-2.892-31.742,2.637C40.13,376.159,33.09,381.199,27.546,388.402z"/>
			</g>
			<path style="fill:#808080;" d="M-37.028,402.666c-1.239,6.63,0.07,12.95,2.4,19.137c0.349,0.927,0.781,1.825,1.083,2.765
				c0.46,1.433-0.18,2.796-1.497,3.359c-1.32,0.565-2.859,0.131-3.458-1.243c-4.054-9.296-6.26-18.836-2.849-28.829
				c1.066-3.123,2.652-6.085,4.195-9.018c0.418-0.794,1.547-1.213,2.552-1.953c0.884,0.691,1.957,1.114,2.19,1.816
				c0.299,0.899,0.267,2.242-0.223,3.012"/>
		</g>
		<g>
			<g>
				<g>
					<path style="fill:#808080;" d="M532.757,398.422c-1.516-1.376-2.874-2.843-4.037-4.361c-2.619-3.419-4.141-7.299-5.174-10.299
						c-2.651-7.694-4.163-16.274-4.763-27c-0.065-1.177-0.104-2.356-0.143-3.535c-0.067-2.005-0.134-4.078-0.342-6.089
						c-0.776-7.465-3.707-14.155-8.713-19.883c-4.43-5.071-9.883-8.926-16.668-11.784c-0.262-0.111-1.135-0.53-1.434-1.308
						c-2.253-5.922-6.451-9.211-12.839-10.055c-0.651-0.086-1.301-0.128-1.946-0.128c-6.25,0-12.025,3.95-14.18,9.938
						c-0.267,0.737-0.717,1.191-1.462,1.472c-4.297,1.628-7.875,3.656-10.935,6.199c-9.282,7.716-14.316,18.152-14.964,31.017
						c-0.055,1.109-0.102,2.218-0.151,3.326c-0.176,4.052-0.358,8.243-0.925,12.359c-1.15,8.35-3.055,15.009-5.996,20.954
						c-1.44,2.911-3.322,6.243-6.354,8.884c-3.472,3.023-5.907,6.659-7.242,10.804c-0.886,2.764-1.576,5.27-1.036,7.939
						c1.692,8.336,7.331,13.097,15.489,13.097c0.089,0,0.176-0.001,0.267-0.002c11.125-0.139,22.436-0.109,33.374-0.08
						c4.386,0.012,8.773,0.023,13.158,0.025v-0.035l48.483-0.003c0.787,0,1.578-0.004,2.364-0.055
						c10.133-0.646,13.828-8.203,13.915-14.477C540.594,408.868,537.988,403.174,532.757,398.422z M533.588,422.344
						c-1.857,2.046-4.59,3.236-7.699,3.352c-0.468,0.018-0.938,0.018-1.407,0.018l-85.05,0.012l-0.008,0.144
						c-0.136-0.006-1.395-0.024-2.97-0.046c-1.845,0.007-4.595-0.018-8.644-0.061c-1.89-0.075-3.487-0.521-4.905-1.366
						c-3.161-1.883-4.324-5.021-4.984-7.544c-0.5-1.901-0.096-3.658,0.403-5.44c1.157-4.131,3.371-7.609,6.584-10.336
						c3.628-3.079,5.892-7.218,7.462-10.479c3.399-7.079,5.499-15.031,6.414-24.309c0.29-2.923,0.418-5.922,0.542-8.822
						c0.072-1.666,0.143-3.331,0.243-4.995c0.727-12.025,5.509-21.56,14.212-28.341c3.044-2.37,6.542-4.168,10.695-5.496
						c1.106-0.354,1.66-0.969,1.91-2.122c1.061-4.892,5.402-8.303,10.559-8.303c0.008,0,0.017,0,0.025,0
						c5.139,0.011,9.47,3.408,10.531,8.26c0.265,1.211,0.849,1.86,2.085,2.315c9.533,3.514,16.305,9.117,20.705,17.13
						c2.528,4.606,3.837,9.797,3.893,15.432c0.106,10.703,1.318,20.159,3.707,28.908c1.865,6.842,4.027,11.736,7.009,15.869
						c1.355,1.877,2.958,3.665,4.766,5.314c4.029,3.676,6.139,7.994,6.451,13.205C536.298,417.612,535.398,420.348,533.588,422.344z
						"/>
				</g>
				<g>
					<path style="fill:#808080;" d="M499.067,434.986c-1.031-0.353-1.986,0.255-2.441,1.552c-1.123,3.193-3.08,5.787-5.818,7.711
						c-6.952,4.887-14.675,5.807-22.958,2.735c-4.628-1.715-8.019-4.681-10.082-8.816c-0.2-0.4-0.361-0.817-0.522-1.235
						c-0.112-0.295-0.227-0.59-0.356-0.877c-0.327-0.719-0.964-1.136-1.719-1.136c-0.052,0-0.104,0.002-0.158,0.006
						c-0.646,0.049-1.385,0.525-1.543,1.343c-0.109,0.564-0.079,1.2,0.079,1.701c0.838,2.626,2.312,5.039,4.38,7.171
						c4.804,4.944,11.019,7.56,18.474,7.776c6.097-0.091,10.982-1.495,15.372-4.419c4.203-2.8,6.972-6.292,8.461-10.677
						C500.657,436.58,500.155,435.361,499.067,434.986z"/>
				</g>
			</g>
			<path style="fill:#808080;" d="M460.257,337.044c-3.927,3.881-5.996,8.743-7.316,13.991c-0.198,0.786-0.326,1.592-0.562,2.365
				c-0.359,1.178-1.426,1.796-2.574,1.561c-1.151-0.236-1.984-1.247-1.746-2.45c1.611-8.144,4.579-15.59,11.536-20.72
				c2.174-1.603,4.623-2.855,7.03-4.108c0.651-0.339,1.607-0.094,2.628-0.123c0.272,0.878,0.796,1.662,0.625,2.243
				c-0.219,0.744-0.867,1.633-1.556,1.922"/>
		</g>
		<g>
			<g>
				<path style="fill:#808080;" d="M30.014,884.831c35.738,0.022,66.855,25.761,73.153,60.771
					c3.314,18.418,0.209,35.814-9.402,51.948c-1.102,1.851-1.64,3.564-1.316,5.823c0.964,6.713,1.622,13.471,2.361,20.216
					c0.439,4.011-0.115,4.615-4.066,4.024c-7.08-1.058-14.13-2.328-21.22-3.315c-1.459-0.203-3.23,0.075-4.533,0.754
					c-41.53,21.635-91.472,1.385-106.181-43.114c-9.875-29.875,1.456-64.306,27.12-82.748
					C-0.872,889.706,13.729,884.727,30.014,884.831z M90.674,1023.483c-0.614-5.381-1.207-10.14-1.689-14.909
					c-0.474-4.699-1.327-9.095,1.583-13.827c9.158-14.894,11.694-31.271,8.585-48.419c-5.779-31.878-34.058-56.567-67.153-57.533
					c-30.484-0.89-59.964,19.083-68.975,48.27c-8.358,27.072-2.696,51.234,16.944,71.816c20.405,21.384,54.966,27.177,81.116,13.493
					c4.076-2.133,7.768-2.611,12.119-1.704C78.801,1021.835,84.498,1022.513,90.674,1023.483z"/>
			</g>
			<g>
				<path style="fill:#808080;" d="M-22.744,947.55c0.968-14.878,7.962-25.412,18.82-33.624c8.225-6.22,17.483-9.892,27.907-10.244
					c1.459-0.049,3.354-0.532,3.509,1.693c0.168,2.407-1.838,2.173-3.412,2.244c-18.431,0.84-36.338,14.304-41.359,31.272
					c-0.765,2.585-0.721,5.403-1.38,8.031c-0.254,1.014-1.423,1.798-2.175,2.687C-21.611,948.77-22.389,947.932-22.744,947.55z"/>
			</g>
			<g>
				<path style="fill:#808080;" d="M-23.092,960.783c0.729-0.67,1.565-1.439,2.402-2.208c0.668,0.848,1.667,1.603,1.936,2.563
					c0.633,2.255,1.099,4.595,1.252,6.926c0.061,0.934-0.877,1.933-1.361,2.903c-0.812-0.608-2.098-1.066-2.347-1.852
					C-22,966.618-22.402,963.999-23.092,960.783z"/>
			</g>
		</g>
		<g>
			<g>
				<path style="fill:#808080;" d="M684.245,34.9c35.738,0.022,66.855,25.761,73.153,60.77c3.314,18.418,0.209,35.814-9.402,51.948
					c-1.102,1.851-1.641,3.564-1.316,5.823c0.964,6.713,1.622,13.471,2.361,20.216c0.439,4.011-0.115,4.615-4.066,4.024
					c-7.08-1.059-14.13-2.328-21.22-3.315c-1.459-0.203-3.23,0.075-4.533,0.754c-41.53,21.635-91.472,1.385-106.181-43.114
					c-9.875-29.875,1.456-64.306,27.12-82.748C653.359,39.775,667.96,34.796,684.245,34.9z M744.904,173.552
					c-0.615-5.381-1.207-10.14-1.688-14.909c-0.474-4.699-1.327-9.095,1.583-13.827c9.158-14.894,11.694-31.271,8.585-48.419
					c-5.779-31.878-34.058-56.567-67.153-57.533c-30.484-0.89-59.964,19.084-68.975,48.27c-8.358,27.072-2.696,51.234,16.944,71.816
					c20.405,21.384,54.966,27.177,81.116,13.493c4.076-2.133,7.768-2.611,12.119-1.704
					C733.031,171.905,738.728,172.582,744.904,173.552z"/>
			</g>
			<g>
				<path style="fill:#808080;" d="M631.486,97.62c0.968-14.878,7.962-25.412,18.82-33.624c8.225-6.22,17.483-9.892,27.908-10.244
					c1.459-0.049,3.354-0.532,3.509,1.693c0.168,2.407-1.838,2.173-3.412,2.244c-18.431,0.84-36.338,14.304-41.359,31.272
					c-0.765,2.585-0.721,5.403-1.38,8.031c-0.254,1.014-1.423,1.798-2.175,2.687C632.619,98.839,631.841,98.002,631.486,97.62z"/>
			</g>
			<g>
				<path style="fill:#808080;" d="M631.138,110.852c0.729-0.67,1.565-1.439,2.402-2.208c0.667,0.848,1.667,1.603,1.936,2.563
					c0.633,2.255,1.099,4.595,1.252,6.926c0.061,0.934-0.877,1.933-1.361,2.903c-0.812-0.608-2.098-1.066-2.347-1.852
					C632.231,116.687,631.829,114.069,631.138,110.852z"/>
			</g>
		</g>
		<g>
			<g>
				<path style="fill:#808080;" d="M189.305,584.454c35.738,0.022,66.855,25.761,73.153,60.77
					c3.314,18.418,0.209,35.814-9.402,51.948c-1.102,1.851-1.64,3.564-1.316,5.823c0.964,6.713,1.622,13.471,2.361,20.216
					c0.439,4.011-0.115,4.615-4.066,4.024c-7.08-1.059-14.13-2.328-21.22-3.315c-1.459-0.203-3.23,0.075-4.533,0.754
					c-41.53,21.635-91.472,1.385-106.181-43.114c-9.875-29.875,1.456-64.306,27.12-82.748
					C158.419,589.329,173.02,584.35,189.305,584.454z M249.965,723.106c-0.615-5.381-1.207-10.14-1.689-14.909
					c-0.474-4.699-1.327-9.095,1.583-13.827c9.158-14.894,11.694-31.271,8.585-48.419c-5.779-31.878-34.058-56.567-67.153-57.533
					c-30.484-0.89-59.964,19.083-68.975,48.27c-8.358,27.072-2.696,51.234,16.944,71.816c20.405,21.384,54.966,27.177,81.116,13.493
					c4.076-2.133,7.768-2.611,12.119-1.704C238.091,721.458,243.788,722.136,249.965,723.106z"/>
			</g>
			<g>
				<path style="fill:#808080;" d="M136.547,647.173c0.968-14.878,7.962-25.412,18.82-33.624c8.225-6.22,17.483-9.892,27.907-10.244
					c1.459-0.049,3.354-0.532,3.509,1.693c0.168,2.407-1.838,2.172-3.412,2.244c-18.431,0.84-36.338,14.304-41.359,31.272
					c-0.765,2.585-0.721,5.403-1.38,8.031c-0.254,1.014-1.423,1.798-2.175,2.687C137.68,648.393,136.902,647.555,136.547,647.173z"
					/>
			</g>
			<g>
				<path style="fill:#808080;" d="M136.199,660.405c0.729-0.67,1.565-1.439,2.402-2.208c0.667,0.848,1.667,1.603,1.936,2.563
					c0.633,2.255,1.099,4.595,1.252,6.926c0.061,0.934-0.877,1.933-1.361,2.903c-0.812-0.608-2.098-1.066-2.347-1.852
					C137.291,666.241,136.889,663.622,136.199,660.405z"/>
			</g>
		</g>
		<g>
			<path style="fill:#808080;" d="M415.31,735.909c3.17,0.03,6.331,1.064,9.368,1.611c2.938-0.55,5.972-1.583,9.015-1.611
				c17.267-0.159,34.536-0.09,51.804-0.071c7.906,0.009,11.209,3.294,11.217,11.158c0.019,17.268,0.017,34.537,0.001,51.805
				c-0.007,8.12-3.23,11.317-11.45,11.327c-17.268,0.021-34.537,0.084-51.804-0.069c-2.923-0.026-5.837-1.042-8.563-1.565
				c-3.365,0.539-6.782,1.529-10.207,1.561c-16.883,0.159-33.768,0.079-50.653,0.054c-8.223-0.012-11.394-3.179-11.401-11.353
				c-0.016-17.14-0.017-34.281-0.009-51.421c0.004-8.378,3.152-11.492,11.645-11.499 M427.039,794.85
				c0,1.898-0.046,3.55,0.009,5.198c0.126,3.805,1.554,5.243,5.451,5.249c18.035,0.029,36.07-0.014,54.105,0.027
				c3.534,0.008,5.226-1.659,5.228-5.102c0.014-18.163,0.013-36.326,0.001-54.488c-0.002-3.443-1.685-5.112-5.223-5.103
				c-18.163,0.043-36.326,0.027-54.488,0.007c-3.568-0.004-5.085,1.865-5.083,5.259c0.001,2.686,0.056,5.374-0.019,8.058
				c-0.095,3.428-1.161,4.197-4.225,2.82c-2.452-1.102-4.838-1.007-6.081,1.225c-0.824,1.481-0.939,4.038-0.207,5.551
				c1.218,2.517,3.736,2.583,6.328,1.542c3.186-1.281,4.092-0.603,4.188,2.891c0.065,2.39,0.013,4.784,0.013,7.124
				c7.742,0.786,11.465,4.031,11.552,9.722C438.678,790.743,435.016,794.036,427.039,794.85z M422.319,751.081
				c0-1.511,0.006-2.778-0.001-4.045c-0.029-5.167-1.186-6.376-6.263-6.38c-17.523-0.016-35.046-0.021-52.569-0.005
				c-4.522,0.004-5.922,1.082-5.938,5.095c-0.074,18.162-0.037,36.325-0.026,54.487c0.002,3.452,1.694,5.108,5.224,5.1
				c18.034-0.042,36.069,0,54.104-0.034c4.025-0.008,5.379-1.473,5.453-5.642c0.048-2.685-0.029-5.373,0.033-8.058
				c0.062-2.65,1.218-3.987,3.892-2.589c2.512,1.313,5.022,1.311,6.411-1.088c0.84-1.451,0.921-4.043,0.18-5.548
				c-1.233-2.502-3.748-2.56-6.34-1.511c-3.161,1.28-4.057,0.587-4.146-2.938c-0.06-2.38-0.011-4.763-0.011-7.083
				c-7.758-0.771-11.493-4.045-11.565-9.752C410.682,755.165,414.261,751.956,422.319,751.081z"/>
		</g>
		<g>
			<path style="fill:#808080;" d="M246.917,146.533c3.17,0.03,6.331,1.064,9.368,1.611c2.938-0.55,5.972-1.583,9.015-1.611
				c17.267-0.159,34.536-0.09,51.804-0.071c7.906,0.009,11.209,3.294,11.217,11.158c0.019,17.268,0.017,34.537,0.001,51.805
				c-0.007,8.12-3.23,11.317-11.45,11.327c-17.268,0.021-34.537,0.084-51.804-0.069c-2.923-0.026-5.837-1.042-8.563-1.565
				c-3.365,0.539-6.782,1.529-10.207,1.561c-16.883,0.159-33.768,0.079-50.653,0.054c-8.223-0.012-11.394-3.179-11.401-11.353
				c-0.016-17.14-0.017-34.281-0.009-51.421c0.004-8.378,3.152-11.492,11.645-11.499 M258.645,205.474
				c0,1.898-0.046,3.55,0.009,5.198c0.126,3.805,1.554,5.243,5.451,5.249c18.035,0.029,36.07-0.014,54.105,0.027
				c3.534,0.008,5.226-1.659,5.228-5.102c0.014-18.163,0.013-36.326,0.001-54.488c-0.002-3.443-1.685-5.112-5.223-5.103
				c-18.163,0.043-36.326,0.027-54.488,0.007c-3.568-0.004-5.085,1.865-5.083,5.259c0.001,2.686,0.056,5.374-0.019,8.058
				c-0.095,3.428-1.161,4.197-4.225,2.82c-2.452-1.102-4.838-1.007-6.081,1.225c-0.824,1.481-0.939,4.038-0.207,5.551
				c1.218,2.517,3.736,2.583,6.328,1.542c3.186-1.281,4.092-0.603,4.188,2.891c0.065,2.39,0.013,4.784,0.013,7.124
				c7.742,0.786,11.465,4.031,11.552,9.722C270.284,201.366,266.623,204.66,258.645,205.474z M253.926,161.705
				c0-1.511,0.006-2.778-0.001-4.045c-0.029-5.167-1.186-6.376-6.263-6.38c-17.523-0.016-35.046-0.021-52.569-0.005
				c-4.522,0.004-5.922,1.082-5.938,5.095c-0.074,18.162-0.037,36.325-0.026,54.487c0.002,3.452,1.694,5.108,5.224,5.1
				c18.034-0.042,36.069,0,54.104-0.034c4.025-0.008,5.379-1.473,5.453-5.642c0.048-2.685-0.029-5.373,0.033-8.058
				c0.062-2.65,1.219-3.987,3.892-2.589c2.512,1.313,5.022,1.311,6.411-1.088c0.84-1.451,0.921-4.043,0.18-5.548
				c-1.233-2.502-3.748-2.56-6.34-1.511c-3.161,1.28-4.057,0.587-4.146-2.938c-0.06-2.38-0.011-4.763-0.011-7.084
				c-7.758-0.771-11.493-4.045-11.565-9.752C242.288,165.789,245.867,162.579,253.926,161.705z"/>
		</g>
		<g>
			<g>
				<path style="fill:#808080;" d="M783.014,454.254c6.908-6.733,14.569-12.038,23.376-15.441c12.122-4.683,24.189-4.1,35.721,1.874
					c16.313,8.45,24.182,22.339,24.894,40.451c0.398,10.109-2.714,19.417-7.056,28.381c-6.519,13.46-15.909,24.807-26.285,35.389
					c-14.26,14.543-30.024,27.267-47.021,38.479c-2.485,1.639-4.79,1.6-7.252-0.038c-21.169-14.084-40.573-30.203-57.127-49.591
					c-5.668-6.638-10.73-13.73-14.763-21.492c-4.628-8.906-8.208-18.185-8.416-28.377c-0.343-16.798,5.726-30.746,19.843-40.224
					c14.739-9.895,30.384-10.53,46.228-2.369C771.718,444.677,777.74,448.869,783.014,454.254z M783.066,462.601
					c-0.641-0.772-1.13-1.372-1.631-1.962c-5.463-6.433-12.259-11.134-19.686-14.96c-9.81-5.055-20.096-5.919-30.467-2.294
					c-16.328,5.708-26.085,19.927-26.789,37.033c-0.397,9.663,2.404,18.644,6.721,27.188c5.482,10.85,12.815,20.373,21.093,29.207
					c14.915,15.917,31.663,29.647,49.774,41.757c0.709,0.474,1.184,0.507,1.919,0.015c19.586-13.131,37.652-28.048,53.347-45.7
					c7.865-8.845,14.74-18.416,19.427-29.374c4.161-9.726,6.245-19.778,3.917-30.351c-3.186-14.468-11.677-24.582-25.576-29.625
					c-10.822-3.927-21.545-2.892-31.742,2.637C795.649,450.359,788.609,455.398,783.066,462.601z"/>
			</g>
			<path style="fill:#808080;" d="M718.491,476.865c-1.239,6.63,0.07,12.95,2.4,19.137c0.349,0.927,0.781,1.825,1.083,2.765
				c0.46,1.433-0.18,2.796-1.497,3.359c-1.32,0.565-2.859,0.131-3.458-1.243c-4.054-9.296-6.26-18.836-2.849-28.829
				c1.066-3.123,2.652-6.085,4.195-9.018c0.417-0.794,1.547-1.213,2.552-1.953c0.884,0.691,1.957,1.114,2.19,1.816
				c0.299,0.899,0.267,2.242-0.223,3.012"/>
		</g>
		<g>
			<g>
				<path style="fill:#808080;" d="M1057.221,709.119c6.908-6.733,14.569-12.038,23.376-15.441
					c12.122-4.683,24.189-4.1,35.721,1.874c16.313,8.45,24.182,22.339,24.894,40.451c0.397,10.109-2.714,19.417-7.056,28.381
					c-6.52,13.46-15.909,24.807-26.285,35.389c-14.26,14.543-30.024,27.267-47.021,38.479c-2.485,1.639-4.79,1.6-7.252-0.038
					c-21.169-14.084-40.573-30.204-57.127-49.591c-5.668-6.638-10.73-13.73-14.763-21.492c-4.628-8.906-8.208-18.185-8.416-28.378
					c-0.343-16.799,5.726-30.746,19.843-40.224c14.739-9.895,30.384-10.53,46.228-2.369
					C1045.926,699.542,1051.948,703.734,1057.221,709.119z M1057.274,717.467c-0.641-0.772-1.13-1.372-1.631-1.962
					c-5.463-6.433-12.259-11.134-19.686-14.96c-9.809-5.055-20.096-5.919-30.467-2.294c-16.328,5.708-26.085,19.927-26.789,37.033
					c-0.397,9.663,2.404,18.644,6.721,27.188c5.482,10.85,12.815,20.373,21.093,29.207c14.915,15.917,31.663,29.647,49.774,41.757
					c0.709,0.474,1.184,0.507,1.919,0.015c19.586-13.131,37.652-28.048,53.347-45.7c7.865-8.845,14.74-18.416,19.427-29.374
					c4.161-9.726,6.245-19.778,3.917-30.351c-3.186-14.468-11.677-24.582-25.576-29.625c-10.822-3.927-21.545-2.892-31.742,2.637
					C1069.857,705.224,1062.817,710.264,1057.274,717.467z"/>
			</g>
			<path style="fill:#808080;" d="M992.699,731.731c-1.239,6.63,0.07,12.95,2.4,19.137c0.349,0.927,0.781,1.825,1.083,2.765
				c0.46,1.433-0.18,2.796-1.497,3.359c-1.32,0.565-2.859,0.131-3.458-1.243c-4.054-9.296-6.26-18.836-2.849-28.829
				c1.066-3.123,2.652-6.085,4.195-9.018c0.418-0.794,1.547-1.213,2.552-1.953c0.884,0.691,1.957,1.114,2.19,1.816
				c0.299,0.899,0.267,2.242-0.223,3.012"/>
		</g>
		<g>
			<g>
				<g>
					<path style="fill:#808080;" d="M1174.497,405.909c-1.516-1.376-2.874-2.843-4.037-4.361c-2.619-3.419-4.141-7.299-5.174-10.299
						c-2.651-7.694-4.163-16.274-4.763-27c-0.065-1.177-0.104-2.356-0.143-3.535c-0.067-2.005-0.134-4.078-0.343-6.089
						c-0.776-7.465-3.707-14.155-8.713-19.883c-4.43-5.071-9.882-8.926-16.668-11.784c-0.262-0.111-1.135-0.53-1.434-1.308
						c-2.253-5.922-6.451-9.211-12.839-10.055c-0.651-0.086-1.301-0.128-1.946-0.128c-6.25,0-12.025,3.95-14.18,9.938
						c-0.267,0.737-0.717,1.191-1.462,1.472c-4.297,1.628-7.875,3.656-10.935,6.199c-9.282,7.716-14.316,18.152-14.964,31.017
						c-0.055,1.109-0.102,2.218-0.151,3.326c-0.176,4.052-0.358,8.243-0.925,12.359c-1.15,8.35-3.055,15.008-5.996,20.954
						c-1.44,2.911-3.322,6.243-6.354,8.884c-3.472,3.023-5.907,6.659-7.242,10.804c-0.886,2.764-1.576,5.27-1.036,7.939
						c1.692,8.336,7.331,13.097,15.49,13.097c0.089,0,0.176-0.001,0.267-0.002c11.125-0.138,22.436-0.109,33.375-0.08
						c4.386,0.012,8.773,0.023,13.158,0.025v-0.035l48.483-0.003c0.787,0,1.578-0.004,2.364-0.055
						c10.133-0.646,13.828-8.203,13.915-14.477C1182.333,416.355,1179.728,410.661,1174.497,405.909z M1175.328,429.831
						c-1.857,2.046-4.59,3.236-7.698,3.352c-0.468,0.018-0.938,0.018-1.407,0.018l-85.05,0.012l-0.008,0.144
						c-0.136-0.006-1.395-0.024-2.97-0.046c-1.845,0.007-4.595-0.018-8.644-0.061c-1.89-0.075-3.487-0.521-4.905-1.366
						c-3.161-1.883-4.324-5.021-4.984-7.544c-0.5-1.901-0.096-3.658,0.403-5.44c1.157-4.131,3.371-7.609,6.584-10.336
						c3.628-3.079,5.892-7.218,7.462-10.479c3.399-7.079,5.499-15.031,6.414-24.309c0.29-2.923,0.418-5.922,0.542-8.822
						c0.072-1.666,0.143-3.331,0.243-4.995c0.727-12.025,5.51-21.56,14.212-28.341c3.043-2.37,6.542-4.168,10.695-5.496
						c1.106-0.354,1.66-0.969,1.91-2.122c1.061-4.892,5.402-8.303,10.559-8.303c0.008,0,0.017,0,0.025,0
						c5.139,0.011,9.47,3.408,10.531,8.26c0.265,1.211,0.849,1.86,2.085,2.315c9.533,3.514,16.305,9.117,20.705,17.13
						c2.528,4.606,3.838,9.797,3.893,15.432c0.106,10.703,1.318,20.159,3.707,28.908c1.865,6.842,4.027,11.736,7.009,15.869
						c1.355,1.877,2.958,3.665,4.766,5.314c4.029,3.676,6.139,7.994,6.451,13.205
						C1178.038,425.099,1177.138,427.835,1175.328,429.831z"/>
				</g>
				<g>
					<path style="fill:#808080;" d="M1140.807,442.473c-1.031-0.353-1.986,0.255-2.441,1.552c-1.123,3.193-3.08,5.787-5.818,7.711
						c-6.952,4.887-14.675,5.807-22.958,2.735c-4.628-1.715-8.019-4.681-10.082-8.816c-0.2-0.4-0.361-0.817-0.522-1.235
						c-0.112-0.295-0.227-0.59-0.356-0.877c-0.327-0.719-0.964-1.136-1.719-1.136c-0.052,0-0.104,0.002-0.158,0.006
						c-0.646,0.049-1.385,0.525-1.543,1.343c-0.109,0.564-0.079,1.2,0.079,1.701c0.838,2.626,2.312,5.039,4.38,7.171
						c4.804,4.944,11.019,7.56,18.474,7.776c6.097-0.091,10.982-1.495,15.372-4.419c4.203-2.8,6.972-6.292,8.461-10.677
						C1142.397,444.067,1141.895,442.848,1140.807,442.473z"/>
				</g>
			</g>
			<path style="fill:#808080;" d="M1101.997,344.531c-3.927,3.881-5.996,8.743-7.316,13.991c-0.198,0.786-0.326,1.592-0.562,2.365
				c-0.359,1.178-1.426,1.796-2.574,1.561c-1.151-0.236-1.984-1.247-1.746-2.45c1.611-8.144,4.579-15.59,11.536-20.72
				c2.174-1.603,4.623-2.855,7.03-4.108c0.651-0.339,1.607-0.094,2.628-0.123c0.272,0.878,0.796,1.662,0.625,2.243
				c-0.219,0.744-0.867,1.633-1.556,1.922"/>
		</g>
		<g>
			<g>
				<path style="fill:#808080;" d="M783.258,761.054c35.738,0.022,66.855,25.761,73.153,60.771
					c3.314,18.418,0.209,35.814-9.402,51.948c-1.102,1.851-1.641,3.564-1.316,5.823c0.964,6.713,1.622,13.471,2.361,20.216
					c0.439,4.011-0.115,4.615-4.066,4.024c-7.08-1.059-14.13-2.328-21.22-3.315c-1.459-0.203-3.23,0.075-4.533,0.754
					c-41.53,21.635-91.472,1.385-106.181-43.114c-9.875-29.875,1.456-64.306,27.12-82.748
					C752.372,765.93,766.973,760.95,783.258,761.054z M843.917,899.706c-0.615-5.381-1.207-10.14-1.689-14.909
					c-0.474-4.699-1.327-9.095,1.583-13.827c9.158-14.894,11.694-31.271,8.585-48.419c-5.779-31.878-34.058-56.567-67.153-57.533
					c-30.484-0.89-59.964,19.083-68.975,48.27c-8.358,27.072-2.696,51.234,16.944,71.816c20.405,21.384,54.966,27.177,81.116,13.493
					c4.076-2.133,7.768-2.611,12.119-1.704C832.044,898.059,837.741,898.736,843.917,899.706z"/>
			</g>
			<g>
				<path style="fill:#808080;" d="M730.5,823.774c0.968-14.878,7.962-25.412,18.82-33.624c8.225-6.22,17.483-9.892,27.908-10.244
					c1.458-0.049,3.354-0.532,3.509,1.693c0.168,2.407-1.838,2.173-3.412,2.244c-18.431,0.84-36.338,14.304-41.359,31.272
					c-0.765,2.585-0.721,5.403-1.38,8.031c-0.254,1.014-1.423,1.798-2.175,2.687C731.632,824.994,730.854,824.156,730.5,823.774z"/>
			</g>
			<g>
				<path style="fill:#808080;" d="M730.151,837.006c0.729-0.67,1.565-1.439,2.402-2.208c0.667,0.848,1.667,1.603,1.936,2.563
					c0.633,2.255,1.099,4.595,1.252,6.926c0.061,0.934-0.877,1.933-1.361,2.903c-0.812-0.608-2.098-1.066-2.347-1.852
					C731.244,842.841,730.842,840.223,730.151,837.006z"/>
			</g>
		</g>
		<g>
			<path style="fill:#808080;" d="M1008.129,1018.565c3.17,0.03,6.331,1.064,9.368,1.611c2.938-0.55,5.972-1.583,9.015-1.611
				c17.267-0.159,34.536-0.09,51.804-0.071c7.906,0.009,11.209,3.294,11.217,11.158c0.019,17.268,0.017,34.537,0.001,51.805
				c-0.007,8.12-3.23,11.317-11.45,11.327c-17.268,0.021-34.537,0.084-51.804-0.069c-2.923-0.026-5.837-1.042-8.563-1.565
				c-3.365,0.539-6.782,1.529-10.207,1.562c-16.883,0.159-33.768,0.079-50.653,0.054c-8.224-0.012-11.394-3.179-11.401-11.353
				c-0.016-17.14-0.017-34.281-0.009-51.421c0.004-8.378,3.152-11.492,11.645-11.499 M1019.858,1077.506
				c0,1.898-0.046,3.55,0.009,5.198c0.126,3.805,1.554,5.243,5.451,5.249c18.035,0.029,36.07-0.014,54.105,0.027
				c3.534,0.008,5.226-1.659,5.228-5.102c0.014-18.163,0.013-36.326,0.001-54.488c-0.002-3.443-1.685-5.112-5.223-5.103
				c-18.163,0.043-36.326,0.027-54.488,0.007c-3.568-0.004-5.085,1.865-5.083,5.259c0.001,2.686,0.056,5.374-0.019,8.058
				c-0.095,3.428-1.161,4.197-4.225,2.82c-2.452-1.102-4.838-1.007-6.081,1.225c-0.824,1.481-0.939,4.038-0.207,5.551
				c1.218,2.517,3.736,2.583,6.328,1.542c3.186-1.281,4.092-0.604,4.188,2.891c0.065,2.39,0.013,4.784,0.013,7.124
				c7.742,0.786,11.465,4.031,11.552,9.722C1031.497,1073.398,1027.835,1076.692,1019.858,1077.506z M1015.138,1033.736
				c0-1.511,0.006-2.778-0.001-4.045c-0.029-5.167-1.186-6.376-6.263-6.38c-17.523-0.016-35.046-0.021-52.569-0.005
				c-4.522,0.004-5.922,1.082-5.938,5.095c-0.074,18.162-0.036,36.325-0.026,54.487c0.002,3.452,1.694,5.108,5.224,5.1
				c18.034-0.042,36.069,0,54.104-0.034c4.025-0.008,5.379-1.473,5.453-5.642c0.048-2.685-0.029-5.373,0.033-8.058
				c0.062-2.65,1.219-3.987,3.892-2.589c2.512,1.313,5.022,1.311,6.411-1.088c0.84-1.451,0.921-4.043,0.18-5.548
				c-1.233-2.502-3.748-2.56-6.34-1.511c-3.161,1.28-4.057,0.587-4.146-2.938c-0.06-2.38-0.011-4.763-0.011-7.083
				c-7.758-0.771-11.493-4.045-11.565-9.752C1003.501,1037.821,1007.08,1034.611,1015.138,1033.736z"/>
		</g>
		<g>
			<path style="fill:#808080;" d="M456.296,1422.241c3.17,0.03,6.331,1.064,9.368,1.611c2.938-0.55,5.972-1.583,9.015-1.611
				c17.267-0.158,34.536-0.09,51.804-0.071c7.906,0.009,11.209,3.294,11.217,11.158c0.019,17.268,0.017,34.536,0.001,51.805
				c-0.007,8.12-3.23,11.317-11.45,11.327c-17.268,0.021-34.537,0.083-51.804-0.069c-2.923-0.026-5.837-1.042-8.563-1.564
				c-3.365,0.539-6.782,1.529-10.207,1.561c-16.883,0.159-33.768,0.079-50.653,0.054c-8.223-0.012-11.394-3.179-11.401-11.353
				c-0.016-17.14-0.017-34.281-0.009-51.421c0.004-8.378,3.152-11.492,11.645-11.499 M468.024,1481.182
				c0,1.898-0.046,3.55,0.009,5.198c0.126,3.805,1.554,5.243,5.451,5.249c18.035,0.029,36.07-0.015,54.105,0.027
				c3.534,0.008,5.226-1.659,5.228-5.102c0.014-18.163,0.013-36.326,0.001-54.488c-0.002-3.443-1.685-5.112-5.223-5.103
				c-18.163,0.043-36.326,0.027-54.488,0.007c-3.568-0.004-5.085,1.865-5.083,5.259c0.001,2.686,0.056,5.374-0.019,8.058
				c-0.095,3.428-1.161,4.197-4.225,2.82c-2.452-1.103-4.838-1.007-6.081,1.225c-0.824,1.481-0.939,4.038-0.207,5.551
				c1.218,2.517,3.736,2.583,6.328,1.542c3.186-1.281,4.092-0.603,4.188,2.891c0.065,2.39,0.013,4.784,0.013,7.124
				c7.742,0.786,11.465,4.031,11.552,9.722C479.663,1477.074,476.002,1480.368,468.024,1481.182z M463.305,1437.412
				c0-1.511,0.006-2.778-0.001-4.045c-0.029-5.167-1.186-6.376-6.263-6.38c-17.523-0.016-35.046-0.021-52.569-0.005
				c-4.522,0.004-5.922,1.082-5.938,5.095c-0.074,18.162-0.037,36.325-0.026,54.487c0.002,3.452,1.694,5.108,5.224,5.1
				c18.034-0.042,36.069,0,54.104-0.034c4.025-0.008,5.379-1.473,5.453-5.642c0.048-2.685-0.029-5.373,0.033-8.057
				c0.062-2.65,1.219-3.987,3.892-2.589c2.512,1.313,5.022,1.311,6.411-1.088c0.84-1.451,0.921-4.043,0.18-5.548
				c-1.233-2.502-3.748-2.56-6.34-1.511c-3.161,1.28-4.057,0.587-4.146-2.938c-0.06-2.38-0.011-4.763-0.011-7.083
				c-7.758-0.771-11.493-4.045-11.565-9.752C451.667,1441.497,455.246,1438.287,463.305,1437.412z"/>
		</g>
		<g>
			<path style="fill:#808080;" d="M796.496,1957.003c3.17,0.03,6.331,1.064,9.368,1.611c2.938-0.55,5.972-1.583,9.015-1.611
				c17.267-0.159,34.536-0.09,51.804-0.071c7.906,0.009,11.209,3.294,11.217,11.158c0.019,17.268,0.017,34.537,0.001,51.805
				c-0.007,8.12-3.23,11.317-11.45,11.327c-17.268,0.021-34.537,0.084-51.804-0.069c-2.923-0.026-5.837-1.042-8.563-1.565
				c-3.365,0.539-6.782,1.529-10.207,1.562c-16.883,0.159-33.768,0.079-50.653,0.054c-8.224-0.012-11.394-3.179-11.401-11.353
				c-0.016-17.14-0.017-34.281-0.009-51.421c0.004-8.378,3.152-11.492,11.645-11.499 M808.224,2015.944
				c0,1.898-0.046,3.55,0.009,5.198c0.126,3.805,1.554,5.243,5.451,5.249c18.035,0.029,36.07-0.015,54.105,0.027
				c3.534,0.008,5.226-1.659,5.228-5.102c0.014-18.163,0.013-36.326,0.001-54.488c-0.002-3.443-1.685-5.112-5.223-5.103
				c-18.163,0.043-36.326,0.027-54.488,0.007c-3.568-0.004-5.085,1.865-5.083,5.259c0.001,2.686,0.056,5.374-0.019,8.058
				c-0.095,3.428-1.161,4.197-4.225,2.82c-2.452-1.103-4.838-1.007-6.081,1.225c-0.824,1.481-0.939,4.038-0.207,5.551
				c1.218,2.517,3.736,2.583,6.328,1.542c3.186-1.281,4.092-0.603,4.188,2.891c0.065,2.39,0.013,4.784,0.013,7.124
				c7.742,0.786,11.465,4.031,11.552,9.722C819.863,2011.836,816.202,2015.13,808.224,2015.944z M803.505,1972.175
				c0-1.511,0.006-2.778-0.001-4.045c-0.029-5.167-1.186-6.376-6.263-6.38c-17.523-0.016-35.046-0.021-52.569-0.005
				c-4.522,0.004-5.922,1.082-5.938,5.095c-0.074,18.162-0.036,36.325-0.026,54.487c0.002,3.452,1.694,5.108,5.224,5.1
				c18.034-0.043,36.069,0,54.104-0.034c4.025-0.008,5.379-1.473,5.453-5.642c0.048-2.685-0.029-5.373,0.033-8.057
				c0.062-2.65,1.219-3.987,3.892-2.589c2.512,1.313,5.022,1.311,6.411-1.088c0.84-1.451,0.921-4.043,0.18-5.548
				c-1.233-2.502-3.748-2.56-6.34-1.511c-3.161,1.28-4.057,0.587-4.146-2.938c-0.06-2.38-0.011-4.763-0.011-7.083
				c-7.758-0.771-11.493-4.045-11.565-9.752C791.867,1976.259,795.446,1973.049,803.505,1972.175z"/>
		</g>
		<g>
			<path style="fill:#808080;" d="M23.353,1408.67c3.17,0.031,6.331,1.064,9.368,1.611c2.938-0.55,5.972-1.583,9.015-1.611
				c17.267-0.159,34.536-0.09,51.804-0.071c7.906,0.009,11.209,3.294,11.217,11.158c0.019,17.268,0.017,34.537,0.001,51.805
				c-0.007,8.12-3.23,11.317-11.45,11.327c-17.268,0.021-34.537,0.083-51.804-0.069c-2.923-0.026-5.837-1.042-8.563-1.564
				c-3.365,0.539-6.782,1.529-10.207,1.561c-16.883,0.159-33.768,0.079-50.653,0.054c-8.223-0.012-11.394-3.179-11.401-11.354
				c-0.016-17.14-0.017-34.281-0.009-51.421c0.004-8.378,3.152-11.492,11.645-11.499 M35.082,1467.61
				c0,1.898-0.046,3.55,0.009,5.198c0.126,3.805,1.554,5.243,5.451,5.249c18.035,0.029,36.07-0.014,54.105,0.027
				c3.534,0.008,5.226-1.659,5.228-5.101c0.014-18.163,0.013-36.326,0.001-54.488c-0.002-3.443-1.685-5.112-5.223-5.103
				c-18.163,0.043-36.326,0.027-54.488,0.007c-3.568-0.004-5.085,1.865-5.083,5.259c0.001,2.686,0.056,5.374-0.019,8.058
				c-0.095,3.428-1.161,4.197-4.225,2.82c-2.452-1.102-4.838-1.007-6.081,1.225c-0.824,1.481-0.939,4.039-0.207,5.551
				c1.218,2.517,3.736,2.583,6.328,1.542c3.186-1.281,4.092-0.603,4.188,2.891c0.065,2.39,0.013,4.784,0.013,7.124
				c7.742,0.786,11.465,4.031,11.552,9.722C46.72,1463.503,43.059,1466.796,35.082,1467.61z M30.362,1423.841
				c0-1.511,0.006-2.778-0.001-4.045c-0.029-5.167-1.186-6.376-6.263-6.38c-17.523-0.016-35.046-0.021-52.569-0.005
				c-4.522,0.004-5.922,1.082-5.938,5.095c-0.074,18.162-0.037,36.325-0.026,54.487c0.002,3.452,1.694,5.108,5.224,5.1
				c18.034-0.042,36.069,0,54.104-0.034c4.025-0.008,5.379-1.473,5.453-5.642c0.048-2.685-0.029-5.373,0.033-8.057
				c0.062-2.65,1.219-3.987,3.892-2.589c2.512,1.313,5.022,1.311,6.411-1.088c0.84-1.451,0.921-4.043,0.18-5.548
				c-1.233-2.502-3.748-2.56-6.34-1.511c-3.161,1.28-4.057,0.587-4.146-2.938c-0.06-2.38-0.011-4.763-0.011-7.083
				c-7.758-0.771-11.493-4.045-11.565-9.752C18.724,1427.926,22.303,1424.716,30.362,1423.841z"/>
		</g>
		<g>
			<g>
				<path style="fill:#808080;" d="M1097.184,1370.465c35.738,0.022,66.855,25.761,73.153,60.771
					c3.314,18.418,0.209,35.814-9.402,51.948c-1.102,1.851-1.64,3.564-1.316,5.823c0.964,6.713,1.622,13.471,2.361,20.216
					c0.439,4.011-0.115,4.615-4.066,4.024c-7.08-1.059-14.13-2.328-21.22-3.315c-1.459-0.203-3.23,0.075-4.533,0.754
					c-41.53,21.635-91.472,1.385-106.181-43.114c-9.875-29.875,1.456-64.306,27.12-82.748
					C1066.298,1375.341,1080.899,1370.361,1097.184,1370.465z M1157.844,1509.117c-0.615-5.381-1.207-10.14-1.688-14.909
					c-0.474-4.699-1.327-9.095,1.583-13.827c9.158-14.894,11.694-31.271,8.585-48.419c-5.779-31.878-34.058-56.567-67.153-57.533
					c-30.484-0.89-59.964,19.083-68.975,48.27c-8.358,27.072-2.696,51.234,16.944,71.816c20.405,21.384,54.966,27.177,81.116,13.493
					c4.076-2.133,7.768-2.61,12.119-1.704C1145.97,1507.47,1151.667,1508.147,1157.844,1509.117z"/>
			</g>
			<g>
				<path style="fill:#808080;" d="M1044.426,1433.185c0.968-14.878,7.962-25.412,18.82-33.624
					c8.224-6.22,17.483-9.892,27.907-10.244c1.458-0.049,3.354-0.532,3.509,1.693c0.168,2.407-1.838,2.173-3.412,2.244
					c-18.431,0.84-36.338,14.304-41.359,31.272c-0.765,2.585-0.721,5.403-1.38,8.031c-0.254,1.014-1.423,1.798-2.175,2.687
					C1045.558,1434.405,1044.781,1433.567,1044.426,1433.185z"/>
			</g>
			<g>
				<path style="fill:#808080;" d="M1044.077,1446.417c0.729-0.671,1.565-1.439,2.401-2.208c0.667,0.848,1.667,1.603,1.936,2.563
					c0.633,2.255,1.099,4.595,1.252,6.926c0.061,0.934-0.877,1.933-1.361,2.903c-0.812-0.608-2.098-1.066-2.347-1.852
					C1045.17,1452.252,1044.768,1449.634,1044.077,1446.417z"/>
			</g>
		</g>
		<g>
			<g>
				<path style="fill:#808080;" d="M917.413,1170.214c35.738,0.022,66.855,25.761,73.153,60.771
					c3.314,18.418,0.209,35.814-9.402,51.948c-1.102,1.851-1.641,3.563-1.316,5.823c0.964,6.713,1.622,13.471,2.361,20.216
					c0.439,4.011-0.115,4.615-4.066,4.024c-7.08-1.059-14.13-2.328-21.22-3.315c-1.459-0.203-3.23,0.075-4.533,0.754
					c-41.53,21.635-91.472,1.385-106.181-43.114c-9.875-29.875,1.456-64.306,27.12-82.748
					C886.527,1175.089,901.128,1170.11,917.413,1170.214z M978.072,1308.866c-0.614-5.381-1.207-10.14-1.688-14.909
					c-0.474-4.699-1.327-9.095,1.583-13.827c9.158-14.894,11.694-31.271,8.585-48.419c-5.779-31.878-34.058-56.567-67.153-57.533
					c-30.484-0.89-59.964,19.083-68.975,48.27c-8.358,27.072-2.696,51.234,16.944,71.816c20.405,21.384,54.966,27.177,81.116,13.493
					c4.076-2.133,7.768-2.611,12.119-1.704C966.199,1307.218,971.896,1307.896,978.072,1308.866z"/>
			</g>
			<g>
				<path style="fill:#808080;" d="M864.654,1232.933c0.968-14.878,7.962-25.412,18.82-33.624
					c8.224-6.22,17.483-9.892,27.907-10.244c1.459-0.049,3.354-0.532,3.509,1.693c0.168,2.407-1.838,2.172-3.412,2.244
					c-18.431,0.84-36.338,14.304-41.359,31.272c-0.765,2.585-0.721,5.403-1.38,8.031c-0.254,1.014-1.423,1.798-2.175,2.687
					C865.787,1234.153,865.009,1233.315,864.654,1232.933z"/>
			</g>
			<g>
				<path style="fill:#808080;" d="M864.306,1246.166c0.729-0.67,1.565-1.439,2.402-2.208c0.667,0.848,1.667,1.603,1.936,2.563
					c0.633,2.255,1.099,4.595,1.252,6.926c0.061,0.934-0.877,1.933-1.361,2.903c-0.812-0.608-2.098-1.066-2.347-1.852
					C865.399,1252.001,864.997,1249.382,864.306,1246.166z"/>
			</g>
		</g>
	</g>
</g>
</svg>
