<?xml version="1.0" encoding="utf-8"?>
<!-- Generator: Adobe Illustrator 24.0.1, SVG Export Plug-In . SVG Version: 6.00 Build 0)  -->
<svg version="1.1" id="Layer_1" xmlns="http://www.w3.org/2000/svg" xmlns:xlink="http://www.w3.org/1999/xlink" x="0px" y="0px"
	 viewBox="0 0 1125 1406" style="enable-background:new 0 0 1125 1406;" xml:space="preserve">
<style type="text/css">
	.st0{clip-path:url(#SVGID_2_);}
	.st1{fill:url(#SVGID_3_);}
	.st2{fill:#FFFFFF;}
	.st3{opacity:0.53;}
	.st4{fill:url(#SVGID_4_);}
	.st5{fill:url(#SVGID_5_);}
	.st6{opacity:0.25;}
	.st7{fill:url(#SVGID_6_);}
</style>
<g>
	<g>
		<g>
			<defs>
				<rect id="SVGID_1_" y="-1" width="1125" height="1406"/>
			</defs>
			<clipPath id="SVGID_2_">
				<use xlink:href="#SVGID_1_"  style="overflow:visible;"/>
			</clipPath>
			<g class="st0">
				<g>
					<g>
						
							<linearGradient id="SVGID_3_" gradientUnits="userSpaceOnUse" x1="650.892" y1="-1208.0647" x2="2269.3528" y2="1365.2834" gradientTransform="matrix(0.981 -0.194 -0.194 -0.981 -1129.6167 527.27)">
							<stop  offset="0" style="stop-color:#A72051"/>
							<stop  offset="0.6704" style="stop-color:#D61F5F"/>
						</linearGradient>
						<path class="st1" d="M-372.1,1396C435.7,1396,671.7-352,1784,265.1v-1333.6c-367.1-415.2-958.9-351.2-1538.4,302.4
							C-347-97.8-646,33.1-1101.3-212.1V1396H-372.1z"/>
						<path class="st2" d="M-263.2,1396h128.1h55C540.2,1357.9,827.8,17.6,1784,580.2v-258C727.9-263.7,503.8,1396-263.2,1396z"/>
					</g>
					<g class="st3">
						
							<linearGradient id="SVGID_4_" gradientUnits="userSpaceOnUse" x1="506.6" y1="238.5" x2="506.6" y2="1268.9" gradientTransform="matrix(1 0 0 1 0 -1028)">
							<stop  offset="0" style="stop-color:#FFFFFF"/>
							<stop  offset="1" style="stop-color:#000000"/>
						</linearGradient>
						<ellipse class="st4" cx="506.6" cy="-274.3" rx="1337.3" ry="515.2"/>
					</g>
				</g>
				<g>
					
						<linearGradient id="SVGID_5_" gradientUnits="userSpaceOnUse" x1="648.176" y1="-1221.7988" x2="2266.6367" y2="1351.5493" gradientTransform="matrix(0.981 -0.194 -0.194 -0.981 -1129.6167 527.27)">
						<stop  offset="0" style="stop-color:#A72051"/>
						<stop  offset="0.6704" style="stop-color:#D61F5F"/>
					</linearGradient>
					<path class="st5" d="M-372.1,1410C435.7,1410,671.7-338,1784,279.1v-1333.6c-367.1-415.2-958.9-351.2-1538.4,302.4
						C-347-83.8-646,47.1-1101.3-198.1V1410H-372.1z"/>
					<path class="st2" d="M-263.2,1410h128.1h55C540.2,1371.9,827.8,31.6,1784,594.2v-258C727.9-249.7,503.8,1410-263.2,1410z"/>
				</g>
				<g class="st6">
					<linearGradient id="SVGID_6_" gradientUnits="userSpaceOnUse" x1="-830.7001" y1="-283.3" x2="1843.9" y2="-283.3">
						<stop  offset="0" style="stop-color:#FFFFFF"/>
						<stop  offset="1" style="stop-color:#000000"/>
					</linearGradient>
					<ellipse class="st7" cx="506.6" cy="-283.3" rx="1337.3" ry="515.2"/>
				</g>
			</g>
		</g>
	</g>
</g>
</svg>
