<svg xmlns="http://www.w3.org/2000/svg" xmlns:xlink="http://www.w3.org/1999/xlink" viewBox="0 0 1366 1179"><defs><style>.cls-1{fill:none;}.cls-2{isolation:isolate;}.cls-3{clip-path:url(#clip-path);}.cls-4{fill:url(#linear-gradient);}.cls-5{fill:#fff;mix-blend-mode:soft-light;}.cls-6{opacity:0.53;mix-blend-mode:screen;}.cls-7{fill:url(#linear-gradient-2);}.cls-8{fill:url(#linear-gradient-4);}</style><clipPath id="clip-path"><rect class="cls-1" x="-0.45" y="0.19" width="1366.45" height="935.81"/></clipPath><linearGradient id="linear-gradient" x1="1018.2" y1="-575.83" x2="2342.74" y2="1530.19" gradientTransform="matrix(0.98, -0.19, -0.19, -0.98, -1189.2, 946.8)" gradientUnits="userSpaceOnUse"><stop offset="0" stop-color="#a72051"/><stop offset="0.67" stop-color="#d61f5f"/></linearGradient><linearGradient id="linear-gradient-2" x1="614.87" y1="-513.98" x2="614.87" y2="171.88" gradientUnits="userSpaceOnUse"><stop offset="0" stop-color="#fff"/><stop offset="1"/></linearGradient><linearGradient id="linear-gradient-4" x1="614.87" y1="-533.98" x2="614.87" y2="151.88" xlink:href="#linear-gradient-2"/></defs><title>Signup page header pc</title><g class="cls-2"><g id="Layer_1" data-name="Layer 1"><g class="cls-3"><path class="cls-4" d="M-452.4,940.66c981.18,0,1267.8-1163.43,2618.83-752.72V-699.65C1720.58-976,1001.68-933.42,297.84-498.4-421.86-53.58-785,33.5-1338.15-129.67V940.66Z"/><path class="cls-5" d="M-320.15,940.66H-97.79C655.69,915.29,1005,23.25,2166.43,397.66V226C883.63-164,611.48,940.66-320.15,940.66Z"/><g class="cls-6"><ellipse class="cls-7" cx="614.87" cy="-171.05" rx="1624.34" ry="342.93"/></g><path class="cls-4" d="M-452.4,940.66c981.18,0,1267.8-1163.43,2618.83-752.72V-699.65C1720.58-976,1001.68-933.42,297.84-498.4-421.86-53.58-785,33.5-1338.15-129.67V940.66Z"/><path class="cls-5" d="M-320.15,940.66H-97.79C655.69,915.29,1005,23.25,2166.43,397.66V226C883.63-164,611.48,940.66-320.15,940.66Z"/><g class="cls-6"><ellipse class="cls-8" cx="614.87" cy="-191.05" rx="1624.34" ry="342.93"/></g></g></g></g></svg>