<?xml version="1.0" encoding="iso-8859-1"?>
<!-- Generator: Adobe Illustrator 24.0.2, SVG Export Plug-In . SVG Version: 6.00 Build 0)  -->
<svg version="1.1" id="Layer_1" xmlns="http://www.w3.org/2000/svg" xmlns:xlink="http://www.w3.org/1999/xlink" x="0px" y="0px"
	 viewBox="0 0 1125 1406" style="enable-background:new 0 0 1125 1406;" xml:space="preserve">
<g>
	<defs>
		<rect id="SVGID_1_" y="0" width="1125" height="1406"/>
	</defs>
	<clipPath id="SVGID_2_">
		<use xlink:href="#SVGID_1_"  style="overflow:visible;"/>
	</clipPath>
	<g style="clip-path:url(#SVGID_2_);">
		<g>
			<g>
				
					<linearGradient id="SVGID_3_" gradientUnits="userSpaceOnUse" x1="847.0119" y1="-216.2615" x2="2465.4729" y2="2357.0867" gradientTransform="matrix(0.981 -0.194 -0.194 -0.981 -1129.6167 1555.27)">
					<stop  offset="0" style="stop-color:#A72051"/>
					<stop  offset="0.6704" style="stop-color:#D61F5F"/>
				</linearGradient>
				<path style="fill:url(#SVGID_3_);" d="M-372.093,1412.999c807.811,0,1043.785-1747.98,2156.094-1130.908v-1333.555
					c-367.072-415.15-958.943-351.225-1538.42,302.371C-346.952-80.774-645.961,50.051-1101.336-195.095v1608.094H-372.093z"/>
				<path style="fill:#FFFFFF;" d="M-263.215,1412.999h128.059h55.014C540.2,1374.88,827.752,34.649,1784,597.183V339.2
					C727.861-246.712,503.803,1412.999-263.215,1412.999z"/>
			</g>
			<g style="opacity:0.53;">
				<linearGradient id="SVGID_4_" gradientUnits="userSpaceOnUse" x1="506.5895" y1="-772.5007" x2="506.5895" y2="257.9557">
					<stop  offset="0" style="stop-color:#FFFFFF"/>
					<stop  offset="1" style="stop-color:#000000"/>
				</linearGradient>
				<ellipse style="fill:url(#SVGID_4_);" cx="506.589" cy="-257.272" rx="1337.323" ry="515.228"/>
			</g>
		</g>
		<g>
			
				<linearGradient id="SVGID_5_" gradientUnits="userSpaceOnUse" x1="847.0119" y1="-216.2615" x2="2465.4729" y2="2357.0867" gradientTransform="matrix(0.981 -0.194 -0.194 -0.981 -1129.6167 1555.27)">
				<stop  offset="0" style="stop-color:#A72051"/>
				<stop  offset="0.6704" style="stop-color:#D61F5F"/>
			</linearGradient>
			<path style="fill:url(#SVGID_5_);" d="M-372.093,1412.999c807.811,0,1043.785-1747.98,2156.094-1130.908v-1333.555
				c-367.072-415.15-958.943-351.225-1538.42,302.371C-346.952-80.774-645.961,50.051-1101.336-195.095v1608.094H-372.093z"/>
			<path style="fill:#FFFFFF;" d="M-263.215,1412.999h128.059h55.014C540.2,1374.88,827.752,34.649,1784,597.183V339.2
				C727.861-246.712,503.803,1412.999-263.215,1412.999z"/>
		</g>
		<g style="opacity:0.53;">
			<linearGradient id="SVGID_6_" gradientUnits="userSpaceOnUse" x1="506.5895" y1="-772.5007" x2="506.5895" y2="257.9557">
				<stop  offset="0" style="stop-color:#FFFFFF"/>
				<stop  offset="1" style="stop-color:#000000"/>
			</linearGradient>
			<ellipse style="fill:url(#SVGID_6_);" cx="506.589" cy="-257.272" rx="1337.323" ry="515.228"/>
		</g>
	</g>
</g>
</svg>
